<?xml version="1.0" encoding="UTF-8"?>
<!DOCTYPE svg PUBLIC "-//W3C//DTD SVG 1.1//EN" "http://www.w3.org/Graphics/SVG/1.1/DTD/svg11.dtd">
<!-- Creator: CorelDRAW 2020 (64 Bit) -->
<svg xmlns="http://www.w3.org/2000/svg" xml:space="preserve" width="42.3332mm" height="42.3332mm" version="1.1" style="shape-rendering:geometricPrecision; text-rendering:geometricPrecision; image-rendering:optimizeQuality; fill-rule:evenodd; clip-rule:evenodd"
viewBox="0 0 4233.32 4233.32"
 xmlns:xlink="http://www.w3.org/1999/xlink"
 xmlns:xodm="http://www.corel.com/coreldraw/odm/2003">
 <defs>
  <style type="text/css">
   <![CDATA[
    .fil0 {fill:white}
   ]]>
  </style>
 </defs>
 <g id="Camada_x0020_1">
  <metadata id="CorelCorpID_0Corel-Layer"/>
  <g id="_1528910613424">
   <path class="fil0" d="M3775.76 3419.87l256.5 0 0 577.13 -256.5 0 0 -577.13zm-1915.75 320.63l625.23 0c241.39,0 432.94,113 529.03,256.5l-1683.29 0c96.09,-143.5 287.64,-256.5 529.03,-256.5zm-1547.02 -256.5l256.5 0 0 513 -256.5 0 0 -513zm2500.89 -344.68l0 -40.07c169.25,0 276.94,116.77 288.56,256.49 -268.65,0 -196.25,-31.65 -304.59,-104.2 3.48,-41.93 16.03,-61.04 16.03,-112.22zm-1571.07 216.42c2.34,-28.13 22.14,-81.83 31.99,-104.28l48.88 -71.34c50.56,-52.43 109.37,-80.87 207.69,-80.87 0,105.89 10.99,91.63 16.03,152.29 -108.45,72.62 -35.66,104.2 -304.59,104.2zm416.82 -280.54c0,-164.84 -24.33,-355.68 177.1,-424.06 175.3,-59.51 91.21,-33.1 189.84,33.06 209,140.17 659.06,-59.12 659.06,294.81 0,109.7 2.99,216.85 -40.08,312.61 -32.28,71.77 -55.94,105.05 -104.25,160.27 -150.1,171.55 -457.39,216.3 -659.74,66.66 -136.25,-100.76 -221.93,-237.07 -221.93,-443.35zm-601.18 408.8c142.72,0 347.76,20.46 448.54,-32.41 50.73,-26.61 66.16,-55.68 96.53,-63.78 10.48,44.98 49.82,89.28 76.65,123.74 46.55,59.79 83.97,77.22 99.68,100.69 -146.24,0 -354.9,96.64 -443.01,182.21 -13.09,12.73 -18.51,19.2 -32.37,31.76l-32.09 32.02c-46.52,50.84 -97.85,138.77 -117.74,138.77l-456.89 0 0 -897.75 -128.26 0 0 256.49 -256.5 0c0,-218.42 -20.41,-387.82 102.47,-570.85 32.9,-49.02 61.52,-81.39 106.97,-117.47 95.22,-75.59 140.95,-94.51 260.24,-124.5 36.44,-9.17 98.01,-26.04 131.5,-28.82l122.12 480.47c74.06,-17.21 269.29,-115.65 318.74,-119.77 1.03,46.21 20.4,76.45 24.04,120.24 -81.63,6.8 -175.77,106.04 -216.57,184.21 -20.14,38.57 -100.2,258.47 -104.05,304.75zm1923.76 -969.9c107.37,8.94 226.21,24.27 334.53,-82.27 25.05,-24.64 21.31,-34.94 71.56,-28.39 124.93,16.31 237.17,23.42 336.81,73.14 348.32,173.81 307.15,483.7 307.15,815.04l-256.5 0 0 -256.51 -128.26 0 0 961.89 -456.89 0c-25.64,0 -58.07,-78.9 -114.15,-134.34 -48.59,-48.03 -77.87,-81.09 -135.82,-120.68 -81.3,-55.53 -242.56,-129.74 -375.24,-129.74 13.88,-20.73 53.64,-41.57 99.68,-100.69 26.83,-34.46 66.18,-78.76 76.66,-123.74 43.9,11.72 88.2,95.45 224.09,96.53 106.72,0.85 214.15,-0.34 320.97,-0.34 -3.59,-43.13 -81.37,-259.08 -101.43,-299.36 -41.23,-82.8 -137.01,-182.77 -219.19,-189.6 6.83,-82.12 64.57,-159.82 31.79,-392.5 -4.92,-34.89 -14.78,-52.7 -15.76,-88.44zm-1939.8 -32.06c32.35,-0.73 52.85,-9.67 80.16,-16.04 35.12,23.52 77.57,73.57 110.22,106.22 45.58,45.57 172.29,135.86 67.79,176 -17.27,6.63 -38.9,14.83 -57.77,22.38 -30.63,12.26 -83.65,39.27 -120.24,40.08 -0.65,-29.43 -70.08,-307.65 -80.16,-328.64zm2003.92 -344.68c177.97,0 166.99,-40.2 179.09,20.94 7.83,39.59 25.86,113.79 29.32,155.41 -81.12,54.33 -82.19,72.14 -200.39,72.14 -83.69,0 -119.34,-39.33 -168.33,-72.14 3.46,-41.62 21.48,-115.82 29.32,-155.41 12.81,-64.71 14.18,-20.94 130.99,-20.94zm-1130.2 352.69c-101.75,23.71 -194.77,51.43 -267.82,124.96 -45.15,45.43 -77.85,93.42 -99.95,156.54 -21.16,60.4 -16.99,120.31 -16.99,199.44l-16.02 0c-18.66,-80.07 -48.1,-139.93 -48.1,-248.49 0,-184.39 83.54,-343.08 202.38,-462.91 249.94,-252.04 760.92,-247.89 1002.01,-4.04 62.96,63.69 97.06,103.54 139.68,188.96 61.43,123.1 79.7,268.57 51.59,407.18 -9.67,47.65 -23.31,77.69 -33.01,119.3l-16.02 0c0,-187.77 -107.18,-319.43 -290.51,-342.72 -83.19,-10.58 -369.52,-14.34 -420.78,-52.15 -69.66,-51.37 -77.8,-143.89 -12.47,-200.63 26.75,-23.25 68.39,-36.86 106.55,-45.75 -10.09,-21.03 -37.86,-101.57 -40.07,-128.25 -102.13,23.79 -185.95,75.64 -223.59,169.18 -16.74,41.58 -16.88,61.9 -16.88,119.38zm-545.07 24.05c-30.98,-8.28 -44.97,-32.88 -66.13,-54.11 -121.01,-121.32 -94.19,-52.88 -94.19,-290.56 89.7,43.03 238.32,38.94 336.66,16.03 -6.82,25.58 -164.57,187.21 -176.34,328.64zm488.95 -529.04l0 0zm0 0c13.33,-25.19 26.62,-41.64 39.82,-64.37 12.42,-21.38 23.12,-44.35 35.14,-69.08 28.08,-57.81 30.06,-97.82 45.28,-163.12 75.39,0 129.3,-25.68 170.38,-62.07 30.65,-27.15 55.4,-60.75 69.04,-99.3 3.72,-10.51 4.86,-16.6 7.62,-24.44 0.67,-1.88 1.44,-4.12 2.1,-5.91l7.36 448.22c-124,0 -173.89,-11.2 -293.5,19.1 -30.18,7.65 -55.43,18.66 -83.24,20.97zm-905.76 -392.76l0 -416.82c132.7,0 480.88,-58.34 593.15,-112.21 14.58,62.57 69.93,121 124.15,148.39 70.42,35.57 180.44,58.84 180.44,92.08 0,300.03 42.99,576.76 -261.7,724.22 -120.61,58.37 -253.73,58.37 -374.34,0 -165.76,-80.23 -261.7,-223.63 -261.7,-435.66zm1667.25 -64.12c0,-200.09 -10.24,-397.78 192.38,-504.99 55.33,104.59 184.06,196.01 322.51,214.53 145.15,19.41 382.87,-64.77 382.87,154.19 0,244.21 -4.82,447.59 -261.71,571.92 -120.61,58.37 -253.73,58.37 -374.34,0 -165.77,-80.23 -261.71,-223.63 -261.71,-435.65zm-641.25 32.06l0 -256.5c160.86,37.47 141.13,165.1 88.99,217.23 -23.07,23.08 -52.11,30.68 -88.99,39.27zm-1154.26 -256.5l0 256.5c-36.87,-8.59 -65.91,-16.19 -88.98,-39.27 -18.57,-18.56 -37.63,-56.56 -37.59,-88.98 0.04,-29.06 18.08,-72.5 36.08,-90.5 23.45,-23.44 55.04,-29.5 90.49,-37.75zm1154.26 -480.94c16.39,-24.48 37.48,-41.03 58.61,-69.65 21.3,-28.85 29.53,-52.3 45.6,-82.65 43,28.8 82.76,108.92 104.34,152.15 66.61,133.47 58.36,315.3 -8.16,441.01 -22.34,-14.96 -27.38,-26.19 -52.59,-43.6 -23.48,-16.22 -40.84,-24.03 -70.23,-33.97 -81.79,-27.68 -70.75,11.11 -170.39,-30.01 -55.63,-22.95 -162.18,-52.01 -197.37,-99.2 -39.16,-52.53 -40.38,-114.28 3.08,-160.48 12,-12.75 18.05,-20.04 36.11,-28.02 59.99,-26.48 116.9,-4.78 147.19,34.18 16.35,21.04 32.34,73.07 39.69,104.59 21.02,-10.08 101.57,-37.86 128.24,-40.07 -14.01,-60.16 -32.45,-96.99 -64.12,-144.28zm769.5 -8.02c0,44.5 8.01,47.53 8.01,88.18 -57.6,15.37 -145.92,110.36 -178.09,158.56 -113.44,169.97 -86.41,315.69 -86.41,538.8 0,106.91 54.56,218.16 99.26,285.48 22.81,34.34 57.78,78.15 89.62,102.76 33.44,25.84 71.74,66.42 115.71,76.66 -3.17,38.04 -16.04,60.55 -16.04,104.21 -55.56,-37.22 -51.61,-44.93 -89.68,-70.63 -90.6,-61.15 -157.3,-102.59 -271.11,-129.67 -27.28,-6.49 -56.02,-3.1 -56.02,-32.16l0 -793.54c0,-242.64 152.75,-439.14 377.87,-471.8 31.3,-4.53 48.28,-4.8 79.01,-9.16 39.3,-5.59 27.74,-10.15 54.99,-33.18 257.48,-217.5 678.64,-26.66 821.53,254.83 40.27,79.32 57.68,136.23 70.84,241.77 16.7,133.95 6.52,1016.04 6.52,1227.9 -48.93,-25.9 -111.91,-45.38 -176.17,-56.29 -60.98,-10.36 -149.09,-23.87 -216.6,-23.87 -5.5,-66.15 -34.58,-142.26 -40.08,-208.41 43.97,-10.24 82.27,-50.82 115.71,-76.66 91.57,-70.78 188.88,-250.49 188.88,-388.24 0,-195.5 36.75,-360.63 -128.42,-456.72 -150.31,-87.45 -488.53,65.07 -608.12,-217.5 -17.61,-41.6 -28.5,-81.83 -32.96,-135.37l-128.25 0 0 24.05zm-873.71 -72.14c-74.39,-17.33 -23.12,-16.03 -120.23,-16.03 -82,0 -167.69,74.62 -196.58,132.06 -33.17,65.95 3.97,66.48 -72.89,87.42 -158.49,43.2 -313.74,88.91 -484.15,92.98 -29.2,0.69 -176.2,36.36 -176.2,-55.96 0,-71.15 93.35,-64.13 128.26,-64.13l0 -128.25 -80.16 0c-164.82,0 -251.56,241.19 -94.13,350.63 23.72,16.49 30.52,12.95 46.03,34.12 -99.46,0 -126.7,33.54 -184.36,72.14 -18.6,-79.86 -72.14,-180.26 -72.14,-272.52 0,-150.02 96.49,-300.68 221.97,-355.17 61.54,-26.73 66.28,-13.9 92.66,-51.63 228.85,-327.24 445.07,-290.57 823.59,-290.57 110.37,0 200.21,53.62 243.48,141.28 40.44,81.9 36.16,155.16 -5.49,232.97 -25.14,46.97 -46.25,55.7 -69.66,90.66zm-1434.79 192.37c0,196.96 52.74,285.94 117.39,483.77 28.87,88.33 16.02,122.22 76.77,187.76 43.27,46.67 102.6,81.95 190.58,81.95 11.78,50.52 15.2,88.43 33.06,135.27 13.16,34.52 38.39,83.9 59.78,116.57l52.53 67.7c11.23,14.06 6.41,12.34 21.09,27.01 12.4,12.41 10.64,8.53 22.43,17.64 90.89,70.17 67.62,30.61 67.62,269.04 0,31.86 -82.03,36.78 -148.89,51.51 -60.12,13.24 -111.21,24.59 -170.16,38.24 -104.3,24.15 -200.92,56.89 -286.88,121.93 -76.67,58.01 -147.64,130.91 -195.39,213.42 -44.6,77.09 -96.44,199.98 -96.44,320.36l0 1058.07 3975.77 0 0 -1194.33c0,-132.64 -53.93,-246.53 -103.65,-329.21l-94.64 -121.78c-21.43,-19.54 -48.76,-28.11 -56.31,-55.9 -4.68,-17.24 -1.91,-87.59 -1.91,-110.32 0.07,-204.97 15.65,-1145.91 -17.9,-1304.67 -68.85,-325.74 -391.54,-603.05 -719.54,-603.05 -108.59,0 -202.83,5.3 -295.12,65.57 -167.12,109.1 -34.54,33.45 -208.36,80.21 -118.64,31.9 -305.25,153.75 -330.14,246.98l-16.03 0c-7.24,-87.05 -122.03,-207.14 -182.76,-266.12 -53.86,-52.31 -6.98,-98.2 -89.69,-214.9 -61.65,-86.96 -165.84,-168.25 -288.65,-168.25 -284.98,0 -504.31,-33.66 -729.17,96.44 -86.59,50.1 -163.44,120.75 -222.31,202.53 -20.19,28.05 -22.68,33.43 -57.19,47 -25.09,9.87 -43.33,20.82 -68.08,36.13 -124.55,77.07 -237.81,247.56 -237.81,403.43z"/>
   <path class="fil0" d="M1082.5 1704.52c26.78,114.98 156.56,240.47 296.57,240.47l48.1 0c140.78,0 269.6,-124.68 296.58,-240.47l-128.25 -40.08c-46.58,199.94 -338.35,199.18 -384.76,0 -21.02,10.09 -101.57,37.86 -128.24,40.08z"/>
   <path class="fil0" d="M1851.99 3179.4c26.8,114.98 156.58,240.47 296.59,240.47l48.09 0c140.77,0 269.6,-124.68 296.59,-240.47l-128.26 -40.08c-46.58,199.95 -338.35,199.18 -384.75,0 -21.03,10.09 -101.58,37.86 -128.26,40.08z"/>
   <path class="fil0" d="M2749.75 1640.4c26.79,114.98 156.57,240.47 296.58,240.47l48.09 0c140.78,0 269.6,-124.68 296.59,-240.47 -39.84,-9.29 -95.3,-24.27 -128.26,-40.08 -28.83,123.74 -176.74,203.61 -316.29,107.88 -32.14,-22.05 -58.82,-66.54 -68.46,-107.88 -21.03,10.08 -101.58,37.85 -128.25,40.08z"/>
  </g>
 </g>
</svg>
