<?xml version="1.0" encoding="UTF-8"?>
<!DOCTYPE svg PUBLIC "-//W3C//DTD SVG 1.1//EN" "http://www.w3.org/Graphics/SVG/1.1/DTD/svg11.dtd">
<!-- Creator: CorelDRAW 2020 (64 Bit) -->
<svg xmlns="http://www.w3.org/2000/svg" xml:space="preserve" width="42.3332mm" height="42.3332mm" version="1.1" style="shape-rendering:geometricPrecision; text-rendering:geometricPrecision; image-rendering:optimizeQuality; fill-rule:evenodd; clip-rule:evenodd"
viewBox="0 0 4233.32 4233.32"
 xmlns:xlink="http://www.w3.org/1999/xlink"
 xmlns:xodm="http://www.corel.com/coreldraw/odm/2003">
 <defs>
  <style type="text/css">
   <![CDATA[
    .fil0 {fill:white}
   ]]>
  </style>
 </defs>
 <g id="Camada_x0020_1">
  <metadata id="CorelCorpID_0Corel-Layer"/>
  <g id="_1528862339040">
   <path class="fil0" d="M2401.05 3992.31c-254.14,0 -224.9,9.96 -224.9,-193.89l325.73 0c0,132.22 19.29,193.89 -100.83,193.89zm54.3 131.84l-228.77 0c-40.96,-5.45 -78.21,-18.38 -120.23,-46.53 -28.92,19.36 -69.05,46.53 -116.34,46.53l-223 0c-99.95,-10.07 -171.37,-51.42 -192.81,-196.87 -10.58,-71.67 -2.99,-1016.76 -2.99,-1137.09 -78.78,37.8 -325.74,20.5 -325.74,-186.13l-271.44 0c-69.67,0 -128.41,45.92 -156.9,91.27 -40.64,64.68 -29.23,113.29 -29.23,211.2 20.88,5.58 28.19,12.89 44.45,25.34 111.87,85.67 92.04,55.85 256.18,85.07 40.24,7.16 60.04,23.69 70.01,61.84 50.95,195.01 -30.88,108.19 111.38,299.65 99.87,134.4 6.8,125.02 -73.97,269.63 -27.45,49.14 -19.97,203.46 -57.29,237.43 -44.4,40.43 -194.04,26.25 -242.65,59.82 -34.46,23.8 -141.13,113.59 -178.89,114.53 -39.13,0.98 -144.61,-92.8 -183.09,-116.14 -51.35,-31.13 -198.15,-20.51 -237.23,-57.48 -25.17,-23.8 -28.77,-81.15 -35.19,-119.92 -17.57,-106.11 -4.3,-91.27 -58.66,-166.24 -49.43,-68.15 -76.15,-100.39 -82.03,-127.37l0 -22.43c4.53,-20.67 21.43,-43.43 49.8,-82.88 20.37,-28.3 36.53,-46.71 56,-75.86 70.78,-105.96 -16.42,-252 134.34,-276.69 134.92,-22.1 128.24,-3.88 209.74,-61.71 26.1,-18.52 51,-36.6 77.5,-54.35 0,-174.37 10.08,-229.57 91.74,-327.06 111.44,-133.05 337.85,-107.25 505.43,-107.25l0 -535.14c0,-10.9 15.98,-34.71 21.98,-40.07 11.48,-10.26 19.99,-14.22 40.08,-14.22 88.9,0 69.8,75.03 69.8,170.63l-0.01 465.34c-0.19,76.07 -6.2,155.1 69.81,155.1 144.78,0 124.08,-10.5 124.08,-201.64l1.57 -649.9c15.75,-115.28 138.03,-72.79 138.03,-17.08l0 666.98 504.11 0c128.18,0 109.73,139.6 23.27,139.6l-527.38 0 0 1054.75 325.73 0 0 -783.31c0,-101.93 139.61,-101.93 139.61,0l0 783.31 325.73 0 0 -1861.33c0,-72.72 119.75,-54.3 155.11,-54.29 74.15,0.02 178.37,15.06 178.37,-23.27 0,-177.91 25.04,-310.21 -178.37,-310.21 -310.98,0 -288.85,-21.69 -287.41,61.59 1.91,110.3 9.82,96.02 -63.53,169.13 -27.79,27.7 -49.77,49.85 -77.55,77.55 -74,73.79 -51.26,50.86 -51.93,258.3 -0.45,136.47 -128.22,116.19 -139.4,29.98 -20.9,-160.98 40.38,-197.55 -37.4,-272.83 -26.28,-25.43 -140.66,-135.1 -151.1,-159.12 -17.4,-39.99 9.01,-103.16 -7.3,-147.81 -19.29,-52.79 -221.53,25.42 -259.13,-51.82 -17.24,-35.42 0.91,-83.22 38.4,-93.93 27.41,-7.83 117.68,-2.9 152.21,-2.9 -9.42,-35.28 -131.84,-123.98 -131.84,-333.48 0,-197.92 116.67,-344.1 276.48,-421.52 281.89,-136.57 654.19,74.4 654.19,421.52 0,210.89 -122.19,297.29 -131.84,333.48 64.62,0 129.26,0.01 193.88,0 83.68,0 109.8,-5.78 173.05,20.85 83.06,34.99 160.45,132.37 160.45,219.58l0 302.47c0,21.6 -32.7,54.28 -54.3,54.28l-271.44 0 0 729.03c0,70.63 69.91,62.04 124.08,62.04 162.79,0 -21.5,-395.53 131.86,-395.53 46.18,0 69.8,34.12 69.8,54.29l0 294.71c0,164.06 -221.81,220.49 -325.74,170.62 0,120.33 7.59,1065.42 -2.99,1137.09 -14.6,99.06 -71.85,196.87 -183.14,196.87zm-744.54 -217.16l0 -108.57 325.73 0c0,203.85 29.24,193.89 -224.9,193.89 -67.39,0 -100.83,-17.37 -100.83,-85.32zm-1310.69 -760.04c34.76,-0.77 164.94,-24.75 187.76,-37.16l130.22 -94.69 124.09 93.06c40.07,24.74 166.25,28.29 182.76,42.16 26.32,22.12 9.11,110.75 44.51,180.4 25.4,49.97 63.39,82.59 90.71,134.21 -27.81,41.53 -63.87,81.84 -90.07,127.09 -18.66,32.23 -34.03,132.73 -34.03,183.13 -150.06,34.96 -126.77,-9.14 -250.31,83.18 -22.27,16.65 -46.72,34.64 -67.66,48.66l-131.97 -92.94c-36.91,-19.5 -135.9,-27.22 -186.01,-38.9 -4.94,-221.64 -119.84,-267.93 -121.82,-311.08 -2.02,-44.16 121.82,-99.6 121.82,-317.12zm1574.38 -1644.18l0 -93.06 263.69 0 0 93.06c0,24.21 -110.17,125.08 -131.84,139.6 -21.68,-14.52 -131.85,-115.39 -131.85,-139.6zm-193.89 -519.62c0,-92.58 2.11,-155.35 67.28,-235.19 13.73,-16.83 19.38,-27.98 35.64,-41.92 135.1,-115.83 308.09,-115.2 445.54,0.08 24.97,20.94 51.15,56.96 67.07,88.04 88.03,171.81 16.29,378.4 -163.32,455.06 -231.5,98.8 -452.21,-98.66 -452.21,-266.07z"/>
   <path class="fil0" d="M718.1 626.39l131.84 0 0 915.16 -131.84 0 0 -915.16zm-597.18 989.35l0 -206.03c0,-94.84 131.84,-72.7 131.84,-15.52l0 147.36 325.74 0 0 -783.31c-51.69,37.87 -124.96,193.88 -193.89,193.88 -42.31,0 -71.86,-34.83 -65.79,-73.56 8.47,-53.97 148.28,-188.22 182.13,-252.17l-248.19 0 0 403.29c0,28.89 -44.64,56.14 -74.9,51.61 -32.21,-4.83 -56.94,-32.4 -56.94,-67.12l0 -473.09c0,-21.27 24.27,-42.84 43.57,-49.5 28.03,-9.7 227.97,-4.79 266.66,-4.79 -72.51,-108.26 -71.16,-225.57 35.26,-298.21 23.79,-16.25 68.18,-35.28 104.34,-35.28 156.63,0 179.27,111.85 217.15,139.6 7.01,-26.24 48.1,-78.29 68.32,-94.54 109.21,-87.71 263.46,-38.29 311.95,71.03 40.02,90.22 -0.92,160.04 -31.27,217.4 146.36,0 310.23,-27.98 310.23,69.8l0 1054.76c0,38.33 -31.48,69.8 -69.8,69.8l-853.12 0 0 279.2c0,64.11 42.85,114.25 83.5,141.4 55.17,36.87 104.38,37.18 187.94,36.98 56.77,-0.12 178.36,-12 217.6,7.31 66.15,32.6 27.45,124.53 -15.95,124.53l-317.98 0c-63.54,0 -167.35,-58.02 -206.27,-103.96 -118.27,-139.65 -88.44,-271.33 -88.44,-485.46 -205.61,0 -254.1,16.17 -263.69,-65.41zm946.18 -989.35l240.43 0 0 915.16 -325.74 0 0 -791.07c58.72,43.02 126.33,201.64 201.64,201.64 57.42,0 93.46,-59.6 25.13,-141.46 -35.67,-42.73 -116.67,-137.1 -141.46,-184.27zm-209.4 -147.36l0 0zm-341.24 -124.09c0,-35.49 19.3,-57.89 51.8,-64.37 31.08,-6.18 51.64,7.45 71.6,34.02 25.16,33.52 69.27,107.71 70.48,162.2 -37.28,-17.9 -193.88,-59.91 -193.88,-131.85zm341.24 124.09l0 0z"/>
   <path class="fil0" d="M2765.56 804.77c0,198.95 73.62,357.71 180.31,463.41 108.16,107.16 251.68,203.57 416.88,203.57l0 325.73c0,242.38 -254.91,209.58 -387.78,209.39 -86.16,-0.11 -139.61,-10.38 -139.61,69.81 0,37.51 24.54,62.05 62.06,62.05 202.64,0 403.16,36.28 524.25,-119.46 108.42,-139.47 80.68,-335.69 80.68,-547.52 282.2,0 589.42,-308.51 589.42,-635.96l0 -2.2c-0.12,-46.06 -4.46,-83.11 -69.8,-83.11 -54.39,0 -58.04,33.67 -64.58,82.78 -5.96,44.78 -9.2,83.49 -20.58,126.76 -118.53,450.38 -770.83,544.01 -990.38,74.93 -128.96,-275.56 11.99,-611.65 308.75,-717.77 110.03,-39.34 261.35,-33.73 358.22,4.27 185.56,72.79 198.21,165.34 261.21,165.34 43.25,0 136.84,-47.04 -13.11,-173.02 -39.8,-33.45 -60.61,-51.02 -108.48,-77.65 -88.03,-48.97 -187.16,-76.99 -287.51,-82.82l-78.6 0c-85.21,4.96 -169.43,26.21 -246.6,64.52 -40.99,20.36 -61.32,34.17 -97.2,57.91 -164.17,108.59 -277.55,326.85 -277.55,529.04z"/>
   <path class="fil0" d="M3099.06 2588.55l0 341.25c-114.2,2.53 -201.64,91.89 -201.64,209.4l0 581.66c0,128.64 97.49,209.4 232.66,209.4l721.26 0c72.2,0 122.93,-12.01 164.24,-45.16 35.5,-28.51 76.19,-79.96 76.19,-140.98l0 -628.19c0,-57.46 -33.07,-99.88 -63.72,-130.18 -50.75,-50.14 -199.97,-108.3 -199.97,29.35 0,74.11 131.85,14.07 131.85,139.6l0 535.14c0,55.77 -14.49,100.82 -69.8,100.82l-791.07 0c-37.51,0 -62.04,-24.53 -62.04,-62.05l0 -597.17c0,-107.03 139.4,-26.58 184.72,-94.47 24.53,-36.76 9.16,-210.36 9.16,-270.04 64.34,43.08 217.47,224.86 281.14,277.3 42.32,34.87 114.39,36.18 114.39,-60.15 0,-34.01 -273.79,-293.18 -331.55,-350.94 -40.2,-40.21 -78.78,-98.88 -141.53,-98.88 -21.61,0 -54.29,32.68 -54.29,54.29z"/>
   <path class="fil0" d="M3362.75 494.54c-85.88,45.45 -131.85,85.53 -131.85,201.65 0,99.24 80.06,173.17 185.9,186.38 21.14,2.63 33.03,3.39 48.35,13.68 74.28,49.93 -9.12,153.75 -75.98,99.62 -43.51,-35.23 -1.6,-113.55 -96.22,-113.55 -90.35,0 -68.95,115.81 -22.08,184.94 19.96,29.43 53.76,60.07 91.88,63.24 0,23.55 -2.76,79.27 1.9,98.92 8.21,34.79 32.34,48.43 67.9,48.43 71.68,0 69.8,-74.99 69.8,-147.35 144.95,-33.77 183.55,-287.76 14.36,-363.36 -59.3,-26.49 -158.42,-7.95 -149.41,-91.03 5.84,-53.74 99.99,-105.12 127.83,11.78 8.23,34.5 26.43,62.59 69.26,62.59 129.35,0 45.3,-239.25 -62.04,-248.18 0,-241.42 -125.54,-130.11 -132.35,-116.84 -12.07,23.49 -7.25,73.39 -7.25,109.08z"/>
   <path class="fil0" d="M3269.68 3666.57c79.8,0 351.71,12.48 395.58,-15.46 56.94,-36.26 29.25,-124.14 -38.83,-124.14l-395.53 0c-42.32,0 -76.41,38.92 -65.85,80.8 11.51,45.62 51.17,58.8 104.63,58.8z"/>
   <path class="fil0" d="M516.46 3596.77l18.38 43.76c9.76,10.81 22.22,18.28 39.43,21.03 51.18,8.22 124.48,-88.09 188.42,-152.04 64.07,-64.07 160.25,-137.21 151.99,-188.37 -5.39,-33.48 -27.99,-57.87 -64.74,-57.87 -44.02,0 -134.62,107.48 -180.32,153.18 -45.69,45.69 -153.16,136.35 -153.16,180.31z"/>
   <path class="fil0" d="M3215.39 3395.13c94.88,0 217.16,22.63 217.16,-62.05 0,-90.34 -115.11,-69.8 -201.65,-69.8 -95.45,0 -75.23,131.85 -15.51,131.85z"/>
   <path class="fil0" d="M3626.43 3395.13c127.17,0 201.65,23.79 201.65,-77.56 0,-73.77 -133.7,-54.29 -201.65,-54.29 -84.02,0 -89.5,131.85 0,131.85z"/>
   <path class="fil0" d="M780.14 3596.77c0,24.63 20.56,51.03 41.49,59.97 96.81,41.37 136.23,-129.77 28.31,-129.77 -38.99,0 -69.8,33.72 -69.8,69.8z"/>
   <path class="fil0" d="M516.46 3325.33c0,39.65 24.63,69.8 69.8,69.8 82.07,0 99.12,-131.85 -15.51,-131.85 -25.65,0 -54.29,36.11 -54.29,62.05z"/>
  </g>
 </g>
</svg>
