<?xml version="1.0" encoding="UTF-8"?>
<!DOCTYPE svg PUBLIC "-//W3C//DTD SVG 1.1//EN" "http://www.w3.org/Graphics/SVG/1.1/DTD/svg11.dtd">
<!-- Creator: CorelDRAW 2020 (64 Bit) -->
<svg xmlns="http://www.w3.org/2000/svg" xml:space="preserve" width="42.3332mm" height="42.3332mm" version="1.1" style="shape-rendering:geometricPrecision; text-rendering:geometricPrecision; image-rendering:optimizeQuality; fill-rule:evenodd; clip-rule:evenodd"
viewBox="0 0 4233.32 4233.32"
 xmlns:xlink="http://www.w3.org/1999/xlink"
 xmlns:xodm="http://www.corel.com/coreldraw/odm/2003">
 <defs>
  <style type="text/css">
   <![CDATA[
    .fil0 {fill:white}
   ]]>
  </style>
 </defs>
 <g id="Camada_x0020_1">
  <metadata id="CorelCorpID_0Corel-Layer"/>
  <g id="_1527607481520">
   <path class="fil0" d="M2949.96 3889.22c-42.72,0 -104.25,-56.93 -50.87,-114.41 43.28,-46.61 118.38,-7.56 118.38,42.92 0,37.62 -31.33,71.49 -67.51,71.49zm1151.82 -1043.96l0 76.71c-2.68,86.97 -14.5,172.69 -35.71,252.36 -54.41,204.35 -162.39,386.63 -310.83,535.17 -42.14,42.16 -87.94,78.97 -136.33,113.88 -92.68,66.88 -192.45,118.16 -302.05,154.72 -313.48,104.56 -705.98,63.57 -972.26,-111.07 -111.61,-73.21 -219.4,-156.38 -299.68,-264.32 -10.05,-13.52 -18.78,-25.11 -28.91,-38.61 -85.55,-113.87 -141.9,-242.94 -182.62,-381.38 -33.82,-114.99 -35.26,-226.67 -35.26,-353.97 0,-166.23 49.25,-328.02 121.74,-470.07 45.02,-88.23 103.77,-166.84 167.02,-242.07 38.78,-46.11 86.65,-86.26 127.62,-130.55 11.2,-12.12 8.89,-8.84 8.89,-30.83 -0.01,-11.95 -0.28,-24.03 -0.29,-36.03l4.11 -142.86c1.43,-47.96 -0.14,-98.79 -0.14,-147.08 0,-42.46 -7.61,-101.45 10.54,-136.43 56.21,-108.33 119.32,-190.26 255.53,-189.32 48.69,0.35 90.55,-3.91 143.03,-3.91l675.21 0c165.67,0 229.24,9.98 317.79,135 7.64,10.79 10.23,17.51 17.16,30.49 5.68,10.62 12.32,17.16 15.96,27.73 13.39,38.84 6.55,364.97 6.55,422.41 0,98.54 -18.8,152.5 -92.96,208.89 -30.27,23.01 -64.87,34.85 -113.55,37.38l-218.52 3.9c-29.61,-0.17 -41.78,4.25 -71.39,4.08 -104.19,-0.6 -326.97,-2.02 -424.25,24.56 -102.59,28.02 -254.41,118.16 -325.31,202.95 -34.91,41.76 -65.86,81.37 -94.26,128.16 -40.58,66.87 -67.09,136.96 -82.69,215.19 -19.25,96.56 -17.9,214.98 5.76,310.07 35.47,142.61 93.18,226.22 187,337.27l47.74 43.61c48.38,40.7 103.15,75.2 160.32,101.82 97.47,45.39 189.85,66.17 319.1,66.17 376.06,0 699.04,-326.4 699.04,-691.1 0,-140.9 -16.92,-215.87 -70.99,-334.13 -5.97,-13.07 -10.97,-20.45 -17.68,-33.96 -16.89,-34.04 -39.52,-67.13 -62.21,-96.66l-47.11 -56.15c-22.2,-27.99 -60.19,-45.24 -80.04,-74.87 19.74,-0.44 48.42,-5.96 70.78,-8.66 84.45,-10.19 162.26,-30.71 224.11,-85.7 38.57,-34.28 63.36,-62.02 87.65,-106.96 6.57,-12.13 8.25,-11.54 14.65,-21.1 20.9,11.06 19.7,15.92 34.72,32.79 31.28,35.14 57.4,75.46 85.55,113.04 38.99,52.06 68.51,110.84 96.81,169.31 61.91,127.93 95.87,283.8 100.66,440.13zm-1294.81 -1116.71c0,-117.57 153.4,-186.01 239.38,-100.36 74.52,74.23 47.53,187.58 -41.99,230.23 -12.52,5.96 -41.34,13.57 -57.86,12.66 -68.35,-3.74 -139.53,-69.14 -139.53,-142.53z"/>
   <path class="fil0" d="M1361.23 3464.23c16.24,0 35.11,10.35 44.78,18.77 44.55,38.81 25.38,116.28 -52.72,116.28 -28.69,0 -65.01,-41.57 -62.07,-70.1 3.42,-33.2 34.85,-64.95 70.01,-64.95zm-1151.83 -869.72l0 -45.11 0 -6.63c0,-98.61 23.23,-191.32 43.65,-270.12 20.58,-79.36 56.19,-151.49 91.36,-222.41 8.99,-18.12 18.39,-32.4 29.09,-50.35 33.39,-55.98 55.12,-85.8 96.79,-137.55 46.83,-58.17 97.73,-107.32 151.25,-158.55 23.38,-22.37 16.95,-20.28 16.82,-62.61l0 -234.35c0,-156.96 3.38,-256.08 124.74,-347.9 39.95,-30.22 67.31,-38.13 113.26,-41.64 139.48,-10.66 855.96,-13.4 985.37,0.25 74.01,7.81 149.94,77.01 186.86,138.83 11.14,18.66 31.18,47.19 31.77,75.47 1.49,70.84 -0.47,143.74 -0.37,214.85 0.03,23.86 3.99,28.79 4.27,51.34l-4.11 159.05c0.33,62.04 -17.16,113.47 -60.47,154.01 -5.59,5.24 -9.72,7.66 -15.53,12.28 -62.46,49.54 -71.35,41.03 -141.89,48.75l-207.11 7.36c-142.67,-0.17 -287.26,1.79 -420.7,12.24 -104.2,8.14 -237.44,80.92 -302.23,130.7 -42.81,32.89 -77.08,64.03 -112.39,106.06 -147.72,175.8 -212.62,400.28 -157.69,624.85 10.9,44.59 25.44,94.1 43.68,131.08 9.54,19.34 18.44,38.23 29.17,58.21 17.6,32.81 47.88,75.2 70.7,104.06 8.63,10.92 10.44,13.09 20.38,23.31 9.52,9.77 10.81,14.21 19.76,23.93 14.88,16.13 29.93,26.34 45.68,41.69l48.73 38.66c34.25,24.03 68.06,46.74 109.49,65.27 133.21,59.56 194.74,69.79 347.24,69.79 172.92,0 243.99,-75.46 313.78,-75.46 10.24,43.95 13.63,62.5 33.1,105.91 14.82,33.07 27.07,65.79 42.31,96.71l72.81 133.72c32.88,54.47 31.63,57.87 -76.68,100.61 -36.62,14.45 -69.25,24.89 -110.39,36.57 -211.92,60.2 -473.22,51.08 -682.17,-18.61 -51.08,-17.04 -74.92,-30.03 -118.71,-48.11 -20.9,-8.62 -29.47,-12.96 -47.66,-23.83 -15.72,-9.38 -27.58,-14.86 -43.27,-24.25 -204.87,-122.56 -355.34,-289.46 -462.17,-502.98 -27.05,-54.06 -58.31,-144.83 -73.62,-204.41 -31.86,-123.97 -34.7,-183.45 -34.9,-290.69zm1143.89 -1290.95c62.02,0 105.11,15.41 133.85,72.68 44.01,87.7 -19.77,205.35 -117.97,205.35 -79.93,0 -139,-61.21 -149.6,-132.72 -5.38,-36.28 14.01,-75.43 37.34,-98.7 23.39,-23.34 51.32,-46.61 96.38,-46.61z"/>
   <path class="fil0" d="M2870.52 1037.46c-69.39,0 -229.71,6 -279.53,-18.37 -29.81,-14.58 -69.99,-62.96 -69.99,-104.76 0,-127.45 79.47,-162.85 198.59,-162.85 99.71,0 236.82,-12.62 306.72,30.89 14.55,9.06 35.49,28.15 44.24,43.14 36.16,61.98 17.55,144.05 -43.38,185.89 -36.62,25.15 -97.05,26.06 -156.65,26.06zm-538.5 -750.68l79.33 0c15.51,0.99 28.21,2.87 36.08,6.05 145.2,58.8 213.04,149.94 216.55,307.73l103.27 3.96c30.35,0 78.02,-2.76 106.16,1.09 31.02,4.25 69.81,-0.2 103.78,3.46 82.03,8.82 153.43,48.15 201.54,112.23 51.18,68.16 57.2,115.28 57.2,197 0,101.05 -75.39,192.88 -161.48,239.67 -36.4,19.79 -25.34,22.72 -80.79,22.48 -33.12,-0.14 -66.25,0.13 -99.36,-0.07 -33.34,-0.18 -58.02,4.04 -95.27,4.03 -137.34,-0.03 -225.69,13.56 -322.39,-62.88 -66.45,-52.53 -110.54,-160.32 -110.54,-250.89 -99.76,0 -197.59,-5.61 -294.02,-7.84 -72.18,-1.68 -116.26,-22.86 -166.16,-60.23 -14.14,-10.58 -26.1,-21.74 -40.27,-31.23 -69.15,46.3 -74.03,91.35 -234.34,91.35l-329.66 0c-14.37,0 -73.93,-32.16 -87.27,-39.83 -46.09,-26.5 -95.63,-80.23 -118,-128.25 -11.55,-24.8 -21.12,-67.13 -21.12,-102 0,-104.52 13.49,-155.32 88.29,-229.45 57.23,-56.72 125.81,-72.41 209.59,-72.41l305.83 0c93.6,0 137.78,54.64 186.68,87.38 26.39,-17.67 48.73,-43.81 87.25,-63.68 60.14,-31.01 207.08,-23.7 278.16,-23.7 21.54,0 61.02,-2.55 100.96,-3.97zm-390.91 285.97c0,-35.32 20.66,-77.57 44.77,-98.22 27.05,-23.18 57.07,-36.82 106.16,-36.82l285.97 0c79.93,0 131.07,69.49 131.07,119.15 0,45.57 0.19,68.24 -27.68,107.36 -45.04,63.24 -149.09,55.49 -242.4,55.49 -79.17,0 -190.7,10.94 -241.36,-36.67 -27.43,-25.79 -56.53,-59.08 -56.53,-110.29zm-579.88 -135.04l274.05 0c52.21,0 79.56,9.45 109.68,33.3 59.78,47.33 65.03,161.51 -18.26,220.96 -5.95,4.26 -33.06,23.77 -39.79,23.77l-313.77 0c-204.95,0 -193.84,-278.03 -11.91,-278.03z"/>
  </g>
 </g>
</svg>
