<?xml version="1.0" encoding="UTF-8"?>
<!DOCTYPE svg PUBLIC "-//W3C//DTD SVG 1.1//EN" "http://www.w3.org/Graphics/SVG/1.1/DTD/svg11.dtd">
<!-- Creator: CorelDRAW 2020 (64 Bit) -->
<svg xmlns="http://www.w3.org/2000/svg" xml:space="preserve" width="42.3332mm" height="42.3332mm" version="1.1" style="shape-rendering:geometricPrecision; text-rendering:geometricPrecision; image-rendering:optimizeQuality; fill-rule:evenodd; clip-rule:evenodd"
viewBox="0 0 4233.32 4233.32"
 xmlns:xlink="http://www.w3.org/1999/xlink"
 xmlns:xodm="http://www.corel.com/coreldraw/odm/2003">
 <defs>
  <style type="text/css">
   <![CDATA[
    .fil0 {fill:white}
   ]]>
  </style>
 </defs>
 <g id="Camada_x0020_1">
  <metadata id="CorelCorpID_0Corel-Layer"/>
  <g id="_1527784845104">
   <g id="_1528707591952">
    <path class="fil0" d="M1874.28 2287.08l463.57 0c42.73,0 55.63,12.9 55.63,55.63l0 519.24 -519.2 0 0 -574.87zm-1353.7 -1502.03c0,-133.59 92.51,-216.73 210.43,-233.66 137.95,-19.78 253.15,115.95 253.15,178.02 0,127.96 -13.25,296.69 -241.06,296.69 -100.02,0 -222.52,-85.33 -222.52,-241.05zm2874.28 55.63c-354.93,0 -324.75,-519.24 -18.55,-519.24 248.74,0 339.55,276.63 207.85,430.38 -27.66,32.31 -140.48,88.86 -189.3,88.86zm-426.5 -278.16c0,161.51 35.72,202.44 111.26,315.24 -113.41,2.52 -255.97,67.26 -310.8,134.26 -92.58,113.13 -78.76,192.79 -78.62,384.96 0.19,309.06 0,618.15 0,927.2 -54.63,-36.57 -113.24,-132.83 -129.82,-203.99l-853 0c-36.86,69.65 -128.15,239.8 -185.45,278.15 -1.9,-85.52 -204.39,-1008.96 -248.2,-1086.94 -88.44,-157.41 -164.44,-168.86 -252.49,-211.11 57.12,-85.29 88.86,-62.45 122.68,-193.09 78.89,-304.82 -152.95,-530.13 -382.29,-530.13 -246.62,0 -407.95,171.98 -407.95,445.06 0,149.39 74.32,195.3 129.79,278.16 -191.38,91.83 -312.48,226.23 -333.79,482.13 79.14,6.6 87.79,30.51 166.9,37.11 20.76,-249.36 134.35,-352.52 352.28,-390.76 91.9,-16.12 208.46,-3.99 302.8,32.37 95.58,36.84 146.37,103.18 177.65,193.24l261.36 1222.12c93.21,0 83.03,16.67 166.89,18.56 14.74,-63.24 89.48,-176.12 129.82,-222.53l0 556.32c194.36,0 148.34,-69.02 148.34,537.77l166.9 0 0 -537.77 222.52 0 0 537.77 166.89 0 0 -537.77 148.35 0 0 -537.77c47.22,34.58 99.24,146.22 129.82,203.98 74.79,-17.44 105.92,-23.37 166.89,-55.64l-0.79 -1335.92c-0.74,-109.58 2.17,-161.84 71.47,-206.72 207.39,-134.24 871.91,-97.05 961.52,28.32 60.58,84.76 43.34,283.88 43.34,401.69l166.9 0c0,-292.7 48.18,-612.61 -389.43,-649.03 105.94,-200.19 181.18,-403.62 -13.82,-598.11 -269.57,-268.9 -727.92,-67.37 -727.92,282.87z"/>
    <path class="fil0" d="M557.66 2157.3c192.08,15.96 148.34,294.46 148.34,500.65 -53.7,-35.96 -134.02,-95.51 -147.05,-168.19 -11.1,-61.96 -1.29,-256.83 -1.29,-332.46zm-333.79 -278.16c198.8,16.53 166.94,215.98 166.89,426.49 -0.09,367.98 -44.64,245.92 310.64,598 27.78,27.51 48.28,45.1 73.31,75.04 34.15,40.87 35.07,51.16 74.64,92.27l320.26 291.7c40.61,-60.67 73.46,-57.76 92.71,-129.82 -71.03,-106.07 -352.34,-303.67 -352.34,-407.97 0,-57.87 33.93,-107.3 55.63,-148.35l528.42 528.6c32.17,83.69 27.9,501.76 27.9,621.13l-611.95 0 -604.05 -1027.82c-72.54,-117.26 -65.02,-92.21 -63.67,-270.12 1.86,-242.48 -18.39,-415.35 -18.39,-649.15zm-166.9 92.71c0,98.69 -1.95,199.03 -0.75,297.42 1.38,111.42 20.68,165.17 19.34,295.9 -1.62,160.72 -17.63,158.23 49.24,266.05 93.98,151.55 562.52,914.82 581.2,995.01 -80.09,6.65 -74.16,3.02 -74.16,111.26 0,42.73 12.9,55.63 55.63,55.63l1186.81 0 0 -166.89c-298.58,0 -148.94,-5.26 -186.42,-462.63 -1.18,-14.45 -23.28,-223.6 -26.83,-232.8 -10.71,-27.79 -107.69,-116.93 -134.45,-143.68l-542.42 -533.14c-37.45,25.1 -73.79,49.08 -111.26,74.18 0,-173.99 27.2,-418.19 -203.56,-519.62 -213.55,-93.88 -85.09,-17.9 -184.86,-167.49 -102.61,-153.82 -258.67,-128.81 -427.51,-128.81l0 259.61z"/>
    <path class="fil0" d="M3561.76 2657.95c0,-206.19 -43.74,-484.69 148.34,-500.65 0,88 9.14,235.13 0.57,315.8 -9.44,89.16 -89.93,145.36 -148.91,184.85zm-203.98 1168.28l-611.95 0c0,-165.26 -6.7,-441.64 20.48,-591.48 15.15,-83.56 458.83,-500.55 517.29,-539.69 249.9,167.33 -170.84,386.88 -296.72,574.85l107.81 96.34c84.1,-25.36 379.02,-351.62 462.42,-434.76l148.5 -166.76c182.12,-206.81 171.52,-61.59 171.39,-440.55 -0.07,-214.87 -36.38,-428.14 166.89,-445.04 0,228.77 -19.66,394.54 -18.48,630.53 0.92,180.39 16.18,160.35 -56.44,277.33l-611.19 1039.23zm37.08 -1298.07c-37.47,-25.1 -73.81,-49.08 -111.26,-74.18l-533.15 523.86c-189.92,189.91 -174.19,166 -171.45,625.92 1.44,241.11 34.93,222.47 -185.52,222.47l0 166.89 1186.81 0c65.92,0 55.63,-36.14 55.63,-111.26 0,-56.07 -21.82,-51.28 -74.16,-55.63 15,-64.42 67.3,-133.81 103.22,-193.47l470.88 -790.13c67.55,-108.79 58.39,-88.22 56.47,-258.75 -1.47,-129.88 15.94,-191.62 19.07,-296.19l-0.61 -575.45c-505.84,0 -359.2,109.1 -484.33,238.89 -2.63,2.74 -6.66,6.48 -9.61,8.91l-49.79 24.4c-273.34,104.13 -272.2,251.27 -272.2,543.72z"/>
    <path class="fil0" d="M2115.33 1860.58c-112.51,0 -166.89,-91.02 -166.89,-166.89 0,-150.84 180.49,-201.7 275.48,-108.73 106.05,103.78 41.02,275.62 -108.59,275.62zm-333.79 -203.97c0,541.91 667.58,433.4 667.58,55.63 0,-261.78 -308.53,-471.78 -560.13,-263.44 -43.45,35.98 -107.45,135.49 -107.45,207.81z"/>
   </g>
  </g>
 </g>
</svg>
