<?xml version="1.0" encoding="UTF-8"?>
<!DOCTYPE svg PUBLIC "-//W3C//DTD SVG 1.1//EN" "http://www.w3.org/Graphics/SVG/1.1/DTD/svg11.dtd">
<!-- Creator: CorelDRAW 2020 (64 Bit) -->
<svg xmlns="http://www.w3.org/2000/svg" xml:space="preserve" width="42.3332mm" height="42.3332mm" version="1.1" style="shape-rendering:geometricPrecision; text-rendering:geometricPrecision; image-rendering:optimizeQuality; fill-rule:evenodd; clip-rule:evenodd"
viewBox="0 0 4233.32 4233.32"
 xmlns:xlink="http://www.w3.org/1999/xlink"
 xmlns:xodm="http://www.corel.com/coreldraw/odm/2003">
 <defs>
  <style type="text/css">
   <![CDATA[
    .fil0 {fill:white}
   ]]>
  </style>
 </defs>
 <g id="Camada_x0020_1">
  <metadata id="CorelCorpID_0Corel-Layer"/>
  <g id="_1527639080848">
   <path class="fil0" d="M1200.85 3039.43c0,-296.56 89.99,-574.19 304.69,-768.29 53.05,-47.95 67.71,-70.21 129.01,-110.68 55.87,-36.88 96.7,-60.19 159.66,-91.45 242.19,-120.26 600.4,-121.5 845.06,0 522.14,259.25 731.01,813.61 500.73,1357.19 -134.47,317.45 -515.12,583.47 -866.19,583.47l-114.13 0c-296.06,0 -573.07,-176.75 -717.53,-355.46 -59.49,-73.6 -100.49,-118.04 -143.61,-221.64 -48.73,-117.16 -97.69,-233.6 -97.69,-393.14zm1095.8 -1255.6l0 -1107.2 388.09 0 0 1004.47 -388.09 102.73zm-547.9 -1107.2l388.09 0 0 1107.2c-132.64,-30.9 -258.12,-72.45 -388.09,-102.73l0 -1004.47zm1095.8 958.81l0 -958.81 308.18 0 0 878.91c-87.58,20.4 -220.4,72.6 -308.18,79.9zm-1563.79 -958.81l308.18 0 0 958.81c-87.78,-7.3 -220.6,-59.5 -308.18,-79.9l0 -878.91zm-171.22 -433.76l2214.41 0 0 262.54 -2214.41 0 0 -262.54zm-171.22 11.42c0,123.68 -20.08,284.48 48.28,362.63 41,46.85 73.68,36.08 122.94,59.71 0,187.79 -26.56,821.91 19.08,939.73 42.53,109.77 194.27,125.97 320.92,158.49 46.23,11.87 341.72,76.27 367.7,111.71 -165.71,13.79 -437.59,255.72 -548.03,399.37 -311.38,404.99 -312.11,951.96 -29.61,1376.8 47.71,71.76 76.72,102.88 135.33,161.44 117.6,117.54 185.87,164.96 339.52,242.61 443.9,224.32 989.78,111.52 1344.11,-242.61 107.33,-107.25 170.34,-196.37 238.83,-343.31 237.77,-510.2 56.38,-1112.85 -366.41,-1429.62 -63.85,-47.85 -225.5,-157.25 -314.73,-164.68 25.63,-34.97 323.64,-101.08 367.54,-111.87 133.01,-32.71 273.96,-48.1 321.39,-158.02 47.43,-109.92 18.77,-758.55 18.77,-940.04 13.53,-6.5 171.21,-34.11 171.21,-171.22 0,-175.8 43.05,-433.76 -182.62,-433.76l-2191.59 0c-103.16,0 -182.63,79.47 -182.63,182.64z"/>
   <path class="fil0" d="M1486.22 3039.43c0,-321.06 125.14,-559.62 414.55,-704.06 274.67,-137.08 617.26,-75.3 826.88,136.08 334.17,336.98 275.58,861.41 -76.98,1116.05 -504.57,364.42 -1164.45,-32.72 -1164.45,-548.07zm-171.22 -57.07c0,789.92 888.76,1151.14 1420.39,746.93 342.11,-260.12 488.88,-688.49 303.08,-1100.67 -74.73,-165.77 -161.22,-263.35 -304.57,-368.88 -42.53,-31.31 -93.82,-60.79 -144.12,-84.17 -599.96,-278.94 -1274.78,184.81 -1274.78,806.79z"/>
   <path class="fil0" d="M1965.62 2925.28c69.09,0 136.87,5.6 178.11,-27.36 23.21,-18.56 58.55,-107.23 61.59,-143.85l22.84 0c3.05,36.62 38.38,125.29 61.6,143.85 41.24,32.96 109.01,27.36 178.11,27.36 -33.77,50.42 -125.57,89.53 -125.57,148.39 0,61.19 22.84,78.65 22.84,148.39 -111.05,-58.76 -78.13,-68.48 -171.22,-68.48 -25.79,0 -89.64,57.46 -136.98,68.48 100.04,-208.49 -44.4,-226.73 -91.32,-296.78zm-45.65 182.63c-11.58,24.14 -68.49,261.83 -68.49,296.78 0,151.82 168.35,46.5 226.06,9.19 156.58,-101.23 121.83,-101.23 278.4,0 32.47,20.98 103.73,70.71 146.17,70.71 46.11,0 79.89,-24.84 79.89,-68.48 0,-46.17 -54,-278.04 -68.48,-308.2 70.47,-47.18 126.66,-107.36 192.76,-161.09 33.91,-27.56 69.74,-65.52 47.87,-113.06 -51.4,-111.73 -297.93,-18.58 -358.84,-98.45l-82.16 -191.8c-65.37,-160.24 -153.45,-97.68 -186.63,-16.63 -110.92,270.98 -51.39,231.34 -298.78,249.11 -74.96,5.38 -103.27,-5.83 -139.67,44.02 -55.68,76.25 58.28,142.92 125.74,200 39.37,33.32 63.23,59.16 106.16,87.9z"/>
  </g>
 </g>
</svg>
