<?xml version="1.0" encoding="UTF-8"?>
<!DOCTYPE svg PUBLIC "-//W3C//DTD SVG 1.1//EN" "http://www.w3.org/Graphics/SVG/1.1/DTD/svg11.dtd">
<!-- Creator: CorelDRAW 2020 (64 Bit) -->
<svg xmlns="http://www.w3.org/2000/svg" xml:space="preserve" width="42.3332mm" height="42.3332mm" version="1.1" style="shape-rendering:geometricPrecision; text-rendering:geometricPrecision; image-rendering:optimizeQuality; fill-rule:evenodd; clip-rule:evenodd"
viewBox="0 0 4233.32 4233.32"
 xmlns:xlink="http://www.w3.org/1999/xlink"
 xmlns:xodm="http://www.corel.com/coreldraw/odm/2003">
 <defs>
  <style type="text/css">
   <![CDATA[
    .fil0 {fill:white}
   ]]>
  </style>
 </defs>
 <g id="Camada_x0020_1">
  <metadata id="CorelCorpID_0Corel-Layer"/>
  <g id="_1527656732528">
   <path class="fil0" d="M571.78 927.83c0,-68.34 200.23,-240.61 254.69,-295.28 27.31,-27.4 65.65,-74.37 114.96,-74.37 104.82,0 317.63,306.53 369.64,306.53 37.48,0 71.38,-31.48 123.18,-57.13 138.12,-68.39 178.77,-84.96 326.14,-124.66 46.49,-12.51 31.4,-12.36 64.58,-34.59 0,-105.17 0.55,-210.5 -0.11,-315.67 -1.52,-237.79 109.72,-189.21 459.92,-189.21 106.35,0 136.04,71.44 135.45,180.1 -0.59,108.25 -0.21,216.53 -0.21,324.78 77,51.56 32.06,21.93 129.53,50.79 113.49,33.61 155.8,56.2 255.16,105.47 53.03,26.3 92.93,60.12 129.21,60.12 52.01,0 264.82,-306.53 369.64,-306.53 64.91,0 214.08,173.53 281.74,241.17 31.72,31.69 66.61,52.86 80.07,101.1 26.19,93.81 -126.51,211.32 -215.3,300.11 -167.57,167.56 -48.65,56.4 80.07,474.39 30.17,98 -0.13,57.21 52.92,136.42 105.17,0 210.5,0.55 315.67,-0.11 237.79,-1.52 189.21,109.72 189.21,459.92 0,106.35 -71.44,136.04 -180.1,135.45 -108.25,-0.59 -216.53,-0.21 -324.78,-0.21 -19.93,29.74 -19.79,14 -32.75,57.41 -48.27,161.8 -42.58,164.11 -123.51,327.28 -104.2,210.05 -96.79,73.4 194.59,397.4 116.34,129.37 -0.22,194.08 -112.71,306.57 -43.48,43.48 -85.54,90.84 -130.41,131.05 -60.64,54.37 -126.8,26.05 -176.16,-18.34 -52.8,-47.49 -237.63,-254.71 -268.19,-254.71 -31.64,0 -203.99,98.01 -245.98,114.64l-203.34 67.15c-46.49,12.51 -31.4,12.36 -64.58,34.59 0,105.25 -0.29,210.51 0.21,315.76 1.12,237.82 -111.62,189.12 -460.02,189.12 -106.35,0 -136.04,-71.44 -135.45,-180.1 0.59,-108.25 0.21,-216.53 0.21,-324.78 -76.86,-51.48 -31.96,-21.95 -129.53,-50.79 -80.82,-23.89 -243.73,-93.05 -313.92,-136.87 -94.57,-59.04 -85.25,-27.44 -253.02,140.32 -209.45,209.45 -207.16,157.98 -396.69,-31.56 -40.82,-40.81 -160.03,-136.43 -160.03,-200.6 0,-104.82 306.53,-317.63 306.53,-369.64 0,-31.04 -12.11,-44.15 -25.17,-64.98 -73.63,-117.39 -120.33,-249.63 -156.62,-384.34 -12.51,-46.49 -12.36,-31.4 -34.59,-64.58 -105.17,0 -210.5,-0.55 -315.67,0.11 -237.79,1.52 -189.21,-109.72 -189.21,-459.92 0,-106.35 71.44,-136.04 180.1,-135.45 108.25,0.59 216.53,0.21 324.78,0.21 57.23,-85.44 36.55,-120.57 98.92,-261.72 15.54,-35.2 117.46,-223.1 117.46,-252.18 0,-52.01 -306.53,-264.82 -306.53,-369.64zm1145 -351.62c-144.8,33.73 -279.03,100.02 -396.69,162.28 -28.23,-42.14 -118.01,-122.51 -160.03,-164.54 -87.57,-87.56 -104.41,-123.96 -236.66,-123.96 -111.12,0 -205.96,129.31 -268.23,191.58 -106.25,106.26 -191.58,147.69 -191.58,304.28 0,95.42 73.35,149.99 123.96,200.61 42.03,42.02 122.4,131.8 164.54,160.03 -62.26,117.66 -128.55,251.89 -162.28,396.69 -79.3,0 -304.33,-9.96 -366.26,3.39 -85.63,18.47 -174.69,105.94 -174.69,203.97l0 396.71c0,96.43 86.96,180.79 167.46,202.18 64.61,17.17 289.83,5.18 373.49,5.18 33.73,144.8 100.02,279.03 162.28,396.69 -42.14,28.23 -122.51,118.01 -164.54,160.03 -87.56,87.57 -123.96,104.41 -123.96,236.66 0,111.12 129.31,205.96 191.58,268.23 106.26,106.25 147.69,191.58 304.28,191.58 95.42,0 149.99,-73.35 200.61,-123.96 42.02,-42.03 131.8,-122.4 160.03,-164.54 117.66,62.26 251.89,128.55 396.69,162.28 0,79.73 -10.01,303.74 3.39,366.27 17.96,83.93 106.62,174.68 203.97,174.68l396.71 0c96.43,0 180.79,-86.96 202.18,-167.46 17.17,-64.61 5.18,-289.83 5.18,-373.49 144.8,-33.73 279.03,-100.02 396.69,-162.28 28.23,42.14 118.01,122.51 160.03,164.54 87.13,87.13 106.72,123.96 236.66,123.96 111.12,0 205.96,-129.31 268.23,-191.58 106.25,-106.26 191.58,-147.69 191.58,-304.28 0,-95.42 -73.35,-149.99 -123.96,-200.61 -42.03,-42.02 -122.4,-131.8 -164.54,-160.03 62.26,-117.66 128.55,-251.89 162.28,-396.69 79.73,0 303.74,10.01 366.27,-3.39 83.93,-17.96 174.68,-106.62 174.68,-203.97l0 -396.71c0,-96.43 -86.96,-180.79 -167.46,-202.18 -64.61,-17.17 -289.83,-5.18 -373.49,-5.18 -33.73,-144.8 -100.02,-279.03 -162.28,-396.69 42.14,-28.23 122.51,-118.01 164.54,-160.03 87.56,-87.57 123.96,-104.41 123.96,-236.66 0,-111.12 -129.31,-205.96 -191.58,-268.23 -106.26,-106.25 -147.69,-191.58 -304.28,-191.58 -95.42,0 -149.99,73.35 -200.61,123.96 -42.02,42.03 -131.8,122.4 -160.03,164.54 -117.66,-62.26 -251.89,-128.55 -396.69,-162.28 0,-79.3 9.96,-304.33 -3.39,-366.26 -18.47,-85.63 -105.94,-174.69 -203.97,-174.69l-396.71 0c-96.43,0 -180.79,86.96 -202.18,167.46 -17.17,64.61 -5.18,289.83 -5.18,373.49z"/>
   <path class="fil0" d="M1572.53 2893.27l0 135.24c-42.11,-11.25 -180.32,-122.92 -180.32,-135.24 0,-77.21 89.32,-199.37 158.47,-247.25 104.99,-72.72 166.29,-77.32 337.41,-77.32 8.86,38.02 122.12,206.86 150.37,255.34 39.19,67.25 41.22,69.23 93.05,69.23 29.97,0 49.31,-50.15 62.6,-72.64 20.88,-35.34 141.92,-251.93 171.81,-251.93 195.48,0 319,16.42 436.55,194.55 94.31,142.93 36.8,151.34 -30.83,202.15 -26.65,20.02 -64.34,53.8 -99.18,63.11l0 -135.24c-139.22,-93.23 -108.19,88.11 -108.19,198.34 -28.78,6.71 -55.19,21.25 -84.8,32.42 -210.34,79.32 -495.62,77.8 -707.39,2.45 -27.29,-9.71 -60.65,-27.71 -91.36,-34.87 0,-110.23 31.03,-291.57 -108.19,-198.34zm549.96 -162.28c-29.94,-20.05 -69.01,-99.15 -90.56,-134.84 -51.16,-84.64 -44.67,-46.13 -44.67,-180.71 139.92,32.59 140.24,30.33 270.47,0 0,119.09 -16.91,115.01 -93.96,239.61 -17.6,28.45 -33.28,41.61 -41.28,75.94zm-333.58 -766.35c0,-224.66 271.55,-342.6 477.84,-342.6 145.22,0 134.25,-34.16 167.56,166.03 31.27,187.98 46.7,276.08 -78.38,428.05 -120.53,146.44 -308.35,148.41 -456.77,-1.1 -54.47,-54.87 -110.25,-179.09 -110.25,-250.38zm-72.13 -171.3c-7.48,-90.02 -9.36,-113.91 19.01,-197.38 52.17,-153.47 209.53,-334.54 395.72,-334.54 189.58,0 252.07,78.16 338.61,202.33 61.95,88.87 67.11,-22.38 67.11,230.41l-41.94 -129.36c-29.53,-71.65 -98.56,-59.96 -183.46,-59.96 -208.06,0 -353.4,52.37 -496.08,162.07l-98.97 126.43zm-117.21 -90.16c0,96.44 -1.03,148.72 41.9,237.61 66.21,137.11 17.07,19.83 61.35,155.02 23.1,70.47 68.55,154.87 119.8,204.77 57.61,56.11 47.43,27.96 47.43,150.91 -207.42,0 -370.88,45.38 -489.52,204.7 -16.87,22.64 -29.39,40.11 -44.36,63.83 -18.41,29.2 -20.43,45.57 -34.11,74.07 -57.11,-38.23 -141.72,-195.91 -171.32,-270.45 -164.57,-414.44 -82.84,-859.31 232.18,-1174.32 179.42,-179.43 441.44,-313.3 705.48,-313.3 266.06,0 463.11,41.49 672.4,193.12 59.71,43.25 90.44,69.34 141.27,120.18 178.84,178.83 313.3,442.01 313.3,705.48 0,248.99 -29.55,409.92 -157.06,618.29 -15.55,25.41 -26.52,41.35 -43.76,64.43 -8.45,11.33 -14.99,20.24 -23.16,30.94l-28.46 34.65c-44.72,-191.92 -270.86,-351.62 -513.89,-351.62l-54.1 0c0,-176.52 6.91,-58.09 115.55,-227.05 74.48,-115.83 246.13,-647.32 107.34,-798.24 -23.83,-25.92 -23.12,-14.87 -56.89,-60.32 -20.24,-27.25 -32.8,-47.27 -55.34,-70.89 -215.5,-225.8 -506.03,-177.19 -709.37,25.87 -91.03,90.91 -176.66,240.91 -176.66,382.32zm-667.16 405.71c0,654 536.6,1190.09 1190.08,1190.09 653.99,0 1190.09,-536.35 1190.09,-1190.09 0,-653.68 -535.93,-1190.08 -1190.09,-1190.08 -653.73,0 -1190.08,536.1 -1190.08,1190.08z"/>
  </g>
 </g>
</svg>
