<?xml version="1.0" encoding="UTF-8"?>
<!DOCTYPE svg PUBLIC "-//W3C//DTD SVG 1.1//EN" "http://www.w3.org/Graphics/SVG/1.1/DTD/svg11.dtd">
<!-- Creator: CorelDRAW 2020 (64 Bit) -->
<svg xmlns="http://www.w3.org/2000/svg" xml:space="preserve" width="42.3332mm" height="42.3332mm" version="1.1" style="shape-rendering:geometricPrecision; text-rendering:geometricPrecision; image-rendering:optimizeQuality; fill-rule:evenodd; clip-rule:evenodd"
viewBox="0 0 4233.32 4233.32"
 xmlns:xlink="http://www.w3.org/1999/xlink"
 xmlns:xodm="http://www.corel.com/coreldraw/odm/2003">
 <defs>
  <style type="text/css">
   <![CDATA[
    .fil0 {fill:white}
   ]]>
  </style>
 </defs>
 <g id="Camada_x0020_1">
  <metadata id="CorelCorpID_0Corel-Layer"/>
  <g id="_1527610157952">
   <path class="fil0" d="M2403.67 2485.24l569.08 0 0 705.14 -569.08 0 0 -705.14zm-729.9 717.52l0 -717.52 569.08 0 0 705.14 -531.96 0c-14.44,0 -34.19,8.81 -37.12,12.38zm-259.79 160.83l1818.56 0 0 -1793.82 -1818.56 0 0 1793.82z"/>
   <path class="fil0" d="M176.87 3066.68l0 86.59c-31.73,0 -86.6,-6.6 -86.6,49.49l0 531.96c0,70.27 101.43,49.48 210.3,49.48 28.97,0 49.49,-20.52 49.49,-49.48l0 -544.34c0,-43.98 -24.1,-37.11 -74.22,-37.11 0,-102.06 6.72,-72.84 -12.38,-111.34 48.64,-12.98 43.05,-26.33 52.08,-84l46.9 -386.1 -0.92 495.76c2.57,99.43 38.03,60.72 38.03,135.17l0 544.33c0,48.74 -42.84,24.44 -13.7,86.23 40.38,85.66 224.46,114.89 224.71,-85.53l-0.7 -718.22c53.45,11.32 14.27,4.98 74.23,0l-0.53 718.04c-0.88,126.41 28.32,147.93 124.24,147.93 122.24,0 111.5,-123.64 111.34,-247.42 -0.14,-119.58 0.25,-239.19 -0.03,-358.77 -0.27,-126.54 12.41,-213.29 12.39,-346.38 -0.01,-119.59 0,-239.18 0,-358.76l12.38 0c0,88.44 7.39,180.48 19.49,265.04 24.43,170.73 -12.07,205.06 128.96,205.06 104.68,0 55.73,-198.9 49.92,-284.97 -7.82,-115.66 -21.86,-238.2 -36.77,-346.75 -38.96,-284.08 -176.61,-300.94 -421.39,-357.97l34.98 479.35c-9.47,47.47 -45.64,61.69 -59.72,114.46 -37.79,-10.08 -28.35,-10.88 -47.94,-38.66 -68.47,-97.08 -32.48,-97.56 -26.27,-295.34 7.62,-243.08 68.45,-272.51 -59.82,-246.84 -364.13,72.84 -328.94,276.6 -364.48,552.44l-31.41 347.02c11.53,56.21 47.44,48.87 47.44,89.63z"/>
   <path class="fil0" d="M3974.81 2485.24l0 395.87 -173.21 0c0,-110.91 -3.28,-226.11 -1.21,-336.3 1.3,-68.69 9.95,-49.37 12.6,-51.27 17.37,-12.54 79.6,10.86 161.82,-8.3zm-494.85 0c38.6,21.69 132.03,16.99 173.19,0l0 395.87 -173.19 0 0 -395.87zm321.64 -556.7l173.21 0 0 395.87 -173.21 0 0 -395.87zm-321.64 0l173.19 0 0 395.87 -173.19 0 0 -395.87zm-148.45 1435.05l791.75 0 0 -1682.48 -791.75 0 0 1682.48z"/>
   <path class="fil0" d="M2267.59 740.91c-85.89,7.14 -184.85,37.51 -251.76,69.88 -148.06,71.66 -265.83,179.38 -342.29,325.76 -64.41,123.27 -73.99,196.81 -73.99,334.25l1447.42 0c0,-389.72 -297.12,-698 -680.42,-729.89 1.77,-79.17 27.17,-61.56 94.7,-90.87l271.22 -112.29c45.96,-19.28 105.57,-37.12 128.94,-69.01 -54.21,-12.63 -85.09,-31.62 -134.2,-51.38 -44.8,-18.03 -96.1,-40.5 -139.61,-58.33 -47.55,-19.47 -83.7,-34.61 -131.05,-54.5 -174,-73.09 -53.71,-70.84 -139.47,-70.84 -75.95,0 -49.5,148.75 -49.49,222.69 0.01,94.84 0,189.68 0,284.53z"/>
   <path class="fil0" d="M844.92 2027.5c60.79,14.18 84.95,37.58 136.07,49.49l0 -148.45 185.57 0c0,410.29 -6.79,336.77 34.88,707.38 24.87,221 107.86,553.85 -208.07,480.24l0 247.43 321.65 0 0 -1682.48 -383.52 0c18.75,80.48 28.7,102.53 7.41,192.81 -19.08,80.92 -58.36,100.35 -93.99,153.58z"/>
   <path class="fil0" d="M411.92 1755.33c0,382.33 470.11,331.29 470.11,24.76 0,-98.09 -101.46,-222.69 -197.94,-222.69l-74.23 0c-89.06,0 -197.94,108.88 -197.94,197.93z"/>
  </g>
 </g>
</svg>
