<?xml version="1.0" encoding="UTF-8"?>
<!DOCTYPE svg PUBLIC "-//W3C//DTD SVG 1.1//EN" "http://www.w3.org/Graphics/SVG/1.1/DTD/svg11.dtd">
<!-- Creator: CorelDRAW 2020 (64 Bit) -->
<svg xmlns="http://www.w3.org/2000/svg" xml:space="preserve" width="42.3332mm" height="42.3332mm" version="1.1" style="shape-rendering:geometricPrecision; text-rendering:geometricPrecision; image-rendering:optimizeQuality; fill-rule:evenodd; clip-rule:evenodd"
viewBox="0 0 4233.32 4233.32"
 xmlns:xlink="http://www.w3.org/1999/xlink"
 xmlns:xodm="http://www.corel.com/coreldraw/odm/2003">
 <defs>
  <style type="text/css">
   <![CDATA[
    .fil0 {fill:white}
   ]]>
  </style>
 </defs>
 <g id="Camada_x0020_1">
  <metadata id="CorelCorpID_0Corel-Layer"/>
  <path class="fil0" d="M205.05 3184.75l1473.74 0c-35.29,73.55 -1.79,53.58 -86.43,139.06 -37.43,37.81 -91.58,70.33 -163.22,70.33l-974.45 0c-87.15,0 -178.09,-66.7 -212.21,-126.03 -17.02,-29.6 -23.86,-55.07 -37.43,-83.36zm2027.13 -3108.56l35.59 0c63.9,4.74 123.57,35.01 151.92,88.58 39.82,-9.27 153.35,-96.48 287.84,18.19 82.01,69.92 66.5,177.46 66.5,279.79l499.31 0c0,-57.55 -10.62,-112.75 56.37,-112.75 74.74,0 64.43,42.57 64.43,112.75l144.96 0c0,-44.61 -8.73,-112.75 64.42,-112.75 70.72,0 64.42,58.87 64.42,112.75 98.27,0 321.88,-14.05 387.08,31.69 76.33,53.55 85.7,178.57 25.3,251.82 -15.57,18.88 -58.87,46.67 -90.24,46.67l-322.14 0c0,135.45 -90.79,97.84 -112.35,72.09 -18.19,-21.72 -16.49,-44.69 -16.49,-72.09l-144.96 0 0 974.44c108.53,9.04 239.35,171.9 161.32,338.51 -10.4,22.19 -37.56,59.43 -56.64,72.21 43.79,65.38 76.76,149.23 119.25,219l237.9 438.56c39.31,77.58 78.83,146.23 117.99,220.25 71.76,0 225.5,-22.22 225.5,48.32 0,245.41 -182.16,418.76 -394.61,418.76l-950.29 0c-44.7,0 -47.75,-8.04 -88.58,-8.04l0 563.72 1385.16 0c64.19,0 64.19,120.8 0,120.8l-4026.63 0c-64.19,0 -64.19,-120.8 0,-120.8l1385.16 0 0 -563.72c-40.83,0 -43.88,8.04 -88.58,8.04l-950.29 0c-206.35,0 -394.61,-181.03 -394.61,-386.55 0,-106.37 60.8,-80.53 225.5,-80.53l355.89 -658.81c22.49,-36.94 36.36,-71.05 59.47,-109.65 11.96,-19.97 18.03,-34.65 27.42,-53.12l32.36 -48.18c-19.6,-29.25 -39.22,-43.06 -56.56,-80.35 -78.29,-168.36 53.85,-329.48 161.24,-338.42l0 -974.44 -144.96 0c0,41.52 -6.43,96.64 -64.42,96.64 -60.87,0 -64.42,-49.52 -64.42,-96.64l-322.14 0c-127.2,0 -185.48,-220.63 -60.13,-301.73 63.74,-41.25 290.17,-28.45 382.27,-28.45 0,-28.95 -5.24,-112.75 48.32,-112.75 87.8,0 80.52,45.24 80.52,112.75l144.96 0c0,-57.55 -10.6,-112.75 56.38,-112.75 74.74,0 64.42,42.57 64.42,112.75l410.72 0 0 -64.43c0,-131.46 173.45,-271.42 338.24,-161.07 62.39,-117.91 183.04,-141.81 314.08,-72.48 29.05,-19.45 37.19,-40.45 69.59,-59.26 29.6,-17.16 63.32,-26.83 97.24,-29.32zm1057.26 2166.33c160.8,0 81.85,-12.06 207.83,194.83 73.02,119.91 196.56,365.88 277.95,511.28 12.69,22.66 48.71,88.24 53.79,107.27 -99.27,0 -177.17,-19.85 -177.17,72.48 0,71.78 146.24,56.38 177.17,56.37 80.53,-0.02 161.07,0 241.59,0 -35.33,73.65 -26.17,80.91 -86.38,139.11 -36.5,35.27 -94.31,70.28 -163.26,70.28l-974.45 0c-90.32,0 -174.11,-64.24 -212.27,-125.98 -8.85,-14.31 -14.79,-24.95 -19.85,-36.51 -7.94,-18.16 -9.61,-30.4 -17.53,-46.9l797.28 0 0 -128.85 -555.68 0 413.04 -770.79c11.33,-21.32 12.89,-42.59 37.94,-42.59zm-1650.92 402.66l998.61 0 0 410.72c-153.31,0 -169.12,-9.07 -169.12,96.64 0,185.54 169.12,278.07 169.12,314.08l0 612.04 -998.61 0 0 -612.04c0,-32.06 70.86,-67.15 109.55,-132.06 35,-58.74 121.36,-278.66 -4.86,-278.66l-104.69 0 0 -410.72zm-740.89 -402.66c121.7,0 100.12,-8.43 123.86,37.2l276.22 513c12.3,21.98 17.34,26.92 29.54,50.99l56.37 104.69c14.4,28.42 48.08,83.93 53.57,107.5l-990.55 0c83.62,-158.04 246.15,-478.15 328.63,-613.6l84.55 -157.06c9.88,-21.07 13.75,-42.72 37.81,-42.72zm740.89 8.05l998.61 0 0 265.76 -998.61 0 0 -265.76zm1578.44 -233.54c0,-202.53 233.54,-149.62 233.54,-32.22 0,199.19 -233.54,152.11 -233.54,32.22zm-2391.81 0c0,-199.07 233.54,-153.11 233.54,-32.22 0,201.4 -233.54,150.09 -233.54,32.22zm1127.45 -1111.36c-56.57,0 -104.69,-24.11 -104.69,-80.52l0 -491.26c0,-98.04 185.22,-127.2 185.22,24.16l0 442.94c0,52.98 -28.23,104.68 -80.53,104.68zm426.82 -112.74l507.36 0c137.19,0 112.74,136.36 112.74,265.76 0,137.15 -17.42,222.41 -57.33,321.16 -113.35,280.47 -417.81,331.96 -417.81,741.87l-781.17 0c0,-354.61 -167.61,-299.5 -207.77,-670.04 -5.29,-48.84 -5.03,-77.24 -52.63,-84.26 -75.09,-11.07 -69.78,64.59 -69.78,101.99 0,124.27 50.74,247.12 99.18,327.65 55,91.43 110.21,181.87 110.21,324.66 -102.14,0 -113.13,-1.48 -112.76,144.95l0.01 644.27 -201.43 -362.29c-30.75,-59.12 -184.46,-333.14 -193.18,-370.56 34.4,-51.36 72.48,-88.47 72.48,-177.17 0,-62.3 -26.44,-118.63 -54.96,-154.41 -26.66,-33.43 -77.25,-74.73 -130.27,-79.14l0 -974.44 410.72 0 0 281.86c0,34.47 24.82,64.43 56.38,64.43 87.43,0 64.42,-112.58 64.42,-201.33 110.65,58.54 179.57,-4.23 225.49,-8.06 16.14,60.41 105.71,104.7 193.28,104.7 57.5,0 83.57,-30.33 120.8,-40.27 65.4,43.8 50.84,80.53 201.33,80.53 47.77,0 75.9,-20.98 104.69,-40.26 39.87,54.41 159.61,72.48 233.55,72.48 -33.17,23.04 -172.88,39.46 -283.14,175.9 -144.42,178.72 -176.14,438.16 -51.69,408.11 90.23,-21.78 3.23,-150.79 140.27,-319.53 182.98,-225.3 379.78,-68.15 379.78,-232.27 0,-238.29 -62.87,-135.49 -255.94,-162.83 -83.06,-11.75 -160.18,-87.53 -162.83,-183.46zm724.8 0l169.12 0 0 974.44c-89.81,7.48 -185.23,113.49 -185.23,233.55 0,88.7 38.08,125.81 72.48,177.17 -6.37,27.34 -28.75,68.33 -43.66,93.24 -50.4,84.14 -311.95,594.73 -350.95,639.61l0 -636.21c0.2,-151.73 -5.8,-153.01 -112.74,-153.01 0,-254.3 106.76,-298.63 259.5,-473.35 234.8,-268.6 207.58,-454.95 207.58,-774.9 0,-38.24 -11.33,-43.29 -16.1,-80.54zm-1570.39 -64.42l0 -281.87c0,-175.95 185.22,-135.31 185.22,-40.27l0 346.3c0,98.03 -185.22,127.2 -185.22,-24.16zm1860.31 -136.91l144.96 0 0 80.53 -144.96 0 0 -80.53zm-620.11 0l499.31 0 0 80.53 -499.31 0 0 -80.53zm-306.02 -257.71c0,-98.04 185.23,-127.2 185.23,24.16l0 314.08 -185.23 0 0 -338.24zm-217.44 442.94c0,78.97 26.7,110.86 40.27,169.11 -21.06,1.76 -65.95,25.96 -111,-25.91 -15.33,-17.64 -25.91,-47.46 -25.91,-78.78l0 -531.52c0,-147.92 185.23,-138.32 185.23,-24.16l0 370.46c0,31.98 -88.59,44.6 -88.59,120.8zm-1248.26 -185.23l410.72 0 0 80.53 -410.72 0 0 -80.53zm-265.76 0l144.96 0 0 80.53 -144.96 0 0 -80.53zm3213.25 80.53l-281.86 0 0 -80.53 297.98 0c39.58,0 55.61,80.53 -16.12,80.53zm-3672.27 -32.22c0,-18.47 -1.29,-48.31 32.2,-48.31l297.98 0 0 80.53 -281.86 0c-24.74,0 -48.32,-7.46 -48.32,-32.22z"/>
 </g>
</svg>
