<?xml version="1.0" encoding="UTF-8"?>
<!DOCTYPE svg PUBLIC "-//W3C//DTD SVG 1.1//EN" "http://www.w3.org/Graphics/SVG/1.1/DTD/svg11.dtd">
<!-- Creator: CorelDRAW 2020 (64 Bit) -->
<svg xmlns="http://www.w3.org/2000/svg" xml:space="preserve" width="42.3332mm" height="42.3332mm" version="1.1" style="shape-rendering:geometricPrecision; text-rendering:geometricPrecision; image-rendering:optimizeQuality; fill-rule:evenodd; clip-rule:evenodd"
viewBox="0 0 4233.32 4233.32"
 xmlns:xlink="http://www.w3.org/1999/xlink"
 xmlns:xodm="http://www.corel.com/coreldraw/odm/2003">
 <defs>
  <style type="text/css">
   <![CDATA[
    .fil0 {fill:white}
   ]]>
  </style>
 </defs>
 <g id="Camada_x0020_1">
  <metadata id="CorelCorpID_0Corel-Layer"/>
  <g id="_1527777327280">
   <g id="_1527468185808">
    <path class="fil0" d="M866.64 3758.03c-64.43,0 -77.8,-13.38 -77.8,-77.81 0,-26.42 65.06,-78.03 84.28,-97.25 91.79,-91.78 632.37,-623.48 659.16,-663.49l97.16 93.03c-99.69,68.18 -719.59,745.52 -762.8,745.52zm1244.84 -371.73c-37.7,-56.3 -14.29,-50.55 101.56,-166.41l250.7 -250.7c23.57,-23.57 41,-42.42 64.69,-65.45 21.18,-20.57 67.14,-43.18 67.14,7.1 0,31.61 -358.43,370.77 -412.77,425.77 -22.34,22.61 -32.27,46.44 -71.32,49.69zm-762.88 -862.32l384.6 -389.08 678.71 674.32 -384.74 389.04 -678.57 -674.28zm-153.46 -71.31c-19.38,0 -18.97,-6.84 -34.57,-17.29 3.26,-39.34 62.18,-83.79 105.89,-127.5 43.63,-43.63 340.23,-356.6 369.56,-356.6 97.15,0 -82.28,155.76 -84.29,157.76 -41.01,41.02 -75.69,75.7 -116.7,116.7 -30.93,30.93 -213.75,226.93 -239.89,226.93zm146.96 -440.88l-198.83 0c-213.3,0 -220.38,-276.63 0,-276.63l2230.33 0c216.15,0 216.15,276.63 0,276.63l-1564.69 0c0,-60.57 -1.02,-98.59 -44.91,-145.27 -50.2,-53.39 -88.55,-53.56 -145.27,-53.56 -125.81,0 -224.99,198.83 -276.63,198.83zm1538.75 -656.98c0,-207.82 42.98,-407.67 117.23,-591.63 12.03,-29.78 23.35,-46.67 29.73,-74.02 78.33,52.46 176.29,230.9 216.12,319.86 85.18,190.29 86.44,369.4 86.44,587.83l-432.24 0c0,-67.96 -17.28,-146.64 -17.28,-242.04zm-1262.12 242.04l-432.23 0c0,-220.34 0.8,-395.56 86.45,-587.83 39.14,-87.84 139.07,-268.27 216.11,-319.86 6.29,27.02 16.25,40.83 27.26,67.83l74.85 227.71c84.78,344.36 27.56,397.35 27.56,612.15zm-17.28 -1011.42c28.37,-38.73 196.05,-128.09 256.2,-152.07 48.18,-19.22 30.28,-17.39 47.95,124.53 16.65,133.69 36.98,447.91 81.86,531.93 112.91,211.44 417.84,218.54 538.86,5.55 47.25,-83.17 78.15,-470.11 93.3,-615.82 4.98,-47.9 -9.95,-63.92 33.39,-48.84 59.08,20.56 234.39,116.47 262.41,154.72l-65.59 150.52c-92.02,228.11 -107.3,412.4 -107.3,662.08 0,78.61 8.65,121.67 8.65,198.82l-985.49 0c0,-267.72 39.25,-378.95 -43.12,-691.68l-86.65 -241.84c-5.53,-12.26 -11.35,-22.35 -17.39,-34.48 -8.25,-16.59 -10.19,-27.98 -17.08,-43.42zm414.93 -337.15c54.41,-12.68 91.39,-43.22 164.25,-43.22 116.36,0 217.13,-11.13 319.85,43.22 0,32.45 -8.62,88.52 -13.59,124.73 -6.37,46.49 -8.83,80.09 -13.14,125.17 -7.6,79.5 -16.86,163.82 -27.68,248.96 -19.23,151.46 -3.88,365.61 -187.64,365.61 -183.76,0 -168.4,-214.15 -187.64,-365.61 -10.81,-85.14 -20.07,-169.46 -27.68,-248.96 -4.31,-45.08 -6.77,-78.68 -13.14,-125.17 -4.96,-36.21 -13.59,-92.28 -13.59,-124.73zm-968.2 1357.21c-230.01,53.58 -278.32,355.14 -100.35,489.36 80.93,61.03 130.78,55.26 264.6,55.26 -78.79,117.66 -190.18,117.12 -190.18,302.56 0,45.12 42.21,96.16 73.88,116.3 79.93,50.87 94.7,7.47 140.77,49.41 37.3,33.96 168.77,163.2 191.65,197.37 -26.02,38.85 -350.98,355.29 -412.79,417.11 -71.27,71.27 -136.2,136.19 -207.47,207.47 -74.17,74.16 -166.41,132.69 -166.41,265.83 0,97.02 94.9,198.82 207.48,198.82 121.5,0 188.46,-97.69 252.85,-162.09 81.9,-81.89 587.66,-596.95 628.9,-624.58 43.21,28.93 148.07,142.12 192.95,187.42 32.98,33.28 17.34,17.6 25.72,69.37 16.79,103.66 83.08,149.52 187.64,149.52 88.82,0 156.19,-91.38 205.29,-140.49l345.55 -346.02c97.02,-114.12 49.99,-277.52 -111.61,-298.53 -46.77,-6.09 -32.69,3.9 -61.65,-24.8 -16.62,-16.47 -26.16,-27.36 -42.61,-43.83 -69.58,-69.61 -491.34,-483.25 -516.51,-520.84 328.48,0 656.98,0 985.48,0 152.35,0 345.16,10.52 492.52,-0.23 121.38,-8.85 242.28,-127.92 242.28,-259.12 0,-143.27 -72.14,-253.74 -207.47,-285.27 0,-340.9 -10.37,-566.58 -191.9,-836.82l-151.52 -194.26c-99.8,-104.91 -284.57,-224.24 -417.39,-274.19 -90.48,-34.03 -39.67,-20.8 -72.18,-100.71 -70.85,-174.22 -518.75,-163.64 -662.29,-89.3 -34.91,18.08 -71.37,44.17 -89.62,83.29 -35.17,75.38 21.22,71.14 -68.54,104.34 -137.07,50.72 -316.19,166.75 -419.37,272.21l-152.35 193.45c-193.55,288.92 -195.35,515.33 -195.35,841.99z"/>
    <path class="fil0" d="M1601.45 4043.29c14.45,-15.24 20.92,-25.93 51.85,-25.93l1279.42 0c30.94,0 37.4,10.69 51.87,25.93 -7.29,31.31 -13.47,43.23 -51.87,43.23l-1279.42 0c-50.68,0 -39.86,-16.37 -51.85,-43.23zm138.31 -224.76c0,-42.73 35.07,-77.8 77.8,-77.8l950.9 0c87.8,0 77.81,92.55 77.81,138.32l-1106.51 0 0 -60.52zm-138.31 60.52c-71.42,16.63 -138.32,86.24 -138.32,146.95l0 51.87c0,63.37 83.59,146.96 146.95,146.96l1365.86 0c63.36,0 146.95,-83.59 146.95,-146.96 0,-95.34 -29.75,-173.53 -138.3,-198.82 0,-104.19 6.44,-126.51 -39.34,-194.07 -26.55,-39.18 -89.84,-82.56 -150.85,-82.56l-1002.78 0c-61,0 -124.3,43.38 -150.84,82.56 -45.79,67.56 -39.33,89.88 -39.33,194.07z"/>
   </g>
  </g>
 </g>
</svg>
