<?xml version="1.0" encoding="UTF-8"?>
<!DOCTYPE svg PUBLIC "-//W3C//DTD SVG 1.1//EN" "http://www.w3.org/Graphics/SVG/1.1/DTD/svg11.dtd">
<!-- Creator: CorelDRAW 2020 (64 Bit) -->
<svg xmlns="http://www.w3.org/2000/svg" xml:space="preserve" width="42.3332mm" height="42.3332mm" version="1.1" style="shape-rendering:geometricPrecision; text-rendering:geometricPrecision; image-rendering:optimizeQuality; fill-rule:evenodd; clip-rule:evenodd"
viewBox="0 0 4233.32 4233.32"
 xmlns:xlink="http://www.w3.org/1999/xlink"
 xmlns:xodm="http://www.corel.com/coreldraw/odm/2003">
 <defs>
  <style type="text/css">
   <![CDATA[
    .fil0 {fill:white}
   ]]>
  </style>
 </defs>
 <g id="Camada_x0020_1">
  <metadata id="CorelCorpID_0Corel-Layer"/>
  <g id="_1527645483216">
   <path class="fil0" d="M3129.39 3078.59l0 -131.65 789.85 0 0 1053.14 -921.5 0 0 -921.49 131.65 0zm-394.93 0l131.63 0 0 921.49 -131.63 0 0 -921.49zm-789.87 477.2c0,-63.36 22.12,-116.37 55.15,-150.54 83.12,-85.96 211.07,-79.26 284.45,0.18 31.14,33.7 55.34,88.35 55.34,150.36l0 444.29 -394.94 0 0 -444.29zm-526.56 -477.2l131.63 0 0 921.49 -131.63 0 0 -921.49zm-263.3 0l131.65 0 0 921.49 -921.5 0 0 -1053.14 789.85 0 0 131.65zm658.22 436.06l0 485.43 -131.64 0 0 -921.49 921.5 0 0 921.49 -131.64 0 0 -485.43c0,-151.78 -152.64,-304.43 -304.43,-304.43l-49.36 0c-151.79,0 -304.43,152.65 -304.43,304.43zm329.11 -913.27l97.58 83.42c36.58,29.54 65.71,55.95 102.43,86.81 36.9,31.01 66.74,55.4 102.58,86.65 25.68,22.39 84.7,64.98 100.57,88.68l-806.32 0c16.72,-24.98 339.06,-289.84 403.16,-345.56zm608.85 -49.37l1299.97 0 0 263.28 -937.96 0c-34.56,0 -63.85,-30.73 -98.82,-57.5l-263.19 -205.78zm-1563.26 263.28l-954.41 0 0 -263.28 1299.97 0 -253.86 198.66c-15.54,11.6 -28.07,20.5 -42.37,31.68 -14.69,11.48 -31.51,32.94 -49.33,32.94zm320.88 131.65l-222.15 0c1.08,-48.25 22.35,-45.15 84.84,-96.18l688.5 -529.19c49.78,-38.39 35.82,-32.84 115.25,-32.84 16.33,0 134.62,98.76 156.24,115.27l577.15 443.07c64.14,51.29 88.33,52.79 89.38,99.87 -260.05,0 -204.37,34.92 -384.58,-125.54 -52.48,-46.72 -103.74,-84.82 -156.33,-131.64 -52.63,-46.86 -103.98,-85.03 -156.32,-131.64 -16.16,-14.39 -20.61,-16.96 -36.25,-29.58 -15.78,-12.76 -22.92,-22.57 -38.71,-35.33 -30.69,-24.79 -51.07,-42.91 -83.49,-64.62l-507.66 422.08c-25.35,21.48 -99.67,96.27 -125.87,96.27zm831 -1184.79l263.28 0 0 394.93 -263.28 0 0 -394.93zm-658.22 0l263.28 0 0 394.93 -263.28 0 0 -394.93zm-131.65 526.58l320.89 0c-18.61,27.79 -50.75,46.36 -79.95,68.15 -18.77,14 -73.66,63.49 -92.84,63.49l-937.96 0 0 -921.51 2764.52 0 0 921.51 -937.96 0c-15.78,0 -71.88,-47.76 -88.18,-59.93 -23.62,-17.62 -70.96,-51.34 -84.61,-71.71l320.89 0 0 -658.22 -526.58 0 0 526.57 -131.64 0 0 -526.57 -526.58 0 0 658.22zm1316.43 -1480.99c23.07,6.16 837.34,534.44 855.69,559.49l-1151.88 0c25.85,-38.61 296.19,-215.52 296.19,-559.49zm-1448.06 0c0,122.11 49.95,252.62 97.08,330.76 100.96,167.39 172.05,188.31 199.11,228.73l-1151.87 0c15.55,-21.24 370.3,-246.74 424.53,-283.05 51.69,-34.62 405.31,-269.54 431.15,-276.44zm131.63 -32.91c0,-79.76 27.26,-184.77 54.72,-241.48 70.24,-145.13 151.07,-225.97 296.19,-296.2 146.81,-71.06 336.17,-71.06 482.98,0 466.05,225.56 466.05,849.81 0,1075.37 -377.78,182.83 -833.89,-114.99 -833.89,-537.69zm-1184.78 567.71l0 156.32 263.29 0 0 921.51 -411.39 0c-51.38,0 -115.19,63.81 -115.19,115.19l0 296.19c0,48 52.95,115.19 131.65,115.19l0 1184.79 3817.64 0 0 -1184.79c45.51,0 64.77,-11.77 88.9,-34.52 18.94,-17.84 42.75,-46.66 42.75,-80.67l0 -296.19c0,-51.38 -63.81,-115.19 -115.19,-115.19l-411.39 0 0 -921.51 263.29 0c0,-196.25 28.48,-158.36 -106.57,-238.98l-915.45 -598.44c-95.49,-61.94 -38.71,-182.23 -205.85,-361.87 -123.93,-133.2 -307.09,-248.78 -508.17,-248.78 -173.25,0 -226.03,6.46 -378.54,82.21 -166.78,82.85 -283.72,229.52 -350.39,406.56 -28.95,76.84 0.99,77.54 -67.37,121.88 -40.02,25.95 -75.95,47.45 -115.35,73.88l-855.76 559.4c-17.45,10.91 -50.91,25.64 -50.91,47.82z"/>
   <path class="fil0" d="M628.17 3210.22l394.93 0 0 526.58 -394.93 0 0 -526.58zm526.56 -131.63l-658.21 0 0 789.85 658.21 0 0 -789.85z"/>
   <path class="fil0" d="M3261.02 3210.22l394.93 0 0 526.58 -394.93 0 0 -526.58zm-131.63 -131.63l0 789.85 658.21 0 0 -789.85 -658.21 0z"/>
   <path class="fil0" d="M2076.24 445.72c-238.93,0 -267.46,333.19 -52.87,390.21 81.2,21.57 250.34,-31.61 250.34,70.54 0,90.49 -165.27,65.83 -263.3,65.83l0 -65.83 -131.63 0 0 197.46 197.46 0 0 131.65 131.64 0 0 -131.65c238.93,0 267.46,-333.18 52.87,-390.19 -81.2,-21.58 -250.34,31.6 -250.34,-70.55 0,-90.49 165.27,-65.82 263.3,-65.82l0 65.82 131.63 0 0 -197.47 -197.46 0 0 -131.64 -131.64 0 0 131.64z"/>
   <path class="fil0" d="M1023.1 1762.15l263.28 0 0 394.93 -263.28 0 0 -394.93zm-131.65 526.58l526.58 0 0 -658.22 -526.58 0 0 658.22z"/>
   <path class="fil0" d="M2997.74 1762.15l263.28 0 0 394.93 -263.28 0 0 -394.93zm-131.65 526.58l526.58 0 0 -658.22 -526.58 0 0 658.22z"/>
  </g>
 </g>
</svg>
