<?xml version="1.0" encoding="UTF-8"?>
<!DOCTYPE svg PUBLIC "-//W3C//DTD SVG 1.1//EN" "http://www.w3.org/Graphics/SVG/1.1/DTD/svg11.dtd">
<!-- Creator: CorelDRAW 2021 (64-Bit Evaluation Version) -->
<svg xmlns="http://www.w3.org/2000/svg" xml:space="preserve" width="42.3332mm" height="42.3332mm" version="1.1" style="shape-rendering:geometricPrecision; text-rendering:geometricPrecision; image-rendering:optimizeQuality; fill-rule:evenodd; clip-rule:evenodd"
viewBox="0 0 4233.32 4233.32"
 xmlns:xlink="http://www.w3.org/1999/xlink"
 xmlns:xodm="http://www.corel.com/coreldraw/odm/2003">
 <defs>
  <style type="text/css">
   <![CDATA[
    .fil0 {fill:#C7B88E}
   ]]>
  </style>
 </defs>
 <g id="Layer_x0020_1">
  <metadata id="CorelCorpID_0Corel-Layer"/>
  <g id="_2034224572880">
   <path class="fil0" d="M1086.33 2718.93l-882.67 -135.39c-42.01,4.17 -157.84,160.38 -157.84,198.45 0,36.64 151.35,104.33 208.19,138.65l670.08 380.95c27.79,22.17 45.73,70.38 64.3,103.85l283.77 504.5c14.54,26.18 21.75,34.1 34.94,59.64l94.22 168.54c13.25,24.53 22.97,35.39 42.35,52.24 37.84,-8.81 220.72,-79.15 220.72,-115.61l-120.06 -804.85c-6.76,-43.91 -16.58,-75.74 -16.58,-120.05 147.2,-34.29 643.25,-564.41 733.09,-654.25l872.34 -872.36c53,-52.98 117.99,-127.4 175.23,-171.6 67.67,-52.24 187.85,-181.7 261,-254.01 35.68,-35.27 50.54,-61.5 83.87,-94.79 92.01,-91.91 237.01,-288.71 304.47,-389.22 62.44,-93.04 337.18,-513.5 134.34,-622.22 -97.74,-52.39 -321.72,37.68 -411.79,92.53 -181.5,110.5 -371.29,242.61 -520.86,393.54l-175.04 171.79c-1.52,1.53 -3.68,3.77 -5.17,5.34 -510.9,533.71 -1030.87,1044.51 -1553.94,1567.58 -118.68,118.66 -259.04,245.7 -338.96,396.75z"/>
   <path class="fil0" d="M361.13 700.98c0,162.47 170.39,203.06 346.36,305.27l1240.67 682.68c43.44,-29.08 537.53,-532.28 627.98,-622.73 31.41,-31.39 74.59,-57.02 86.71,-102.47 -47.71,-1.06 -199.88,-42.37 -260.11,-55.18l-1820.9 -407.27c-105.07,0 -220.71,90.83 -220.71,199.7z"/>
   <path class="fil0" d="M2570.83 2301.1c33.99,66.51 70.27,129.69 109.8,200.36 20.12,35.96 36.68,67.5 56.27,101.39 18.91,32.7 35.09,65.16 56.51,101.14 61.82,103.85 577.67,1056.7 630.55,1103.63 111.7,99.16 310.94,29.19 310.94,-163.78 0,-60.67 -37.21,-197.7 -50.46,-254.33l-401.49 -1795.17 -712.12 706.76z"/>
   <path class="fil0" d="M928.68 501.28c64.08,1.43 399.26,93.65 443.03,93.64 47.07,-0.01 92.98,-56.36 92.98,-93.64 0,-21.7 -223.27,-262.76 -273.26,-262.76 -26.89,0 -252.05,222.65 -262.75,262.76z"/>
   <path class="fil0" d="M3642.37 2826.16l103.04 470.84c38.45,-10.27 252.25,-221.11 252.25,-262.76 0,-25.76 -225.11,-259.59 -283.78,-273.26l-71.51 65.18z"/>
   <path class="fil0" d="M1843.06 700.98l342.4 78.01c42.83,9.33 79.28,23.7 120.05,27.09 19.27,-12.9 63.07,-44.12 63.07,-73.57 0,-42.54 -230.74,-273.27 -273.28,-273.27 -32.8,0 -104.22,88.47 -128.74,112.99 -41.34,41.33 -92.69,82.73 -123.5,128.75z"/>
   <path class="fil0" d="M3440.61 1909.65c0,50.66 11.47,75.29 20.16,116.48 17.36,82.41 73.21,301.56 74.43,356.48l244.31 -239.16c-18.26,-61.67 -205.1,-243.36 -286.34,-286.35 -10.7,9.29 -52.56,38.98 -52.56,52.55z"/>
  </g>
 </g>
</svg>
