<?xml version="1.0" encoding="UTF-8"?>
<!DOCTYPE svg PUBLIC "-//W3C//DTD SVG 1.1//EN" "http://www.w3.org/Graphics/SVG/1.1/DTD/svg11.dtd">
<!-- Creator: CorelDRAW 2021 (64-Bit Evaluation Version) -->
<svg xmlns="http://www.w3.org/2000/svg" xml:space="preserve" width="42.3332mm" height="42.3332mm" version="1.1" style="shape-rendering:geometricPrecision; text-rendering:geometricPrecision; image-rendering:optimizeQuality; fill-rule:evenodd; clip-rule:evenodd"
viewBox="0 0 4233.32 4233.32"
 xmlns:xlink="http://www.w3.org/1999/xlink"
 xmlns:xodm="http://www.corel.com/coreldraw/odm/2003">
 <defs>
  <style type="text/css">
   <![CDATA[
    .fil0 {fill:#C7B88E}
   ]]>
  </style>
 </defs>
 <g id="Layer_x0020_1">
  <metadata id="CorelCorpID_0Corel-Layer"/>
  <path class="fil0" d="M3348.12 1134.7c334.19,0 277.58,429.66 40.53,429.66 -68.56,0 -127.12,-1.47 -183.29,-68.03 -33.18,-39.31 -56,-90.23 -54.68,-149.83 1.46,-66.02 23.39,-104.96 56.34,-142.12l59.67 -45.72c22.66,-11.71 46.56,-23.96 81.43,-23.96zm-2383.25 -1094.43l28.72 0c33.51,7.34 61.53,42.7 98.11,116.2 31.75,63.82 119.25,173.63 20.7,226.08 -45.44,24.19 -215.95,71.17 -261.21,71.17 -70.45,0 -81.2,-29.7 -121.6,-56.75 -15.48,29.27 -14.39,23.53 -33.64,47.43 -116.63,144.94 -128.49,348.86 -128.49,536.27 0,136.24 76.7,29.42 142.87,230.03 61.14,185.35 132.62,349.81 231.57,514.28 45.14,75.02 104.49,140.61 152.5,212.29 80.15,-1.78 89.3,-27.74 171.38,-1.14 54.83,17.78 89.67,45.26 146.94,55.96 152.8,28.56 192.7,-62.92 322.12,-62.92 29.59,0 60.84,15.4 97.28,16.21 26.63,-39.75 55.67,-63.57 82.72,-103.74 76.68,-113.89 150.09,-223.96 204.46,-354.92 19.23,-46.32 36.72,-82.28 55.75,-130.7 27.71,-70.54 56.25,-215.35 109.63,-263.3 88.71,-79.68 82.5,31.69 82.5,-233.66 0,-214.38 -65.19,-317.32 -162.14,-462.09 -28.8,19.29 -49.65,56.75 -97.28,56.75 -56.97,0 -241.83,-44.61 -290.82,-73.99 -88.16,-52.88 -5.29,-160.47 28.69,-228.67 36.12,-72.48 65.26,-105.35 99.45,-110.79l21.66 0c31.78,4.53 69.15,27.7 119.9,61.66 86.04,57.59 144.45,62.85 166.7,173.78 8.24,41.09 8.76,26.51 34.6,54.57 71.06,77.14 122.2,177.99 150.52,279.15 59.42,212.3 34.11,271.43 34.11,468.52 46.86,12.51 81.07,70.62 81.07,129.71 0,96.3 -107.46,341.33 -151.23,432.47 -78.86,164.24 -162.59,304.18 -270.26,443.14 -28.76,37.11 -120.84,125.15 -134.11,149.63 -9.85,18.19 -10.36,35.55 -17.67,55.29 -5.6,15.11 -13.06,29.3 -20.97,43.88 -53.55,98.59 -261.62,186.3 -378.58,188.9 -1.76,78.58 -121.15,364.63 -154,429.7 -34.25,67.84 -62.31,124.11 -101.92,189.93 -51.26,85.18 -94.5,169.18 -63.35,283.33 15.21,55.74 51.64,113.8 84.02,159.19 90.64,127.01 256.85,217.13 407.01,257.76 93.28,25.23 191.05,31.32 282.25,25.92 187.76,-11.14 319.57,-140.82 400.6,-264.22 164.7,-250.81 155.78,-635.09 76.02,-925.91 -52.7,-192.14 -71.31,-284.44 -71.31,-496.19 0,-263.94 160.91,-555.22 372.92,-697.19 0,-159.74 -39.94,-198.5 50.11,-387.67 143.52,-301.5 559.82,-406.57 832.55,-203.14 80,59.67 151.11,138.23 188.76,232.81 84.57,212.47 47.53,458.5 -112.63,619.6 -120.75,121.48 -249.49,168.06 -439.95,168.06 -111.28,0 -288.69,-64.57 -348.59,-154.02 -66.63,44.61 -127.24,119.23 -162.18,194.53 -117.91,254.18 -44.94,451.78 16.27,697.21 67.91,272.28 75.85,589.4 -9.08,858.39 -37.58,119.03 -89.48,231.24 -164.46,330.06 -106.19,139.95 -253.84,260.48 -425.29,312.43 -99.28,30.09 -194.17,39.44 -301.05,39.44 -349.01,0 -700.56,-193.44 -888.57,-473.38 -87.38,-130.12 -116.68,-249.49 -116.68,-418.38 0,-201.93 256.66,-504.24 324.27,-794.47 -30.69,-14.73 -66.6,-21.51 -102.1,-35.71 -262.17,-104.82 -177.73,-203.65 -264.65,-286.63 -117.73,-112.4 -200.04,-259.55 -283.43,-397.54 -71.23,-117.88 -225.36,-463.55 -225.36,-585.33 0,-50.62 40.81,-110.86 82.82,-121.72l-9.86 -178.24c-10.32,-157.9 57.77,-402.68 160.11,-528.97 32.55,-40.19 59.11,-52.21 68.24,-102.01 10.95,-59.81 22.47,-70.49 66.76,-103.47l103.74 -66.51c47.56,-31.74 82.66,-52.81 112.06,-58.36z"/>
 </g>
</svg>
