<?xml version="1.0" encoding="UTF-8"?>
<!DOCTYPE svg PUBLIC "-//W3C//DTD SVG 1.1//EN" "http://www.w3.org/Graphics/SVG/1.1/DTD/svg11.dtd">
<!-- Creator: CorelDRAW 2021 (64-Bit Evaluation Version) -->
<svg xmlns="http://www.w3.org/2000/svg" xml:space="preserve" width="42.3332mm" height="42.3332mm" version="1.1" style="shape-rendering:geometricPrecision; text-rendering:geometricPrecision; image-rendering:optimizeQuality; fill-rule:evenodd; clip-rule:evenodd"
viewBox="0 0 4233.32 4233.32"
 xmlns:xlink="http://www.w3.org/1999/xlink"
 xmlns:xodm="http://www.corel.com/coreldraw/odm/2003">
 <defs>
  <style type="text/css">
   <![CDATA[
    .fil0 {fill:#C7B88E}
   ]]>
  </style>
 </defs>
 <g id="Layer_x0020_1">
  <metadata id="CorelCorpID_0Corel-Layer"/>
  <g id="_2034334338064">
   <path class="fil0" d="M669.33 2406.64zm0 0zm0 0c-113.03,-30.19 -166.44,-141.42 -212.95,-209.9l-61.58 -84.79c-22.39,-27.12 -40.02,-48.48 -61.2,-77.04 -21.45,-28.92 -46.31,-54.31 -63.77,-82.61 -50.49,-81.87 -10.02,-161.62 82.37,-163.68 0,-37.18 -11.01,-97.35 -14.81,-131.56 -5.39,-48.5 -7.62,-83.86 -14.23,-132.14 -13.76,-100.31 -21.94,-294.63 -76.09,-371.17 -16.58,-23.43 -67.33,-56.84 -98.32,-41.18 -43.22,21.81 -54.56,194.63 -56.72,245.12 -5.53,129.56 -49.01,437.23 -14.9,559.63 43.39,155.77 263.21,628.26 351.32,762.73 20.88,31.86 12.25,20.92 38.55,42.77l124.62 94.94c19.45,12.97 30.24,17.86 50.11,31.2l371.71 230.05c120.16,71.68 277.7,145.45 298.99,302.76 11.54,85.34 7.45,195.28 7.45,293.43l699.33 0c0,-91.57 -7.98,-192.57 4.59,-280.03 13.11,-91.18 21.26,-165.57 11.17,-256.17 -25.53,-229.43 -196.46,-438.54 -355.2,-579.96 -17.04,-15.17 -22.6,-18.7 -40.18,-33.01 -35.16,-28.64 -46.27,-35.69 -89.28,-57.09 -261.75,-130.25 -459.84,-70.36 -566.38,-149.21 -31.09,-23.01 -50,-43.02 -76.81,-69.56 -24.79,-24.53 -41.47,-46.48 -64.51,-73.73 -23.92,-28.31 -41.62,-52.33 -65,-81.37 -74.41,-92.45 -209.03,-212.62 -324.49,-252.89 -40.55,-14.14 -67.19,-21.61 -106.95,-11.46 -38.92,9.92 -71.8,32.16 -51.86,79.9l178.33 253.59c35.94,53.08 83.14,125.24 125.52,167.23 25.83,25.57 51.79,46.24 71.17,75.2z"/>
   <path class="fil0" d="M3596.78 2406.64zm0 0zm0 0c24,-35.84 91.42,-82.86 190.24,-232.6l179.01 -252.42c42.22,-76.53 -43.4,-116 -146.94,-81.49 -257.94,85.97 -377.05,359.7 -532.3,476.08 -85.52,64.13 -190.83,41.91 -351.94,79.05 -198.62,45.77 -237.5,74.88 -380.16,189.06 -51.12,40.93 -96.24,101.99 -138.97,153.78 -69.15,83.82 -167.46,263.67 -183.86,393.49 -11.9,94.21 -2.97,163.22 9.32,256.58 10.47,79.52 5.72,193.68 5.72,287.03l699.33 0c0,-122.24 -20.09,-299.89 45.24,-393.88l71.85 -82.66c57.88,-44.57 122.82,-79.88 184.24,-116.63 74.2,-44.41 519.87,-306.18 580.46,-387.23l83.18 -144.5c69.99,-140.2 231.1,-478.36 274.13,-620.36 35.2,-116.17 -3.96,-550.07 -24.92,-696.83 -6.11,-42.81 -9.99,-98.49 -37.94,-117.45 -57,-38.67 -119.68,46.17 -142.09,137.68 -20.77,84.79 -24.28,169.68 -36.32,264.55l-30.15 270.73c87.96,1.96 130.97,74.89 85.44,158.62 -14.61,26.85 -41.43,53.51 -59.91,78.33 -61.36,82.35 -131.73,159.81 -179.91,251.08 -29.68,56.23 -118.88,118.27 -162.75,129.99z"/>
   <path class="fil0" d="M1929.76 2032.57l0 -40.65c0,-95.97 91.94,-187.03 211.43,-187.03 96.56,0 195.16,91.54 195.16,187.03l0 40.65c0,95.98 -91.94,187.04 -211.43,187.04 -96.56,0 -195.16,-91.55 -195.16,-187.04zm-569.22 252.09c17.35,-74.48 42.79,-269.04 78.32,-336.4 0.59,-1.1 1.86,-3.5 3,-5.13l0 365.93c100.72,8.38 221.83,91.32 298.25,157.13 22.54,19.42 13.82,22.03 43.27,29.9 36.78,-69.49 58.75,-107.8 115.78,-160.72 24.67,-22.89 51.3,-40.02 80.71,-57.52 49.9,-29.7 76.13,-28.42 104.39,-41.98l46.92 50.66 52.54 -48.79c52.12,21.12 111.84,27.95 179.24,93.49 76.05,73.97 73.04,76.56 119.76,164.86 38.5,-10.28 83.77,-78.53 159.75,-116.74 46.31,-23.29 150.7,-73.81 206.18,-78.43 0,-45.52 -14.12,-109.56 -21.15,-157.74 -8.15,-55.86 -3.25,-117.98 -3.25,-175.66 21.3,24.51 41.63,115.27 48.15,147.02 10.16,49.49 29.04,120.51 33.17,170.12 35.47,-2.95 70.87,-15.04 109,-21.11 44.17,-7.02 80.83,-11.42 126.82,-11.42 -1.21,-54.26 -42.96,-230.27 -60.15,-289.51l-45.57 -125.2c-18.04,-40.21 -36.23,-79.6 -60.3,-118.59 -77.27,-125.14 -246.54,-277.8 -395.06,-312.4l-71.27 75.11 -68.7 -73.41c-102.56,20.72 -234.92,152.47 -266.63,160.94 -21.83,-14.62 -17.2,-14.4 -32.7,-32.35 -15.75,-18.24 -19.21,-17.23 -38.36,-34.83 -25.78,-23.7 -50.54,-45.74 -80.03,-66.34 -44.9,-31.38 -133.66,-80.95 -190.45,-94.17l-71.25 75.1 -77.04 -73.18c-205.38,89.54 -352.31,216.97 -445.14,429.24 -76.29,174.42 -78.76,269.63 -114.09,432.17 -15.03,69.18 0.48,34.47 140.56,61.43 33.17,6.38 64.29,15.94 95.33,18.52z"/>
   <path class="fil0" d="M1718.33 1325.12c64.74,0 122.06,2.95 180.8,-30.64 257.22,-147.13 201.44,-477.62 -21.32,-567.95 -251.09,-101.81 -507.08,140.38 -412.81,396.54 19.34,52.54 52.68,101.6 93.97,133.71 36.71,28.53 99.63,68.34 159.36,68.34z"/>
   <path class="fil0" d="M2206.24 1056.77c0,90.45 4.39,147.01 63.65,220.96 140.69,175.58 399.04,141.9 500.32,-31.06 132.77,-226.76 -65.09,-458.25 -230.57,-458.25 -97.47,0 -164.22,5.15 -246.23,87.17 -35.72,35.72 -87.17,114.64 -87.17,181.18z"/>
  </g>
 </g>
</svg>
