<?xml version="1.0" encoding="UTF-8"?>
<!DOCTYPE svg PUBLIC "-//W3C//DTD SVG 1.1//EN" "http://www.w3.org/Graphics/SVG/1.1/DTD/svg11.dtd">
<!-- Creator: CorelDRAW 2021 (64-Bit Evaluation Version) -->
<svg xmlns="http://www.w3.org/2000/svg" xml:space="preserve" width="42.3332mm" height="42.3332mm" version="1.1" style="shape-rendering:geometricPrecision; text-rendering:geometricPrecision; image-rendering:optimizeQuality; fill-rule:evenodd; clip-rule:evenodd"
viewBox="0 0 4233.32 4233.32"
 xmlns:xlink="http://www.w3.org/1999/xlink"
 xmlns:xodm="http://www.corel.com/coreldraw/odm/2003">
 <defs>
  <style type="text/css">
   <![CDATA[
    .fil0 {fill:#C7B88E}
   ]]>
  </style>
 </defs>
 <g id="Layer_x0020_1">
  <metadata id="CorelCorpID_0Corel-Layer"/>
  <g id="_2033760313952">
   <polygon class="fil0" points="1768.57,3607.73 2605.97,3607.73 2605.97,2079.27 1768.57,2079.27 "/>
   <path class="fil0" d="M175.08 2193.09c0,-35.34 33.1,-121.74 45.64,-157.61l369 -1053.77 313.97 889.28c35.65,107.95 100.66,231.92 100.66,346.49l-829.27 0 0 -24.39zm-138.21 237.74l0 -278.38c0,-47.23 146.33,-434.07 171.83,-511.1l291.59 -830.37c147.69,34.42 112.24,6.22 186.99,0 13.92,59.79 37.72,113.79 57.94,169.71 19.7,54.48 38.97,111.28 59.02,168.62l176.81 506.11c18.82,56.86 39.32,109.36 58.91,168.73 20.5,62.03 38.88,108.06 58.9,168.75 75.13,227.67 51.83,94.87 51.83,427.84 0,247.47 -328.12,342.36 -545.47,357.61 -33.17,2.34 -64.07,-6.15 -104.72,-8.24 -31.7,-1.62 -70.47,-9.24 -97.97,-15.85 -58.07,-13.93 -119.13,-33.56 -167.99,-59.64 -143.43,-76.55 -186.5,-155.75 -197.67,-263.79z"/>
   <path class="fil0" d="M3231.98 2176.84c0,-52.97 335.04,-966.01 385.21,-1118.85l26.45 -71.12c0.59,-1.11 1.84,-3.52 2.98,-5.16 7.25,31.12 15.17,43.9 25.42,72.15 9.04,24.93 16.67,49.79 26.41,79.28 43.4,131.26 362.8,1002.2 362.8,1059.95l0 24.39 -829.27 0 0 -40.64zm967.48 -1.84l0 270.13c0,168.16 -219.36,275.73 -372.18,310.74l-196.17 22.48c-144.56,-10.14 -259.76,-38.54 -361.14,-94.78 -224.24,-124.39 -184.33,-272.42 -184.33,-522.99 0,-40.08 98.01,-297.99 112.78,-342.5 42.24,-127.25 334.25,-936.75 350.64,-1007.1 74.74,6.22 39.29,34.42 186.99,0l59.96 167.68c20.06,60.7 38.4,106.71 58.89,168.75l233.7 668.74c85.81,252.05 106.62,259.72 110.86,358.85z"/>
   <path class="fil0" d="M1557.19 591.47l0 544.72c0,45.74 99.74,191.59 113.82,252.03l902.45 0.01c40.79,0.14 105.68,13.23 105.68,-24.4l0 -544.71c-35.58,0.79 -30.52,8.13 -89.43,8.13 -63.79,0 -86.71,-37.2 -130.08,-48.78 -154.54,103.48 -212.15,17.16 -276.43,0 -56.95,38.13 -67.77,48.78 -162.59,48.78 14.58,19.9 23.54,19.69 45.47,35.82 106.04,77.95 190.29,233.3 190.29,378.81l-138.2 0c0,-187.04 -152.86,-330.45 -301.35,-340.93 -32.9,-2.32 -53.57,1.05 -77.41,-12.01 -45.71,-25.04 -36.05,-70.45 -35.89,-134.85 0.18,-65.54 12.89,-219.82 -18.1,-250.31 -30.95,-30.44 -128.23,-48.83 -128.23,87.69z"/>
   <path class="fil0" d="M1695.4 1542.69l0 373.99c0,18.73 5.66,24.39 24.39,24.39l959.35 0 0 -398.38c0,-18.73 -5.65,-24.39 -24.39,-24.39l-934.96 0c-18.73,0 -24.39,5.66 -24.39,24.39z"/>
   <path class="fil0" d="M1492.15 3810.97l0 211.39 1390.24 0c0,-215.66 31.29,-284.56 -113.82,-284.56l-1162.6 0c-58.64,0 -113.82,14.55 -113.82,73.17z"/>
   <path class="fil0" d="M784.84 697.16l642.28 0 0 -146.34 -642.28 0c15.49,66.47 15.49,79.89 0,146.34z"/>
   <path class="fil0" d="M2809.22 697.16l642.28 0c-16.94,-72.69 -16.39,-76.03 0,-146.34l-642.28 0 0 146.34z"/>
   <path class="fil0" d="M2532.8 623.99c0,81.95 146.34,120.52 146.34,-40.64l0 -349.6c0,-113.16 -74.96,-97.56 -146.34,-97.56l0 487.8z"/>
   <path class="fil0" d="M2256.37 623.99c0,36.4 25.93,65.31 59.7,70.37 31.71,4.75 78.52,-23.82 78.52,-54.11l0 -504.06 -138.22 0 0 487.8z"/>
   <path class="fil0" d="M1979.96 640.25c0,29.05 44.14,56.17 72.24,54.77 33.83,-1.67 65.97,-30.17 65.97,-71.03l0 -487.8 -138.21 0 0 504.06z"/>
   <path class="fil0" d="M1695.4 250.02c0,130.21 -7.74,99.8 43.24,127.49 30.36,16.49 63.14,53.88 78.52,84.08l21.98 59.32c0.52,1.23 1.52,3.8 2.6,5.52l0 -390.24c-85.75,0 -146.34,-16.27 -146.34,113.83z"/>
   <path class="fil0" d="M175.08 697.16l219.51 0c-0.81,-36.76 -8.12,-32.31 -8.12,-73.17 0,-40.85 7.31,-36.4 8.12,-73.17l-219.51 0 0 146.34z"/>
   <path class="fil0" d="M3849.86 623.99c0,40.86 -7.3,36.41 -8.12,73.17l219.51 0 0 -146.34 -219.51 0c0.82,36.77 8.12,32.32 8.12,73.17z"/>
   <path class="fil0" d="M662.89 623.99c0,-40.18 -32.99,-73.17 -73.17,-73.17 -64.35,0 -91.05,77.24 -47.59,120.7 41.41,41.4 120.76,20.77 120.76,-47.53z"/>
   <path class="fil0" d="M3573.45 623.99c0,67.76 79.7,89.64 120.83,47.61 40.77,-41.64 18.47,-120.78 -47.66,-120.78 -40.19,0 -73.17,32.99 -73.17,73.17z"/>
   <path class="fil0" d="M1906.79 786.59l2.42 -2.42c-0.16,0.16 -3.23,1.62 -2.42,2.42z"/>
  </g>
 </g>
</svg>
