<?xml version="1.0" encoding="UTF-8"?>
<!DOCTYPE svg PUBLIC "-//W3C//DTD SVG 1.1//EN" "http://www.w3.org/Graphics/SVG/1.1/DTD/svg11.dtd">
<!-- Creator: CorelDRAW 2021 (64-Bit Evaluation Version) -->
<svg xmlns="http://www.w3.org/2000/svg" xml:space="preserve" width="42.3332mm" height="42.3332mm" version="1.1" style="shape-rendering:geometricPrecision; text-rendering:geometricPrecision; image-rendering:optimizeQuality; fill-rule:evenodd; clip-rule:evenodd"
viewBox="0 0 4233.32 4233.32"
 xmlns:xlink="http://www.w3.org/1999/xlink"
 xmlns:xodm="http://www.corel.com/coreldraw/odm/2003">
 <defs>
  <style type="text/css">
   <![CDATA[
    .fil0 {fill:#C7B88E}
   ]]>
  </style>
 </defs>
 <g id="Layer_x0020_1">
  <metadata id="CorelCorpID_0Corel-Layer"/>
  <path class="fil0" d="M2171.99 1878.96c0,48.8 65.99,108.55 92.57,141.76 49.78,62.18 82.28,100.38 149.58,100.38 59.04,0 94.18,-66.73 126.9,-99.62 129,-129.73 100.7,-141.2 50.8,-390.53l-67.33 -360.86c2.15,-23.51 39.64,-63.51 56.12,-83.87 22.64,-27.99 39.2,-54.16 68.07,-72.53 13.49,-8.57 83.29,-54.9 93.5,-54.9l374.94 0 0 1109.18c0,36.89 -66.72,23.75 -101.64,23.33 -51.47,-0.6 -74.6,-0.75 -101.19,23.8 -54.25,50.09 -39.31,118.36 -39.31,218.46 0,120.79 8.02,1351.76 -4.26,1393.94 -20.89,71.7 -88.14,58.93 -151.97,58.93 -52.64,0 -69.47,-47.39 -79.16,-92.67l-130.37 -924.14c-32.74,-118.06 -170.9,-103.79 -205.65,-15.46 -15.12,38.43 -18.11,101.21 -25.54,154.13l-87.14 623.68c-35.72,254.57 -18.24,254.46 -190.77,254.46 -10.61,0 -33.84,-15.36 -40.84,-21.64 -14.07,-12.62 -16.76,-20.19 -22.34,-40.15 -15.88,-56.97 -7.12,-1257.92 -7.12,-1391.08 0,-149.77 24.87,-243.93 -132.58,-242.36 -35.72,0.36 -109.56,14.4 -109.56,-23.23l0 -1109.18 367.12 0c27.57,0 32.22,8.46 49.28,21.02 65.5,48.28 41.28,2.57 118.14,100.58 12.34,15.74 59.52,68.94 61.9,82.61 3.28,18.83 -14.44,92.27 -20.37,121.9l-91.78 494.06zm186.16 -1773.14l93.86 0c62.77,5.81 126.46,23.4 188.75,54.59 60.88,30.49 66.24,38.75 112.67,74.79 16.22,12.58 19.95,13.59 33.94,28.55 135.51,144.76 201.3,388.25 111.07,576.32 54.67,0 109.35,0.07 164.03,0 72.62,-0.09 90.65,-5.77 143.48,20.55 74.4,37.06 129.91,111.41 129.91,190.35l0 1132.63c0,69.67 -34.38,127.54 -72.04,162.29 -44.21,40.78 -94,57.89 -170.11,64.23 0,328.07 0,656.14 0,984.22 0,235.61 48.56,510.8 -103.64,638.41 -67.08,56.22 -124.01,69.69 -188.64,72.4l-106.09 0c-121.05,0 -242.05,-119.62 -267.77,-255.57 -6.55,-34.61 -21.24,-109.76 -21.24,-150.62l-7.82 0c0,111.22 -26.84,211.14 -71.57,279.93 -71.8,110.44 -169.31,124.77 -271.33,126.26l-71.09 0c-108.55,0 -237.05,-111.55 -261.15,-230.95 -25.97,-128.63 -12.24,-1278.37 -12.24,-1464.08 -30.1,-2.51 -25.18,-7.81 -62.49,-7.81 0,39.7 7.81,35.63 7.81,70.3 0,90.76 -139.32,144.38 -199.01,58.41 -24.76,-35.68 -16.06,-59.71 -25.45,-99.52 -35.77,-151.59 -253.52,-155.89 -294.4,-1.27 -15.16,57.32 -3.05,1255.82 -4.12,1448.76 -1.08,194.82 -219.08,146.03 -219.08,30.88l0 -1445.07c0,-273.02 291.4,-459.53 554.59,-320.26 0,-291.61 0,-583.23 0,-874.85 0,-141.95 -23.57,-269.65 72.1,-365.33 89.84,-89.83 197.98,-64.29 365.33,-64.29 -14.87,-63.84 -39.06,-121.9 -39.06,-203.09 0,-280.48 225.97,-507.07 490.8,-531.16zm24.75 218.72l39.05 0c305.06,0 427.98,459.09 109.37,601.47 -256.68,114.69 -522.51,-140.92 -421.02,-405.4 37.41,-97.49 154.12,-196.07 272.6,-196.07z"/>
 </g>
</svg>
