<?xml version="1.0" encoding="UTF-8"?>
<!DOCTYPE svg PUBLIC "-//W3C//DTD SVG 1.1//EN" "http://www.w3.org/Graphics/SVG/1.1/DTD/svg11.dtd">
<!-- Creator: CorelDRAW 2021 (64-Bit Evaluation Version) -->
<svg xmlns="http://www.w3.org/2000/svg" xml:space="preserve" width="42.3332mm" height="42.3332mm" version="1.1" style="shape-rendering:geometricPrecision; text-rendering:geometricPrecision; image-rendering:optimizeQuality; fill-rule:evenodd; clip-rule:evenodd"
viewBox="0 0 4233.32 4233.32"
 xmlns:xlink="http://www.w3.org/1999/xlink"
 xmlns:xodm="http://www.corel.com/coreldraw/odm/2003">
 <defs>
  <style type="text/css">
   <![CDATA[
    .fil0 {fill:#C7B88E}
   ]]>
  </style>
 </defs>
 <g id="Layer_x0020_1">
  <metadata id="CorelCorpID_0Corel-Layer"/>
  <g id="_2034344072800">
   <path class="fil0" d="M1333.13 3645.33l1708.09 0c0,-383.54 149.86,-744.31 149.86,-1108.8l-2007.78 0c0,202.45 36.71,372.52 68.42,560.89 23.18,137.83 81.41,389.73 81.41,547.91z"/>
   <path class="fil0" d="M1453.01 768.48c0,1043.21 1468.36,996.03 1468.36,29.98 0,-615.97 -787.8,-970.19 -1237.1,-517.89 -114.75,115.53 -231.26,270.09 -231.26,487.91z"/>
   <path class="fil0" d="M2471.87 2446.63l809.11 0 -179.8 1198.7c270.16,0 610.97,-108.7 707.35,-283.62 117.16,-212.68 -213.71,-1233.49 -443.56,-1448.62 -145.58,-136.26 -498.49,-245.6 -773.22,-245.6 -46.76,97.41 -113.34,348.14 -143.56,455.81 -129.83,462.64 -117.94,323.33 23.68,323.33z"/>
   <path class="fil0" d="M524.01 3255.74c0,253.18 446.5,389.59 719.21,389.59l-148.12 -1025.84c-20.56,-112.41 -44.77,-142.67 32.99,-167.66 22.33,-7.15 749.75,-30.19 864.29,24.78 0,-224.01 -158.46,-588.96 -209.75,-809.12 -444.51,0 -790.99,157.12 -940.1,468.34 -107.64,224.68 -318.52,818.92 -318.52,1119.91z"/>
   <path class="fil0" d="M3910.25 4094.8c10.02,-120.27 74.19,-273.21 119.88,-359.57l-3685.92 0c111.74,479.62 196.08,367.85 297.1,361.87 605.1,-35.86 2599.99,-2.3 3268.94,-2.3z"/>
   <path class="fil0" d="M2022.36 2446.63l299.68 0c0,-192.69 -56.06,-365.84 -59.96,-539.41 -349.13,0 -101.51,251.4 -239.72,539.41z"/>
   <path class="fil0" d="M2052.34 1727.42c0,169.64 -2.98,149.86 239.72,149.86l0 -239.77c-169.82,0 -239.72,-23.53 -239.72,89.91z"/>
  </g>
 </g>
</svg>
