<?xml version="1.0" encoding="UTF-8"?>
<!DOCTYPE svg PUBLIC "-//W3C//DTD SVG 1.1//EN" "http://www.w3.org/Graphics/SVG/1.1/DTD/svg11.dtd">
<!-- Creator: CorelDRAW 2021 (64-Bit Evaluation Version) -->
<svg xmlns="http://www.w3.org/2000/svg" xml:space="preserve" width="42.3332mm" height="42.3332mm" version="1.1" style="shape-rendering:geometricPrecision; text-rendering:geometricPrecision; image-rendering:optimizeQuality; fill-rule:evenodd; clip-rule:evenodd"
viewBox="0 0 4233.32 4233.32"
 xmlns:xlink="http://www.w3.org/1999/xlink"
 xmlns:xodm="http://www.corel.com/coreldraw/odm/2003">
 <defs>
  <style type="text/css">
   <![CDATA[
    .fil0 {fill:#C7B88E}
   ]]>
  </style>
 </defs>
 <g id="Layer_x0020_1">
  <metadata id="CorelCorpID_0Corel-Layer"/>
  <g id="_2034001200976">
   <path class="fil0" d="M668.22 1184.96c0,-77.65 58.9,-128.88 111.7,-128.88 48.53,0 140.99,110.92 191.17,161.1 60.46,60.46 154.98,118.48 76.94,210.11 -77.15,90.62 -157.93,1.07 -214.4,-55.45 -30.04,-30.06 -165.41,-150.58 -165.41,-186.88zm1116.96 -627.21c0,-79.05 30.41,-137.47 111.69,-137.47 30.48,0 146.03,75.88 180.43,94.51 77.1,41.76 154.66,71.45 154.66,137.47 0,73.98 -59.01,120.29 -103.11,120.29 -6.55,0 -343.67,-163.81 -343.67,-214.8zm-824.83 8.59c-71.53,0 -103.1,-59.01 -103.1,-128.88 0,-57.46 83.04,-90.09 154.66,-128.88 35.05,-18.97 150.99,-94.51 189.02,-94.51 71.69,0 167.77,126.19 43.68,198.34 -39.88,23.18 -245.04,153.93 -284.26,153.93zm-274.93 -128.88c0,87.99 42.95,148.04 42.95,154.66 0,13.18 -87.32,316.52 -95.7,333.88 -27.02,55.97 -161.85,115.95 -125.69,290.92 22.95,110.93 113.9,174.16 184.88,245.13 110.25,110.25 214.32,232.18 397.37,135.32l62.15 58.14c-112.68,162.62 -22.26,149.89 20.35,160.09 32.97,7.88 52.37,15.74 80.75,22.34 36.91,-76.92 -2.54,-111.69 120.29,-111.69 29.87,0 94.51,24.59 94.51,85.92 0,43.19 -7.73,38.47 -8.59,77.32 20.05,9.63 128.52,40.79 154.65,42.97 28.98,-124.38 41.19,-167.55 -30.55,-270.17 -59.21,-84.7 -186.72,-122.73 -287.35,-99.29 -20.54,-30.66 -55.1,-56.68 -85.92,-77.32 91.82,-191.37 -15.42,-286.07 -135.33,-405.97 -61.36,-61.37 -156.9,-178.3 -259.9,-186.88l51.56 -171.83c205.68,17.11 137.14,13.93 369.44,-111.69 73.66,-39.83 186.54,-95.99 206.21,-180.43 27.51,2.28 158.88,41.2 180.43,51.54 0,243.25 71.66,238.17 314.24,381.7 29.09,17.2 58.41,35.95 88.21,49.27 56.28,25.18 70.3,-4.46 81.91,55.56 5.45,28.21 10.5,98.36 22.56,123.5 -20.62,5.5 -41.04,22.6 -57.74,36.76 -128.51,108.89 -124.74,316.59 14.79,410.02l122.36 -118.22c-143.42,-101.31 -7.01,-199.68 40.89,-199.68 65.5,0 49.62,15.74 103.1,51.55l113.76 -109.63c-29.43,-42.93 -83.69,-81.07 -137.58,-98.54 -47.97,-15.56 -41.74,-5.54 -50.28,-61.42 -5.29,-34.59 -9.14,-76.37 -20.42,-99.86 136.93,-91.69 183.84,-254.42 99.47,-383.01 -50.99,-77.73 -261.01,-188.6 -349.1,-235.15 -89.22,-47.14 -187.11,-42.78 -270.61,20.82 -47.82,36.42 -38.85,23.16 -167.11,-12.69 -158.86,-44.4 -81.47,-17.72 -159.48,-132.65 -97.25,-143.31 -255.72,-126.84 -383.48,-49.44 -47.54,28.8 -92.56,54.16 -141.74,81.64 -82.92,46.33 -200.26,110.38 -200.26,246.51z"/>
   <path class="fil0" d="M1321.22 2413.61c-52.48,-4.37 -102.18,-30 -154.66,-34.38 14.62,-30.47 20.97,-67.31 30.83,-106.63 10.43,-41.58 20.12,-68.7 29.32,-108.16 43.05,20.65 106.61,24.03 146.06,42.96 -5.02,60.26 -37.61,146.34 -51.55,206.21zm-489.74 94.5l286.67 74.19c111.14,33.23 172.15,51.08 258.22,111.24 340.68,238.08 339.2,750.75 -3.53,991.74 -264.29,185.82 -460.88,67.7 -536.03,108.26 -125.01,67.47 -114.81,232.47 -19.26,292.23 46.33,28.96 171.14,29.03 237.31,29.03 369.63,0 710.41,-261.97 838.43,-596.43 111.77,-292.05 67.11,-585.34 -97.72,-848.81 -31.44,-50.27 -123.71,-160.81 -173.64,-187.22 4.56,-54.75 76.41,-283.16 94.51,-360.86 -61.56,-14.34 -120.47,-30.13 -183.47,-48.51l-546.84 -149.11 -80.72 288.74c-15.58,62.98 -72.95,251.34 -73.93,295.51z"/>
   <path class="fil0" d="M2479.15 1633.7l111.6 -115.72 150.11 154.75 -111.6 115.73 -150.11 -154.76zm-326.65 64.65l421.01 425.26c47.4,-68.97 214.07,-208.73 270.67,-266.29 355.87,-361.86 1028.83,-109.96 1028.83,436 0,288.67 -180.43,388.26 -180.43,472.55 0,77.19 73.76,171.84 146.06,171.84 101.31,0 107.22,-5.76 176.88,-98.07 307.86,-407.95 196.03,-1025.45 -221.37,-1309.47 -198.94,-135.36 -458.02,-198.35 -703.98,-148.58 -35.13,7.11 -121.76,35.35 -145.09,35.35 -14.43,0 -219.06,-223.25 -257.74,-249.16l-534.84 530.57z"/>
   <path class="fil0" d="M101.17 3152.51c0,271.12 64.78,452.98 220.73,638.46 60.54,72.01 86.12,95.48 164.52,153.37 23.18,17.12 75.78,52.08 104.48,58.77 0,-217.47 32.86,-195.81 103.1,-300.71 -33.37,-45.55 -274.94,-160.22 -274.94,-532.71 0,-158.2 91.73,-347.17 196.31,-430.89 31.71,-25.38 89.37,-75.11 130.18,-84.63 -19.37,-26.44 -5.98,-11.91 -45.31,-23.42 -24.23,-7.09 -29.37,-10.31 -57.79,-10.94 0,-80.13 67.1,-226.82 68.74,-300.71 -154.19,35.91 -320.66,183.28 -419.07,302.65 -92.56,112.28 -190.95,328.7 -190.95,530.76z"/>
   <path class="fil0" d="M2335.06 2284.73c0,205.91 82.05,449.46 212.77,594.86 96.58,107.42 188.09,192.94 328.61,255.65 207.87,92.75 445.68,116.78 669.03,41.99 58.71,-19.67 175.61,-58.86 207.26,-102.05 -107.35,-51.51 -175.5,-108.77 -206.21,-240.58 -27.17,6.34 -38.14,15.7 -61.29,24.64 -21.43,8.27 -40.53,14.86 -64.43,21.48 -146.19,40.49 -279.06,20.81 -409.53,-34.96 -128.03,-54.74 -252.96,-184.62 -304.39,-314.24 -37.06,-93.41 -45.32,-136.78 -45.32,-263.97 -42.6,11.36 -60.95,54.85 -94.52,77.32l-212.69 -216.91c-3.14,48.53 -19.29,108.42 -19.29,156.77z"/>
  </g>
 </g>
</svg>
