<?xml version="1.0" encoding="UTF-8"?>
<!DOCTYPE svg PUBLIC "-//W3C//DTD SVG 1.1//EN" "http://www.w3.org/Graphics/SVG/1.1/DTD/svg11.dtd">
<!-- Creator: CorelDRAW 2021 (64-Bit Evaluation Version) -->
<svg xmlns="http://www.w3.org/2000/svg" xml:space="preserve" width="42.3332mm" height="42.3332mm" version="1.1" style="shape-rendering:geometricPrecision; text-rendering:geometricPrecision; image-rendering:optimizeQuality; fill-rule:evenodd; clip-rule:evenodd"
viewBox="0 0 4233.32 4233.32"
 xmlns:xlink="http://www.w3.org/1999/xlink"
 xmlns:xodm="http://www.corel.com/coreldraw/odm/2003">
 <defs>
  <style type="text/css">
   <![CDATA[
    .fil0 {fill:#C7B88E}
   ]]>
  </style>
 </defs>
 <g id="Layer_x0020_1">
  <metadata id="CorelCorpID_0Corel-Layer"/>
  <g id="_2034344025472">
   <path class="fil0" d="M1068.64 1491.06l-568.26 928.42 120.14 87.96c15.97,12.2 23.78,21.28 39.93,32.1 103.32,-69.19 173.23,-192.09 304.15,-192.09 120.41,0 208.09,94.13 208.09,216.1 35.53,-8.28 182.49,-134.37 319.11,17.04 53.73,59.55 57.06,102.85 57.06,191.05 181.67,0 106.79,19.38 184.08,40.02l-25.37 30.78c79.51,54.8 14.61,40.94 73.39,25.25 22.69,97.37 24.01,24.68 24.01,160.07 87.2,0 126.12,-6.07 194.35,61.77 21.25,21.13 26.94,25.64 40.95,55.09 58.16,122.22 -23.29,188.39 -27.19,235.3 62.41,33.03 277.31,176.08 344.15,176.08 156.47,0 234.68,-176.59 64.03,-288.14l-353.67 -246.6c-33.56,-22.65 -62.52,-29.01 -62.52,-65.54 0,-62.75 87.46,14.11 107.43,28.64l487.02 337.35c66.35,48.3 144.07,63.03 208.3,4.57 62.78,-57.13 62.47,-168.47 -4.43,-224.44 -74.41,-62.26 -446.78,-314.71 -566.62,-401.82 -22.35,-16.23 -28.86,-15.46 -31.61,-48.43 53.44,-35.79 52.74,-3.28 212.89,107.25 64.4,44.46 119.46,83.74 182.68,129.46l267.03 189.19c231.41,156.66 350.83,-129.26 214.75,-230.77 -19.82,-14.79 -32.65,-21.68 -51.85,-36.19l-460.55 -331.81c-20.35,-14.01 -31,-22.9 -50.48,-37.56l-103.13 -72.94c-25,-17.64 -30.12,-19.94 -43.26,-44.78 31.24,-59.04 50.28,-18.16 121.64,30.43l632.88 455.61c169.13,129.34 342.04,-91.42 208.1,-224.1l-911.13 -745.66c-78.22,-62.82 -23.19,-30.82 -196.47,26.59 -164.16,54.4 -322.17,74.42 -489.76,3.37 -166.04,-70.41 -172.2,-180.05 -56.44,-237.42l179.05 -93.07c42.8,-22.28 146.64,-87.45 183.98,-96.15l0 -16.01c-197.27,-19.67 -113.54,-5.07 -304.13,16.02 -116.54,12.88 -325.01,36.83 -439.95,40.27 -39.54,1.18 -81.03,-1.71 -120.58,-0.53 -42.38,1.27 -60.45,8.27 -111.79,8.27z"/>
   <path class="fil0" d="M1957.05 1859.22c104.3,0 153.57,-11.71 245.24,-42.89 255.6,-86.94 80.3,-158.27 444.11,129.9l730.53 598.07c1.15,1.18 2.8,2.89 3.92,4.08l40.87 39.18c17.55,-11.76 272.12,-255.08 272.12,-280.13 0,-10.63 -51.26,-89.5 -61.45,-106.63l-466.79 -757.76c-68.6,5.7 -154.9,80.03 -304.14,80.03 -195.18,0 -393.62,-136.06 -560.25,-136.06 -73.57,0 -492.49,247.12 -587.17,293.23 -169.11,82.34 110.62,178.98 243.01,178.98z"/>
   <path class="fil0" d="M3173.6 1338.99l563.82 924.87c11.42,16.18 14.33,14.63 24.27,31.74l108.23 187.91c57.97,-30.68 275.29,-160.37 304.14,-168.08 -1.09,-48.78 -229.69,-1014.27 -251.29,-1109.33 -29.22,-128.62 -55.96,-247.28 -84.86,-371.34 -40.33,21.33 -290.46,220.64 -331.53,252.74l-332.78 251.49z"/>
   <path class="fil0" d="M76.19 2339.44c50.82,11.84 254.67,148.55 304.14,160.07 29.7,-44.35 56.67,-90.23 85.51,-138.59l610.81 -997.92c-77.03,-51.58 -242.89,-188.54 -330.42,-253.86 -35.59,-26.55 -301.25,-241.66 -333.89,-250.37l-254.52 1106.09c-14.81,63.22 -26.56,121.45 -41.52,182.58 -9.77,39.91 -40.11,156.36 -40.11,192z"/>
   <path class="fil0" d="M876.55 2971.73c0,178.69 170.73,197.65 245.01,140.95l339.67 -300.62c98.61,-143.04 -80.81,-367.32 -270.48,-174.43l-116.02 100.08c-38.71,34.4 -73.25,69.3 -114.76,101.33 -37.36,28.85 -83.42,71.28 -83.42,132.69z"/>
   <path class="fil0" d="M1180.7 3187.83c0,103.17 55.66,176.08 144.06,176.08 71,0 95.36,-33.15 134.94,-65.15 23.24,-18.79 29.29,-23.26 51.03,-45.02 92.82,-92.92 238.23,-162.38 238.23,-282.01 0,-67.79 -66.4,-144.07 -128.07,-144.07 -111.64,0 -110.07,21.47 -214.17,113.98l-99.91 84.18c-19.65,17.36 -27.22,29.46 -49.46,46.58 -31.25,24.04 -76.65,65.9 -76.65,115.43z"/>
   <path class="fil0" d="M620.44 2715.61c0,116.47 70.03,160.07 176.08,160.07 55.53,0 197.55,-144.7 268.89,-203.32 132.55,-108.94 -11.73,-375.77 -213.06,-221.07l-89.94 78.15c-48.6,47.33 -141.97,99.7 -141.97,186.17z"/>
   <path class="fil0" d="M1540.86 3371.92c0,81.8 70.27,152.06 152.07,152.06 79.49,0 196.75,-120.72 261.92,-178.28 143.07,-126.39 -49.03,-360.13 -211.64,-219.64l-80.25 71.83c-49.11,49.92 -122.1,78.87 -122.1,174.03z"/>
  </g>
 </g>
</svg>
