<?xml version="1.0" encoding="UTF-8"?>
<!DOCTYPE svg PUBLIC "-//W3C//DTD SVG 1.1//EN" "http://www.w3.org/Graphics/SVG/1.1/DTD/svg11.dtd">
<!-- Creator: CorelDRAW 2020 (64 Bit) -->
<svg xmlns="http://www.w3.org/2000/svg" xml:space="preserve" width="42.3332mm" height="42.3332mm" version="1.1" style="shape-rendering:geometricPrecision; text-rendering:geometricPrecision; image-rendering:optimizeQuality; fill-rule:evenodd; clip-rule:evenodd"
viewBox="0 0 4233.32 4233.32"
 xmlns:xlink="http://www.w3.org/1999/xlink"
 xmlns:xodm="http://www.corel.com/coreldraw/odm/2003">
 <defs>
  <style type="text/css">
   <![CDATA[
    .fil0 {fill:#B0B0B0}
   ]]>
  </style>
 </defs>
 <g id="Camada_x0020_1">
  <metadata id="CorelCorpID_0Corel-Layer"/>
  <g id="_1407869813936">
   <path class="fil0" d="M3294.12 3771.56c0,-143.07 39.55,-223.98 145.26,-286.94 149.71,-89.17 398.99,3.76 398.99,246.93l0 264.12 -544.25 0 0 -224.11zm-680.3 -240.11c0,-301.6 342.16,-356.21 473.6,-193.46 46.64,57.75 70.64,115.44 70.64,217.48l0 440.2 -544.24 0 0 -464.22zm-816.38 -40.01c0,-161.66 149.11,-312.14 352.16,-312.14 159.79,0 320.15,153.29 320.15,312.14l0 504.23 -672.31 0 0 -504.23zm-688.31 64.03c0,-123.4 46.05,-226.43 146.46,-277.73 100.82,-51.51 230.69,-37.8 315.9,47.47 48.91,48.93 81.88,111.49 81.88,206.24l0 464.22 -544.24 0 0 -440.2zm-680.31 176.08c0,-243.87 279.79,-386.29 474.46,-186.33 92.05,94.55 69.79,296.97 69.79,450.45l-544.25 0 0 -264.12zm3137.43 -688.31c172.02,0 197.7,264.12 -16,264.12 -143.66,0 -163.41,-264.12 16,-264.12zm-2849.31 264.12c-214.58,0 -187.03,-264.12 -16,-264.12 71.2,0 125.62,54.58 130.95,123.24 5.11,65.69 -48.81,140.88 -114.95,140.88zm2032.94 -344.16c0,-133.24 202.15,-178.25 256.51,-48.31 85.03,203.3 -256.51,272.79 -256.51,48.31zm-1376.63 -128.07c74.86,0 144.07,55.69 144.07,128.07 0,213.93 -324.37,165.82 -260.83,-36.34 17.94,-57.04 82.78,-91.73 116.76,-91.73zm560.25 16.02c0,-71.17 6.26,-105.78 57.79,-158.32 108.39,-110.52 342.4,-70.82 342.4,158.32 0,99.27 -86.85,184.08 -216.1,184.08 -91.22,0 -184.09,-92.86 -184.09,-184.08zm1160.54 -64.04l0 -1592.72 952.43 0 0 2321.06 -128.06 0c-11.7,-43.83 -100.03,-132.31 -144.07,-144.07 2.97,-35.7 -1.07,-11.8 13.42,-34.6 18.9,-29.78 42.01,-64.53 48.68,-103.5 32.16,-187.85 -102.1,-334.11 -270.19,-334.11 -146.85,0 -272.13,116.71 -272.13,288.13 0,88.15 37.85,125.04 72.04,176.08 -27.25,18.24 -53.92,38.53 -80.04,56.03 -9.51,-19.85 -6.43,-29.59 -31.91,-80.15 -31.65,-62.81 -100.67,-157.94 -168.18,-175.97 16.51,-31.2 29.37,-39.61 45.58,-74.47 32.61,-70.1 38.27,-155.45 5.39,-224.62 -6.88,-14.49 -12.26,-25.21 -19.42,-36.6 -10.67,-17.01 -23.54,-21.68 -23.54,-40.49zm-1984.91 168.08c0,127.42 30,128.67 72.03,208.1 -72.89,19.46 -153.44,134.3 -184.02,208.15 -7.42,17.91 -8.04,31.22 -16.07,47.97 -26.12,-17.5 -52.79,-37.79 -80.03,-56.03 60.04,-89.68 72.03,-89.71 72.03,-216.1 0,-160.55 -231.6,-336.1 -425.53,-201.42 -131.82,91.54 -161.92,251.22 -71.52,386.32 19.62,29.33 13.49,-0.84 16.83,39.2 -44.04,11.76 -132.37,100.24 -144.07,144.07l-128.06 0 0 -2321.06 952.43 0 0 1592.72c0,20.7 -8.23,17.17 -20.33,35.7 -8.9,13.65 -13.7,23.26 -19.98,36.04 -13.85,28.17 -23.71,53.26 -23.71,96.34zm680.3 -128.05c0,62.61 14.41,110.83 37.15,154.95 38.04,73.88 58,79.97 82.91,117.17 -57.71,13.45 -168.99,119.54 -184.08,176.08 -39.85,-10.64 -6.27,-7.12 -65.91,-62.15 -22.03,-20.33 -55.04,-37.28 -70.15,-57.91 33.58,-63.45 44.89,-41.36 66.56,-149.91 29.28,-146.74 -104.52,-300.42 -234.4,-306.55 -34.93,-1.65 -81.7,-2.58 -104.29,8.26l0 -2537.16 1632.75 0 0 2537.16c-109.68,-52.63 -364.04,56.51 -337.96,289.41 4.29,38.36 10.09,59.07 23.18,89.4 14.17,32.81 26.51,38.88 42.65,69.39 -18.71,25.55 -58.46,39.13 -101.35,90.75 -21.48,25.85 -0.44,20.16 -34.71,29.31 -15.09,-56.54 -126.37,-162.63 -184.08,-176.08 25.31,-37.8 59.01,-68.75 81.48,-110.61 123.14,-229.38 -68.94,-497.67 -281.57,-497.67l-40.02 0c-174.14,0 -328.16,162.14 -328.16,336.16zm-616.28 -2705.24l0 936.43 -1024.46 0c-45.39,0 -64.03,42.65 -64.03,56.03l0 2473.12c0,89.88 128.58,72.04 208.09,72.04 0,45.65 -7.99,55.35 -7.99,104.04l0 264.12c0,57.55 14.94,104.05 72.03,104.05l3553.61 0c57.09,0 72.04,-46.5 72.04,-104.05l0 -264.12c0,-48.69 -8,-58.39 -8,-104.04 79.51,0 208.09,17.84 208.09,-72.04l0 -2465.13 0 -0.96c-0.13,-20.03 -4.24,-28.73 -14.67,-40.39 -5.53,-6.19 -30.1,-22.67 -41.36,-22.67l-1032.46 0 0 -936.43c0,-49.94 -22.91,-88.04 -72.04,-88.04l-1776.81 0c-49.13,0 -72.04,38.1 -72.04,88.04z"/>
   <path class="fil0" d="M1797.44 442.05l672.31 0 0 408.18 -672.31 0 0 -408.18zm-144.07 -64.03l0 544.25c0,43.15 39.58,72.03 80.04,72.03l800.37 0c40.46,0 80.04,-28.88 80.04,-72.03l0 -544.25c0,-39.56 -32.48,-72.03 -72.04,-72.03l-816.37 0c-39.56,0 -72.04,32.47 -72.04,72.03z"/>
   <polygon class="fil0" points="420.81,2699.07 564.88,2699.07 564.88,1602.57 420.81,1602.57 "/>
   <polygon class="fil0" points="3702.31,2699.07 3846.38,2699.07 3846.38,1602.57 3702.31,1602.57 "/>
   <polygon class="fil0" points="3294.12,2699.07 3430.19,2699.07 3430.19,1602.57 3294.12,1602.57 "/>
   <polygon class="fil0" points="837,2699.07 973.07,2699.07 973.07,1602.57 837,1602.57 "/>
   <path class="fil0" d="M2061.56 1418.49l0 120.06 144.07 0c0,-172.96 27.08,-144.07 -120.06,-144.07 -18.44,0 -24.01,5.57 -24.01,24.01z"/>
   <polygon class="fil0" points="2061.56,1266.42 2205.63,1266.42 2205.63,1122.35 2061.56,1122.35 "/>
   <path class="fil0" d="M2333.69 1146.36l0 120.06 144.07 0 0 -144.07 -120.06 0c-18.44,0 -24.01,5.57 -24.01,24.01z"/>
   <path class="fil0" d="M2333.69 1418.49l0 120.06 144.07 0 0 -144.07 -120.06 0c-18.44,0 -24.01,5.57 -24.01,24.01z"/>
   <path class="fil0" d="M2605.81 1418.49l0 120.06 144.07 0 0 -144.07 -120.06 0c-18.44,0 -24.01,5.57 -24.01,24.01z"/>
   <path class="fil0" d="M1789.43 1266.42l144.07 0 0 -120.06c0,-18.44 -5.57,-24.01 -24.01,-24.01l-120.06 0 0 144.07z"/>
   <path class="fil0" d="M1517.32 1538.55l144.06 0 0 -120.06c0,-18.44 -5.57,-24.01 -24.01,-24.01l-120.05 0 0 144.07z"/>
   <path class="fil0" d="M1789.43 1538.55l144.07 0 0 -120.06c0,-18.44 -5.57,-24.01 -24.01,-24.01l-120.06 0 0 144.07z"/>
   <polygon class="fil0" points="1517.32,2354.92 1661.38,2354.92 1661.38,2218.85 1517.32,2218.85 "/>
   <polygon class="fil0" points="1789.43,2354.92 1933.5,2354.92 1933.5,2218.85 1789.43,2218.85 "/>
   <polygon class="fil0" points="2061.56,2354.92 2205.63,2354.92 2205.63,2218.85 2061.56,2218.85 "/>
   <polygon class="fil0" points="2333.69,2354.92 2477.76,2354.92 2477.76,2218.85 2333.69,2218.85 "/>
   <polygon class="fil0" points="2605.81,2354.92 2749.88,2354.92 2749.88,2218.85 2605.81,2218.85 "/>
   <polygon class="fil0" points="1517.32,1810.67 1661.38,1810.67 1661.38,1674.61 1517.32,1674.61 "/>
   <polygon class="fil0" points="1789.43,1810.67 1933.5,1810.67 1933.5,1674.61 1789.43,1674.61 "/>
   <polygon class="fil0" points="2061.56,1810.67 2205.63,1810.67 2205.63,1674.61 2061.56,1674.61 "/>
   <polygon class="fil0" points="2333.69,1810.67 2477.76,1810.67 2477.76,1674.61 2333.69,1674.61 "/>
   <polygon class="fil0" points="2605.81,1810.67 2749.88,1810.67 2749.88,1674.61 2605.81,1674.61 "/>
   <polygon class="fil0" points="1517.32,2082.79 1661.38,2082.79 1661.38,1946.74 1517.32,1946.74 "/>
   <polygon class="fil0" points="1789.43,2082.79 1933.5,2082.79 1933.5,1946.74 1789.43,1946.74 "/>
   <polygon class="fil0" points="2061.56,2082.79 2205.63,2082.79 2205.63,1946.74 2061.56,1946.74 "/>
   <polygon class="fil0" points="2333.69,2082.79 2477.76,2082.79 2477.76,1946.74 2333.69,1946.74 "/>
   <polygon class="fil0" points="2605.81,2082.79 2749.88,2082.79 2749.88,1946.74 2605.81,1946.74 "/>
  </g>
 </g>
</svg>
