<?xml version="1.0" encoding="UTF-8"?>
<!DOCTYPE svg PUBLIC "-//W3C//DTD SVG 1.1//EN" "http://www.w3.org/Graphics/SVG/1.1/DTD/svg11.dtd">
<!-- Creator: CorelDRAW 2020 (64 Bit) -->
<svg xmlns="http://www.w3.org/2000/svg" xml:space="preserve" width="42.3332mm" height="42.3332mm" version="1.1" style="shape-rendering:geometricPrecision; text-rendering:geometricPrecision; image-rendering:optimizeQuality; fill-rule:evenodd; clip-rule:evenodd"
viewBox="0 0 4233.32 4233.32"
 xmlns:xlink="http://www.w3.org/1999/xlink"
 xmlns:xodm="http://www.corel.com/coreldraw/odm/2003">
 <defs>
  <style type="text/css">
   <![CDATA[
    .fil0 {fill:#B0B0B0}
   ]]>
  </style>
 </defs>
 <g id="Camada_x0020_1">
  <metadata id="CorelCorpID_0Corel-Layer"/>
  <g id="_1407770624880">
   <path class="fil0" d="M3349.11 3905.38c-6.37,-41.14 32.08,-129.71 123.43,-136.12 71.87,-5.05 130.16,56.99 134.56,121.43 9.23,135.31 -183.45,186.67 -241.54,63.22 -2.1,-4.47 -16.07,-46.04 -16.45,-48.53zm-1429.79 0c-6.36,-41.14 32.09,-129.71 123.43,-136.12 162.68,-11.42 185.19,244.26 13.13,256.01 -71.64,4.88 -126.56,-55.28 -136.56,-119.89zm-24.37 -917.99l1714.12 0c0,191.21 -33.58,248.23 -73.68,446.25 -14.32,70.72 -20.79,100.37 -66.17,145.03 -39.82,39.18 -84.42,58.62 -160.73,58.62l-1088.58 0c-233.48,0 -225.37,-205.35 -281.17,-449.98l-43.79 -199.92zm-1145.44 885.49c0,203.13 -259.96,203.13 -259.96,0l0 -1145.45 649.9 0 0 1145.45c0,203.13 -259.97,203.13 -259.97,0l0 -1015.47 -129.97 0 0 1015.47zm1429.78 -1600.38c0,-78.75 26.91,-182.44 54.01,-238.44 222.72,-460.17 839.08,-460.17 1061.8,0 229.43,474.07 -295.27,998.77 -769.34,769.34 -204.22,-98.84 -346.47,-292.18 -346.47,-530.9zm-129.98 -40.62c0,180.23 29.34,327.45 136.89,464.27 15.23,19.37 30.63,40.06 47.75,57.85l107.81 103.41 -479.3 0 -35.95 -175.27c-55.2,-250.94 -149.41,-214.67 -427.1,-214.67 -15.82,-67.85 -56.1,-153.38 -129.99,-170.6 0,-203.63 36.06,-207.75 220.94,-323.36 39.49,-24.7 74.25,-51.48 112.52,-74.32 204.32,-121.98 111.84,-109.64 239.52,-85.95 77.38,14.35 269.99,4.32 361.26,4.32 -7.9,29.58 -154.35,191.61 -154.35,414.32zm-901.75 -682.39l0 0zm-8.11 641.77l0 81.24 -779.89 0 0 129.98 796.13 0c31.5,0 61.79,10.72 79.54,26.08 63.98,55.37 32.07,168.89 -79.54,168.89l-779.88 0c-249.8,0 -211.22,-254.64 -211.22,-422.43 0,-234.18 125.53,-389.89 293.47,-453.93 178.37,-68.03 483.11,-21.95 713.94,-33.44 111.99,-5.57 203.49,-52.98 276.62,-97.08l578.93 -355.29c56.96,-33.89 129.87,-101.51 190.37,-41.26 27.68,27.58 46.78,104.7 -11.93,154.7l-616.54 398.93c-87.44,58.52 -324.63,199.57 -374.62,259.03 -34.28,40.79 -75.38,112.96 -75.38,184.58zm-649.9 -958.6c0,-121.21 78.56,-245.94 192.34,-295.08 336,-145.12 608.43,278.06 362.01,524.49 -18.01,18.01 -70.9,54.48 -96.8,65.67 -170.85,73.78 -360.36,-6.62 -427.68,-162.49 -13.05,-30.21 -29.87,-93.74 -29.87,-132.59zm2827.07 -40.62c10.43,19.72 18.78,37.3 29.88,59.47 11.88,23.73 16.87,41.31 26.98,62.38 50.55,-11.77 121.59,-77.2 156.42,-111.66 28.49,-28.2 35.35,-36.86 58.2,-71.79 38.58,-58.96 25.81,-128.31 168.54,-53.47 252.29,132.29 219.77,491.22 -26.64,585.33 -108.79,41.54 -403.57,25.29 -543.37,25.29 -0.15,0 -417.28,-284.87 -807.24,-19.24 -47.19,32.15 -115.36,19.24 -208.23,19.24 -78.52,0 -157.06,0 -235.58,0 9.07,-7.9 -3.25,1.53 13.3,-11.06l236.97 -152.98c21.27,-13.63 38.72,-25.92 58.43,-39.06 115.67,-77.06 129.98,-109.77 129.98,-251.83 0,-94.3 -100.68,-194.97 -194.97,-194.97 -124.96,0 -139.24,34.68 -249.22,100.1 -24.38,14.5 -43.11,24.78 -66.02,39.58l-196.19 120.64c-22.97,13.85 -40.07,26.88 -65.37,40.25 0,-84.05 46.91,-161.54 88.95,-203.51 40.52,-40.47 122.46,-91 195.39,-97.06 -36.94,-158.54 -51.92,-281.67 21.52,-433.41 213.24,-440.59 745.46,-422.05 970.82,-144.61 14.58,17.94 33.62,36.53 39.38,58.09 38.44,-3.19 291.02,-168.62 510.09,50.45 241.57,241.59 44.65,587.33 -112.02,623.83zm-2169.06 357.45c11.13,-16.6 21.72,-28.4 34.97,-46.29 13.92,-18.79 22.57,-33.78 34.87,-54.49 71.81,-120.92 65.07,-304.98 8.84,-416.59 -37.2,-73.83 -94.92,-139.16 -160.3,-180.89 -367.19,-234.38 -800.49,111.01 -693.12,498.14 35.34,127.4 73.67,139.94 124.84,216.36 -24.19,11.61 -61.95,17.26 -91.85,30.01 -27.42,11.68 -55.29,25.97 -81.4,40.44 -23.89,13.24 -53.13,32.58 -72.34,49.53 -23.45,20.69 -45.04,34.85 -63.24,58.61 -174.77,228.03 -154.21,277.95 -154.22,576.93 0,97.73 -6.56,145.93 26.85,216.86 48.42,102.82 148.83,189.32 298.1,189.32 0,109.04 -6.37,1171.78 2.95,1223.74 27.58,153.85 211.4,261.39 376.34,179.14 35.85,-17.87 48.23,-35.98 75.64,-54.33 38.8,25.97 80.07,74.26 162.63,81.13 88.09,7.34 150.15,-18.58 196.24,-55.34 127.43,-101.68 96.06,-240.41 96.06,-399.48 0,-333.08 0,-666.16 0,-999.23 41.99,-11.22 94.4,-63.62 105.61,-105.61 260.53,0 286.98,-27.76 315.37,90.82l147.69 664.69c16.05,67.91 34.04,183.73 65.3,243.4 12.36,23.56 33.14,38.44 40.3,65.3 -42.61,9.93 -85.95,51.76 -109.17,85.8 -96.17,141.02 -37.56,332.73 118.22,392.58 234.28,90.02 440.15,-153.3 324.04,-372.77l974.84 0c-116.83,220.8 90.6,462.47 324.03,372.77 252.71,-97.09 178.48,-438.9 9.05,-478.38 44.02,-83.19 42.31,-38.43 73.14,-162.45 18.66,-75.07 81.55,-332.12 81.5,-397.8 -0.07,-81.32 -0.29,-162.67 -0.29,-244l-552.42 0c28.01,-41.83 231.42,-160.64 283.41,-455.85 61.55,-349.52 -134.98,-545.33 -145.3,-584 267.74,0 442.37,36.37 615.55,-139.95 150.5,-153.23 161.96,-398.22 47.02,-571.35 -62.08,-93.52 -153.69,-156.29 -261.64,-185.18 -24.72,-6.62 -31.55,-3.75 -51.61,-13.37 0,-138.36 -2.64,-187.45 -46.25,-286.84 -85.81,-195.6 -298.33,-315.24 -530.22,-297.76 -50.53,3.81 -94.84,22.03 -138.43,32.18 -64.5,-96.34 -237.46,-182.74 -357.24,-211.42 -531.25,-127.21 -967.82,382.19 -869.44,804.45 -79.05,18.42 -156.45,109.61 -199.93,173.77 -69.16,102.06 -68.16,188.94 -68.16,305.54 -54.47,14.55 -148.78,121.86 -316.83,121.86z"/>
   <path class="fil0" d="M2699.21 1947.55l-129.98 0c0,167.94 -28.97,293.16 97.55,365.49 103.47,59.15 162.41,-28.59 162.41,154.43 -61.72,0 -112.44,10.3 -129.98,-64.99l-129.98 0c0,60.86 14.25,86.23 41.41,121.06 88.76,113.79 88.57,-28.46 88.57,203.89l129.98 0 0 -129.98 129.97 0c0,-167.94 28.97,-293.17 -97.55,-365.5 -49.14,-28.08 -44.88,-14.65 -103.65,-26.32 -68.02,-13.52 -58.75,-78.34 -58.75,-128.1 61.72,0 112.44,-10.3 129.98,64.99l129.97 0c0,-163.08 -129.97,-161.28 -129.97,-203.1l0 -121.86 -129.98 0 0 129.99z"/>
   <path class="fil0" d="M1984.32 818.35l0 24.37 129.97 0c3.99,-179.18 145.78,-320.96 324.96,-324.96l0 -129.97c-256.61,0 -454.93,209.19 -454.93,430.56z"/>
   <polygon class="fil0" points="2309.26,3507.32 2439.25,3507.32 2439.25,3117.37 2309.26,3117.37 "/>
   <polygon class="fil0" points="2699.21,3507.32 2829.19,3507.32 2829.19,3117.37 2699.21,3117.37 "/>
   <polygon class="fil0" points="3089.15,3507.32 3219.13,3507.32 3219.13,3117.37 3089.15,3117.37 "/>
   <path class="fil0" d="M3154.14 712.73c88.59,20.64 109.34,41.4 129.98,129.99l129.98 0c0,-80.17 -27.74,-139.83 -78.91,-189.19 -44.24,-42.68 -96.73,-70.77 -181.05,-70.77l0 129.97z"/>
   <polygon class="fil0" points="2504.24,1167.66 2634.22,1167.66 2634.22,1037.69 2504.24,1037.69 "/>
   <polygon class="fil0" points="2764.19,1167.66 2894.18,1167.66 2894.18,1037.69 2764.19,1037.69 "/>
   <polygon class="fil0" points="3024.16,1167.66 3154.14,1167.66 3154.14,1037.69 3024.16,1037.69 "/>
  </g>
 </g>
</svg>
