<?xml version="1.0" encoding="UTF-8"?>
<!DOCTYPE svg PUBLIC "-//W3C//DTD SVG 1.1//EN" "http://www.w3.org/Graphics/SVG/1.1/DTD/svg11.dtd">
<!-- Creator: CorelDRAW 2020 (64 Bit) -->
<svg xmlns="http://www.w3.org/2000/svg" xml:space="preserve" width="42.3332mm" height="42.3332mm" version="1.1" style="shape-rendering:geometricPrecision; text-rendering:geometricPrecision; image-rendering:optimizeQuality; fill-rule:evenodd; clip-rule:evenodd"
viewBox="0 0 4233.32 4233.32"
 xmlns:xlink="http://www.w3.org/1999/xlink"
 xmlns:xodm="http://www.corel.com/coreldraw/odm/2003">
 <defs>
  <style type="text/css">
   <![CDATA[
    .fil0 {fill:#B0B0B0}
   ]]>
  </style>
 </defs>
 <g id="Camada_x0020_1">
  <metadata id="CorelCorpID_0Corel-Layer"/>
  <g id="_1407864575456">
   <path class="fil0" d="M739.79 3744.1c-64.02,0 -77.31,-13.29 -77.31,-77.31 0,-26.25 64.65,-77.54 83.75,-96.63 91.2,-91.2 628.34,-619.51 654.96,-659.26l96.54 92.43c-99.06,67.75 -715.01,740.77 -757.94,740.77zm1236.91 -369.36c-37.47,-55.94 -14.2,-50.23 100.93,-165.35l249.09 -249.11c23.43,-23.41 40.75,-42.14 64.28,-65.03 21.04,-20.44 66.72,-42.9 66.72,7.05 0,31.41 -356.15,368.42 -410.14,423.06 -22.21,22.47 -32.08,46.15 -70.88,49.38zm-758.02 -856.83l382.15 -386.6 674.39 670.03 -382.3 386.55 -674.24 -669.98zm-152.49 -70.86c-19.25,0 -18.85,-6.79 -34.35,-17.17 3.25,-39.09 61.78,-83.26 105.22,-126.7 43.35,-43.35 338.07,-354.32 367.21,-354.32 96.53,0 -81.76,154.77 -83.75,156.76 -40.76,40.75 -75.21,75.21 -115.96,115.96 -30.73,30.73 -212.4,225.47 -238.37,225.47zm146.03 -438.07l-197.57 0c-211.94,0 -218.97,-274.86 0,-274.86l2216.14 0c214.77,0 214.77,274.86 0,274.86l-1554.74 0c0,-60.18 -1.01,-97.96 -44.61,-144.35 -49.89,-53.04 -87.99,-53.21 -144.35,-53.21 -125.01,0 -223.56,197.56 -274.87,197.56zm1528.96 -652.81c0,-206.48 42.71,-405.07 116.49,-587.85 11.95,-29.6 23.2,-46.38 29.53,-73.55 77.83,52.12 175.17,229.43 214.74,317.82 84.65,189.08 85.89,367.05 85.89,584.1l-429.48 0c0,-67.54 -17.17,-145.72 -17.17,-240.52zm-1254.09 240.52l-429.48 0c0,-218.95 0.79,-393.05 85.9,-584.1 38.89,-87.28 138.19,-266.56 214.73,-317.82 6.25,26.85 16.15,40.56 27.09,67.4l74.38 226.26c84.23,342.17 27.38,394.81 27.38,608.26zm-17.18 -1004.99c28.2,-38.48 194.81,-127.28 254.58,-151.11 47.86,-19.09 30.08,-17.27 47.64,123.75 16.55,132.84 36.75,445.05 81.34,528.53 112.19,210.1 415.19,217.15 535.43,5.52 46.96,-82.64 77.65,-467.12 92.71,-611.9 4.95,-47.59 -9.88,-63.51 33.18,-48.52 58.71,20.43 232.9,115.72 260.74,153.73l-65.17 149.56c-91.43,226.65 -106.62,409.78 -106.62,657.86 0,78.12 8.59,120.9 8.59,197.57l-979.22 0c0,-266.03 39,-376.55 -42.84,-687.28l-86.11 -240.3c-5.49,-12.19 -11.27,-22.21 -17.27,-34.27 -8.2,-16.48 -10.13,-27.8 -16.98,-43.14zm412.3 -335c54.06,-12.6 90.8,-42.95 163.2,-42.95 115.63,0 215.75,-11.05 317.83,42.95 0,32.24 -8.58,87.95 -13.51,123.93 -6.33,46.2 -8.77,79.58 -13.06,124.38 -7.55,78.99 -16.76,162.77 -27.5,247.37 -19.11,150.49 -3.85,363.28 -186.45,363.28 -182.59,0 -167.34,-212.79 -186.45,-363.28 -10.74,-84.6 -19.94,-168.38 -27.5,-247.37 -4.28,-44.8 -6.73,-78.18 -13.06,-124.38 -4.93,-35.98 -13.5,-91.69 -13.5,-123.93zm-962.04 1348.57c-228.54,53.24 -276.55,352.88 -99.71,486.24 80.41,60.64 129.94,54.91 262.92,54.91 -78.29,116.91 -188.98,116.38 -188.98,300.63 0,44.84 41.94,95.55 73.41,115.57 79.43,50.54 94.1,7.42 139.88,49.09 37.06,33.75 167.7,162.16 190.42,196.11 -25.85,38.6 -348.74,353.04 -410.15,414.46 -70.81,70.81 -135.34,135.32 -206.15,206.15 -73.7,73.68 -165.35,131.85 -165.35,264.13 0,96.4 94.29,197.56 206.15,197.56 120.73,0 187.26,-97.07 251.25,-161.06 81.38,-81.37 583.91,-593.15 624.89,-620.6 42.93,28.75 147.12,141.21 191.72,186.22 32.77,33.08 17.23,17.49 25.56,68.93 16.68,103 82.55,148.57 186.44,148.57 88.26,0 155.21,-90.8 204,-139.59l343.35 -343.83c96.4,-113.39 49.67,-275.74 -110.9,-296.62 -46.48,-6.05 -32.49,3.87 -61.26,-24.65 -16.51,-16.36 -25.99,-27.17 -42.34,-43.54 -69.13,-69.17 -488.23,-480.18 -513.23,-517.53 326.4,0 652.8,0 979.21,0 151.39,0 342.97,10.46 489.39,-0.22 120.6,-8.8 240.73,-127.11 240.73,-257.47 0,-142.36 -71.67,-252.13 -206.15,-283.46 0,-338.74 -10.3,-562.98 -190.67,-831.5l-150.56 -193.02c-99.17,-104.24 -282.75,-222.81 -414.73,-272.44 -89.9,-33.82 -39.42,-20.68 -71.72,-100.07 -70.4,-173.11 -515.45,-162.6 -658.08,-88.73 -34.69,17.96 -70.92,43.88 -89.05,82.75 -34.95,74.9 21.08,70.69 -68.1,103.68 -136.21,50.4 -314.18,165.69 -416.7,270.48l-151.38 192.21c-192.32,287.08 -194.11,512.05 -194.11,836.64z"/>
   <path class="fil0" d="M1469.91 4027.55c14.37,-15.15 20.79,-25.77 51.53,-25.77l1271.28 0c30.75,0 37.16,10.62 51.53,25.77 -7.24,31.1 -13.38,42.95 -51.53,42.95l-1271.28 0c-50.36,0 -39.61,-16.26 -51.53,-42.95zm137.43 -223.33c0,-42.46 34.85,-77.31 77.31,-77.31l944.86 0c87.24,0 77.31,91.96 77.31,137.44l-1099.48 0 0 -60.13zm-137.43 60.13c-70.96,16.53 -137.43,85.7 -137.43,146.02l0 51.54c0,62.96 83.05,146.02 146.02,146.02l1357.16 0c62.96,0 146.02,-83.06 146.02,-146.02 0,-94.74 -29.56,-172.43 -137.43,-197.56 0,-103.52 6.4,-125.7 -39.09,-192.83 -26.37,-38.93 -89.25,-82.04 -149.88,-82.04l-996.4 0c-60.62,0 -123.51,43.11 -149.89,82.04 -45.49,67.13 -39.08,89.31 -39.08,192.83z"/>
  </g>
 </g>
</svg>
