<?xml version="1.0" encoding="UTF-8"?>
<!DOCTYPE svg PUBLIC "-//W3C//DTD SVG 1.1//EN" "http://www.w3.org/Graphics/SVG/1.1/DTD/svg11.dtd">
<!-- Creator: CorelDRAW 2020 (64 Bit) -->
<svg xmlns="http://www.w3.org/2000/svg" xml:space="preserve" width="42.3332mm" height="42.3332mm" version="1.1" style="shape-rendering:geometricPrecision; text-rendering:geometricPrecision; image-rendering:optimizeQuality; fill-rule:evenodd; clip-rule:evenodd"
viewBox="0 0 4233.32 4233.32"
 xmlns:xlink="http://www.w3.org/1999/xlink"
 xmlns:xodm="http://www.corel.com/coreldraw/odm/2003">
 <defs>
  <style type="text/css">
   <![CDATA[
    .fil0 {fill:#AEAEAE}
   ]]>
  </style>
 </defs>
 <g id="Camada_x0020_1">
  <metadata id="CorelCorpID_0Corel-Layer"/>
  <g id="_1407872198928">
   <path class="fil0" d="M3268.3 3809.36l560.41 0c0,89.78 31.69,177.17 38.65,260.87l-637.71 0c0,-85.08 36.81,-178.39 38.65,-260.87zm-927.59 -2280.32l0 -280.21 260.89 0c0,267.19 41.18,396.16 -154.61,396.16 -54.24,0 -106.28,-63.89 -106.28,-115.95zm-2154.7 -1352.73l1072.52 0 0 937.24 -1072.52 0 0 -937.24zm2454.24 405.82l744 0c97.63,0 289.87,277.71 289.87,483.11l0 2599.18 -260.88 0 0 -2560.52c0,-235.38 -253.06,-526.95 -628.07,-328.53 -46.41,-31.08 -68.48,-51.41 -138.88,-64.01 -62.56,-11.21 -134.6,-3.63 -199.3,-3.63 34.86,-52.03 107.34,-125.6 193.26,-125.6zm-415.49 125.6l-96.62 0c0,178.88 -28.4,144.96 164.26,144.94 70.4,0 327.97,-10.34 374.51,11.98 116.3,55.77 84.78,248.9 -74.98,248.9 -224.47,0 -533.08,22.68 -721.17,-42.14 -283.76,-97.77 2.51,-93.13 -467.29,-93.13l0 -637.71c29.24,-7.81 63.42,-33.33 87.5,-47.78 99.66,-59.77 182.07,-116.48 318.31,-116.48l1526.65 0c100.23,0 188.03,26.22 257.81,61.06 160.37,80.03 299.68,252.94 430.7,380.92 118.44,115.7 26.8,224.72 -50.79,224.72 -86.3,0 -108.58,-45.77 -166.68,-103.87 -158.46,-158.47 -252.34,-301.95 -461.37,-301.95l-676.36 0c-273.18,0 -372.62,270.54 -444.48,270.54zm-2174.02 541.1l1352.73 0 0 -135.28c231.05,0 182.65,-21.21 305.82,42.02 185.86,95.43 290.91,93.26 486.49,93.26 0,219.5 -36.79,414.04 154.07,512.62 93.16,48.11 199.41,35.23 283.83,-26.41 152.05,-111.01 112.85,-309.65 112.85,-524.86 25.18,-16.86 43.32,-25.93 63.92,-52.03 19.33,-24.51 33.02,-40.76 45.74,-70.21 30.5,-70.56 22.92,-125.25 6.29,-196.62 195.49,-103.44 415.48,-2.06 415.48,270.55l0 2502.55 -125.61 0c-11.63,49.92 -86.96,483.52 -86.96,541.09l966.23 0c-7.53,-90.6 -86.96,-471.66 -86.96,-541.09l-125.6 0 0 -2550.87c0,-76.21 -17.94,-121.37 -19.34,-183.58 70.45,37.28 167.73,87.81 280.07,28.84 79.48,-41.72 145.07,-135.95 145.07,-231.74 0,-154.56 -191.74,-302.78 -321.26,-432.4 -129.77,-129.86 -307.98,-253.63 -509.7,-253.63l-1623.26 0c-181.85,0 -315.69,121.52 -367.17,135.27l0 -135.27 -1352.73 0 0 1207.79z"/>
   <path class="fil0" d="M1219.88 3596.78c-243.3,0 -409.63,-75.07 -553.36,-219.63 -212.28,-213.53 -262.48,-516.45 -146.59,-808.84 141.63,-357.33 570.77,-549.49 988.61,-371.36 337.54,143.89 521.21,580.89 361.67,958.31 -39.49,93.42 -88.28,150.64 -147.96,219.21 -109.27,125.55 -319.35,222.31 -502.37,222.31zm-898.6 -792.32c0,183.26 1.98,275.63 86.91,444.52 56.76,112.86 95.86,158.08 181.21,243.94 517.89,520.9 1480.76,175.79 1480.76,-649.81 0,-473.17 -417.56,-859.94 -869.6,-859.94 -253.52,0 -478.82,115.28 -606.33,243.96 -146.43,147.75 -272.95,343.87 -272.95,577.33z"/>
   <path class="fil0" d="M1123.25 2379.32c0,42.97 -68.72,26.04 -131.48,100.42 -135.14,160.12 -57.13,359.29 80.24,424.28 73.2,34.64 254.15,4.66 254.15,161.33 0,158.69 -256.86,179.97 -260.88,0l-144.94 0c2.25,100.71 53.56,179.24 129.65,227.86 81.26,51.95 73.26,-25.13 73.26,177.96l144.94 0c0,-240.42 -13.01,-86.65 123.51,-224.32 109.24,-110.17 105.04,-337.48 -87.77,-429.8 -77.42,-37.08 -238.65,1.46 -238.65,-157.51 0,-164.26 246.26,-175.66 260.88,0l135.28 0c0,-143.32 -69.68,-194.98 -166.11,-249.38 -36.97,-20.87 -27.14,10.13 -27.14,-156.44l-144.94 0 0 125.6z"/>
   <polygon class="fil0" points="582.16,2930.08 727.1,2930.08 727.1,2794.81 582.16,2794.81 "/>
   <polygon class="fil0" points="1664.34,2930.08 1799.62,2930.08 1799.62,2794.81 1664.34,2794.81 "/>
  </g>
 </g>
</svg>
