<?xml version="1.0" encoding="UTF-8"?>
<!DOCTYPE svg PUBLIC "-//W3C//DTD SVG 1.1//EN" "http://www.w3.org/Graphics/SVG/1.1/DTD/svg11.dtd">
<!-- Creator: CorelDRAW 2020 (64 Bit) -->
<svg xmlns="http://www.w3.org/2000/svg" xml:space="preserve" width="42.3332mm" height="42.3332mm" version="1.1" style="shape-rendering:geometricPrecision; text-rendering:geometricPrecision; image-rendering:optimizeQuality; fill-rule:evenodd; clip-rule:evenodd"
viewBox="0 0 4233.32 4233.32"
 xmlns:xlink="http://www.w3.org/1999/xlink"
 xmlns:xodm="http://www.corel.com/coreldraw/odm/2003">
 <defs>
  <style type="text/css">
   <![CDATA[
    .fil0 {fill:#B0B0B0}
   ]]>
  </style>
 </defs>
 <g id="Camada_x0020_1">
  <metadata id="CorelCorpID_0Corel-Layer"/>
  <g id="_1407762889984">
   <path class="fil0" d="M1480.18 1806.75l761.92 0 0 1122.83 -761.92 0 0 -1122.83zm1791.69 2341.89l-136.04 0c-118.31,-8.43 -235.03,-39.05 -343.08,-93.5 -217.01,-109.39 -355.93,-248.45 -465.17,-465.18 -90.15,-178.85 -93.51,-305.12 -93.51,-499.98l-1724.33 0c-58.28,0 -80.34,-50.43 -80.59,-111.89l0.39 -1299.66c-117.57,78.73 -137.1,4.07 -228,-116.87 -52.1,-69.34 -111.36,-131.26 -116.87,-185.84l0 -15.94c1.96,-18.39 11.05,-35.9 29.83,-52.53l443.36 -326.58c39.28,-29.56 159.65,-131.54 205.67,-125.29 48.52,6.57 75.03,39.97 75.03,93.22 0,44.33 -93.37,98.08 -126.12,122.51l-427.26 318.6 80.19 120.3c27.83,-6.49 37.14,-18.18 56.26,-31.97 16.57,-11.95 29.7,-20.35 46.88,-33.32l1016.26 -748.18c461.97,-347.18 340.06,-294.1 579.29,-131.32l184.89 135.91c62.25,46.69 121.65,90.35 184.38,136.43 231.36,169.94 515.96,387.34 739.15,544.08 35.51,24.93 150.5,124.88 192.44,128.37 10.45,-39.14 67.55,-80.95 80.19,-128.32 -29.32,-7.84 -79.52,-51.6 -105.41,-71.03l-591.09 -435.49c-34.02,-24.98 -64.89,-46.51 -97.49,-70.94l-785.98 -577.45 -505.22 368.97c-95.87,73.01 -168.47,39.29 -168.47,-40.14 0,-49.29 35.71,-67.12 64.13,-88.24l425.09 -312.77c62.78,-47.25 134.39,-112.28 192.49,-112.28 39.02,0 420.43,293.16 457.16,320.8l1002.52 737.85c386.34,290.72 391.75,194.84 132.9,541.95 -66.83,89.62 -84.95,82.11 -173,35.51l0 513.29c117.43,2.62 271.57,59.48 355.56,101.58 209.19,104.84 348.09,255.09 451.89,462.41 78.84,157.45 90.8,283.1 90.8,462.59 0,244.01 -130.66,487.55 -286.72,643.62 -170.69,170.69 -399.41,270.38 -632.4,286.72zm-1952.1 -2357.92l0 1138.86 -721.81 0 0 -1363.43c0,-21.98 11.37,-21.4 29.42,-34.75 16.29,-12.05 26.35,-19.11 41.6,-30.57l554.55 -407.87c105.83,-79.29 211.09,-154.11 318.47,-234.92 34.4,-25.89 308.15,-231.95 323.14,-230.25 16.17,1.83 1075.05,786.21 1102.19,806.61l165 115.71 0 641.61c-60.93,1.36 -144.37,20.62 -144.37,80.21 0,191.45 228.53,-11.27 558.85,154.95 201.87,101.58 307.45,207.15 409.02,409.02 151.24,300.57 57.97,683.91 -167.85,909.73 -81.15,81.15 -133.31,113.58 -241.17,167.85 -193.14,97.19 -475.42,97.19 -668.56,0 -201.87,-101.57 -307.44,-207.15 -409.02,-409.02 -118,-234.5 -87.06,-558.23 54.95,-774 18.78,-28.52 120.15,-128.39 43.56,-190.68 -78.99,-64.24 -135.26,44.88 -157.22,60.97l-1.69 -824.39c-10.34,-64.19 -71.93,-130.01 -150.7,-130.01l-802.01 0c-45.81,0 -136.35,58.69 -136.35,144.37z"/>
   <path class="fil0" d="M3132.33 2809.27c-90.26,47.76 -153.88,175.64 -91.03,291.53 25.7,47.4 64.24,78.68 101.06,115.49 23.46,23.48 102.25,88.98 102.25,122.31 0,48.38 -40.86,48.13 -64.16,48.13 -35.39,0 -10.48,-32.09 -88.22,-32.09 -51.32,0 -72.18,39.18 -72.18,88.23 0,64.7 67.36,82.71 112.28,104.26 0,85.32 23.96,104.26 88.22,104.26 67.4,0 72.19,-53.45 72.19,-120.3 100.73,-67.46 112.28,-110.49 112.28,-216.55 0,-135.06 -224.57,-245.97 -224.57,-312.78 0,-48.38 40.86,-48.12 64.16,-48.12 35.39,0 10.48,32.08 88.22,32.08 51.33,0 72.19,-39.18 72.19,-88.23 0,-64.7 -67.36,-82.7 -112.28,-104.25 0,-85.32 -23.97,-104.27 -88.23,-104.27 -67.41,0 -72.18,53.45 -72.18,120.3z"/>
   <path class="fil0" d="M2683.2 2384.21c0,119.95 160.4,119.95 160.4,0 0,-96.89 -160.4,-96.89 -160.4,0z"/>
   <path class="fil0" d="M934.8 740.08c0,123.78 160.41,115.65 160.41,0 0,-96.89 -160.41,-96.89 -160.41,0z"/>
   <path class="fil0" d="M2009.5 2360.15c0,128.75 160.41,107.25 160.41,8.02 0,-109.29 -160.41,-103.39 -160.41,-8.02z"/>
  </g>
 </g>
</svg>
