<?xml version="1.0" encoding="UTF-8"?>
<!DOCTYPE svg PUBLIC "-//W3C//DTD SVG 1.1//EN" "http://www.w3.org/Graphics/SVG/1.1/DTD/svg11.dtd">
<!-- Creator: CorelDRAW 2020 (64 Bit) -->
<svg xmlns="http://www.w3.org/2000/svg" xml:space="preserve" width="42.3332mm" height="42.3332mm" version="1.1" style="shape-rendering:geometricPrecision; text-rendering:geometricPrecision; image-rendering:optimizeQuality; fill-rule:evenodd; clip-rule:evenodd"
viewBox="0 0 4233.32 4233.32"
 xmlns:xlink="http://www.w3.org/1999/xlink"
 xmlns:xodm="http://www.corel.com/coreldraw/odm/2003">
 <defs>
  <style type="text/css">
   <![CDATA[
    .fil0 {fill:#B0B0B0}
   ]]>
  </style>
 </defs>
 <g id="Camada_x0020_1">
  <metadata id="CorelCorpID_0Corel-Layer"/>
  <g id="_1407771323472">
   <path class="fil0" d="M3549.38 4006.97c0,-124.17 79.69,-171.84 104.26,-208.53 157.69,105.6 279.08,8.02 304.77,8.02 32.83,0 75.99,76.97 88.39,104.09 17.1,37.43 23.89,113.19 23.89,168.6l-521.31 0 0 -72.18zm641.61 -1382.99l0 196 -769.94 0 0 -120.3 -112.28 0 0 264.67c108.13,0 336.11,-8.93 410.59,14.47 47.48,14.91 94.69,56.79 118.57,97.98 34.9,60.2 32.25,84.84 32.25,176.27 87.79,7.31 148.53,81.1 182.01,154.84 41.13,90.59 12.74,215.73 -5.56,294.29 21.87,32.66 47.88,47.44 73.93,86.47 48.91,73.3 65.49,133.15 70.43,202.13l0 208.65 -769.94 0c0,-174.34 -16.86,-375.89 152.39,-489.24 -6.15,-26.36 -17.06,-39.53 -22.01,-66.21 -13.16,-71.06 -15.87,-165.03 8.94,-227.55 19.62,-49.47 35.69,-72.52 71.06,-105.4 23.61,-21.93 71.69,-54.76 110.43,-57.98 0,-60.8 3.95,-109.82 -30.33,-138.09 -31.52,-25.99 -82.43,-22.46 -138.08,-22.33l-657.68 0c-153.89,-0.39 -168.42,23.23 -168.42,160.42 182.46,15.18 253.79,295.83 168.43,457.14 44.18,23.38 52.49,39.79 81.49,78.92 88.22,118.99 70.9,254.03 70.9,410.32l-769.94 0c0,-162.81 -17.11,-283.07 72.1,-409.11 30.28,-42.77 36.37,-50.71 80.28,-80.13 -5.8,-24.93 -16.14,-40.64 -22.29,-65.93 -17.03,-70.16 -14.48,-168.13 8.22,-228.84 25.37,-67.83 103.02,-155.76 182.5,-162.37 0,-343.83 245.63,-288.72 561.4,-288.72l0 -264.67 -112.27 0 0 120.3 -769.94 0c0,-105.79 -7.99,-219.35 18.8,-302.01 18.2,-56.11 75.13,-171.61 133.58,-187.22 -16.38,-70.29 -63.02,-161.14 -15.21,-295.92 22.69,-63.96 100.3,-159.38 183.64,-161.23 0,-142.34 -29.32,-144.55 -168.43,-144.37l-625.57 0c-139.11,-0.18 -168.43,2.03 -168.43,144.37 82.06,1.82 161.32,98.32 183.64,161.23 48.39,136.39 0.83,227.05 -15.21,295.92 35.17,9.39 61.93,50.78 81.43,78.97 86.96,125.69 70.95,247.83 70.95,410.26l-769.94 0 0 -120.3 -112.27 0 0 264.67c108.5,0 333.22,-9.77 408.32,16.72 126.57,44.66 153.08,146.05 153.08,272 77.69,6.46 159.47,94.51 181.83,163.04 48.91,149.86 4.79,215.99 -13.4,294.1 171.53,114.87 152.38,316.96 152.38,489.24l-769.94 0c0,-106.62 -7.93,-219.29 17.67,-303.14 21.12,-69.15 70.75,-152.25 134.72,-186.1 -85.36,-161.31 -14.03,-441.96 168.43,-457.14 0,-138.36 -15.95,-160.81 -168.42,-160.42 -109.6,0.29 -219.23,0.01 -328.84,0.01 -452.52,0 -497.25,-43.24 -497.25,160.41 119.51,9.94 213.36,161.76 200.16,320.36 -8.66,104.07 -21.3,92.01 -31.74,136.78 168.41,112.78 152.39,313.32 152.39,489.24l-769.94 0 0 -191.9c2.01,-41.31 6.7,-79.85 16.78,-112.14 35.32,-113.17 96.27,-146.44 127.58,-193.21 -18.3,-78.56 -46.69,-203.7 -5.56,-294.29 33.48,-73.74 94.22,-147.53 182.01,-154.84 0,-94.05 -2.61,-118.23 35.24,-181.3 88.18,-146.95 299.51,-107.42 526.17,-107.42l0 -264.67 -112.28 0 0 120.3 -769.94 0 0 -191.91c2.01,-41.31 6.7,-79.85 16.78,-112.12 40.02,-128.19 94.93,-144.46 127.58,-193.22 -23.69,-101.71 -23.71,-33.63 -24.12,-168.47 -0.36,-116.19 33.26,-201.32 128.57,-256.41 157.31,-90.93 321.95,-4.04 373.62,115.24 15.63,36.08 30.29,113.81 27.44,165.14 -1.3,23.47 -6.57,58.77 -11.46,85.15 -6.33,34.08 -14.59,40.45 -20.86,67.37 72.55,48.58 136.56,146.79 144.37,240.6l368.93 0c1.05,-47.45 29.18,-112.46 49.46,-143.01 20.75,-31.24 57.66,-87.65 94.9,-97.59 -54.68,-113.97 -50.32,-320.96 59.32,-405.85 46.93,-36.34 57.92,-34.77 109.11,-59.32 0,-327.54 284.62,-264.67 545.37,-264.67l0 -160.4 -296.75 0 0 -128.32 882.22 0c63.69,0.08 125.31,12.88 135.51,-42 18.07,-97.23 -121.36,-70.28 -271.86,-70.28l0 -128.33 176.44 0c0.89,-39.74 21.28,-80.98 30.39,-113.97 11.64,-42.15 22.91,-70.85 33.78,-110.6 13.51,-49.38 60.67,-182.66 64.16,-224.56l-290.31 78.62c-28.31,7 -73.64,15.56 -94.66,25.64 -20.53,-30.65 -111.65,-144.04 -120.3,-176.44 15.84,-10.62 28.39,-21.15 46.48,-33.72 20.94,-14.55 27.08,-24.38 49.76,-30.44 21.79,15.95 55.4,71.16 72.18,96.25 174.89,-40.76 347.03,-95.74 521.31,-136.35 -1.06,47.82 -167.55,542.64 -192.48,649.63 128.35,34.27 156.95,290.66 -37.88,339.07 -76.76,19.07 -462.33,5.8 -579.68,5.8l0 160.4c257.66,0 545.37,-63.6 545.37,264.67 53.07,25.45 66.78,24.99 113.69,62.77 103.84,83.63 109.47,288.34 54.74,402.4 60.62,16.19 142.55,159.44 144.36,240.6l368.93 0c7.81,-93.81 71.82,-192.02 144.37,-240.6 -21.52,-92.37 -62.96,-195.26 -2.44,-323.24 56.69,-119.87 220.8,-200.06 376.21,-106.68 157.28,94.52 133.31,276.42 99.42,421.9 22.05,32.93 51.11,48.6 75.7,84.7 48.43,71.1 64.19,140.7 68.66,216.55zm-1764.44 1374.96c0,-67.71 28.19,-116.11 63.87,-160.69 19.89,-24.86 24.92,-18.69 40.4,-39.81 75.38,50.48 179.18,67.39 259.46,26.65 51.25,-26 69.22,-28.65 122.34,64.73 34.97,61.46 27.22,117.83 27.22,189.33l-513.29 0 0 -80.21zm-1090.74 -16.04c0,-52.85 42.33,-126.55 69.93,-154.85 54.08,-55.44 33.1,18.51 210.78,18.51 48.46,0 98.91,-28.43 128.31,-48.12 17.84,24.34 104.27,78.4 104.27,200.5l0 80.21 -513.29 0 0 -96.25zm-1026.58 -176.44c39.5,0 154.89,97.72 312.78,-8.02 57.16,85.36 104.26,52.83 104.26,280.71l-521.31 0c0,-47.73 6.54,-128.65 21.38,-163.08 10.74,-24.89 60.53,-109.61 82.89,-109.61zm2237.63 -216.54c0,-72.57 -10.72,-224.57 136.34,-224.57 66.23,0 136.34,58.2 136.34,120.31l0 120.3c0,143.54 -272.68,168.2 -272.68,-16.04zm-1090.75 16.04l0 -120.3c0,-149.69 272.68,-168.22 272.68,16.03 0,77.88 12.49,212.72 -129.87,222.61 -63.33,4.4 -142.81,-57.1 -142.81,-118.34zm2213.57 -24.06l0 -80.21c0,-172.81 272.68,-180.98 272.68,-8.01l0 112.28c0,146.97 -272.68,170.02 -272.68,-24.06zm-3336.39 24.06c0,-81.27 -12.83,-156.05 38.64,-201.96 59.59,-53.15 139.84,-49.1 192.34,3.05 64,63.59 75.56,295.51 -81.65,316.45 -70.44,9.38 -149.33,-51.76 -149.33,-117.54zm3216.09 -978.46c0,-89.53 44.94,-163.44 112.28,-208.53l61.79 34.46c83.75,29.93 167.08,10.99 234.96,-34.46 79.62,53.32 112.28,140.14 112.28,272.69l-521.31 0 0 -64.16zm-1122.83 -8.03c0,-95.08 53.26,-156.16 104.27,-200.5 105.62,55.89 193.55,74.47 304.76,0 107.6,93.53 104.26,145.58 104.26,272.69l-513.29 0 0 -72.19zm-1090.74 -16.03c0,-77.83 53.04,-139.94 104.26,-184.47 111.21,74.47 199.14,55.89 304.76,0 104.76,91.06 104.27,147.12 104.27,272.69l-513.29 0 0 -88.22zm-1018.57 -184.47c66.6,44.59 143.96,63.28 228.96,36.47l49.04 -23.15c15.89,-9.68 7.9,-3.88 18.75,-13.32 105.62,70.73 112.28,159.46 112.28,272.69l-521.31 0c0,-132.55 32.66,-219.37 112.28,-272.69zm2229.62 -200.5c0,-78.86 -15.06,-232.59 136.34,-232.59 152.84,0 136.34,145.52 136.34,224.56 0,138.25 -168.23,158.39 -231.12,94.78 -15.55,-15.74 -41.56,-58.26 -41.56,-86.75zm-1090.75 -8.03c0,-79.04 -16.5,-224.56 136.34,-224.56 148.67,0 136.34,147.95 136.34,224.56 0,167.27 -272.68,176.59 -272.68,0zm2213.57 -8.01c0,-89.46 -7.95,-216.55 152.38,-216.55 51.43,0 120.3,57.87 120.3,112.28l0 128.33c0,141.48 -272.68,166.83 -272.68,-24.06zm-3192.03 136.34c-168,0 -144.36,-134.56 -144.36,-240.61 0,-52.76 59.77,-112.28 136.34,-112.28 185.31,0 184.97,352.89 8.02,352.89z"/>
   <path class="fil0" d="M1784.94 582.36c-174.29,-40.61 -346.43,-95.6 -521.31,-136.35 1.16,52.1 169.08,549.19 192.48,649.63 -148.54,39.66 -147.66,344.87 88.22,344.87l112.28 0 0 -128.32c-102.91,0 -176.44,17.98 -176.44,-56.15 0,-37.43 18.7,-56.13 56.14,-56.13l866.18 0 0 -128.33 -826.07 0c-1.2,-53.21 -122.56,-379.78 -128.33,-449.13l384.97 104.26 151.25 -209.65c27.5,-36.38 130.88,-190.82 153.52,-207.39 20.65,15.13 89.58,116.62 104.26,144.36 35.61,-8.3 74.65,-44.33 104.26,-64.16 -7.51,-28.15 -28.71,-51.58 -45.86,-74.45l-104.27 -144.36c-15.97,-21.33 -44.48,-55.86 -50.37,-77.94l-16.05 0c-5.74,21.53 -65.77,100.15 -83.59,124.94l-261.27 364.3z"/>
   <polygon class="fil0" points="2073.67,959.3 2201.98,959.3 2201.98,830.98 2073.67,830.98 "/>
   <polygon class="fil0" points="1752.86,959.3 1873.16,959.3 1873.16,830.98 1752.86,830.98 "/>
   <polygon class="fil0" points="2402.49,959.3 2522.79,959.3 2522.79,830.98 2402.49,830.98 "/>
  </g>
 </g>
</svg>
