<?xml version="1.0" encoding="UTF-8"?>
<!DOCTYPE svg PUBLIC "-//W3C//DTD SVG 1.1//EN" "http://www.w3.org/Graphics/SVG/1.1/DTD/svg11.dtd">
<!-- Creator: CorelDRAW 2020 (64 Bit) -->
<svg xmlns="http://www.w3.org/2000/svg" xml:space="preserve" width="42.3332mm" height="42.3332mm" version="1.1" style="shape-rendering:geometricPrecision; text-rendering:geometricPrecision; image-rendering:optimizeQuality; fill-rule:evenodd; clip-rule:evenodd"
viewBox="0 0 4233.32 4233.32"
 xmlns:xlink="http://www.w3.org/1999/xlink"
 xmlns:xodm="http://www.corel.com/coreldraw/odm/2003">
 <defs>
  <style type="text/css">
   <![CDATA[
    .fil0 {fill:#B0B0B0}
   ]]>
  </style>
 </defs>
 <g id="Camada_x0020_1">
  <metadata id="CorelCorpID_0Corel-Layer"/>
  <g id="_1407879136320">
   <path class="fil0" d="M2285.1 2708.42l0 -8.83 8.83 0 0 8.83 -8.83 0zm0 0l0 44.13 -8.83 0 0 35.31 -8.82 0 0 35.31 -8.83 0 0 44.14 -8.84 0 0 35.3 -8.82 0 0 44.14 -8.83 0 0 35.3 -8.83 0 0 35.31 -8.82 0 0 44.13 -8.83 0 0 35.32 -8.83 0 0 44.13 132.41 0 0 353.08 8.83 0 0 17.65 8.83 0 0 8.83 8.82 0 0 8.83 8.83 0 0 8.82 17.65 0 0 8.83 61.79 0 0 -8.83 17.65 0 0 -8.82 8.83 0 0 -8.83 8.83 0 0 -8.83 8.82 0 0 -17.65 8.83 0 0 -353.08 61.8 0 0 326.6 8.82 0 0 26.48 8.83 0 0 17.65 8.83 0 0 8.83 8.82 0 0 8.83 8.83 0 0 8.82 17.65 0 0 8.83 61.79 0 0 -8.83 17.65 0 0 -8.82 8.83 0 0 -8.83 8.82 0 0 -8.83 8.83 0 0 -17.65 8.83 0 0 -353.08 132.41 0 0 -35.3 -8.83 0 0 -44.15 -8.83 0 0 -35.3 -8.82 0 0 -35.31 -8.84 0 0 -44.13 -8.83 0 0 -35.31 -8.82 0 0 -44.13 -8.83 0 0 -35.31 -8.83 0 0 -35.31 -8.82 0 0 -44.14 -8.83 0 0 -35.3 -8.83 0 0 -35.31 -8.82 0 0 -44.13 -8.83 0 0 -35.31 -8.83 0 0 -52.96 8.83 0 0 -8.83 8.83 0 0 -8.82 8.82 0 0 -8.83 8.83 0 0 -8.83 8.83 0 0 -8.82 8.82 0 0 -8.83 8.83 0 0 -8.84 8.83 0 0 -8.82 17.65 0 0 -8.83 8.84 0 0 -8.83 8.82 0 0 -8.82 8.83 0 0 -8.83 8.83 0 0 -8.83 8.82 0 0 -8.82 8.83 0 0 -8.83 17.65 0 0 -8.83 8.83 0 0 -8.82 8.83 0 0 -8.83 8.82 0 0 -8.83 8.83 0 0 -8.82 8.83 0 0 -8.83 8.82 0 0 -8.83 8.83 0 0 -8.82 17.65 0 0 -8.83 8.83 0 0 -8.83 8.83 0 0 -8.82 8.82 0 0 -8.83 8.83 0 0 -8.83 17.65 0 0 -8.82 26.48 0 0 -8.83 8.83 0 0 -8.83 8.83 0 0 -8.82 8.82 0 0 -8.83 8.83 0 0 -8.83 8.83 0 0 -26.48 8.82 0 0 -35.31 8.83 0 0 -26.48 8.83 0 0 -35.31 8.82 0 0 -26.48 8.84 0 0 -26.48 8.83 0 0 -35.31 8.82 0 0 -26.48 8.83 0 0 -35.3 8.83 0 0 -26.48 8.82 0 0 -26.48 8.83 0 0 -35.32 8.83 0 0 -26.48 8.82 0 0 -35.31 8.83 0 0 -26.48 8.83 0 0 -26.48 8.82 0 0 -17.65 17.66 0 0 247.16 -8.83 0 0 26.48 -8.83 0 0 26.48 -8.82 0 0 35.3 -8.83 0 0 26.48 -8.83 0 0 26.48 -8.82 0 0 26.48 -8.83 0 0 26.48 -8.83 0 0 35.32 -8.82 0 0 26.48 -8.83 0 0 26.48 -8.83 0 0 26.48 -8.82 0 0 35.31 -8.83 0 0 26.48 -8.84 0 0 26.48 -8.82 0 0 26.48 -8.83 0 0 26.48 -8.83 0 0 35.3 -8.82 0 0 26.49 -8.83 0 0 26.48 -8.83 0 0 26.48 -8.82 0 0 35.31 -8.83 0 0 26.48 -8.83 0 0 26.48 -8.82 0 0 26.48 -8.83 0 0 26.48 -8.83 0 0 35.31 -8.82 0 0 26.48 238.33 0 0 688.5 8.82 0 0 26.48 8.83 0 0 17.66 8.83 0 0 8.82 8.82 0 0 8.83 8.83 0 0 8.83 17.65 0 0 8.82 17.66 0 0 8.83 79.44 0 0 -8.83 17.66 0 0 -8.82 8.83 0 0 -8.83 8.82 0 0 -8.83 8.83 0 0 -8.82 8.83 0 0 -8.83 8.82 0 0 -17.65 8.83 0 0 -26.48 8.83 0 0 -679.68 97.09 0 0 706.16 8.83 0 0 17.65 8.82 0 0 8.83 8.83 0 0 8.82 8.83 0 0 8.83 8.82 0 0 8.83 17.66 0 0 8.82 17.65 0 0 8.83 70.62 0 0 -8.83 17.66 0 0 -8.82 17.65 0 0 -8.83 8.83 0 0 -8.83 8.82 0 0 -8.82 8.83 0 0 -17.66 8.82 0 0 -17.65 8.83 0 0 -697.33 229.5 0 0 -17.66 -8.82 0 0 -26.48 -8.83 0 0 -26.48 -8.84 0 0 -35.3 -8.82 0 0 -26.48 -8.83 0 0 -26.48 -8.83 0 0 -26.48 -8.82 0 0 -26.48 -8.83 0 0 -35.31 -8.83 0 0 -26.48 -8.82 0 0 -26.49 -8.83 0 0 -26.48 -8.83 0 0 -35.31 -8.82 0 0 -26.48 -8.83 0 0 -26.48 -8.83 0 0 -26.48 -8.82 0 0 -26.48 -8.83 0 0 -35.3 -8.83 0 0 -26.48 -8.82 0 0 -26.48 -8.83 0 0 -26.49 -8.83 0 0 -26.48 -8.82 0 0 -35.31 -8.83 0 0 -26.48 -8.83 0 0 -26.48 -8.82 0 0 -26.48 -8.83 0 0 -291.29 8.83 0 0 -8.83 8.82 0 0 8.83 8.83 0 0 35.31 8.83 0 0 26.48 8.82 0 0 26.48 8.83 0 0 35.3 8.83 0 0 26.48 8.82 0 0 35.32 8.83 0 0 26.48 8.83 0 0 26.48 8.82 0 0 35.31 8.83 0 0 26.48 8.83 0 0 35.3 8.82 0 0 26.48 8.83 0 0 26.48 8.83 0 0 35.31 8.82 0 0 26.49 8.83 0 0 35.31 8.83 0 0 17.65 8.82 0 0 8.83 8.83 0 0 8.82 8.83 0 0 8.83 17.66 0 0 8.83 26.48 0 0 8.82 26.48 0 0 -8.82 26.48 0 0 -8.83 17.65 0 0 -8.83 8.83 0 0 -8.82 8.83 0 0 -17.66 8.82 0 0 -17.65 8.83 0 0 -52.97 -8.83 0 0 -26.48 -8.82 0 0 -26.48 -8.83 0 0 -26.48 -8.83 0 0 -35.31 -8.82 0 0 -26.48 -8.83 0 0 -26.48 -8.83 0 0 -26.48 -8.82 0 0 -26.48 -8.83 0 0 -26.48 -8.83 0 0 -35.31 -8.82 0 0 -26.48 -8.83 0 0 -26.48 -8.83 0 0 -26.48 -8.82 0 0 -26.48 -8.83 0 0 -26.48 -8.84 0 0 -35.31 -8.82 0 0 -26.48 -8.83 0 0 -26.48 -8.83 0 0 -26.48 -8.82 0 0 -26.48 -8.83 0 0 -26.49 -8.83 0 0 -17.65 -8.82 0 0 -17.65 -8.83 0 0 -17.66 -8.83 0 0 -8.82 -8.82 0 0 -8.83 -8.83 0 0 -8.83 -8.83 0 0 -8.82 -8.82 0 0 -8.83 -8.83 0 0 -8.83 -17.65 0 0 -8.82 -17.66 0 0 -8.83 -17.65 0 0 -8.83 -26.48 0 0 -8.82 -556.1 0 0 8.82 -35.3 0 0 8.83 -17.66 0 0 8.83 -17.65 0 0 8.82 -8.83 0 0 8.83 -17.65 0 0 8.83 -8.83 0 0 8.82 -8.82 0 0 8.83 -8.83 0 0 17.65 -8.84 0 0 8.83 -8.82 0 0 8.83 -8.83 0 0 17.65 -8.83 0 0 26.49 -8.82 0 0 26.48 -8.83 0 0 26.48 -8.83 0 0 26.48 -8.82 0 0 35.3 -8.83 0 0 26.48 -8.83 0 0 26.48 -8.82 0 0 26.48 -8.83 0 0 26.48 -8.83 0 0 26.48 -8.82 0 0 35.31 -8.83 0 0 26.49 -8.83 0 0 26.48 -8.82 0 0 26.48 -8.83 0 0 26.48 -8.83 0 0 26.48 -8.82 0 0 35.31 -8.83 0 0 26.48 -8.83 0 0 26.48 -8.82 0 0 26.48 -8.83 0 0 26.48 -8.83 0 0 26.48 -8.82 0 0 8.82 -8.83 0 0 8.84 -8.83 0 0 8.83 -8.82 0 0 8.82 -8.83 0 0 8.83 -8.83 0 0 8.83 -8.82 0 0 8.82 -8.83 0 0 8.83 -17.65 0 0 8.83 -8.84 0 0 8.82 -8.83 0 0 8.83 -8.82 0 0 8.83 -8.83 0 0 8.82 -8.83 0 0 8.83 -8.82 0 0 8.83 -8.83 0 0 8.82 -17.65 0 0 8.83 -8.83 0 0 8.83 -8.83 0 0 8.82 -8.82 0 0 8.83 -8.83 0 0 8.83 -8.83 0 0 8.82 -8.82 0 0 8.83 -17.66 0 0 8.83 -8.82 0 0 8.82 -26.48 0 0 8.83 -335.42 0 0 8.83 -17.66 0 0 8.82 -17.65 0 0 8.83 -8.83 0 0 8.83 -8.82 0 0 17.65 -8.83 0 0 8.83 -8.84 0 0 17.66 -8.82 0 0 8.83 -8.83 0 0 17.65 -8.83 0 0 8.83 -8.82 0 0 17.65 -8.83 0 0 8.83 -8.83 0 0 17.65 -8.82 0 0 8.83 -8.83 0 0 17.65 -8.83 0 0 8.83 -8.82 0 0 17.65 -8.83 0 0 8.83 -8.83 0 0 17.65 -8.82 0 0 8.83 -8.83 0 0 17.65 -8.83 0 0 8.83 -8.82 0 0 17.65 -8.83 0 0 17.65 -17.65 0 0 -17.65 -8.83 0 0 -8.83 -8.83 0 0 -17.65 -8.82 0 0 -8.83 -8.83 0 0 -17.65 -8.83 0 0 -8.83 -8.82 0 0 -17.65 -8.83 0 0 -8.83 -8.83 0 0 -17.65 -8.82 0 0 -8.83 -8.83 0 0 -17.65 -8.83 0 0 -8.83 -8.82 0 0 -17.65 -8.83 0 0 -8.83 -8.83 0 0 -17.65 -8.83 0 0 -8.83 -8.83 0 0 -17.65 -8.83 0 0 -8.84 -8.82 0 0 -17.65 -8.83 0 0 -8.83 -8.83 0 0 -8.82 -8.82 0 0 -8.83 -8.83 0 0 -8.83 -8.83 0 0 -8.82 -26.48 0 0 -8.83 -326.59 0 0 -8.83 -17.65 0 0 -8.82 -17.66 0 0 -8.83 -8.82 0 0 -8.83 -8.83 0 0 -8.82 -8.83 0 0 -8.83 -8.82 0 0 -8.83 -8.83 0 0 -8.82 -17.65 0 0 -8.83 -8.83 0 0 -8.83 -8.83 0 0 -8.82 -8.82 0 0 -8.83 -8.83 0 0 -8.83 -8.83 0 0 -8.82 -8.82 0 0 -8.83 -17.67 0 0 -8.83 -8.82 0 0 -8.82 -8.83 0 0 -8.83 -8.83 0 0 -8.83 -8.82 0 0 -8.82 -8.83 0 0 -8.83 -8.83 0 0 -8.83 -8.82 0 0 -8.82 -17.66 0 0 -8.83 -8.82 0 0 -44.14 -8.83 0 0 -26.48 -8.83 0 0 -26.48 -8.82 0 0 -26.48 -8.83 0 0 -26.48 -8.83 0 0 -35.31 -8.82 0 0 -26.48 -8.83 0 0 -26.48 -8.83 0 0 -26.48 -8.82 0 0 -26.48 -8.83 0 0 -26.49 -8.83 0 0 -35.31 -8.82 0 0 -26.48 -8.83 0 0 -26.48 -8.83 0 0 -26.48 -8.82 0 0 -26.48 -8.83 0 0 -26.48 -8.83 0 0 -35.3 -8.82 0 0 -26.48 -8.83 0 0 -26.48 -8.83 0 0 -26.48 -8.82 0 0 -26.49 -8.83 0 0 -17.65 -8.84 0 0 -8.83 -8.82 0 0 -17.65 -8.83 0 0 -8.83 -8.83 0 0 -8.83 -8.82 0 0 -8.82 -8.83 0 0 -8.83 -17.65 0 0 -8.83 -8.83 0 0 -8.82 -17.65 0 0 -8.83 -17.66 0 0 -8.83 -35.3 0 0 -8.82 -556.1 0 0 8.82 -26.48 0 0 8.83 -17.65 0 0 8.83 -17.66 0 0 8.82 -17.65 0 0 8.83 -8.83 0 0 8.83 -8.82 0 0 8.82 -8.83 0 0 8.83 -8.83 0 0 8.83 -8.82 0 0 8.82 -8.83 0 0 17.66 -8.83 0 0 17.65 -8.82 0 0 17.65 -8.83 0 0 26.49 -8.83 0 0 26.48 -8.82 0 0 26.48 -8.83 0 0 26.48 -8.84 0 0 26.48 -8.82 0 0 35.31 -8.83 0 0 26.48 -8.83 0 0 26.48 -8.82 0 0 26.48 -8.83 0 0 26.48 -8.83 0 0 26.48 -8.82 0 0 35.31 -8.83 0 0 26.48 -8.83 0 0 26.48 -8.82 0 0 26.48 -8.83 0 0 26.48 -8.83 0 0 26.48 -8.82 0 0 35.31 -8.83 0 0 26.48 -8.83 0 0 26.48 -8.82 0 0 26.48 -8.83 0 0 52.97 8.83 0 0 17.65 8.82 0 0 17.66 8.83 0 0 8.82 8.83 0 0 8.83 17.65 0 0 8.83 26.48 0 0 8.82 26.48 0 0 -8.82 26.48 0 0 -8.83 17.65 0 0 -8.83 8.84 0 0 -8.82 8.83 0 0 -17.66 8.82 0 0 -17.65 8.83 0 0 -26.48 8.83 0 0 -26.49 8.82 0 0 -35.31 8.83 0 0 -26.48 8.83 0 0 -26.48 8.82 0 0 -35.3 8.83 0 0 -26.48 8.83 0 0 -35.31 8.82 0 0 -26.48 8.83 0 0 -26.48 8.83 0 0 -35.32 8.82 0 0 -26.48 8.83 0 0 -35.3 8.83 0 0 -26.48 8.82 0 0 -26.48 8.83 0 0 -35.31 8.83 0 0 -8.83 8.82 0 0 8.83 8.83 0 0 1721.26 8.83 0 0 17.65 8.82 0 0 8.83 8.83 0 0 8.82 8.83 0 0 8.83 8.82 0 0 8.83 17.65 0 0 8.82 17.66 0 0 8.83 70.62 0 0 -8.83 17.65 0 0 -8.82 17.66 0 0 -8.83 8.82 0 0 -8.83 8.83 0 0 -8.82 8.83 0 0 -17.66 8.82 0 0 -17.65 8.83 0 0 -873.87 8.83 0 0 -17.65 8.82 0 0 -8.83 8.83 0 0 -8.82 52.96 0 0 8.82 8.83 0 0 8.83 8.82 0 0 882.69 8.83 0 0 26.48 8.83 0 0 8.83 8.82 0 0 17.65 8.83 0 0 8.83 17.65 0 0 8.83 8.83 0 0 8.82 17.66 0 0 8.83 79.44 0 0 -8.83 17.66 0 0 -8.82 8.82 0 0 -8.83 17.66 0 0 -17.65 8.82 0 0 -8.83 8.83 0 0 -17.65 8.83 0 0 -17.66 8.82 0 0 -1703.6 17.66 0 0 17.65 8.82 0 0 26.48 8.83 0 0 26.48 8.83 0 0 35.31 8.82 0 0 26.48 8.83 0 0 35.32 8.83 0 0 26.48 8.82 0 0 26.48 8.83 0 0 35.3 8.83 0 0 26.48 8.82 0 0 35.31 8.83 0 0 26.48 8.83 0 0 26.48 8.82 0 0 35.31 8.84 0 0 26.48 8.83 0 0 35.31 8.82 0 0 26.48 8.83 0 0 8.83 8.83 0 0 8.83 8.82 0 0 8.82 8.83 0 0 8.83 8.83 0 0 8.83 17.65 0 0 8.82 17.65 0 0 8.83 8.83 0 0 8.83 8.83 0 0 8.82 8.82 0 0 8.83 8.83 0 0 8.83 8.83 0 0 8.82 8.82 0 0 8.83 17.66 0 0 8.83 8.82 0 0 8.82 8.83 0 0 8.83 8.83 0 0 8.83 8.82 0 0 8.82 8.83 0 0 8.83 8.83 0 0 8.83 8.82 0 0 8.82 17.66 0 0 8.83 8.82 0 0 8.83 8.83 0 0 8.82 8.83 0 0 8.83 8.82 0 0 8.83 8.84 0 0 8.82 8.83 0 0 8.84 17.65 0 0 8.83 8.83 0 0 8.82 8.82 0 0 8.83 8.83 0 0 8.83 8.83 0 0 8.82 8.82 0 0 8.83 8.83 0 0 8.83 8.83 0 0 8.82 8.82 0 0 8.83 8.83 0 0 17.65 8.83 0 0 344.25 -8.83 0 0 8.83 8.83 0 0 8.82 -8.83 0 0 8.83 8.83 0 0 8.83 -8.83 0 0 8.82 8.83 0 0 8.83 -8.83 0 0 8.83 8.83 0 0 8.82 -8.83 0 0 8.83 8.83 0 0 8.83 -8.83 0 0 17.65 8.83 0 0 8.83 -8.83 0 0 423.7 8.83 0 0 26.48 8.82 0 0 8.82 8.83 0 0 8.83 8.83 0 0 8.83 8.82 0 0 8.82 17.66 0 0 8.83 61.78 0 0 -8.83 17.65 0 0 -8.82 8.83 0 0 -8.83 8.83 0 0 -8.83 8.82 0 0 -17.65 8.83 0 0 -423.7 8.84 0 0 -8.83 8.82 0 0 -8.82 35.31 0 0 8.82 8.83 0 0 414.88 8.82 0 0 26.48 8.83 0 0 8.82 8.83 0 0 17.66 17.65 0 0 8.82 17.65 0 0 8.83 61.79 0 0 -8.83 17.65 0 0 -8.82 8.83 0 0 -8.83 8.83 0 0 -17.65 8.82 0 0 -17.66 8.83 0 0 -785.6 8.83 0 0 17.66 8.82 0 0 8.82 8.83 0 0 17.66 8.83 0 0 8.82 8.82 0 0 17.66 8.83 0 0 8.82 8.83 0 0 17.66 8.83 0 0 8.83 8.83 0 0 17.65 8.83 0 0 8.83 8.82 0 0 17.65 8.83 0 0 8.83 8.83 0 0 17.65 8.82 0 0 8.83 8.83 0 0 8.83 8.83 0 0 8.82 8.82 0 0 8.83 26.48 0 0 8.83 52.96 0 0 -8.83 26.48 0 0 -8.83 8.83 0 0 -8.82 8.83 0 0 -8.83 8.82 0 0 -17.65 8.83 0 0 -8.83 8.83 0 0 -17.65 8.82 0 0 -8.83 8.83 0 0 -17.65 8.83 0 0 -8.83 8.82 0 0 -17.66 8.83 0 0 -8.83 8.83 0 0 -17.65 8.82 0 0 -8.83 8.84 0 0 -17.65 8.83 0 0 -8.83 8.82 0 0 -17.65 8.83 0z"/>
   <polygon class="fil0" points="590.32,872.42 563.84,872.42 563.84,881.24 546.19,881.24 546.19,890.07 528.54,890.07 528.54,898.9 510.88,898.9 510.88,907.72 502.06,907.72 502.06,916.55 493.23,916.55 493.23,925.38 484.4,925.38 484.4,934.2 475.58,934.2 475.58,943.03 466.74,943.03 466.74,951.86 457.91,951.86 457.91,960.68 449.09,960.68 449.09,969.51 440.26,969.51 440.26,987.16 431.43,987.16 431.43,1004.82 422.61,1004.82 422.61,1022.48 413.78,1022.48 413.78,1057.79 404.96,1057.79 404.96,1163.71 413.78,1163.71 413.78,1190.19 422.61,1190.19 422.61,1216.67 431.43,1216.67 431.43,1234.32 440.26,1234.32 440.26,1243.15 449.09,1243.15 449.09,1260.8 457.91,1260.8 457.91,1269.63 466.74,1269.63 466.74,1278.45 475.58,1278.45 475.58,1287.28 484.4,1287.28 484.4,1296.11 493.23,1296.11 493.23,1304.93 510.88,1304.93 510.88,1313.77 519.71,1313.77 519.71,1322.6 537.36,1322.6 537.36,1331.42 555.02,1331.42 555.02,1340.25 581.5,1340.25 581.5,1349.08 616.8,1349.08 616.8,1357.9 678.59,1357.9 678.59,1349.08 722.72,1349.08 722.72,1340.25 749.2,1340.25 749.2,1331.42 766.87,1331.42 766.87,1322.6 775.69,1322.6 775.69,1313.77 793.35,1313.77 793.35,1304.93 802.17,1304.93 802.17,1296.11 819.83,1296.11 819.83,1287.28 828.65,1287.28 828.65,1278.45 837.48,1278.45 837.48,1260.8 846.31,1260.8 846.31,1251.97 855.13,1251.97 855.13,1243.15 863.96,1243.15 863.96,1225.49 872.79,1225.49 872.79,1207.84 881.61,1207.84 881.61,1181.36 890.44,1181.36 890.44,1146.05 899.27,1146.05 899.27,1075.44 890.44,1075.44 890.44,1031.31 881.61,1031.31 881.61,1013.64 872.79,1013.64 872.79,995.99 863.96,995.99 863.96,978.34 855.13,978.34 855.13,960.68 846.31,960.68 846.31,951.86 837.48,951.86 837.48,943.03 828.65,943.03 828.65,934.2 819.83,934.2 819.83,925.38 811,925.38 811,916.55 802.17,916.55 802.17,907.72 784.52,907.72 784.52,898.9 775.69,898.9 775.69,890.07 758.03,890.07 758.03,881.24 731.55,881.24 731.55,872.42 705.07,872.42 705.07,863.59 590.32,863.59 "/>
   <polygon class="fil0" points="3476.74,872.42 3450.26,872.42 3450.26,881.24 3423.77,881.24 3423.77,890.07 3406.11,890.07 3406.11,898.9 3397.29,898.9 3397.29,907.72 3379.63,907.72 3379.63,916.55 3370.81,916.55 3370.81,925.38 3361.98,925.38 3361.98,934.2 3353.15,934.2 3353.15,943.03 3344.33,943.03 3344.33,951.86 3335.5,951.86 3335.5,969.51 3326.67,969.51 3326.67,978.34 3317.85,978.34 3317.85,995.99 3309.02,995.99 3309.02,1013.64 3300.19,1013.64 3300.19,1040.13 3291.37,1040.13 3291.37,1084.27 3282.54,1084.27 3282.54,1137.23 3291.37,1137.23 3291.37,1181.36 3300.19,1181.36 3300.19,1207.84 3309.02,1207.84 3309.02,1225.49 3317.85,1225.49 3317.85,1234.32 3326.67,1234.32 3326.67,1251.97 3335.5,1251.97 3335.5,1260.8 3344.33,1260.8 3344.33,1269.63 3353.15,1269.63 3353.15,1278.45 3361.98,1278.45 3361.98,1287.28 3370.81,1287.28 3370.81,1296.11 3379.63,1296.11 3379.63,1304.93 3388.46,1304.93 3388.46,1313.77 3406.11,1313.77 3406.11,1322.6 3414.94,1322.6 3414.94,1331.42 3432.59,1331.42 3432.59,1340.25 3459.08,1340.25 3459.08,1349.08 3503.22,1349.08 3503.22,1357.9 3565,1357.9 3565,1349.08 3609.14,1349.08 3609.14,1340.25 3626.79,1340.25 3626.79,1331.42 3644.44,1331.42 3644.44,1322.6 3662.1,1322.6 3662.1,1313.77 3679.75,1313.77 3679.75,1304.93 3688.58,1304.93 3688.58,1296.11 3697.4,1296.11 3697.4,1287.28 3706.23,1287.28 3706.23,1278.45 3715.06,1278.45 3715.06,1269.63 3723.88,1269.63 3723.88,1260.8 3732.72,1260.8 3732.72,1243.15 3741.55,1243.15 3741.55,1234.32 3750.37,1234.32 3750.37,1216.67 3759.2,1216.67 3759.2,1199.01 3768.03,1199.01 3768.03,1163.71 3776.85,1163.71 3776.85,1048.96 3768.03,1048.96 3768.03,1022.48 3759.2,1022.48 3759.2,1004.82 3750.37,1004.82 3750.37,987.16 3741.55,987.16 3741.55,969.51 3732.72,969.51 3732.72,960.68 3723.88,960.68 3723.88,951.86 3715.06,951.86 3715.06,934.2 3706.23,934.2 3706.23,925.38 3688.58,925.38 3688.58,916.55 3679.75,916.55 3679.75,907.72 3670.92,907.72 3670.92,898.9 3653.27,898.9 3653.27,890.07 3635.62,890.07 3635.62,881.24 3617.96,881.24 3617.96,872.42 3591.48,872.42 3591.48,863.59 3476.74,863.59 "/>
   <polygon class="fil0" points="1640.72,1958.13 1605.42,1958.13 1605.42,1966.96 1587.76,1966.96 1587.76,1975.79 1570.11,1975.79 1570.11,1984.61 1561.28,1984.61 1561.28,1993.44 1543.63,1993.44 1543.63,2002.27 1534.81,2002.27 1534.81,2011.09 1525.98,2011.09 1525.98,2019.92 1517.15,2019.92 1517.15,2037.57 1508.33,2037.57 1508.33,2046.4 1499.5,2046.4 1499.5,2064.05 1490.67,2064.05 1490.67,2090.53 1481.85,2090.53 1481.85,2134.67 1473.02,2134.67 1473.02,2169.97 1481.85,2169.97 1481.85,2214.12 1490.67,2214.12 1490.67,2231.77 1499.5,2231.77 1499.5,2249.42 1508.33,2249.42 1508.33,2267.08 1517.15,2267.08 1517.15,2275.9 1525.98,2275.9 1525.98,2284.73 1534.81,2284.73 1534.81,2293.56 1543.63,2293.56 1543.63,2302.38 1552.46,2302.38 1552.46,2311.21 1570.11,2311.21 1570.11,2320.04 1578.94,2320.04 1578.94,2328.86 1596.59,2328.86 1596.59,2337.69 1623.07,2337.69 1623.07,2346.52 1729,2346.52 1729,2337.69 1755.48,2337.69 1755.48,2328.86 1773.13,2328.86 1773.13,2320.04 1781.96,2320.04 1781.96,2311.21 1799.61,2311.21 1799.61,2302.38 1808.44,2302.38 1808.44,2293.56 1817.27,2293.56 1817.27,2284.73 1826.09,2284.73 1826.09,2275.9 1834.92,2275.9 1834.92,2267.08 1843.75,2267.08 1843.75,2249.42 1852.57,2249.42 1852.57,2231.77 1861.4,2231.77 1861.4,2205.29 1870.23,2205.29 1870.23,2169.97 1879.05,2169.97 1879.05,2134.67 1870.23,2134.67 1870.23,2090.53 1861.4,2090.53 1861.4,2064.05 1852.57,2064.05 1852.57,2046.4 1843.75,2046.4 1843.75,2037.57 1834.92,2037.57 1834.92,2019.92 1826.09,2019.92 1826.09,2011.09 1817.27,2011.09 1817.27,2002.27 1808.44,2002.27 1808.44,1993.44 1790.79,1993.44 1790.79,1984.61 1781.96,1984.61 1781.96,1975.79 1764.31,1975.79 1764.31,1966.96 1746.65,1966.96 1746.65,1958.13 1711.35,1958.13 1711.35,1949.31 1640.72,1949.31 "/>
   <polygon class="fil0" points="2488.11,1958.13 2461.63,1958.13 2461.63,1966.96 2435.15,1966.96 2435.15,1975.79 2426.33,1975.79 2426.33,1984.61 2408.67,1984.61 2408.67,1993.44 2399.85,1993.44 2399.85,2002.27 2391.02,2002.27 2391.02,2011.09 2382.19,2011.09 2382.19,2019.92 2373.37,2019.92 2373.37,2028.75 2364.54,2028.75 2364.54,2037.57 2355.71,2037.57 2355.71,2055.23 2346.89,2055.23 2346.89,2072.88 2338.06,2072.88 2338.06,2099.36 2329.23,2099.36 2329.23,2196.45 2338.06,2196.45 2338.06,2222.94 2346.89,2222.94 2346.89,2240.6 2355.71,2240.6 2355.71,2258.25 2364.54,2258.25 2364.54,2267.08 2373.37,2267.08 2373.37,2284.73 2382.19,2284.73 2382.19,2293.56 2399.85,2293.56 2399.85,2302.38 2408.67,2302.38 2408.67,2311.21 2417.5,2311.21 2417.5,2320.04 2435.15,2320.04 2435.15,2328.86 2452.81,2328.86 2452.81,2337.69 2479.29,2337.69 2479.29,2346.52 2576.39,2346.52 2576.39,2337.69 2602.87,2337.69 2602.87,2328.86 2620.52,2328.86 2620.52,2320.04 2638.18,2320.04 2638.18,2311.21 2647,2311.21 2647,2302.38 2655.83,2302.38 2655.83,2293.56 2664.66,2293.56 2664.66,2284.73 2673.48,2284.73 2673.48,2275.9 2682.31,2275.9 2682.31,2267.08 2691.13,2267.08 2691.13,2258.25 2699.96,2258.25 2699.96,2240.6 2708.79,2240.6 2708.79,2222.94 2717.61,2222.94 2717.61,2187.63 2726.44,2187.63 2726.44,2108.19 2717.61,2108.19 2717.61,2081.71 2708.79,2081.71 2708.79,2055.23 2699.96,2055.23 2699.96,2046.4 2691.13,2046.4 2691.13,2028.75 2682.31,2028.75 2682.31,2019.92 2673.48,2019.92 2673.48,2011.09 2664.66,2011.09 2664.66,2002.27 2655.83,2002.27 2655.83,1993.44 2647,1993.44 2647,1984.61 2629.35,1984.61 2629.35,1975.79 2620.52,1975.79 2620.52,1966.96 2594.04,1966.96 2594.04,1958.13 2567.56,1958.13 2567.56,1949.31 2488.11,1949.31 "/>
  </g>
 </g>
</svg>
