<?xml version="1.0" encoding="UTF-8"?>
<svg version="1.1" xmlns="http://www.w3.org/2000/svg" width="679" height="565">
<path d="M0 0 C4.6123367 1.92794335 6.445707 4.76038491 8.9375 9 C9.56527344 10.051875 10.19304687 11.10375 10.83984375 12.1875 C12.55149529 15.16735945 14.18898754 18.18466727 15.82421875 21.20703125 C19.03486363 27.11858247 22.43430777 32.90760412 25.875 38.6875 C26.76445313 40.18700195 26.76445313 40.18700195 27.671875 41.71679688 C29.11286354 44.14555981 30.55558792 46.5732721 32 49 C34.83480427 45.61302114 37.12349718 42.23166511 39.2421875 38.359375 C40.12970703 36.75255859 40.12970703 36.75255859 41.03515625 35.11328125 C41.64230469 34.00339844 42.24945313 32.89351562 42.875 31.75 C46.59599257 24.95618775 50.31685821 18.26750807 54.73657227 11.89892578 C55.98290392 10.02569533 57.02205458 8.11817662 58.0625 6.125 C60.15600276 2.74838265 61.32938252 1.45117435 65 0 C70.62468466 -0.50825464 74.13546666 0.68824279 78.8125 3.625 C79.42794678 3.99254395 80.04339355 4.36008789 80.67749023 4.73876953 C83.27247968 6.2943398 85.83539896 7.89564509 88.390625 9.515625 C96.72080648 14.7294796 105.66819294 18.71601114 114.56347656 22.85742188 C116.59135528 23.80837101 118.60724093 24.77758619 120.6171875 25.765625 C127.48557442 29.08621918 134.4208336 31.59763981 141.73510742 33.73339844 C147.71082214 35.57289663 151.94911822 37.94970375 155.5390625 43.2890625 C161.06251842 55.1704533 164.61229816 67.37942226 168 80 C178.79310871 75.80063347 188.78823828 70.42772478 198.8984375 64.8046875 C212.8414305 57.10375929 212.8414305 57.10375929 218.08007812 58.15478516 C226.06378871 61.66948583 230.52278836 72.70009994 234.4375 79.875 C235.07365234 81.01453125 235.70980469 82.1540625 236.36523438 83.328125 C241 91.71152491 241 91.71152491 241 94 C241.66 94 242.32 94 243 94 C243.20625 93.195625 243.4125 92.39125 243.625 91.5625 C245.10290193 87.73339046 247.03373038 84.84517998 249.359375 81.4921875 C251.08018767 78.87819111 252.54276938 76.20623817 254 73.4375 C260.2958796 61.73341052 260.2958796 61.73341052 265.4375 58.4375 C275.20937764 56.76913065 283.04931847 63.18338542 291 68.0625 C296.15070296 71.17875602 301.48308286 73.60795322 307 76 C308.28955832 76.57440901 309.57858982 77.15000168 310.8671875 77.7265625 C316.91663849 80.41896784 322.89904006 83.02884669 329.1875 85.125 C333.62290759 86.68140055 336.18319199 88.21187889 339 92 C339 92.99 339 93.98 339 95 C339.66 95 340.32 95 341 95 C350.22357743 111.74608526 352.48126191 129.15057523 352 148 C352.80824219 148.03738281 353.61648438 148.07476562 354.44921875 148.11328125 C356.05216797 148.21189453 356.05216797 148.21189453 357.6875 148.3125 C359.27111328 148.39951172 359.27111328 148.39951172 360.88671875 148.48828125 C365.40228747 149.23048891 369.21227824 151.31216745 372 155 C373.22028043 159.20096543 373.06193095 162.77185097 372 167 C369.05744048 171.28008658 365.58211991 174.73882271 361.81005859 178.28955078 C359.32365528 180.63912478 356.91712039 183.0644413 354.50415039 185.48901367 C353.29500063 186.70271339 352.08194717 187.91253675 350.86499023 189.1184082 C347.37394794 192.58032207 344.07684081 196.12282194 340.90234375 199.87890625 C337.67567789 203.47660556 334.19523768 206.82378855 330.75976562 210.22070312 C327.29728069 213.65922623 324.03071018 217.18251199 320.875 220.90625 C317.84608432 224.28853918 314.58538699 227.4372216 311.35375977 230.62451172 C308.56761351 233.38632289 305.89639744 236.17669126 303.375 239.1875 C301 242 301 242 299 243 C300.58836783 246.91501549 303.27761095 249.55092918 306.234375 252.46484375 C306.75002014 252.98003067 307.26566528 253.49521759 307.79693604 254.02601624 C308.887324 255.11338963 309.98013489 256.1983381 311.07519531 257.28100586 C312.73555646 258.92321438 314.38787863 260.57317906 316.0390625 262.22460938 C317.10369824 263.28432497 318.16878821 264.34358447 319.234375 265.40234375 C319.72210388 265.88895981 320.20983276 266.37557587 320.71234131 266.87693787 C323.12543742 269.25752651 325.58673678 271.52074273 328.20800781 273.66625977 C331 276 331 276 333.4375 278.9375 C335.96398325 281.95695559 338.57580538 284.2690823 341.64453125 286.703125 C342.09183594 287.13109375 342.53914062 287.5590625 343 288 C343 288.66 343 289.32 343 290 C343.53915039 290.22260498 344.07830078 290.44520996 344.63378906 290.67456055 C349.72210096 293.52479221 353.8135751 298.07869426 357.98291016 302.11791992 C359.15494404 303.24186123 360.3401987 304.3521862 361.53857422 305.44799805 C372.73917172 315.70156572 372.73917172 315.70156572 373.203125 324.01171875 C373.11370132 327.15112877 372.91738542 329.07079936 370.66447109 331.3527295 C365.86231408 335.00946765 362.29075959 335.71226619 356.33766174 335.60127258 C355.49046898 335.60554471 354.64327622 335.60981683 353.77041095 335.61421841 C350.94478344 335.62242388 348.12065568 335.59500445 345.29516602 335.56762695 C343.26460302 335.56621595 341.23403747 335.56700948 339.20347595 335.56983948 C333.6997096 335.57127299 328.19648901 335.54189312 322.6928494 335.50696969 C316.93799694 335.47569578 311.18313172 335.47277462 305.4282074 335.46684265 C294.53436842 335.45130731 283.64078057 335.4102828 272.74705213 335.3600952 C260.34329187 335.3041923 247.93951957 335.27671281 235.53566468 335.25161803 C210.02363727 335.19936687 184.51183271 335.11143037 159 335 C158.56107422 335.91434814 158.56107422 335.91434814 158.11328125 336.84716797 C144.66699499 362.84921891 110.3649427 382.80713415 83.515625 391.91015625 C77.39296711 393.80818019 71.22818124 395.48109318 65 397 C64.3637117 397.17052887 63.7274234 397.34105774 63.07185364 397.51675415 C56.88599238 399.06830634 51.0127227 399.27612718 44.65625 399.23046875 C43.60594604 399.23001053 42.55564209 399.22955231 41.47351074 399.2290802 C39.2717169 399.22607738 37.06992481 399.21825079 34.86816406 399.20581055 C31.48234637 399.18740403 28.09680031 399.18530216 24.7109375 399.18554688 C22.56770595 399.18063662 20.42447626 399.17481046 18.28125 399.16796875 C17.26470337 399.16685593 16.24815674 399.1657431 15.20080566 399.16459656 C14.26893433 399.15821671 13.33706299 399.15183685 12.37695312 399.14526367 C11.55360474 399.14145187 10.73025635 399.13764008 9.88195801 399.13371277 C8 399 8 399 7 398 C4.75674083 397.5291555 2.50483562 397.09935263 0.25 396.6875 C-19.15490131 392.92555975 -37.18888677 385.31154743 -54 375 C-54 374.34 -54 373.68 -54 373 C-54.70125 372.7525 -55.4025 372.505 -56.125 372.25 C-59.39514548 370.82819762 -62.141122 369.12753712 -65 367 C-65 366.34 -65 365.68 -65 365 C-66.65 364.34 -68.3 363.68 -70 363 C-70 362.34 -70 361.68 -70 361 C-70.53753906 360.78859375 -71.07507813 360.5771875 -71.62890625 360.359375 C-74.89236802 358.48839527 -77.33061856 355.91871758 -79.9375 353.25 C-80.44990234 352.73695313 -80.96230469 352.22390625 -81.49023438 351.6953125 C-91 342.07679479 -91 342.07679479 -91 339 C-91.66 339 -92.32 339 -93 339 C-93.33 337.68 -93.66 336.36 -94 335 C-95.0552163 335.00460896 -96.11043261 335.00921793 -97.19762516 335.01396656 C-122.86986708 335.12494983 -148.54207789 335.20712183 -174.21450901 335.25906086 C-186.62950223 335.28484562 -199.044337 335.32000164 -211.45922852 335.37719727 C-222.27968401 335.42702355 -233.10002475 335.45928903 -243.92059177 335.47044247 C-249.65038217 335.47696246 -255.37984428 335.49229248 -261.1095295 335.52865028 C-266.50299153 335.56259717 -271.89599015 335.57305543 -277.28954887 335.56553841 C-279.26846714 335.56691352 -281.24740096 335.5768536 -283.22622681 335.59602737 C-285.93060609 335.62094519 -288.63324119 335.61491012 -291.33766174 335.60127258 C-292.1188072 335.61583679 -292.89995266 335.630401 -293.70476919 335.64540654 C-299.24871974 335.5699587 -303.07151795 334.00788526 -307 330 C-308.63127364 325.51183351 -308.19125696 321.58229838 -307 317 C-304.0674423 312.34774062 -300.32069469 308.77276171 -296.34375 305.0390625 C-295.23913518 303.95621558 -294.13733245 302.87049338 -293.03820801 301.78207397 C-290.1495605 298.93714039 -287.22369135 296.1337513 -284.28820801 293.33728027 C-281.32642723 290.50125741 -278.40379021 287.6254994 -275.4765625 284.75390625 C-258.95459708 268.59621376 -258.95459708 268.59621376 -250.62365723 261.41387939 C-248.64976793 259.6950182 -246.77978162 257.89388682 -244.9375 256.03515625 C-243.96103516 255.05385742 -243.96103516 255.05385742 -242.96484375 254.05273438 C-242.31644531 253.39595703 -241.66804688 252.73917969 -241 252.0625 C-240.32066406 251.37865234 -239.64132813 250.69480469 -238.94140625 249.99023438 C-237.29191641 248.32912841 -235.6448332 246.66571487 -234 245 C-241.43855764 236.29129267 -249.02654656 227.83895606 -257.2265625 219.8359375 C-259.34634133 217.66838901 -261.3306943 215.48947364 -263.3046875 213.1953125 C-267.15998365 208.74415017 -271.30059156 204.62428486 -275.5 200.5 C-280.2803612 195.8051551 -284.87557001 191.05741903 -289.24511719 185.97753906 C-292.29774943 182.53759455 -295.59196541 179.34315249 -298.875 176.125 C-300.2080119 174.81742726 -301.53885616 173.50763985 -302.8671875 172.1953125 C-303.44581543 171.62828613 -304.02444336 171.06125977 -304.62060547 170.47705078 C-307.97753048 166.88246736 -307.38348408 162.60264533 -307.35546875 157.9296875 C-307 155 -307 155 -304.6875 151.8125 C-300.5896975 149.04886575 -297.64946469 148.88548963 -292.8125 148.9375 C-291.72582031 148.94652344 -290.63914062 148.95554687 -289.51953125 148.96484375 C-288.68808594 148.97644531 -287.85664063 148.98804688 -287 149 C-287.24363281 148.15308594 -287.24363281 148.15308594 -287.4921875 147.2890625 C-291.85011471 127.64486756 -282.66135141 107.25460796 -273.08984375 90.6953125 C-270.72200756 87.64146769 -269.15440222 86.7582673 -265.5625 85.4375 C-264.49902344 85.03144531 -263.43554688 84.62539062 -262.33984375 84.20703125 C-261.23769531 83.80871094 -260.13554687 83.41039062 -259 83 C-243.87421999 77.41366898 -229.40971903 70.37978614 -215.8125 61.6875 C-211.34276457 58.99574174 -208.24163631 57.91263939 -203 58 C-193.57302323 60.63955349 -189.44563191 72.59729192 -184.96875 80.53515625 C-182.39107814 85.07165415 -179.71145577 89.54253104 -177 94 C-176.44054687 92.85402344 -175.88109375 91.70804687 -175.3046875 90.52734375 C-171.94156001 83.80552562 -168.04892829 77.39331253 -164.17480469 70.95703125 C-163.18070859 69.30103077 -162.20190915 67.63586234 -161.2265625 65.96875 C-159.07208238 62.45774536 -157.70855417 60.39196614 -154.0625 58.375 C-145.97063056 57.38415884 -141.03505034 60.38985918 -134.3125 64.5 C-124.19931105 70.5006184 -113.81132352 75.40141341 -103 80 C-102.72736328 78.74896484 -102.72736328 78.74896484 -102.44921875 77.47265625 C-100.96635225 70.83397697 -99.35987578 64.38082918 -97 58 C-96.71382812 57.18917969 -96.42765625 56.37835938 -96.1328125 55.54296875 C-92.73889648 46.41305416 -89.0769247 39.2994166 -80 35 C-77.32567691 33.93027077 -74.61187332 33.0204298 -71.875 32.125 C-64.3290765 29.55120929 -57.15899263 26.52455718 -50 23 C-49.3723877 22.69304199 -48.74477539 22.38608398 -48.09814453 22.06982422 C-37.68437124 16.96842246 -27.24348941 11.8096486 -17.328125 5.78515625 C-16.71018066 5.41519531 -16.09223633 5.04523438 -15.45556641 4.6640625 C-13.72581948 3.62316918 -12.00706184 2.5640768 -10.2890625 1.50390625 C-6.48091329 -0.23734963 -4.14341418 -0.50006723 0 0 Z M-15.5625 32.25 C-30.4587837 41.07238649 -46.71623161 48.43075767 -63.21362305 53.68188477 C-67.89465872 55.24789047 -70.40076591 56.77467503 -73 61 C-83.14236615 83.04555976 -83.4992093 110.23209046 -83 134 C-79.65000817 131.13813568 -76.30736752 128.27054745 -73 125.359375 C-55.47830085 110.11914709 -36.1293439 99.050459 -14 92 C-13.06542969 91.68289063 -12.13085938 91.36578125 -11.16796875 91.0390625 C-5.42527907 89.16503453 0.3305229 88.23386838 6.3125 87.4296875 C8.96228694 87.14402071 8.96228694 87.14402071 11 86 C14.08100341 85.72428521 17.16171476 85.55336467 20.25 85.37890625 C23.13984008 85.26280834 23.13984008 85.26280834 25 83 C24.45988281 82.38511719 23.91976562 81.77023438 23.36328125 81.13671875 C20.19100562 76.92624382 17.73787483 72.41891246 15.1875 67.8125 C14.0427846 65.76499959 12.89690178 63.71815152 11.75 61.671875 C11.14671875 60.59486328 10.5434375 59.51785156 9.921875 58.40820312 C6.55351123 52.43483444 3.1205505 46.49885298 -0.3125 40.5625 C-0.98348888 39.4014538 -1.65446891 38.2404025 -2.32543945 37.0793457 C-3.8827609 34.38572823 -5.44089514 31.69258548 -7 29 C-10.83350416 29 -12.2958823 30.23851576 -15.5625 32.25 Z M72 29 C71.66790527 29.589021 71.33581055 30.17804199 70.99365234 30.78491211 C69.45765877 33.50446784 67.91636308 36.22098421 66.375 38.9375 C65.85292969 39.86369141 65.33085937 40.78988281 64.79296875 41.74414062 C61.81214712 46.98817868 58.70842642 52.07501305 55.28369141 57.04174805 C53.64939524 59.5348423 52.357022 62.12464868 51.078125 64.8125 C49.25445644 68.51269708 47.19435142 72.08528633 45.171875 75.6796875 C43.84972784 77.86429719 43.84972784 77.86429719 44 80 C43.34 80 42.68 80 42 80 C41.34 81.32 40.68 82.64 40 84 C42.57493018 85.28746509 44.68817884 85.2576255 47.5625 85.4375 C52.89985895 85.85438247 57.82221995 86.68986474 63 88 C64.16015625 88.26683594 65.3203125 88.53367188 66.515625 88.80859375 C89.91608772 94.25853865 111.27262634 103.69908587 130 119 C131.64515725 120.23007142 133.29095088 121.45929235 134.9375 122.6875 C137.55690685 124.72061362 139.74607734 126.72007885 141.8125 129.3125 C143.91566206 131.89638482 145.06673999 132.69017949 148 134 C148.24170044 124.1171376 147.92751238 114.35552201 147.125 104.5 C147.04652832 103.49839844 146.96805664 102.49679687 146.88720703 101.46484375 C146.3694327 95.49404113 145.44784277 89.81168694 144 84 C143.6894472 82.65770391 143.37953599 81.3152592 143.0703125 79.97265625 C140.75998454 66.78090221 140.75998454 66.78090221 133.7421875 56.3671875 C130.88673611 54.9435294 128.09661036 53.92386715 125.0625 52.9375 C109.79080819 47.59160997 95.26532227 40.46918183 81.25732422 32.40380859 C80.47760254 31.95859863 79.69788086 31.51338867 78.89453125 31.0546875 C78.21237549 30.65749512 77.53021973 30.26030273 76.82739258 29.85107422 C74.88272277 28.78890541 74.88272277 28.78890541 72 29 Z M204.375 88.875 C193.98842661 95.01881553 182.44989927 100.18336691 171 104 C171 118.85 171 133.7 171 149 C222.81 149 274.62 149 328 149 C332.08823184 140.82353632 328.44148308 127.37040519 325.7434082 119.07958984 C325.37542114 118.05019287 325.37542114 118.05019287 325 117 C324.71535889 116.16549316 324.43071777 115.33098633 324.13745117 114.47119141 C321.99865891 109.22792007 320.03021375 106.51285043 314.82421875 104.1171875 C312.7909675 103.33689368 310.74439232 102.59065568 308.6875 101.875 C306.52560001 101.05274726 304.36544169 100.22590093 302.20703125 99.39453125 C301.15080566 98.99572754 300.09458008 98.59692383 299.00634766 98.18603516 C294.83817812 96.54164929 290.85463968 94.61560713 286.875 92.5625 C285.94627075 92.08562744 285.94627075 92.08562744 284.9987793 91.59912109 C283.33033726 90.73695744 281.66507539 89.86864776 280 89 C278.00182398 87.99636033 276.00242864 86.99512791 274 86 C273.03465016 87.64305594 272.06930949 89.28611728 271.10400391 90.92919922 C270.23111929 92.41326807 269.35706477 93.89664934 268.48193359 95.37939453 C265.82630916 99.88096811 263.19244853 104.39391536 260.58203125 108.921875 C259.42972321 110.90627074 258.27737992 112.890646 257.125 114.875 C256.5781958 115.83164551 256.0313916 116.78829102 255.46801758 117.77392578 C254.68334106 119.11946533 254.68334106 119.11946533 253.8828125 120.4921875 C253.42277832 121.28995605 252.96274414 122.08772461 252.48876953 122.90966797 C249.9899663 126.41815489 247.78292292 127.79701998 243.625 128.875 C239.30396916 129.02400106 237.5402494 128.46278219 234 126 C230.17785941 121.4134313 227.47933908 116.35470406 224.671875 111.1015625 C220.07997819 102.58295019 215.33132089 94.07775892 210 86 C208.00931466 86 205.98252775 87.86971607 204.375 88.875 Z M-217.75 90.125 C-234.92229178 99.28869738 -234.92229178 99.28869738 -243.9609375 102.3828125 C-252.20231634 105.00281468 -252.20231634 105.00281468 -258.1875 110.875 C-259.21040968 113.2577899 -259.21040968 113.2577899 -260 116 C-260.57621094 117.75183594 -260.57621094 117.75183594 -261.1640625 119.5390625 C-264.22111307 129.84656469 -264 137.55316957 -264 149 C-211.86 149 -159.72 149 -106 149 C-106 134.15 -106 119.3 -106 104 C-112.435 101.525 -112.435 101.525 -119 99 C-121.83356665 97.68598852 -124.60616564 96.36777779 -127.375 94.9375 C-128.02082031 94.61201172 -128.66664063 94.28652344 -129.33203125 93.95117188 C-131.89474121 92.64919146 -134.4238501 91.36354119 -136.85644531 89.82861328 C-139.5789092 88.11585845 -141.49918138 87.01065572 -144.75390625 86.94140625 C-147.80927573 88.38141517 -148.47610133 89.91727609 -149.9375 92.9375 C-151.86490887 96.75772323 -153.82775937 100.47492364 -156.0625 104.125 C-157.95353275 107.23415255 -159.7648644 110.36386345 -161.5 113.5625 C-162.33209435 115.042364 -163.16545528 116.52151646 -164 118 C-164.65742188 119.23363281 -164.65742188 119.23363281 -165.328125 120.4921875 C-167.78823788 124.72304097 -169.56723532 127.3975827 -174.4375 128.6875 C-178.69659591 129.23427583 -182.0636288 128.84768444 -186 127 C-186.72969242 125.35994781 -187.38849926 123.68768749 -188 122 C-188.91016729 120.33208658 -189.85507362 118.68280781 -190.828125 117.05078125 C-191.65763672 115.65375977 -191.65763672 115.65375977 -192.50390625 114.22851562 C-193.08011719 113.26623047 -193.65632813 112.30394531 -194.25 111.3125 C-194.81074219 110.36955078 -195.37148437 109.42660156 -195.94921875 108.45507812 C-198.18517912 104.69835487 -200.42818384 100.9461409 -202.68945312 97.20458984 C-203.21990234 96.32625488 -203.75035156 95.44791992 -204.296875 94.54296875 C-204.76963867 93.76332764 -205.24240234 92.98368652 -205.72949219 92.18041992 C-206.90955069 90.15522729 -207.97869302 88.1089209 -209 86 C-211.77392249 86 -215.26632159 88.78470772 -217.75 90.125 Z M2 111 C0.92999756 111.27336182 0.92999756 111.27336182 -0.16162109 111.55224609 C-15.46170215 115.57116139 -28.61090804 121.65720525 -42 130 C-42.97066406 130.54398438 -43.94132812 131.08796875 -44.94140625 131.6484375 C-45.62074219 132.09445312 -46.30007813 132.54046875 -47 133 C-47 133.66 -47 134.32 -47 135 C-48.01126953 135.29390625 -48.01126953 135.29390625 -49.04296875 135.59375 C-53.14594239 137.544966 -56.03888374 140.39158168 -59.3125 143.5 C-59.95767578 144.09425781 -60.60285156 144.68851563 -61.26757812 145.30078125 C-63.71648684 147.57061122 -63.71648684 147.57061122 -66 150 C-66 150.66 -66 151.32 -66 152 C-66.66 152 -67.32 152 -68 152 C-69.63705331 153.85918137 -71.13853244 155.71233461 -72.625 157.6875 C-73.29378174 158.57272339 -73.29378174 158.57272339 -73.97607422 159.47583008 C-95.78483404 188.7631025 -106.30313721 225.59710896 -101 262 C-94.26121613 298.507917 -75.20796192 330.81434287 -44.8125 352.5625 C-33.59891682 360.22392336 -21.93773457 365.87194533 -9 370 C-8.15179688 370.28488281 -7.30359375 370.56976562 -6.4296875 370.86328125 C5.872962 374.8220546 17.82346727 376.4886355 30.68139648 376.33618164 C32.82898922 376.31231677 34.97535234 376.31568881 37.12304688 376.32226562 C44.62120167 376.30658486 51.69508801 375.82193737 59 374 C59.93972656 373.82597656 60.87945312 373.65195312 61.84765625 373.47265625 C72.32450804 371.53249851 81.40968403 367.5935781 91 363 C91.73347656 362.6596875 92.46695313 362.319375 93.22265625 361.96875 C104.79718491 356.45480616 117.44607757 348.60546845 126 339 C126 338.34 126 337.68 126 337 C126.85658203 336.6596875 126.85658203 336.6596875 127.73046875 336.3125 C135.50352026 331.8172413 141.07902522 321.36909791 146 314 C146.67675781 313.00226563 146.67675781 313.00226563 147.3671875 311.984375 C153.02121445 303.34530276 156.67048384 293.72638186 160 284 C160.35010132 283.06414062 160.35010132 283.06414062 160.70727539 282.109375 C163.04708878 275.6078411 164.16624601 269.06895658 165.1875 262.25 C165.36474609 261.15945313 165.54199219 260.06890625 165.72460938 258.9453125 C167.613574 246.60504937 167.20654918 234.99926406 165.3125 222.6875 C165.13243408 221.50833008 164.95236816 220.32916016 164.7668457 219.11425781 C160.47701565 192.4260541 148.6731016 171.06805462 131 151 C129.89383245 149.66832619 128.78923223 148.33534561 127.6875 147 C125.05149545 143.93612225 122.23550297 141.42662723 119 139 C118.34 139 117.68 139 117 139 C117 138.34 117 137.68 117 137 C115.05385473 135.40651139 115.05385473 135.40651139 112.625 133.875 C111.81289063 133.33617187 111.00078125 132.79734375 110.1640625 132.2421875 C108.12677974 130.8340587 108.12677974 130.8340587 106 131 C106 130.34 106 129.68 106 129 C92.21461856 120.78179183 78.48108207 115.19870235 63 111 C62.34708984 110.81743652 61.69417969 110.63487305 61.02148438 110.44677734 C42.48469311 105.48254764 20.50337969 106.25472707 2 111 Z M-268 173 C-265.525 176.465 -265.525 176.465 -263 180 C-262.34 180 -261.68 180 -261 180 C-260.73662842 180.59006836 -260.47325684 181.18013672 -260.2019043 181.78808594 C-258.94798348 184.09572815 -257.64804739 185.56727394 -255.76953125 187.390625 C-255.13426514 188.01445068 -254.49899902 188.63827637 -253.84448242 189.28100586 C-252.83865112 190.25565796 -252.83865112 190.25565796 -251.8125 191.25 C-247.04702181 195.923867 -242.40327122 200.58020802 -238.19921875 205.77734375 C-237.80347656 206.18082031 -237.40773438 206.58429688 -237 207 C-236.34 207 -235.68 207 -235 207 C-234.7628125 207.56589844 -234.525625 208.13179687 -234.28125 208.71484375 C-232.71901476 211.50114746 -230.80262557 213.35332514 -228.5 215.5625 C-225.97190847 217.9961985 -223.95327066 220.07009401 -222 223 C-221.34 223 -220.68 223 -220 223 C-219.77183594 223.55945313 -219.54367188 224.11890625 -219.30859375 224.6953125 C-217.09740424 228.58964627 -213.65083832 231.32218726 -210.41015625 234.3671875 C-207.88683993 237.12361408 -206.40307675 239.54627261 -205 243 C-205.25 246.125 -205.25 246.125 -206 249 C-206.103125 249.7425 -206.20625 250.485 -206.3125 251.25 C-207 253 -207 253 -208.79777527 253.87738037 C-211.33818791 255.17239675 -212.9195889 256.68586619 -214.9230957 258.71191406 C-215.68100906 259.47320618 -216.43892242 260.23449829 -217.21980286 261.01885986 C-218.03027573 261.84279236 -218.8407486 262.66672485 -219.67578125 263.515625 C-220.5191655 264.36421082 -221.36254974 265.21279663 -222.23149109 266.08709717 C-224.92994503 268.80336758 -227.62164184 271.52620629 -230.3125 274.25 C-232.99346589 276.95867426 -235.67590096 279.66585006 -238.3613739 282.37005615 C-240.03152308 284.05235921 -241.69899251 285.73732827 -243.36335754 287.425354 C-246.82539208 290.91685314 -250.28156902 294.29940291 -254.06713867 297.44042969 C-255.03498291 298.28508789 -256.00282715 299.12974609 -257 300 C-257 300.66 -257 301.32 -257 302 C-258.98 302.99 -258.98 302.99 -261 304 C-262.98 306.31 -264.96 308.62 -267 311 C-215.19 311 -163.38 311 -110 311 C-110 310.01 -110 309.02 -110 308 C-110.66 308 -111.32 308 -112 308 C-112.226875 306.783125 -112.45375 305.56625 -112.6875 304.3125 C-113.52380882 300.47843632 -114.76327645 297.10023962 -116.3125 293.5 C-128.91286495 260.76155178 -128.38793709 218.26052796 -114.68359375 185.890625 C-114.27238281 185.01921875 -113.86117187 184.1478125 -113.4375 183.25 C-111.84293955 179.85224503 -110.39760496 176.49401241 -109 173 C-161.47 173 -213.94 173 -268 173 Z M174 173 C175.65 176.96 177.3 180.92 179 185 C183.19226241 195.98295474 185.9045219 206.62504941 187.45703125 218.28125 C187.77372502 221.80853155 187.77372502 221.80853155 189 224 C189.13576805 226.45337554 189.21213042 228.8769331 189.23828125 231.33203125 C189.24798447 232.07183731 189.25768768 232.81164337 189.26768494 233.5738678 C189.29277387 235.98679967 189.30523841 238.39945037 189.3125 240.8125 C189.31642761 242.039758 189.31642761 242.039758 189.32043457 243.29180908 C189.32489929 256.27106468 188.36342008 268.41429904 185 281 C184.67247667 282.32795245 184.34562401 283.65607054 184.01953125 284.984375 C182.30059868 291.52333482 180.06337681 297.54448436 177.05078125 303.59765625 C175.74514185 306.35008334 175.74514185 306.35008334 175 311 C226.81 311 278.62 311 332 311 C331.34 310.67 330.68 310.34 330 310 C329.67 309.01 329.34 308.02 329 307 C327.40976559 305.38558685 327.40976559 305.38558685 325.43798828 303.80908203 C321.06372778 300.09530751 317.02325362 296.13468773 312.9921875 292.0546875 C311.89851364 290.95533371 311.89851364 290.95533371 310.78274536 289.83377075 C308.47769373 287.51661863 306.17593821 285.19623635 303.875 282.875 C300.83366641 279.80696016 297.78896014 276.74232501 294.7421875 273.6796875 C294.05454315 272.98374481 293.3668988 272.28780212 292.65841675 271.57077026 C288.92302088 267.81652009 285.10663726 264.34265612 281 261 C279.92082438 259.84648117 278.87078062 258.66373271 277.875 257.4375 C276.20542047 255.3998242 274.69246951 253.73402769 272.6875 252 C270.23867852 249.09769306 270.1312735 246.74129486 270 243 C270.875 240.25 270.875 240.25 272 238 C272.495 236.515 272.495 236.515 273 235 C275.0625 233.8125 275.0625 233.8125 277 233 C277 232.34 277 231.68 277 231 C277.598125 230.73960937 278.19625 230.47921875 278.8125 230.2109375 C281.16377472 228.90933899 282.3175226 227.70180804 284 225.625 C287.15789718 221.88180291 290.5145757 218.43267193 294 215 C297.22258053 211.81768332 300.39058385 208.65302845 303.3125 205.1875 C306.8144929 201.06293058 310.65883881 197.30452128 314.5 193.5 C321.10238687 186.95465492 327.1899817 180.26252288 333 173 C280.53 173 228.06 173 174 173 Z " fill="#FFFFFF" transform="translate(307,166)"/>
<path d="M0 0 C2.9375 1.9375 2.9375 1.9375 5 4 C5 4.66 5 5.32 5 6 C5.66 6 6.32 6 7 6 C7.37769531 6.77859375 7.75539063 7.5571875 8.14453125 8.359375 C12.20346828 16.61032896 16.53126334 24.67894492 21.00317383 32.71337891 C24.13170008 38.35373771 27.06293906 44.03181395 29.78125 49.8828125 C30.9610252 52.29495288 30.9610252 52.29495288 34 54 C36.21714243 54.4056779 38.44989168 54.72906797 40.6875 55 C48.48302284 56.01923077 48.48302284 56.01923077 52 57 C56.78679654 58.31765582 61.69479946 58.83060099 66.60546875 59.5 C70.07500796 60.01104835 73.44573779 60.67697044 76.84765625 61.51953125 C79.05487942 62.04744298 79.05487942 62.04744298 81.55859375 62.32421875 C86.26046397 62.97395713 89.28258127 63.67975354 92.5625 67.25 C94.88765271 70.44047943 96.08585396 72.96486379 96 77 C94.32804943 82.37412683 90.53176742 85.68800745 86.546875 89.4609375 C84.48720926 91.51428525 82.60005891 93.58765496 80.70703125 95.7890625 C76.36588917 100.80437493 71.63418258 105.38750902 66.87304688 110 C64.8756944 111.9647348 62.93855807 113.97747284 61 116 C60.37818848 116.57081299 59.75637695 117.14162598 59.11572266 117.72973633 C56.09630117 120.89827039 55.03611677 122.98219019 54.87866211 127.41943359 C55.23890309 131.55561035 55.81957418 135.59507704 56.5 139.6875 C56.70631201 141.08221458 56.90946036 142.47740096 57.109375 143.87304688 C57.87608707 149.13712216 58.73685567 154.38490558 59.59228516 159.63525391 C60.52206849 165.4566887 61.31144026 171.10165588 61.375 177 C61.40335938 178.216875 61.43171875 179.43375 61.4609375 180.6875 C60.90913849 184.65297088 59.85723033 186.23767767 57 189 C53.39157606 190.91653645 49.70069716 191.39605276 45.71875 190.46875 C43.06798745 189.44378848 40.55200192 188.25146248 38 187 C36.25424304 186.2052001 34.50847308 185.41042861 32.76245117 184.61621094 C25.34373844 181.21152942 18.04147599 177.56960545 10.75390625 173.89453125 C10.1417627 173.58725098 9.52961914 173.2799707 8.89892578 172.96337891 C7.56899674 172.28866818 6.24487507 171.60244423 4.92529297 170.90771484 C-0.28028474 168.06016256 -0.28028474 168.06016256 -6 167 C-8.58568847 168.06140006 -10.8797943 169.16117956 -13.3125 170.5 C-14.7442626 171.25348981 -16.1779125 172.00340265 -17.61328125 172.75 C-18.70697021 173.32041016 -18.70697021 173.32041016 -19.82275391 173.90234375 C-23.15367104 175.581622 -26.56664724 177.04476475 -30 178.5 C-36.34852524 181.20073216 -42.50539984 184.18467794 -48.59765625 187.42382812 C-52.39961625 189.39594667 -55.71087101 190.69752264 -60 191 C-67.94818653 188.30569948 -67.94818653 188.30569948 -70 185 C-71.50027024 177.5790204 -70.52990948 170.58653427 -69.625 163.125 C-69.48578125 161.89007813 -69.3465625 160.65515625 -69.203125 159.3828125 C-68.14667411 150.29334821 -68.14667411 150.29334821 -67 148 C-66.60039268 145.12399406 -66.24914432 142.26059554 -65.9375 139.375 C-65.84662109 138.59253906 -65.75574219 137.81007813 -65.66210938 137.00390625 C-65.40481458 134.67084221 -65.1885084 132.33959045 -65 130 C-64.93949463 129.26426758 -64.87898926 128.52853516 -64.81665039 127.77050781 C-64.66622398 124.53390162 -64.67714075 122.48303098 -66.50390625 119.75 C-67.52291016 118.88375 -67.52291016 118.88375 -68.5625 118 C-71.34971805 115.56593823 -73.8435691 113.07801519 -76.25 110.2734375 C-80.09141281 105.8205513 -84.2364226 101.73533224 -88.4375 97.625 C-104.52447189 81.63701952 -104.52447189 81.63701952 -105.6875 75.1875 C-104.78926769 71.02296838 -103.46652399 68.41632512 -100.40234375 65.45703125 C-97.06060305 63.43025193 -93.6148624 63.00174548 -89.8125 62.4375 C-88.27189447 62.18898913 -86.73152584 61.93900487 -85.19140625 61.6875 C-84.45937988 61.57019531 -83.72735352 61.45289063 -82.97314453 61.33203125 C-80.70943591 60.95110528 -78.48230721 60.47158471 -76.25 59.9375 C-72.68841501 59.10232212 -69.1184176 58.53776022 -65.5 58 C-61.03729131 57.33578289 -56.6432045 56.59808038 -52.26489258 55.50390625 C-50 55 -50 55 -47.78100586 54.74609375 C-43.15971426 54.11834403 -43.15971426 54.11834403 -39.52685547 51.40625 C-38.29292516 49.31845856 -37.2847445 47.22156209 -36.3125 45 C-35.56330399 43.44039279 -34.81201056 41.88179135 -34.05859375 40.32421875 C-33.70651855 39.57317871 -33.35444336 38.82213867 -32.99169922 38.04833984 C-31.77313755 35.53141901 -30.36747533 33.17591585 -28.875 30.8125 C-26.51389606 26.98385909 -24.47946366 23.03528805 -22.5 19 C-14.688949 3.25772798 -14.688949 3.25772798 -10.0625 -0.1875 C-6.22708106 -1.20506013 -3.82771937 -1.04392347 0 0 Z M-5 37 C-9.74708873 43.75547243 -13.48185779 51.06942903 -17.28125 58.38671875 C-17.67868408 59.14815186 -18.07611816 59.90958496 -18.4855957 60.6940918 C-19.27565395 62.20985457 -20.06080232 63.7281885 -20.84057617 65.24926758 C-21.20642822 65.95075928 -21.57228027 66.65225098 -21.94921875 67.375 C-22.43394653 68.31472656 -22.43394653 68.31472656 -22.9284668 69.2734375 C-25.68796501 73.71981968 -28.72631273 74.87658156 -33.59765625 76.25 C-38.85791805 77.40955254 -44.17433526 78.12192197 -49.5065918 78.8684082 C-56.15199441 79.81560784 -62.54027748 81.14873806 -69 83 C-64.6585443 88.30622363 -59.94965334 93.12435372 -55.05175781 97.91113281 C-51.10222532 101.79554936 -51.10222532 101.79554936 -50 104 C-49.34 104 -48.68 104 -48 104 C-47.773125 104.53625 -47.54625 105.0725 -47.3125 105.625 C-46.0573392 108.21135819 -46.0573392 108.21135819 -43.375 110.3125 C-38.64718444 115.90498979 -40.63220617 124.59979989 -41.20214844 131.41845703 C-42.5412521 146.0825042 -42.5412521 146.0825042 -44 149 C-44.06950541 150.54023996 -44.08452357 152.08334988 -44.0625 153.625 C-44.05347656 154.44226563 -44.04445313 155.25953125 -44.03515625 156.1015625 C-44.02355469 156.72804688 -44.01195312 157.35453125 -44 158 C-38.70822864 156.65823132 -34.14927737 154.75848552 -29.3125 152.25 C-28.61769531 151.89873047 -27.92289063 151.54746094 -27.20703125 151.18554688 C-23.97061193 149.54651466 -20.76295009 147.87133893 -17.57421875 146.140625 C-16.55972656 145.59921875 -15.54523438 145.0578125 -14.5 144.5 C-13.6234375 144.0153125 -12.746875 143.530625 -11.84375 143.03125 C-5.66919164 140.79212444 -1.39300787 141.59880982 4.42578125 144.23046875 C6.39587958 145.20034301 8.35803509 146.18649529 10.3125 147.1875 C12.26640584 148.16120291 14.22083182 149.1338628 16.17578125 150.10546875 C17.13178223 150.58419434 18.0877832 151.06291992 19.07275391 151.55615234 C26.72061155 155.93756699 26.72061155 155.93756699 35 158 C34.59545022 153.92443686 34.18640048 149.84935296 33.77319336 145.7746582 C33.63328585 144.38871467 33.49460403 143.00264684 33.35717773 141.61645508 C33.15932083 139.62288606 32.9566757 137.6297941 32.75390625 135.63671875 C32.63345947 134.43748779 32.5130127 133.23825684 32.38891602 132.00268555 C32.09187839 128.95605185 32.09187839 128.95605185 31 126 C30.14102029 121.20267934 29.9810675 116.92498925 32.3046875 112.53515625 C34.69340209 109.49889855 37.28652167 106.74170603 40 104 C40.78842285 103.19626953 41.5768457 102.39253906 42.38916016 101.56445312 C48.20481969 95.65383969 54.08151842 89.80753672 60 84 C57.08857022 82.05904681 55.75365109 81.60248552 52.421875 81.03515625 C51.5148584 80.87635986 50.6078418 80.71756348 49.67333984 80.55395508 C48.7086377 80.3917749 47.74393555 80.22959473 46.75 80.0625 C44.75763407 79.71456185 42.76544684 79.36559892 40.7734375 79.015625 C39.30342285 78.75942383 39.30342285 78.75942383 37.80371094 78.49804688 C33.98375889 77.8194765 30.17796323 77.07997715 26.375 76.3125 C25.22773438 76.08175781 24.08046875 75.85101563 22.8984375 75.61328125 C21.94195312 75.41089844 20.98546875 75.20851563 20 75 C19.24976563 74.89042969 18.49953125 74.78085937 17.7265625 74.66796875 C16 74 16 74 15.0078125 72.390625 C14.50894531 71.20726562 14.50894531 71.20726562 14 70 C13.01276876 68.25493565 12.02478623 66.51028166 11.02954102 64.76977539 C6.94307568 57.6208374 3.10519304 50.40153371 -0.43603516 42.96582031 C-2.00227208 39.33877304 -2.00227208 39.33877304 -5 37 Z " fill="#FFFFFF" transform="translate(344,313)"/>
<path d="M0 0 C4.37412668 -0.09991855 8.74762437 -0.17195484 13.12255859 -0.21972656 C14.60640048 -0.23966981 16.09016555 -0.2668349 17.57373047 -0.30175781 C26.47873424 -0.50591838 33.92442926 -0.2055919 42 4 C43.22774664 4.55005558 44.45681034 5.09718602 45.6875 5.640625 C62.37696721 13.7491869 75.69206131 26.34102096 82.109375 44.15625 C82.40328125 45.0946875 82.6971875 46.033125 83 47 C83.31453125 47.9384375 83.6290625 48.876875 83.953125 49.84375 C87.94468127 63.34246758 86.82670075 79.11799691 83.53125 92.6875 C82.93592524 95.27891366 82.49959299 97.87744204 82.0625 100.5 C81.15294505 105.55152825 79.7729258 110.19219685 78 115 C77.67386719 115.97582031 77.34773437 116.95164062 77.01171875 117.95703125 C73.8621104 126.90798008 69.39480141 134.27711271 64 142 C63.41089844 142.85851562 62.82179688 143.71703125 62.21484375 144.6015625 C53.79949157 156.18013217 41.08452409 164.22886898 27.25 167.6875 C19.31176425 168.4507919 11.59601232 168.63168931 4 166 C3.22140625 165.731875 2.4428125 165.46375 1.640625 165.1875 C-12.12439435 160.05767912 -25.36528828 150.81540897 -33 138 C-33 137.34 -33 136.68 -33 136 C-33.66 136 -34.32 136 -35 136 C-41.10139742 125.25941369 -45.86858873 114.95853909 -49 103 C-49.30679687 101.83210938 -49.61359375 100.66421875 -49.9296875 99.4609375 C-55.28825497 77.66942978 -55.71396397 53.94727365 -44.36328125 34.14453125 C-36.2581771 20.93958628 -26.24791548 11.33240688 -12 5 C-11.33742188 4.6803125 -10.67484375 4.360625 -9.9921875 4.03125 C-6.53403321 2.41445059 -3.8201566 1.65271304 0 2 C0 1.34 0 0.68 0 0 Z M-20 40 C-22.05220735 42.53507967 -23.57179813 45.07300073 -25 48 C-25.39058594 48.70511719 -25.78117187 49.41023438 -26.18359375 50.13671875 C-32.66465772 64.06315725 -30.1534063 85.2259258 -25.6875 99.5625 C-25.14167617 101.04790117 -24.57779745 102.52674157 -24 104 C-23.65066406 104.93457031 -23.30132812 105.86914062 -22.94140625 106.83203125 C-19.18262822 116.43232005 -14.12122389 125.47184903 -7 133 C-6.34 133 -5.68 133 -5 133 C-5 133.66 -5 134.32 -5 135 C-3.35 135.66 -1.7 136.32 0 137 C0 137.66 0 138.32 0 139 C1.24735567 139.6509259 2.49801832 140.29551669 3.75 140.9375 C4.44609375 141.29714844 5.1421875 141.65679687 5.859375 142.02734375 C11.99134596 144.81358603 19.62197263 145.09249857 26.12890625 143.46875 C36.86309931 139.05020073 45.85850664 130.0823489 50.53515625 119.5390625 C52.11190062 115.72448327 53.56714839 111.87077594 55 108 C55.31066406 107.16984375 55.62132812 106.3396875 55.94140625 105.484375 C61.9868675 88.39249504 66.29185275 65.94025271 58.546875 48.796875 C52.56600877 37.98298555 43.70431335 29.31122909 32 25 C11.62155207 20.00298595 -5.55825621 24.72105367 -20 40 Z " fill="#FFFFFF" transform="translate(323,0)"/>
<path d="M0 0 C0 0.66 0 1.32 0 2 C1.0828125 2.3403125 1.0828125 2.3403125 2.1875 2.6875 C10.84403313 6.72721546 16.51178999 16.44320728 20 25 C20.45826172 26.08474609 20.45826172 26.08474609 20.92578125 27.19140625 C28.15819695 45.25530708 23.60252879 70.38651281 16.46484375 87.8828125 C9.91152347 103.06575254 -0.30489975 117.37689032 -16 124 C-26.36980056 127.59536881 -38.60552036 127.21736209 -48.6484375 122.84765625 C-55.7597685 119.25215136 -61.37266347 114.59832964 -67 109 C-67.62648438 108.40832031 -68.25296875 107.81664062 -68.8984375 107.20703125 C-83.92788937 91.80354325 -89.59824355 66.06591409 -89.41918945 45.17626953 C-88.8598181 29.56093854 -82.08188331 15.99233923 -70.8125 5.32421875 C-49.20603168 -12.53112659 -24.09847438 -13.27320034 0 0 Z M-48 18 C-48.804375 18.391875 -49.60875 18.78375 -50.4375 19.1875 C-50.953125 19.455625 -51.46875 19.72375 -52 20 C-52 20.66 -52 21.32 -52 22 C-52.59683594 22.2578125 -53.19367188 22.515625 -53.80859375 22.78125 C-59.89374432 26.16550486 -62.64852909 32.82811758 -64.5546875 39.21484375 C-67.19173512 55.70795739 -62.72784404 74.53575703 -53.6875 88.3125 C-49.24448142 94.32364279 -44.25834916 99.67514531 -37 102 C-30.73414996 102.70228596 -25.37032906 102.58021937 -20 99 C-19.175 98.46375 -18.35 97.9275 -17.5 97.375 C-11.57308164 91.74442756 -7.93993547 84.5410004 -5 77 C-4.72285156 76.30390625 -4.44570312 75.6078125 -4.16015625 74.890625 C0.08075299 63.32834507 2.8905336 47.29345412 -1.25 35.4375 C-5.47854018 27.13143894 -11.1462385 19.23360996 -20.07421875 15.65625 C-24.10215981 14.75278658 -28.00601532 14.60545387 -32.125 14.5625 C-33.27125854 14.5471521 -33.27125854 14.5471521 -34.44067383 14.53149414 C-39.67412137 14.61253182 -43.31848277 15.66219316 -48 18 Z " fill="#FFFFFF" transform="translate(162,96)"/>
<path d="M0 0 C0.77279297 -0.01224609 1.54558594 -0.02449219 2.34179688 -0.03710938 C7.26583732 -0.04959638 11.3439953 0.6204264 16.0625 2.1875 C16.81015625 2.38730469 17.5578125 2.58710937 18.328125 2.79296875 C30.66851605 6.4124929 41.67338562 15.00654984 48.0625 26.1875 C48.0625 26.8475 48.0625 27.5075 48.0625 28.1875 C48.7225 28.1875 49.3825 28.1875 50.0625 28.1875 C50.88006238 30.24799855 51.69134734 32.31098853 52.5 34.375 C52.95246094 35.52355469 53.40492188 36.67210937 53.87109375 37.85546875 C58.37109498 50.4407181 56.85438741 66.35123604 54.0625 79.1875 C53.69511719 80.9509375 53.69511719 80.9509375 53.3203125 82.75 C50.16208735 96.16546967 44.38541859 108.90674731 35.0625 119.1875 C34.49789062 119.82042969 33.93328125 120.45335937 33.3515625 121.10546875 C25.61637343 129.31316937 15.63407146 134.67272685 4.265625 135.35546875 C-12.33762974 135.46527864 -23.23599879 129.57882888 -35.13671875 118.05859375 C-40.25873897 112.60486175 -46.9375 104.99011921 -46.9375 97.1875 C-47.5975 97.1875 -48.2575 97.1875 -48.9375 97.1875 C-49.13085938 96.45144531 -49.32421875 95.71539062 -49.5234375 94.95703125 C-49.78382813 93.98121094 -50.04421875 93.00539063 -50.3125 92 C-50.56773437 91.03707031 -50.82296875 90.07414062 -51.0859375 89.08203125 C-51.845822 86.25639503 -51.845822 86.25639503 -52.9375 83.96484375 C-54.46319223 79.72747197 -54.95099132 75.38653761 -55.5625 70.9375 C-55.6965625 70.03386719 -55.830625 69.13023437 -55.96875 68.19921875 C-58.16048438 52.65579636 -56.20426346 37.29610914 -46.9375 24.1875 C-34.9541391 8.75498094 -19.78609896 0.01642 0 0 Z M-18.9375 29.1875 C-19.80568359 29.76371094 -19.80568359 29.76371094 -20.69140625 30.3515625 C-27.62296012 35.45902325 -31.66809442 43.82302392 -32.9375 52.1875 C-33.18473233 65.81618202 -30.67849786 79.80209852 -24.9375 92.1875 C-24.2775 92.1875 -23.6175 92.1875 -22.9375 92.1875 C-22.6590625 93.425 -22.6590625 93.425 -22.375 94.6875 C-20.47790647 99.30651032 -17.68132361 102.8780863 -13.9375 106.1875 C-11.81298703 106.95248036 -11.81298703 106.95248036 -9.9375 107.1875 C-9.9375 107.8475 -9.9375 108.5075 -9.9375 109.1875 C-3.19758942 112.10205593 3.92739287 112.40966041 10.75 109.75 C22.97401847 101.36614081 28.22821199 87.18908262 31.0625 73.1875 C33.23768768 60.45286239 34.54686607 48.78333683 27.6015625 37.2890625 C23.03904316 31.0590234 16.65882462 25.93970514 9.0625 24.1875 C-1.04173546 22.97667208 -10.41192731 23.07609938 -18.9375 29.1875 Z " fill="#FFFFFF" transform="translate(548.9375,86.8125)"/>
</svg>
