<?xml version="1.0" encoding="UTF-8"?>
<svg version="1.1" xmlns="http://www.w3.org/2000/svg" width="593" height="593">
<path d="M0 0 C1.23621094 0.34933594 2.47242188 0.69867188 3.74609375 1.05859375 C50.5795175 14.76523348 85.78250893 45.22081006 110.359375 86.91796875 C132.0634444 127.69061342 133.83935803 175.83982394 120.69140625 219.43359375 C106.40724732 264.11089633 71.92237127 298.86081058 31 320 C26.1229853 322.34535836 21.11716645 324.24410955 16 326 C14.75476563 326.43699219 13.50953125 326.87398438 12.2265625 327.32421875 C-5.26080637 333.24122897 -23.07672823 336.01663844 -41.5 336.125 C-42.25933838 336.12983398 -43.01867676 336.13466797 -43.80102539 336.13964844 C-55.24439694 336.10552913 -66.08239181 334.58667707 -77.25 332.125 C-78.46429688 331.86847656 -79.67859375 331.61195313 -80.9296875 331.34765625 C-87.20231108 329.98790452 -93.06538294 328.43914682 -99 326 C-100.25298542 325.53008939 -101.50691352 325.06268558 -102.76171875 324.59765625 C-120.37415529 317.81174737 -136.77824558 308.44187507 -151 296 C-151.8343457 295.27296875 -151.8343457 295.27296875 -152.68554688 294.53125 C-186.30359691 264.95660805 -207.36740727 224.50182715 -211.75 179.75 C-212.66701762 164.44453933 -212.39298985 148.98903161 -209 134 C-208.69402312 132.55365759 -208.38946556 131.10701455 -208.0859375 129.66015625 C-207.74538629 128.06497711 -207.40423512 126.46992593 -207.0625 124.875 C-206.82599731 123.7463855 -206.82599731 123.7463855 -206.5847168 122.5949707 C-205.47614753 117.52444711 -203.93878136 112.81002143 -202 108 C-201.73630615 107.32614258 -201.4726123 106.65228516 -201.20092773 105.95800781 C-197.67453085 96.9871079 -193.96298754 88.28870083 -189 80 C-188.47921875 79.1234375 -187.9584375 78.246875 -187.421875 77.34375 C-166.81408388 43.83201491 -135.9269336 18.49953448 -99 5 C-97.94683594 4.60296875 -96.89367187 4.2059375 -95.80859375 3.796875 C-88.0334917 1.02227134 -80.10108109 -0.49448935 -72 -2 C-70.29126636 -2.37317171 -68.58287891 -2.74793582 -66.875 -3.125 C-45.59079536 -7.3327505 -20.84366231 -5.96640148 0 0 Z M-32 16 C-32 37.12 -32 58.24 -32 80 C-17.48 80 -2.96 80 12 80 C4.15448633 56.46345898 -5.70597427 28.91723202 -29.25 16.77734375 C-30.83316937 15.9323418 -30.83316937 15.9323418 -32 16 Z M-67.625 27.0625 C-81.61076739 41.62032275 -88.72973513 61.18920538 -95 80 C-80.48 80 -65.96 80 -51 80 C-51 58.88 -51 37.76 -51 16 C-56.73434232 16 -63.82773593 23.43494606 -67.625 27.0625 Z M-94.0625 23.5390625 C-94.85366211 23.86890137 -95.64482422 24.19874023 -96.45996094 24.53857422 C-97.71728027 25.07635498 -97.71728027 25.07635498 -99 25.625 C-99.86141602 25.99254395 -100.72283203 26.36008789 -101.61035156 26.73876953 C-111.01964153 30.80549655 -119.61697013 35.64773164 -128.1875 41.25 C-128.86071289 41.68683105 -129.53392578 42.12366211 -130.22753906 42.57373047 C-131.85599504 43.66148486 -133.4335852 44.82466042 -135 46 C-135 46.66 -135 47.32 -135 48 C-138 49.5 -138 49.5 -141 51 C-141 51.66 -141 52.32 -141 53 C-141.55429688 53.23074219 -142.10859375 53.46148437 -142.6796875 53.69921875 C-152.23515446 59.05607144 -159.78452566 70.18238565 -166 79 C-166 79.33 -166 79.66 -166 80 C-148.84 80 -131.68 80 -114 80 C-112.68 75.71 -111.36 71.42 -110 67 C-106.72012383 56.62792407 -102.2981478 47.44170942 -97 38 C-96.28263672 36.66388672 -96.28263672 36.66388672 -95.55078125 35.30078125 C-93.01581806 30.59070768 -90.19537857 26.29093693 -87 22 C-89.99066494 22 -91.36179254 22.4098874 -94.0625 23.5390625 Z M4 22 C4.35771484 22.43900635 4.71542969 22.8780127 5.08398438 23.33032227 C9.6569347 29.15669284 13.11148464 35.36609157 16.5 41.9375 C17.06952393 43.03763428 17.63904785 44.13776855 18.22583008 45.27124023 C23.98291398 56.60268285 27.91865348 67.67461392 31 80 C48.16 80 65.32 80 83 80 C79.11424977 74.17137465 75.67745116 69.20401347 70.9375 64.25 C70.43412109 63.71246094 69.93074219 63.17492187 69.41210938 62.62109375 C67.95284214 61.06932446 66.4785089 59.53341775 65 58 C64.09378906 57.04609375 63.18757813 56.0921875 62.25390625 55.109375 C60.27112337 52.77223017 60.27112337 52.77223017 58 53 C58 52.34 58 51.68 58 51 C55.36315253 48.60179695 55.36315253 48.60179695 52 48 C52 47.34 52 46.68 52 46 C49.88794782 44.37368908 47.78874978 42.89414445 45.5625 41.4375 C44.89234863 40.99639893 44.22219727 40.55529785 43.53173828 40.10083008 C24.96424909 27.60860299 24.96424909 27.60860299 4 22 Z M-177 99 C-185.88290687 116.76581373 -192 136.01031745 -192 156 C-169.89 156 -147.78 156 -125 156 C-124.34 145.77 -123.68 135.54 -123 125 C-121.75992832 116.31949822 -120.44155405 107.6493243 -119 99 C-138.14 99 -157.28 99 -177 99 Z M-100 99 C-102.43423621 111.6074398 -102.43423621 111.6074398 -104.16796875 124.26171875 C-104.25250809 125.02627884 -104.33704742 125.79083893 -104.42414856 126.5785675 C-104.59742168 128.15647464 -104.76784026 129.73469803 -104.93530273 131.31323242 C-105.19144125 133.72460417 -105.45735295 136.13475925 -105.72460938 138.54492188 C-105.89378688 140.09629345 -106.06242733 141.64772371 -106.23046875 143.19921875 C-106.3085527 143.91067551 -106.38663666 144.62213226 -106.46708679 145.35514832 C-106.84536205 148.94837097 -107 152.37310901 -107 156 C-88.52 156 -70.04 156 -51 156 C-51 137.19 -51 118.38 -51 99 C-67.17 99 -83.34 99 -100 99 Z M-32 99 C-32 117.81 -32 136.62 -32 156 C-13.52 156 4.96 156 24 156 C23.28065716 138.26397287 23.28065716 138.26397287 21 121 C20.7421513 119.36650286 20.48859666 117.73232473 20.23828125 116.09765625 C20.10599121 115.23551514 19.97370117 114.37337402 19.83740234 113.48510742 C19.57550086 111.77571256 19.31408903 110.06624259 19.05322266 108.35668945 C18.87025635 107.18626099 18.87025635 107.18626099 18.68359375 105.9921875 C18.57587646 105.29464355 18.46815918 104.59709961 18.35717773 103.87841797 C18.00232235 101.78455649 18.00232235 101.78455649 17 99 C0.83 99 -15.34 99 -32 99 Z M36 99 C36.99 104.61 37.98 110.22 39 116 C39.43212001 119.47152589 39.82928749 122.89602934 40.125 126.375 C40.19847656 127.14070313 40.27195312 127.90640625 40.34765625 128.6953125 C41.17280903 137.78646944 41.51965584 146.87346103 42 156 C64.11 156 86.22 156 109 156 C108.32884271 145.93264067 107.60409226 137.50170852 105 128 C104.81920898 127.33178223 104.63841797 126.66356445 104.45214844 125.97509766 C103.85625648 123.7919843 103.24411866 121.6141346 102.625 119.4375 C102.3480127 118.4477417 102.3480127 118.4477417 102.06542969 117.43798828 C100.17280807 110.99585583 97.63391664 105.32139993 95 99 C75.53 99 56.06 99 36 99 Z M-192 175 C-191.36929434 187.01502161 -191.36929434 187.01502161 -189.125 198.25 C-188.94573975 198.91418945 -188.76647949 199.57837891 -188.58178711 200.26269531 C-188.0632483 202.17751393 -187.53198385 204.0888731 -187 206 C-186.75121094 207.0003125 -186.50242188 208.000625 -186.24609375 209.03125 C-184.72048178 215.09882674 -182.57730086 220.73106469 -180.0859375 226.46875 C-179 229 -179 229 -178 232 C-158.53 232 -139.06 232 -119 232 C-120.98 219.13 -120.98 219.13 -123 206 C-123.66 195.77 -124.32 185.54 -125 175 C-147.11 175 -169.22 175 -192 175 Z M-107 175 C-105.83272132 187.8456657 -105.83272132 187.8456657 -104.625 200.6875 C-104.5115625 201.93466797 -104.398125 203.18183594 -104.28125 204.46679688 C-103.37257009 213.85810043 -101.75537762 222.63798603 -100 232 C-83.83 232 -67.66 232 -51 232 C-51 213.19 -51 194.38 -51 175 C-69.48 175 -87.96 175 -107 175 Z M-32 175 C-32 193.81 -32 212.62 -32 232 C-15.83 232 0.34 232 17 232 C19.47981382 219.8947995 19.47981382 219.8947995 21.125 207.75 C21.88180052 200.35459845 21.88180052 200.35459845 23 197 C23.33 189.74 23.66 182.48 24 175 C5.52 175 -12.96 175 -32 175 Z M42 175 C41.34 185.23 40.68 195.46 40 206 C39.0376762 214.96164036 37.77011897 223.14940514 36 232 C55.47 232 74.94 232 95 232 C105.66093237 204.15340936 105.66093237 204.15340936 109 175 C86.89 175 64.78 175 42 175 Z M-166 251 C-164.02 253.64 -162.04 256.28 -160 259 C-159.0925 260.32 -158.185 261.64 -157.25 263 C-156.5075 263.99 -155.765 264.98 -155 266 C-154.34 266 -153.68 266 -153 266 C-152.73703125 266.58652344 -152.4740625 267.17304688 -152.203125 267.77734375 C-142.5850103 285.54587382 -115.78006902 298.44885204 -98 306 C-97.28038086 306.30583008 -96.56076172 306.61166016 -95.81933594 306.92675781 C-91.50165872 308.77908901 -91.50165872 308.77908901 -87 308 C-87.804375 307.01 -88.60875 306.02 -89.4375 305 C-101.68439675 288.70959102 -108.06680216 270.28289299 -114 251 C-131.16 251 -148.32 251 -166 251 Z M-94 251 C-89.20006815 272.59969334 -78.74542773 295.90945711 -61 310 C-56.05 312.475 -56.05 312.475 -51 315 C-51 293.88 -51 272.76 -51 251 C-65.19 251 -79.38 251 -94 251 Z M-32 251 C-32 272.12 -32 293.24 -32 315 C-18.97779046 309.79111618 -9.71660413 298.53845578 -2.875 286.625 C-2.45863281 285.92117188 -2.04226563 285.21734375 -1.61328125 284.4921875 C2.7294922 277.03187449 6.05935914 269.33899653 8.6875 261.125 C8.89955078 260.4753125 9.11160156 259.825625 9.33007812 259.15625 C9.89024338 257.4386455 10.44541654 255.71941488 11 254 C11.33 253.01 11.66 252.02 12 251 C-2.52 251 -17.04 251 -32 251 Z M31 251 C29.68 255.95 28.36 260.9 27 266 C21.5097442 280.39337331 14.75959449 294.9881914 5 307 C5 307.66 5 308.32 5 309 C33.45887648 304.64682578 62.96580439 279.21201886 79.5 257.0625 C81.84088612 254.29889348 81.84088612 254.29889348 83 251 C65.84 251 48.68 251 31 251 Z " fill="#FFFFFF" transform="translate(338,131)"/>
<path d="M0 0 C2.24612192 1.66167182 4.2664449 3.40681458 6.296875 5.32421875 C7.03808594 5.98808594 7.77929688 6.65195313 8.54296875 7.3359375 C12.47723288 11.01773548 15.20350958 13.85739165 16.296875 19.32421875 C16.956875 19.32421875 17.616875 19.32421875 18.296875 19.32421875 C24.296875 37.06208283 24.296875 37.06208283 24.296875 40.32421875 C25.09270996 40.54561523 25.88854492 40.76701172 26.70849609 40.99511719 C29.71041237 41.8331249 32.710858 42.67617186 35.71044922 43.52246094 C37.62751645 44.06174049 39.54616437 44.59539087 41.46484375 45.12890625 C48.60986061 47.14896337 55.46303807 49.42960284 62.296875 52.32421875 C63.63775739 52.85165372 64.98014747 53.37527637 66.32421875 53.89453125 C94.15791861 64.86529869 119.99248426 81.37765574 141.75 101.9296875 C143.81953035 103.87542693 145.9155663 105.71104833 148.109375 107.51171875 C151.15072019 110.08628674 153.69509174 112.94484846 156.26953125 115.98046875 C157.83199539 117.78678567 159.41578789 119.54634648 161.04296875 121.29296875 C161.52797852 121.8142334 162.01298828 122.33549805 162.51269531 122.87255859 C163.46857473 123.8966245 164.42740029 124.9179512 165.38964844 125.93603516 C168.42237958 129.19693073 170.88742144 132.58660329 173.296875 136.32421875 C174.55889819 138.0598259 175.82975076 139.78904742 177.109375 141.51171875 C194.36755591 165.20191542 209.51083578 193.39402264 215.296875 222.32421875 C215.94945373 223.99645175 216.61555049 225.66349026 217.296875 227.32421875 C218.02541397 229.97889499 218.66113051 232.64500981 219.296875 235.32421875 C220.51375 235.55109375 221.730625 235.77796875 222.984375 236.01171875 C233.43050539 238.38060501 242.34057261 242.08695351 250.296875 249.32421875 C250.92207031 249.86949219 251.54726563 250.41476562 252.19140625 250.9765625 C257.02004152 255.44752108 260.28540625 260.50088869 263.296875 266.32421875 C263.92142578 267.45150391 263.92142578 267.45150391 264.55859375 268.6015625 C269.62673825 279.57365078 269.43785678 295.56139141 265.44726562 306.87768555 C262.93270562 312.98752799 259.75435282 318.45561433 255.296875 323.32421875 C254.72453125 323.98679687 254.1521875 324.649375 253.5625 325.33203125 C244.75902731 334.89944165 233.81740854 339.64005643 221.296875 342.32421875 C220.306875 342.32421875 219.316875 342.32421875 218.296875 342.32421875 C218.21050781 342.90945313 218.12414062 343.4946875 218.03515625 344.09765625 C217.02011124 350.29967438 215.58194575 356.33159962 213.921875 362.38671875 C213.72505127 363.11745605 213.52822754 363.84819336 213.32543945 364.60107422 C210.70437968 373.96691118 206.73109099 382.82373489 202.796875 391.69921875 C202.41917969 392.57449219 202.04148437 393.44976562 201.65234375 394.3515625 C198.0258398 402.51431194 198.0258398 402.51431194 194.296875 405.32421875 C190.36275533 406.39716048 188.24141422 406.74401396 184.484375 405.07421875 C181.30206047 402.52836712 180.36672847 400.88304648 179.859375 396.82421875 C179.98699599 392.13627427 181.7750152 388.58832954 183.8046875 384.42578125 C190.72109871 370.04978517 195.28393539 354.72346669 199.296875 339.32421875 C198.72582031 339.22367187 198.15476562 339.123125 197.56640625 339.01953125 C185.78304935 336.28444364 175.62435817 327.4655274 169.296875 317.32421875 C161.42563753 303.79750771 159.77829787 287.47406011 163.359375 272.19921875 C166.27225471 263.54301962 172.0405919 255.87149176 178.296875 249.32421875 C178.956875 249.32421875 179.616875 249.32421875 180.296875 249.32421875 C180.296875 248.66421875 180.296875 248.00421875 180.296875 247.32421875 C182.421875 245.66796875 182.421875 245.66796875 185.296875 243.82421875 C186.6890625 242.9115625 186.6890625 242.9115625 188.109375 241.98046875 C191.84683288 240.03845632 195.1889578 239.20954573 199.296875 238.32421875 C195.24805846 223.28329603 191.19263222 208.35801656 184.296875 194.32421875 C183.9987793 193.71433105 183.70068359 193.10444336 183.39355469 192.47607422 C172.73974839 170.72765108 160.62628362 151.12774427 144.64208984 132.86914062 C143.50016127 131.55768436 142.3751427 130.23153419 141.25390625 128.90234375 C137.91200564 124.95630092 134.391562 121.50161655 130.4453125 118.16015625 C128.11192033 116.16616658 125.86549414 114.09260534 123.609375 112.01171875 C113.90170131 103.28371855 103.6258727 95.81614815 92.296875 89.32421875 C91.53922852 88.88932129 90.78158203 88.45442383 90.00097656 88.00634766 C79.66374117 82.1124529 69.36997381 76.71329678 58.296875 72.32421875 C57.46671875 71.97101563 56.6365625 71.6178125 55.78125 71.25390625 C44.68680766 66.58836262 32.92825506 63.35527754 21.296875 60.32421875 C21.19503906 61.19304687 21.09320313 62.061875 20.98828125 62.95703125 C19.11856379 72.0626609 12.55173816 80.65375099 5.296875 86.32421875 C4.636875 86.32421875 3.976875 86.32421875 3.296875 86.32421875 C3.296875 86.98421875 3.296875 87.64421875 3.296875 88.32421875 C1.67929764 89.27446857 0.05226146 90.20861787 -1.578125 91.13671875 C-2.93550781 91.91982422 -2.93550781 91.91982422 -4.3203125 92.71875 C-12.48066213 96.59161801 -20.02341603 97.85217605 -29.015625 97.76171875 C-30.51814819 97.75688477 -30.51814819 97.75688477 -32.05102539 97.75195312 C-39.85107111 97.60562737 -46.48621173 96.42707589 -53.703125 93.32421875 C-53.703125 92.66421875 -53.703125 92.00421875 -53.703125 91.32421875 C-54.59128906 91.07671875 -55.47945313 90.82921875 -56.39453125 90.57421875 C-66.20001628 86.86966715 -73.46271983 76.80502909 -78.01953125 67.69140625 C-78.9669407 65.58531834 -79.8662279 63.47623985 -80.703125 61.32421875 C-91.62472231 63.71707789 -102.18337781 66.48802555 -112.703125 70.32421875 C-113.62480469 70.65679687 -114.54648438 70.989375 -115.49609375 71.33203125 C-143.61956601 82.28922823 -169.02610075 99.4930312 -190.703125 120.32421875 C-191.59499512 121.1752417 -191.59499512 121.1752417 -192.50488281 122.04345703 C-204.97741607 134.00460999 -215.48291739 146.68576165 -224.703125 161.32421875 C-225.06116211 161.89221191 -225.41919922 162.46020508 -225.78808594 163.04541016 C-233.62775318 175.56643985 -240.53600432 188.45353702 -245.59765625 202.359375 C-246.37915073 204.45532663 -247.23766072 206.52331239 -248.1484375 208.56640625 C-250.09281541 213.04751763 -251.4057662 217.70198779 -252.765625 222.38671875 C-253.27651089 224.12784876 -253.78820983 225.86874044 -254.30078125 227.609375 C-254.53941895 228.42035645 -254.77805664 229.23133789 -255.02392578 230.06689453 C-255.85825349 232.83978958 -256.76321512 235.58543828 -257.703125 238.32421875 C-257.08566406 238.47117188 -256.46820313 238.618125 -255.83203125 238.76953125 C-249.36909769 240.48117576 -243.80248327 242.90231146 -238.703125 247.32421875 C-238.703125 247.98421875 -238.703125 248.64421875 -238.703125 249.32421875 C-238.10371094 249.59105469 -237.50429687 249.85789062 -236.88671875 250.1328125 C-228.96888256 254.4529199 -224.39205321 264.56485317 -221.953125 272.82421875 C-221.73140625 273.65953125 -221.5096875 274.49484375 -221.28125 275.35546875 C-220.87853113 277.30855574 -220.87853113 277.30855574 -219.703125 278.32421875 C-219.42151582 281.66982111 -219.4712046 285.03069346 -219.453125 288.38671875 C-219.4325 289.31677734 -219.411875 290.24683594 -219.390625 291.20507812 C-219.35615377 297.3366483 -220.20518226 301.72203649 -222.703125 307.32421875 C-223.05375 308.17371094 -223.404375 309.02320313 -223.765625 309.8984375 C-226.65398139 316.40927418 -229.47443972 321.35696773 -234.703125 326.32421875 C-235.26 326.92234375 -235.816875 327.52046875 -236.390625 328.13671875 C-237.703125 329.32421875 -237.703125 329.32421875 -239.703125 329.32421875 C-239.703125 329.98421875 -239.703125 330.64421875 -239.703125 331.32421875 C-241.71484375 332.76171875 -241.71484375 332.76171875 -244.390625 334.32421875 C-245.26074219 334.83984375 -246.13085938 335.35546875 -247.02734375 335.88671875 C-250.67202852 337.84473918 -253.52941734 339.32421875 -257.703125 339.32421875 C-252.85709274 355.68465378 -247.96401028 371.84033586 -240.703125 387.32421875 C-240.21030029 388.38020264 -240.21030029 388.38020264 -239.70751953 389.45751953 C-235.30240733 398.7944655 -230.3575152 407.67573285 -224.703125 416.32421875 C-224.29723145 416.94796387 -223.89133789 417.57170898 -223.47314453 418.21435547 C-215.8344592 429.87794086 -207.43959125 440.80922655 -197.453125 450.57421875 C-196.545625 451.48171875 -195.638125 452.38921875 -194.703125 453.32421875 C-194.703125 453.98421875 -194.703125 454.64421875 -194.703125 455.32421875 C-194.11660156 455.57945312 -193.53007812 455.8346875 -192.92578125 456.09765625 C-190.48304922 457.44566654 -189.02789443 458.90297846 -187.140625 460.94921875 C-183.09285407 465.14237276 -178.63322739 468.38276304 -173.828125 471.66015625 C-173.126875 472.20929688 -172.425625 472.7584375 -171.703125 473.32421875 C-171.703125 473.98421875 -171.703125 474.64421875 -171.703125 475.32421875 C-171.01605469 475.55625 -170.32898438 475.78828125 -169.62109375 476.02734375 C-166.06827466 477.60637446 -163.11665822 479.76811505 -160.015625 482.07421875 C-145.65335671 492.49547317 -130.12032022 499.69973647 -113.703125 506.32421875 C-112.92453125 506.659375 -112.1459375 506.99453125 -111.34375 507.33984375 C-103.35896479 510.71596099 -95.03042302 512.96579526 -86.703125 515.32421875 C-85.36318618 515.70669835 -84.02333581 516.089488 -82.68359375 516.47265625 C-81.20826172 516.89417969 -81.20826172 516.89417969 -79.703125 517.32421875 C-79.5175 516.21046875 -79.331875 515.09671875 -79.140625 513.94921875 C-77.71506534 508.20624981 -74.27248155 503.93883156 -70.703125 499.32421875 C-70.24292969 498.7209375 -69.78273437 498.11765625 -69.30859375 497.49609375 C-62.32237324 488.71341653 -52.65876209 483.36724837 -41.85546875 480.8671875 C-39.73618566 480.52816764 -39.73618566 480.52816764 -38.703125 479.32421875 C-35.69066283 479.16881396 -32.7169827 479.09234722 -29.703125 479.07421875 C-28.87683594 479.05359375 -28.05054688 479.03296875 -27.19921875 479.01171875 C-18.65724003 478.95824783 -11.88038604 481.51147719 -4.328125 485.38671875 C-2.83152344 486.14662109 -2.83152344 486.14662109 -1.3046875 486.921875 C1.296875 488.32421875 1.296875 488.32421875 4.296875 490.32421875 C4.296875 490.98421875 4.296875 491.64421875 4.296875 492.32421875 C4.895 492.59234375 5.493125 492.86046875 6.109375 493.13671875 C8.29535354 494.32339281 9.71020094 495.42020988 11.296875 497.32421875 C11.296875 497.98421875 11.296875 498.64421875 11.296875 499.32421875 C12.286875 499.65421875 13.276875 499.98421875 14.296875 500.32421875 C15.484375 503.38671875 15.484375 503.38671875 16.296875 506.32421875 C16.956875 506.32421875 17.616875 506.32421875 18.296875 506.32421875 C18.80302798 507.59261401 19.30156599 508.86404977 19.796875 510.13671875 C20.0753125 510.84441406 20.35375 511.55210937 20.640625 512.28125 C21.296875 514.32421875 21.296875 514.32421875 21.296875 517.32421875 C31.53700539 514.79027091 41.43112804 511.70163256 51.32470703 508.05029297 C53.11216402 507.39222202 54.90539239 506.74988016 56.69921875 506.109375 C64.23422685 503.34312357 71.34036174 499.94519707 78.47265625 496.2890625 C79.0960791 495.97179199 79.71950195 495.65452148 80.36181641 495.32763672 C81.72309994 494.62174783 83.07356406 493.89479329 84.41552734 493.15283203 C85.11242676 492.77755371 85.80932617 492.40227539 86.52734375 492.015625 C87.15406982 491.66830322 87.7807959 491.32098145 88.42651367 490.96313477 C90.79316697 490.15468526 91.96821581 490.48903816 94.296875 491.32421875 C97.67363873 493.09299975 99.14774197 494.1005192 101.296875 497.32421875 C101.734375 500.69921875 101.734375 500.69921875 101.296875 504.32421875 C97.63611653 508.76341437 93.57767503 510.99579051 88.484375 513.38671875 C87.81083984 513.71220703 87.13730469 514.03769531 86.44335938 514.37304688 C85.08262358 515.03062733 83.71998182 515.68427825 82.35546875 516.33398438 C80.26478839 517.3396532 78.19219796 518.37655354 76.12109375 519.421875 C68.04113488 523.47319854 59.6652656 526.62792921 51.109375 529.51171875 C50.37348145 529.76163574 49.63758789 530.01155273 48.87939453 530.26904297 C44.39757831 531.75031274 39.92846144 532.89722016 35.31176758 533.87524414 C32.89287687 534.41424087 30.57321258 535.13248182 28.234375 535.94921875 C27.48027344 536.20960938 26.72617187 536.47 25.94921875 536.73828125 C25.40394531 536.93164062 24.85867188 537.125 24.296875 537.32421875 C24.235 538.39671875 24.173125 539.46921875 24.109375 540.57421875 C22.34745606 554.40038821 13.61652506 566.45968952 3.296875 575.32421875 C-9.72936492 584.94951918 -23.89404206 587.01893751 -39.703125 585.32421875 C-53.7253349 582.83671713 -65.3651979 573.52272123 -73.703125 562.32421875 C-78.63863351 554.45116469 -81.03175901 546.41410395 -82.703125 537.32421875 C-83.50024902 537.1065686 -83.50024902 537.1065686 -84.31347656 536.88452148 C-102.27074322 531.94915708 -119.97738058 526.62589921 -136.703125 518.32421875 C-137.99963488 517.69976221 -139.29653076 517.07610663 -140.59375 516.453125 C-158.00940604 508.01182065 -174.15415125 497.36040893 -189.390625 485.44921875 C-189.95450928 485.00924561 -190.51839355 484.56927246 -191.09936523 484.1159668 C-194.53438403 481.38591332 -197.62927633 478.44990298 -200.703125 475.32421875 C-201.81516981 474.3713874 -202.938682 473.43161054 -204.078125 472.51171875 C-207.3076043 469.77534274 -210.03035541 466.79792934 -212.765625 463.57421875 C-214.95329781 461.03369548 -217.2321749 458.5914276 -219.515625 456.13671875 C-227.39357136 447.4913621 -234.43427608 438.19917737 -240.703125 428.32421875 C-241.05310547 427.78522949 -241.40308594 427.24624023 -241.76367188 426.69091797 C-250.28926119 413.55853143 -259.08181355 399.73941051 -263.88671875 384.74609375 C-264.72948199 382.13792295 -264.72948199 382.13792295 -266.1484375 378.96484375 C-270.64536399 368.43435257 -276.703125 353.90467568 -276.703125 342.32421875 C-277.77949219 342.12828125 -278.85585938 341.93234375 -279.96484375 341.73046875 C-295.5310377 338.64622862 -307.82862202 332.04131137 -317.4453125 318.953125 C-325.78142535 305.99275054 -328.08569829 291.30483098 -325.30761719 276.16943359 C-321.92425042 262.57155373 -312.66164938 250.52423418 -300.890625 243.07421875 C-293.22405195 238.75220291 -285.48772906 235.98720774 -276.703125 235.32421875 C-276.455625 234.16921875 -276.208125 233.01421875 -275.953125 231.82421875 C-271.2818379 210.91938074 -271.2818379 210.91938074 -267.703125 202.32421875 C-267.29449219 201.26460937 -266.88585937 200.205 -266.46484375 199.11328125 C-260.02045632 182.5419993 -252.28788275 167.30850792 -242.703125 152.32421875 C-242.14753906 151.44121094 -241.59195313 150.55820313 -241.01953125 149.6484375 C-237.35468806 143.96948786 -233.18025028 138.67588759 -229.03125 133.34765625 C-227.25331308 131.03872475 -225.54448802 128.72127339 -223.890625 126.32421875 C-221.70215359 123.32288653 -219.34850098 120.92548482 -216.703125 118.32421875 C-215.17161936 116.76063883 -213.64170227 115.19550156 -212.11328125 113.62890625 C-202.47758592 103.81719588 -192.91155862 94.35109179 -181.703125 86.32421875 C-180.3728125 85.35355469 -180.3728125 85.35355469 -179.015625 84.36328125 C-173.06783656 80.10689515 -166.90105776 76.20314033 -160.703125 72.32421875 C-159.69378906 71.67324219 -158.68445313 71.02226563 -157.64453125 70.3515625 C-145.04887581 62.35016082 -131.60406719 56.63535781 -117.703125 51.32421875 C-116.60871094 50.90398438 -115.51429688 50.48375 -114.38671875 50.05078125 C-104.00593318 46.20241446 -93.36773254 43.27202252 -82.703125 40.32421875 C-82.48398438 39.28523438 -82.26484375 38.24625 -82.0390625 37.17578125 C-78.44828439 21.02406944 -70.71751203 8.06247766 -56.4609375 -1.13671875 C-38.55464313 -11.12974989 -17.47828044 -10.83552357 0 0 Z M-55.453125 23.26171875 C-62.4055012 32.72467524 -63.56450106 40.72514118 -62.703125 52.32421875 C-60.56758379 60.81105868 -56.05741966 68.40574143 -48.703125 73.32421875 C-40.30351047 78.11051595 -32.11846365 81.03641919 -22.40234375 78.79296875 C-17.23295401 77.15019205 -12.49399604 74.85031439 -7.703125 72.32421875 C-7.703125 71.66421875 -7.703125 71.00421875 -7.703125 70.32421875 C-7.10757813 70.08058594 -6.51203125 69.83695313 -5.8984375 69.5859375 C-3.29703506 68.09082542 -2.22002128 66.63394844 -0.578125 64.13671875 C-0.08054687 63.40066406 0.41703125 62.66460937 0.9296875 61.90625 C5.24561125 53.75531972 5.64611915 43.7257421 3.76171875 34.78515625 C0.46734409 25.46009572 -6.24378368 18.43387958 -14.953125 13.94921875 C-29.13776692 7.20858313 -45.37884525 11.809498 -55.453125 23.26171875 Z M-300.703125 268.32421875 C-306.31874318 277.00524318 -308.28948954 286.54228878 -306.20703125 296.7578125 C-302.96089164 307.33986082 -296.49551097 315.39804853 -286.765625 320.76171875 C-282.27207555 322.58109654 -277.86492244 322.70872078 -273.078125 322.76171875 C-272.36148682 322.77195068 -271.64484863 322.78218262 -270.90649414 322.79272461 C-264.3208546 322.68414091 -259.42092731 320.4837344 -253.765625 317.13671875 C-252.755 316.53859375 -251.744375 315.94046875 -250.703125 315.32421875 C-250.703125 314.66421875 -250.703125 314.00421875 -250.703125 313.32421875 C-250.10757813 313.08832031 -249.51203125 312.85242188 -248.8984375 312.609375 C-243.7456882 309.59290789 -240.79310375 302.62286516 -239.265625 297.01171875 C-238.07231124 290.34109485 -238.56388573 282.74193657 -240.703125 276.32421875 C-241.363125 276.32421875 -242.023125 276.32421875 -242.703125 276.32421875 C-242.744375 275.66421875 -242.785625 275.00421875 -242.828125 274.32421875 C-244.93643957 267.09571166 -250.14785996 262.58164948 -256.26171875 258.55078125 C-272.36215595 250.4619216 -289.3100513 255.3555072 -300.703125 268.32421875 Z M188.046875 267.69921875 C181.90080934 275.40273429 180.14018602 282.41665373 180.296875 292.32421875 C180.73377724 295.46472396 181.4160477 298.26722988 182.296875 301.32421875 C182.956875 301.32421875 183.616875 301.32421875 184.296875 301.32421875 C184.4 302.04609375 184.503125 302.76796875 184.609375 303.51171875 C186.40636171 310.863028 191.49982739 314.86579131 197.6015625 318.81640625 C205.6617898 323.15275954 214.3512681 323.79685295 223.296875 322.32421875 C231.95475763 319.58913681 239.14434316 314.64977515 243.79296875 306.796875 C248.80371363 297.13025386 250.18773358 287.25720841 246.859375 276.63671875 C243.22808155 267.87814123 236.70768626 261.44705657 228.33984375 257.1640625 C213.42623429 251.03322878 198.4019935 256.30338482 188.046875 267.69921875 Z M-54.515625 509.13671875 C-61.74025158 519.66403177 -63.45660496 527.58355759 -62.703125 540.32421875 C-62.06987887 543.20623655 -61.2514326 544.70811281 -59.703125 547.32421875 C-59.35121094 547.97648438 -58.99929688 548.62875 -58.63671875 549.30078125 C-53.94274696 557.5733256 -46.91422331 563.00200065 -37.859375 565.91796875 C-28.43566793 567.69344979 -19.23693269 566.70322296 -11.140625 561.57421875 C-3.4154008 556.13503028 2.51348156 549.93755861 4.296875 540.32421875 C5.05970041 527.5909023 3.64482483 518.36966256 -4.703125 508.32421875 C-5.363125 508.32421875 -6.023125 508.32421875 -6.703125 508.32421875 C-7.198125 506.83921875 -7.198125 506.83921875 -7.703125 505.32421875 C-22.86395479 494.97675937 -41.46788066 496.08897441 -54.515625 509.13671875 Z " fill="#FFFFFF" transform="translate(325.703125,7.67578125)"/>
<path d="M0 0 C3.29687046 2.78965962 3.92003197 4.55654092 4.6875 8.8125 C4.48317103 13.50318248 1.90729535 16.01173538 -1.2734375 19.23828125 C-3.19256678 21.0871075 -3.19256678 21.0871075 -5 24 C-5.66 24 -6.32 24 -7 24 C-7.268125 24.639375 -7.53625 25.27875 -7.8125 25.9375 C-9 28 -9 28 -12 29 C-12.4640625 29.928125 -12.4640625 29.928125 -12.9375 30.875 C-14.29978486 33.59956973 -15.29155812 34.57450428 -18 36 C-22.87541421 36.61910022 -24.86023598 36.7360976 -29 34.0625 C-31.24546709 30.62412852 -32.08939642 28.60813695 -31.87890625 24.52734375 C-30.26004683 19.87222354 -26.47006825 16.89375198 -22.90234375 13.65234375 C-19.8164597 10.83226937 -17.13472287 7.83897299 -14.4375 4.65625 C-9.93333323 -0.53333345 -6.99677959 -1.71850727 0 0 Z " fill="#FFFFFF" transform="translate(487,446)"/>
</svg>
