<?xml version="1.0" encoding="UTF-8"?>
<svg version="1.1" xmlns="http://www.w3.org/2000/svg" width="692" height="484">
<path d="M0 0 C0.69456802 0.00202423 1.38913605 0.00404846 2.10475159 0.00613403 C2.83320282 0.00438171 3.56165405 0.00262939 4.31217957 0.00082397 C6.73207447 -0.003595 9.15189689 -0.0006561 11.5717926 0.00271606 C13.2470908 0.00204296 14.9223889 0.00107289 16.59768677 -0.00018311 C20.11421129 -0.0016602 23.63071047 0.00049457 27.14723206 0.00515747 C31.66130565 0.01085038 36.17531974 0.00757861 40.68939114 0.00158501 C44.1508428 -0.00202404 47.61228029 -0.00088036 51.07373238 0.0017128 C52.73835825 0.00238134 54.4029854 0.00155617 56.06760979 -0.00076675 C58.39252516 -0.00329841 60.71734347 0.00055479 63.04225159 0.00613403 C63.73479538 0.0041098 64.42733917 0.00208557 65.14086914 0 C69.90967149 0.02126488 69.90967149 0.02126488 72.13819885 1.13552856 C73.6552876 1.31620265 75.17736169 1.45621554 76.70069885 1.57302856 C80.80852296 1.94860105 84.6680779 2.64695396 88.6733551 3.60427856 C91.56508324 4.22753534 94.46038179 4.6512542 97.38819885 5.07302856 C109.40607447 6.88887828 120.86153175 10.17500591 132.45851135 13.72537231 C135.99909845 14.80499115 139.5497141 15.78790562 143.13819885 16.69802856 C147.92119508 17.97547476 152.3723383 19.79193905 156.91163635 21.75662231 C159.7916418 22.98742367 162.69244952 24.14011085 165.61280823 25.27102661 C177.61090469 29.93986451 188.88720193 35.89595436 200.13819885 42.13552856 C201.58187047 42.92000654 203.02591119 43.70380547 204.4702301 44.48709106 C211.90432566 48.5395174 219.18124697 52.57520287 226.01319885 57.60427856 C228.81401773 59.62251569 231.75390494 61.36359553 234.73976135 63.09255981 C235.20124573 63.4367395 235.6627301 63.78091919 236.13819885 64.13552856 C236.13819885 64.79552856 236.13819885 65.45552856 236.13819885 66.13552856 C236.79562073 66.33146606 237.4530426 66.52740356 238.13038635 66.72927856 C242.38846259 68.72006745 245.67918176 71.62599873 249.26319885 74.63552856 C250.68158217 75.8136812 252.10081951 76.99080663 253.52101135 78.16677856 C254.45517883 78.94891724 254.45517883 78.94891724 255.40821838 79.74685669 C257.29918761 81.30660733 257.29918761 81.30660733 260.13819885 83.13552856 C260.13819885 83.79552856 260.13819885 84.45552856 260.13819885 85.13552856 C260.72359436 85.40018921 261.30898987 85.66484985 261.91212463 85.93753052 C264.21884771 87.17893106 265.84776091 88.51557702 267.75538635 90.30349731 C268.77874084 91.26062622 268.77874084 91.26062622 269.82276917 92.23709106 C270.54561096 92.92545044 271.26845276 93.61380981 272.01319885 94.32302856 C272.76697815 95.03845825 273.52075745 95.75388794 274.29737854 96.49099731 C299.82634631 120.93339714 321.10355371 149.17890352 338.0561676 180.16384888 C339.09343114 182.05395275 340.14585404 183.93488446 341.20069885 185.81521606 C346.2121436 194.8528458 350.31771191 204.1709115 354.17677307 213.75222778 C355.10080015 216.04282004 356.0424371 218.32552673 356.9858551 220.60818481 C361.28552148 231.17020532 364.55213859 241.90567766 367.53077698 252.90774536 C368.06681441 254.87371866 368.62613048 256.83331298 369.1889801 258.79177856 C372.72871208 271.26095786 374.98173103 283.75679945 376.83106995 296.57620239 C376.98785217 297.65667847 377.1446344 298.73715454 377.3061676 299.85037231 C377.51149109 301.30624756 377.51149109 301.30624756 377.72096252 302.79153442 C378.02605251 305.14752461 378.02605251 305.14752461 379.13819885 307.13552856 C379.26273086 308.58891287 379.32826805 310.04758912 379.36280823 311.50588989 C379.38532654 312.41055496 379.40784485 313.31522003 379.43104553 314.24729919 C379.50198127 318.38647164 379.55955626 322.52546373 379.59815979 326.66506958 C379.62478971 328.84856066 379.66573976 331.03192538 379.72120667 333.21487427 C379.80025089 336.36212009 379.83345059 339.5069676 379.85694885 342.65505981 C379.8899408 343.62917313 379.92293274 344.60328644 379.95692444 345.60691833 C379.95422546 346.52103989 379.95152649 347.43516144 379.94874573 348.37698364 C379.96753784 349.57705803 379.96753784 349.57705803 379.98670959 350.80137634 C378.87118605 353.87004905 377.04719698 355.39121842 374.34282875 357.14762211 C370.08883549 359.05385926 365.74732778 358.81962497 361.15748596 358.76663208 C359.53180946 358.77736504 359.53180946 358.77736504 357.87329102 358.78831482 C354.30360815 358.80517439 350.73518581 358.78581489 347.1655426 358.76443481 C344.6788523 358.76526369 342.19216205 358.7677238 339.70547485 358.77174377 C334.49953171 358.77459985 329.29401926 358.75991714 324.08815002 358.73245239 C318.7445009 358.70513604 313.40156321 358.69689682 308.05787659 358.71194458 C301.59822317 358.73007164 295.13892817 358.72862829 288.67927742 358.70973015 C286.21971225 358.70454995 283.76012841 358.70502815 281.30056572 358.7112751 C277.86314132 358.71672904 274.42681633 358.69634498 270.98951721 358.66897583 C269.97480347 358.67550171 268.96008972 358.68202759 267.91462708 358.68875122 C262.01772024 358.60897071 258.61885354 358.08030306 254.13819885 354.13552856 C251.60744828 350.3394027 251.62360194 347.0118636 251.35694885 342.59255981 C251.29793396 341.75013229 251.23891907 340.90770477 251.17811584 340.03974915 C250.98974222 337.34300488 250.81283157 334.64569517 250.63819885 331.94802856 C250.46300708 329.26827015 250.28505825 326.58884361 250.09828186 323.90986633 C249.98224702 322.24408328 249.87272428 320.57782895 249.77088928 318.91111755 C249.4140916 313.76816934 248.5046472 309.10825623 247.13819885 304.13552856 C246.71812998 302.21960467 246.30134639 300.30295688 245.88819885 298.38552856 C244.52984892 292.4600735 242.88072967 286.64646798 241.13819885 280.82302856 C240.88908752 279.9873938 240.6399762 279.15175903 240.38331604 278.290802 C239.19548115 274.37546158 237.93414659 270.53151788 236.45069885 266.71755981 C235.13819885 263.13552856 235.13819885 263.13552856 235.13819885 260.13552856 C234.47819885 260.13552856 233.81819885 260.13552856 233.13819885 260.13552856 C232.5368512 258.66406372 232.5368512 258.66406372 231.9233551 257.16287231 C227.78353519 247.25329442 222.90634871 238.18610624 217.13819885 229.13552856 C216.3512262 227.89029419 216.3512262 227.89029419 215.5483551 226.61990356 C208.85163307 216.3058386 201.30482185 206.73485991 192.79444885 197.86355591 C191.62196705 196.64026195 190.45591875 195.41078664 189.29444885 194.17703247 C158.54053378 161.61540959 118.67946194 141.46579923 75.13819885 132.13552856 C73.47139845 131.74025875 71.80470389 131.34454183 70.13819885 130.94802856 C45.36980397 125.60833203 15.79121467 126.31249938 -8.86180115 132.13552856 C-10.66465193 132.53249571 -12.46806482 132.92691643 -14.2719574 133.31912231 C-16.15613433 133.7368099 -18.04024827 134.15478177 -19.92430115 134.57302856 C-21.33679138 134.87950317 -21.33679138 134.87950317 -22.77781677 135.19216919 C-28.37040592 136.4414532 -33.53548857 138.02626402 -38.86180115 140.13552856 C-40.46861755 140.66533325 -40.46861755 140.66533325 -42.1078949 141.20584106 C-51.28641311 144.2391335 -59.44382031 148.44307939 -67.89451599 153.07937622 C-70.65436163 154.56102082 -73.47442596 155.90792465 -76.29930115 157.26052856 C-81.20013899 159.66700894 -85.53191455 162.54910849 -89.90086365 165.81521606 C-91.86180115 167.13552856 -91.86180115 167.13552856 -93.86180115 167.13552856 C-93.86180115 167.79552856 -93.86180115 168.45552856 -93.86180115 169.13552856 C-95.16469165 170.01585998 -96.47477902 170.88636637 -97.80711365 171.72146606 C-101.53410428 174.2864292 -104.92057237 177.29169622 -108.3735199 180.20974731 C-110.86180115 182.13552856 -110.86180115 182.13552856 -113.86180115 183.13552856 C-113.86180115 183.79552856 -113.86180115 184.45552856 -113.86180115 185.13552856 C-115.4360199 186.65115356 -115.4360199 186.65115356 -117.54930115 188.38552856 C-120.21529248 190.63628585 -122.57190206 192.83602401 -124.73680115 195.57302856 C-125.43805115 196.41865356 -126.13930115 197.26427856 -126.86180115 198.13552856 C-127.52180115 198.13552856 -128.18180115 198.13552856 -128.86180115 198.13552856 C-129.10027771 198.68724731 -129.33875427 199.23896606 -129.5844574 199.80740356 C-131.1647377 202.6876698 -133.13802357 204.90956897 -135.29930115 207.38552856 C-143.07436297 216.49690669 -150.18057313 226.44639474 -155.75242615 237.06521606 C-157.04902806 239.4849309 -158.48165273 241.80015217 -159.92430115 244.13552856 C-162.65769861 248.66794782 -164.8294967 253.25638495 -166.86180115 258.13552856 C-167.2278949 258.94634888 -167.59398865 259.75716919 -167.97117615 260.59255981 C-176.62734486 280.23756608 -181.85345959 300.82309387 -183.8500824 322.14334106 C-183.9347728 323.03963226 -184.0194632 323.93592346 -184.10671997 324.859375 C-184.53339373 329.42971467 -184.93253172 334.00034395 -185.29222107 338.57644653 C-185.44012024 340.28366605 -185.58830172 341.99086115 -185.73680115 343.69802856 C-185.79092667 344.48887848 -185.84505219 345.27972839 -185.90081787 346.09454346 C-186.21723034 349.57120711 -186.56520878 351.7570964 -188.74461365 354.53787231 C-192.20168247 357.14661982 -194.11390097 358.38504157 -198.42741394 358.40968323 C-199.36380707 358.41965836 -200.3002002 358.42963348 -201.26496887 358.43991089 C-202.29046844 358.44057556 -203.31596802 358.44124023 -204.37254333 358.44192505 C-205.45413727 358.45024857 -206.5357312 358.45857208 -207.65010071 358.46714783 C-211.23632885 358.49130125 -214.82237522 358.5000272 -218.40867615 358.50662231 C-220.89868729 358.51558561 -223.38869788 358.52470739 -225.87870789 358.53398132 C-231.1041997 358.55048912 -236.32964705 358.55820761 -241.55516052 358.56106567 C-246.91927221 358.56429594 -252.28297537 358.58540547 -257.6469574 358.62258911 C-264.12141447 358.66679927 -270.59548686 358.68653003 -277.07009125 358.68779182 C-279.53723667 358.69199753 -282.00438239 358.7044457 -284.47144318 358.72530937 C-287.92590569 358.75219361 -291.37896678 358.74740541 -294.83348083 358.7348938 C-296.35958481 358.75714523 -296.35958481 358.75714523 -297.91651917 358.77984619 C-304.49156927 358.71210503 -308.05639891 357.75231539 -312.86180115 353.13552856 C-313.71704102 350.8686676 -313.71704102 350.8686676 -313.68821716 348.53567505 C-313.69414383 347.65383041 -313.7000705 346.77198578 -313.70617676 345.86341858 C-313.67632187 344.92067581 -313.64646698 343.97793304 -313.6157074 343.00662231 C-313.61054611 342.02113907 -313.60538483 341.03565582 -313.60006714 340.02030945 C-313.58293946 337.93473872 -313.54909772 335.84924762 -313.4997406 333.76419067 C-313.42513021 330.60809873 -313.39740161 327.45450999 -313.37937927 324.29763794 C-313.28211262 314.42061599 -313.00292568 304.81639111 -310.86180115 295.13552856 C-310.59736409 293.71960684 -310.33662449 292.30298676 -310.08055115 290.88552856 C-309.84336365 289.64802856 -309.60617615 288.41052856 -309.36180115 287.13552856 C-308.43226345 282.27108427 -307.57018679 277.40292091 -306.79930115 272.51052856 C-306.15219016 268.53694619 -305.21285954 264.93538029 -303.86180115 261.13552856 C-303.3459937 258.92319818 -302.87600446 256.70553062 -302.42430115 254.47927856 C-301.74065867 251.63076825 -300.80140166 248.91023332 -299.86180115 246.13552856 C-299.29423021 244.26752317 -298.7268062 242.39947039 -298.16307068 240.53030396 C-296.16856277 233.96683382 -293.96901789 227.61035933 -291.2328949 221.31130981 C-290.21043043 218.94303741 -289.22716971 216.57366507 -288.2719574 214.17849731 C-277.77780637 187.92950669 -263.65597568 163.27502837 -246.65086365 140.69802856 C-244.49638258 137.61213429 -242.69143389 134.42403147 -240.86180115 131.13552856 C-241.45605896 130.9694812 -242.05031677 130.80343384 -242.6625824 130.63235474 C-245.39667898 129.86618051 -248.12923461 129.09464114 -250.86180115 128.32302856 C-252.26365662 127.93147583 -252.26365662 127.93147583 -253.6938324 127.53201294 C-272.38202255 122.23920384 -272.38202255 122.23920384 -277.73680115 114.38552856 C-279.23068875 110.06985328 -279.55763156 106.64247183 -278.86180115 102.13552856 C-274.6890001 93.83706689 -267.87346407 87.69250965 -261.36961365 81.20974731 C-260.13763126 79.97319696 -258.90601922 78.73627752 -257.67475891 77.49900818 C-255.10261551 74.91796661 -252.52492342 72.34262901 -249.94334412 69.77102661 C-246.64409896 66.48329519 -243.36102271 63.17992906 -240.08213997 59.87190533 C-237.54635395 57.31773733 -235.00128281 54.77298219 -232.45344162 52.2308445 C-231.23918457 51.01674027 -230.02800513 49.79954956 -228.82005692 48.57916832 C-227.12874979 46.87290729 -225.42508149 45.17999161 -223.71775818 43.48977661 C-223.22713898 42.98948944 -222.73651978 42.48920227 -222.23103333 41.97375488 C-218.26491246 38.08999095 -214.17505606 35.73901428 -208.67430115 34.73709106 C-202.354755 34.81880933 -197.74412227 36.29598747 -193.11180115 40.82302856 C-188.45750441 47.01083827 -186.96949721 55.12364928 -185.17430115 62.51052856 C-184.83688904 63.8621106 -184.83688904 63.8621106 -184.49266052 65.24099731 C-182.86180115 71.85366116 -182.86180115 71.85366116 -182.86180115 74.13552856 C-181.90402771 73.39689575 -180.94625427 72.65826294 -179.9594574 71.89724731 C-170.82169095 64.91254606 -161.47019944 58.4570772 -151.7407074 52.32693481 C-150.07259371 51.26919121 -148.41917594 50.1883504 -146.76805115 49.10427856 C-140.36045369 44.90619747 -133.75077598 41.47124269 -126.86180115 38.13552856 C-123.98310288 36.70539946 -121.11007877 35.26401059 -118.23680115 33.82302856 C-116.86970813 33.13924589 -115.5025272 32.45563892 -114.13523865 31.77224731 C-113.05500427 31.23213013 -111.9747699 30.69201294 -110.86180115 30.13552856 C-107.71268636 28.56097117 -105.34171299 28.78753738 -101.86180115 29.13552856 C-98.88507531 30.90833417 -96.43376107 32.99160871 -94.86180115 36.13552856 C-94.58836365 38.34255981 -94.58836365 38.34255981 -94.48680115 40.94802856 C-94.43781677 41.80009888 -94.3888324 42.65216919 -94.33836365 43.53005981 C-95.11408575 47.39130343 -96.81607386 48.67536691 -99.86180115 51.13552856 C-102.72005476 52.7640927 -105.66682596 54.11949594 -108.67430115 55.44802856 C-109.46256287 55.80703247 -110.25082458 56.16603638 -111.06297302 56.53591919 C-112.99139332 57.41247387 -114.92599519 58.2754075 -116.86180115 59.13552856 C-112.27981414 68.01490711 -107.41710216 76.70432916 -102.36180115 85.32302856 C-97.2659686 94.01257961 -92.19508694 102.71518291 -87.18431091 111.45404053 C-86.47445231 112.69106165 -85.76336946 113.92738113 -85.05101013 115.16296387 C-84.05244467 116.89546552 -83.05859495 118.63068257 -82.06492615 120.36599731 C-81.20882751 121.85716064 -81.20882751 121.85716064 -80.33543396 123.37844849 C-78.97713387 125.91974785 -77.86988515 128.43899617 -76.86180115 131.13552856 C-76.06000427 130.711427 -75.2582074 130.28732544 -74.43211365 129.85037231 C-59.50035023 122.14747849 -44.06452098 116.52218041 -27.86180115 112.13552856 C-26.82797302 111.84935669 -25.7941449 111.56318481 -24.72898865 111.26834106 C-18.96721061 109.7454733 -13.16044749 108.57231169 -7.29930115 107.51052856 C-6.62705505 107.38726196 -5.95480896 107.26399536 -5.26219177 107.13699341 C6.57273899 105.07812552 18.33008288 104.97810492 30.30812073 105.00515747 C33.13174305 105.01051631 35.95520636 105.00518699 38.77882385 104.99880981 C57.16020689 104.99070202 74.20323436 107.43803999 92.07569885 111.63552856 C93.37096497 111.93765259 93.37096497 111.93765259 94.69239807 112.24588013 C100.28788039 113.58845108 105.70848079 115.23462418 111.13819885 117.13552856 C112.0714801 117.45134888 113.00476135 117.76716919 113.96632385 118.09255981 C124.04313087 121.6519481 133.62664422 126.28650071 143.13819885 131.13552856 C143.40632385 130.43427856 143.67444885 129.73302856 143.95069885 129.01052856 C146.78073467 122.15886289 150.57258147 115.88389432 154.32569885 109.51052856 C159.83945567 100.10410485 165.29409995 90.66632798 170.70069885 81.19802856 C171.03749664 80.60874573 171.37429443 80.01946289 171.72129822 79.412323 C175.56998761 72.67696942 179.39268774 65.92886831 183.13819885 59.13552856 C174.24292354 54.84235976 165.39616717 50.71356537 156.12257385 47.28787231 C153.17966913 46.1515413 150.36084755 44.86597717 147.51319885 43.51052856 C142.98423507 41.39833639 138.49658544 39.99137485 133.64601135 38.81130981 C131.13819885 38.13552856 131.13819885 38.13552856 128.94288635 37.20584106 C124.77629147 35.61580346 120.47828127 34.70026647 116.13819885 33.69802856 C114.72317078 33.36762573 114.72317078 33.36762573 113.27955627 33.0305481 C111.40513672 32.59323173 109.53038861 32.15732081 107.6552887 31.72293091 C105.60117821 31.24357205 103.55074694 30.74846993 101.5014801 30.24880981 C98.38885019 29.49556135 95.27112717 28.79928456 92.13819885 28.13552856 C90.92905823 27.87900513 89.7199176 27.62248169 88.47413635 27.35818481 C53.77010187 20.56607349 11.23194829 19.41494046 -23.30711365 27.54177856 C-26.33683732 28.24593452 -29.37938728 28.87530844 -32.42430115 29.51052856 C-36.29873447 30.327301 -40.14351139 31.19158551 -43.9672699 32.21755981 C-62.30379742 37.13690566 -62.30379742 37.13690566 -68.86180115 33.44802856 C-72.21324075 29.57292652 -72.86180115 27.29893569 -72.86180115 22.13552856 C-72.24656314 18.43011781 -70.86736905 16.3426555 -67.73680115 14.09255981 C-64.98474696 12.68786549 -62.24120595 12.09300291 -59.20555115 11.59255981 C-56.76229679 11.1695472 -56.76229679 11.1695472 -54.1000824 10.20584106 C-50.28950379 8.94637359 -46.46677396 8.05444394 -42.54930115 7.19802856 C-41.76748474 7.02618042 -40.98566833 6.85433228 -40.18016052 6.67727661 C-29.41170111 4.34735392 -18.5546419 2.12725037 -7.54930115 1.34646606 C-4.89637747 1.0148506 -3.03366481 0.01358821 0 0 Z M-213.73899841 65.86746216 C-214.97016136 67.08905533 -214.97016136 67.08905533 -216.22619629 68.33532715 C-217.11785995 69.22587799 -218.00952362 70.11642883 -218.9282074 71.03396606 C-219.83683029 71.93926056 -220.74545319 72.84455505 -221.68161011 73.77728271 C-223.60764454 75.69731858 -225.53158873 77.61942219 -227.45433044 79.54275513 C-229.9232053 82.01173165 -232.39888597 84.47375871 -234.87640476 86.93405724 C-237.23149119 89.27537706 -239.57940142 91.62384584 -241.9282074 93.97146606 C-242.82189529 94.85796844 -243.71558319 95.74447083 -244.63635254 96.65783691 C-245.86278725 97.88888657 -245.86278725 97.88888657 -247.11399841 99.14480591 C-247.8393428 99.86872528 -248.56468719 100.59264465 -249.31201172 101.33850098 C-251.07949827 102.99245401 -251.07949827 102.99245401 -250.86180115 105.13552856 C-240.33048107 107.82954574 -240.33048107 107.82954574 -229.73680115 110.26052856 C-226.33171023 111.02942006 -223.1673022 112.03369488 -219.86180115 113.13552856 C-218.36492712 113.48262979 -216.86457589 113.81493662 -215.36180115 114.13552856 C-211.75647851 114.90466406 -208.36057693 115.96926997 -204.86180115 117.13552856 C-202.51893249 117.68140102 -200.17113846 118.185818 -197.81492615 118.67068481 C-195.86180115 119.13552856 -195.86180115 119.13552856 -193.86180115 120.13552856 C-194.88158565 114.64605027 -196.06040601 109.42712677 -197.86180115 104.13552856 C-198.20950009 102.63879327 -198.54171947 101.13841207 -198.86180115 99.63552856 C-199.41357729 97.04907791 -200.02316701 94.65143098 -200.86180115 92.13552856 C-201.70043529 89.61962615 -202.31002501 87.22197922 -202.86180115 84.63552856 C-203.40024863 82.11859963 -203.9837351 79.7697267 -204.79930115 77.32302856 C-206.45958448 72.34217855 -207.62399312 67.23529762 -208.86180115 62.13552856 C-210.85080929 62.13552856 -212.43874297 64.57403228 -213.73899841 65.86746216 Z M-143.92430115 73.82302856 C-144.79441833 74.450802 -145.66453552 75.07857544 -146.5610199 75.72537231 C-147.0668158 76.09517212 -147.57261169 76.46497192 -148.09373474 76.84597778 C-150.18296654 78.36977264 -152.28187693 79.87975801 -154.3813324 81.38943481 C-157.5517583 83.67120739 -160.7205265 85.95521134 -163.88523865 88.24490356 C-164.55474548 88.7292688 -165.22425232 89.21363403 -165.91404724 89.712677 C-166.55680603 90.18221802 -167.19956482 90.65175903 -167.86180115 91.13552856 C-168.97482605 91.90558228 -168.97482605 91.90558228 -170.1103363 92.69119263 C-170.6883197 93.16782349 -171.2663031 93.64445435 -171.86180115 94.13552856 C-171.86180115 94.79552856 -171.86180115 95.45552856 -171.86180115 96.13552856 C-173.18180115 96.79552856 -174.50180115 97.45552856 -175.86180115 98.13552856 C-175.35122051 101.76302589 -174.5967887 105.25081501 -173.63523865 108.78005981 C-173.40836365 109.62246216 -173.18148865 110.4648645 -172.94773865 111.33279419 C-172.47620094 113.06737931 -171.9945183 114.79924039 -171.50242615 116.52810669 C-169.62079541 123.62747784 -169.23939881 129.6960356 -172.42430115 136.44802856 C-176.5589978 141.00679667 -180.62049034 142.91862752 -186.73680115 143.51052856 C-192.35351939 143.20033505 -198.1739056 142.27788417 -203.36180115 140.07302856 C-207.51634319 138.5150753 -211.41419607 137.63943986 -215.86180115 138.13552856 C-218.95893774 140.19140588 -220.89994401 142.88639661 -223.04930115 145.88552856 C-223.94310486 147.05293579 -223.94310486 147.05293579 -224.85496521 148.243927 C-226.56939607 150.51200549 -228.22636245 152.81003354 -229.86180115 155.13552856 C-230.28219666 155.7323645 -230.70259216 156.32920044 -231.13572693 156.94412231 C-234.28753262 161.50121831 -236.91007163 165.94319155 -238.86180115 171.13552856 C-239.52180115 171.13552856 -240.18180115 171.13552856 -240.86180115 171.13552856 C-242.94848372 174.80029866 -245.03053208 178.46768178 -247.11180115 182.13552856 C-247.69832458 183.1654895 -248.28484802 184.19545044 -248.8891449 185.25662231 C-255.02912654 194.69286404 -255.02912654 194.69286404 -257.86180115 205.13552856 C-258.52180115 205.13552856 -259.18180115 205.13552856 -259.86180115 205.13552856 C-265.35195106 218.00022045 -270.69260609 230.77837156 -274.86180115 244.13552856 C-275.34143182 245.56983975 -275.82337089 247.00338026 -276.30711365 248.43630981 C-283.07470375 268.68798789 -287.55791452 289.05857872 -289.4672699 310.32693481 C-289.86180115 314.13552856 -289.86180115 314.13552856 -290.86180115 318.13552856 C-290.86180115 323.74552856 -290.86180115 329.35552856 -290.86180115 335.13552856 C-263.47180115 335.13552856 -236.08180115 335.13552856 -207.86180115 335.13552856 C-206.87180115 324.90552856 -205.88180115 314.67552856 -204.86180115 304.13552856 C-203.87180115 300.17552856 -203.87180115 300.17552856 -202.86180115 296.13552856 C-202.35225531 293.63733854 -201.88471096 291.13530524 -201.42430115 288.62771606 C-200.76675959 285.71444166 -199.82515041 282.96229063 -198.86180115 280.13552856 C-198.52922302 279.01920044 -198.1966449 277.90287231 -197.85398865 276.75271606 C-191.00770661 253.82006504 -181.32540411 232.03277745 -167.38523865 212.47537231 C-165.83844248 210.09965204 -164.82008356 207.79689705 -163.86180115 205.13552856 C-163.20180115 205.13552856 -162.54180115 205.13552856 -161.86180115 205.13552856 C-160.9790509 203.8290582 -160.10551629 202.51589784 -159.2641449 201.18240356 C-156.77172104 197.54443671 -153.89173188 194.21275659 -151.08055115 190.81912231 C-149.61113643 189.04185486 -148.1589363 187.25020155 -146.7250824 185.44412231 C-144.59777147 182.80839745 -142.28512716 180.50249816 -139.86180115 178.13552856 C-139.33586365 177.59927856 -138.80992615 177.06302856 -138.26805115 176.51052856 C-133.1647003 171.31438951 -127.93611407 166.18507051 -121.86180115 162.13552856 C-121.86180115 161.47552856 -121.86180115 160.81552856 -121.86180115 160.13552856 C-121.28816833 159.86675903 -120.71453552 159.5979895 -120.1235199 159.32107544 C-117.79794716 158.1020576 -115.78723049 156.72357259 -113.67430115 155.16677856 C-112.89312927 154.59572388 -112.1119574 154.02466919 -111.30711365 153.43630981 C-110.09668396 152.5449231 -110.09668396 152.5449231 -108.86180115 151.63552856 C-107.25966608 150.4556815 -105.65556685 149.2784959 -104.04930115 148.10427856 C-103.34160583 147.58285278 -102.63391052 147.061427 -101.9047699 146.52420044 C-99.9504944 145.19581623 -97.998996 144.1368884 -95.86180115 143.13552856 C-95.86180115 142.47552856 -95.86180115 141.81552856 -95.86180115 141.13552856 C-96.52180115 141.13552856 -97.18180115 141.13552856 -97.86180115 141.13552856 C-98.11703552 140.27959106 -98.3722699 139.42365356 -98.63523865 138.54177856 C-99.92808361 134.95145752 -101.55735199 131.9255853 -103.48680115 128.63552856 C-104.21613735 127.3830231 -104.94529962 126.13041635 -105.67430115 124.87771606 C-106.04297302 124.2483313 -106.4116449 123.61894653 -106.79148865 122.9704895 C-108.38000309 120.24711483 -109.93125999 117.50284035 -111.48680115 114.76052856 C-116.95800363 105.18321571 -122.51846359 95.65633705 -128.11228943 86.150177 C-129.34784538 84.02114478 -130.55737464 81.87690606 -131.74803162 79.72244263 C-132.3617865 78.62383911 -132.97554138 77.5252356 -133.6078949 76.39334106 C-134.16017761 75.38674438 -134.71246033 74.38014771 -135.28147888 73.3430481 C-135.80298523 72.61456665 -136.32449158 71.88608521 -136.86180115 71.13552856 C-140.40612118 71.13552856 -141.11354993 71.77569126 -143.92430115 73.82302856 Z M203.13819885 71.13552856 C201.81402693 72.94317685 201.81402693 72.94317685 200.51319885 75.32302856 C197.43699594 80.63646996 194.22145783 85.85030905 190.9702301 91.05740356 C189.12036177 94.07888658 189.12036177 94.07888658 187.6499176 97.11990356 C185.41911269 101.56998468 182.72283987 105.70541785 180.07569885 109.91677856 C177.11243706 114.8396167 174.83736231 119.64592355 173.13819885 125.13552856 C172.47819885 125.13552856 171.81819885 125.13552856 171.13819885 125.13552856 C169.67757035 127.78291773 169.13819885 129.03001191 169.13819885 132.13552856 C168.47819885 132.13552856 167.81819885 132.13552856 167.13819885 132.13552856 C166.29971081 133.59090424 165.46755951 135.0499323 164.63819885 136.51052856 C164.17413635 137.32263794 163.71007385 138.13474731 163.23194885 138.97146606 C161.98784026 141.0288973 161.98784026 141.0288973 162.13819885 143.13552856 C164.1464297 144.578415 164.1464297 144.578415 166.76319885 146.07302856 C176.43973751 152.05375375 185.35234213 159.25604852 193.68507385 166.99099731 C195.09177115 168.34177982 195.09177115 168.34177982 197.13819885 168.13552856 C197.46819885 169.12552856 197.79819885 170.11552856 198.13819885 171.13552856 C200.01328047 173.34410517 200.01328047 173.34410517 202.13819885 175.13552856 C202.79819885 175.13552856 203.45819885 175.13552856 204.13819885 175.13552856 C204.79819885 176.45552856 205.45819885 177.77552856 206.13819885 179.13552856 C206.79819885 179.13552856 207.45819885 179.13552856 208.13819885 179.13552856 C208.37796448 179.69755981 208.6177301 180.25959106 208.86476135 180.83865356 C210.40931205 183.62453028 212.30654384 185.58603693 214.51319885 187.88552856 C233.41933666 208.2044939 249.01735128 233.93063189 258.13819885 260.13552856 C258.84628479 262.03145431 259.55461057 263.92729051 260.26319885 265.82302856 C262.89490299 273.13449692 265.07314924 280.46483826 266.6733551 288.06912231 C267.07677598 289.86248065 267.59761798 291.62864074 268.13819885 293.38552856 C269.36834639 297.99858182 270.01548111 302.61782841 270.6733551 307.34255981 C270.98834421 310.08107146 270.98834421 310.08107146 272.13819885 312.13552856 C273.12819885 323.52052856 273.12819885 323.52052856 274.13819885 335.13552856 C301.52819885 335.13552856 328.91819885 335.13552856 357.13819885 335.13552856 C355.44594148 307.8483589 355.44594148 307.8483589 351.13819885 281.13552856 C350.93259338 280.15632446 350.72698792 279.17712036 350.51515198 278.16824341 C348.64588202 269.38011787 346.77119829 260.68251954 343.83668518 252.18093872 C342.88714283 249.40034947 342.08274124 246.58178511 341.26319885 243.76052856 C339.66775367 238.51573174 337.66238268 233.66957698 335.31007385 228.72537231 C333.60082287 224.94792765 332.37043244 221.09164693 331.13819885 217.13552856 C330.47819885 217.13552856 329.81819885 217.13552856 329.13819885 217.13552856 C329.05569885 216.33115356 328.97319885 215.52677856 328.88819885 214.69802856 C326.71624521 204.38124877 320.34209508 195.17709968 315.13819885 186.13552856 C314.51300354 185.04240356 313.88780823 183.94927856 313.2436676 182.82302856 C311.56496112 179.91276541 309.8607677 177.02001884 308.13819885 174.13552856 C307.63288635 173.28216919 307.12757385 172.42880981 306.60694885 171.54959106 C299.21882666 159.48956807 290.117207 148.51131627 281.26319885 137.51052856 C280.75256897 136.87220093 280.24193909 136.23387329 279.71583557 135.57620239 C276.58343031 131.721832 273.26327878 128.179524 269.7177887 124.7024231 C267.84284559 122.84254909 266.10251555 120.89372812 264.38819885 118.88552856 C261.41336394 115.36588263 261.41336394 115.36588263 258.13819885 112.13552856 C257.47819885 112.13552856 256.81819885 112.13552856 256.13819885 112.13552856 C255.80819885 111.14552856 255.47819885 110.15552856 255.13819885 109.13552856 C253.54873884 107.47632019 253.54873884 107.47632019 251.5717926 105.86599731 C250.84717834 105.2515979 250.12256409 104.63719849 249.37599182 104.00418091 C248.63752014 103.38752563 247.89904846 102.77087036 247.13819885 102.13552856 C246.48609436 101.57945923 245.83398987 101.02338989 245.16212463 100.45046997 C225.88470753 81.90201493 225.88470753 81.90201493 203.13819885 71.13552856 Z " fill="#FFFFFF" transform="translate(312.86180114746094,-0.135528564453125)"/>
<path d="M0 0 C6.1379429 4.17487598 9.19897805 9.1955894 12.71362305 15.63232422 C13.93617567 17.79904936 15.15883554 19.96571399 16.3815918 22.13232422 C17.00340332 23.24865234 17.62521484 24.36498047 18.26586914 25.51513672 C20.69108578 29.84673318 23.17877373 34.1404556 25.67041016 38.43408203 C31.88121127 49.13813342 38.01595296 59.88590003 44.15075684 70.63360596 C49.17508359 79.43494006 54.21548473 88.22681431 59.27612305 97.00732422 C59.8794043 98.05533203 60.48268555 99.10333984 61.10424805 100.18310547 C64.28968065 105.70404582 67.52495945 111.19014735 70.81567383 116.64892578 C72.60265701 119.6374673 74.31672712 122.66119669 76.02612305 125.69482422 C78.67088786 130.37027611 81.42005111 134.95614088 84.27612305 139.50732422 C87.47212027 144.6372451 90.24095475 149.86285708 92.8269043 155.32373047 C94.06560243 157.90583969 94.06560243 157.90583969 95.8190918 160.03466797 C97.15112305 161.88232422 97.15112305 161.88232422 97.15112305 164.88232422 C97.81112305 164.88232422 98.47112305 164.88232422 99.15112305 164.88232422 C100.57548889 167.4936616 101.99936401 170.10524822 103.4206543 172.71826172 C104.55437248 174.79120016 105.69728697 176.85914153 106.8503418 178.92138672 C107.38272461 179.87787109 107.91510742 180.83435547 108.46362305 181.81982422 C108.95475586 182.69509766 109.44588867 183.57037109 109.9519043 184.47216797 C111.02916432 186.63721499 111.68539537 188.52081095 112.15112305 190.88232422 C112.81112305 190.88232422 113.47112305 190.88232422 114.15112305 190.88232422 C115.52707623 193.31929019 116.90189277 195.75688686 118.27612305 198.19482422 C118.65510742 198.86578125 119.0340918 199.53673828 119.42456055 200.22802734 C121.67039018 204.21437494 123.87903567 208.21803465 126.05737305 212.24169922 C129.10175154 217.8353212 132.29691868 223.33139571 135.52612305 228.81982422 C140.95184118 238.08286825 146.32322948 247.37530893 151.65112305 256.69482422 C151.98392273 257.2760202 152.31672241 257.85721619 152.65960693 258.45602417 C154.24270653 261.22151997 155.8188882 263.99054423 157.38427734 266.76611328 C158.5462575 268.81551423 159.72698739 270.85441677 160.92773438 272.88134766 C165.59663892 280.94600765 166.55625227 286.52168395 165.15112305 295.88232422 C163.43750214 300.62074568 160.97195237 304.5634269 157.15112305 307.88232422 C156.49112305 307.88232422 155.83112305 307.88232422 155.15112305 307.88232422 C155.15112305 308.54232422 155.15112305 309.20232422 155.15112305 309.88232422 C153.50112305 310.21232422 151.85112305 310.54232422 150.15112305 310.88232422 C150.15112305 311.54232422 150.15112305 312.20232422 150.15112305 312.88232422 C145.97031703 313.00635543 141.79049803 313.09686023 137.60839844 313.15698242 C136.18731014 313.18205569 134.76634991 313.2161242 133.34570312 313.25952148 C131.29744843 313.3205028 129.25090421 313.34860184 127.2019043 313.37060547 C125.35592651 313.40988159 125.35592651 313.40988159 123.47265625 313.44995117 C119.23271029 312.72537386 117.79449494 311.19988789 115.15112305 307.88232422 C114.18243794 304.11581676 114.33613751 300.67799111 115.15112305 296.88232422 C117.15564086 293.93033336 119.66182907 292.34992367 123.09741211 291.27124023 C125.20595156 290.87194122 127.11620965 290.76842336 129.26049805 290.78466797 C130.01459961 290.78789062 130.76870117 290.79111328 131.5456543 290.79443359 C132.32295898 290.8028125 133.10026367 290.81119141 133.90112305 290.81982422 C134.69389648 290.82433594 135.48666992 290.82884766 136.3034668 290.83349609 C138.25271813 290.84523857 140.20193043 290.86317276 142.15112305 290.88232422 C141.64977293 286.74766031 140.93377858 284.04671506 138.46362305 280.69482422 C136.19625087 277.50504781 134.21626001 274.28903165 132.37768555 270.83544922 C129.10336214 264.76252416 125.67356477 258.78848779 122.21362305 252.81982422 C121.22421909 251.10877213 120.23481708 249.39771892 119.24552917 247.68659973 C118.22555709 245.92281664 117.20501167 244.15936642 116.18432617 242.39599609 C112.93969971 236.78980878 109.70129383 231.18003071 106.46362305 225.56982422 C105.83786377 224.48564209 105.21210449 223.40145996 104.56738281 222.28442383 C100.267098 214.82913357 95.990414 207.36069367 91.7265625 199.88452148 C86.9208507 191.46461674 82.0744487 183.06829469 77.2253418 174.67333984 C76.04702439 172.63336206 74.86985872 170.59271839 73.6940918 168.55126953 C72.74576317 166.91090109 71.79137807 165.2739944 70.8269043 163.64306641 C68.15112305 159.0918911 68.15112305 159.0918911 68.15112305 156.88232422 C67.49112305 156.88232422 66.83112305 156.88232422 66.15112305 156.88232422 C65.60584961 155.75697266 65.60584961 155.75697266 65.04956055 154.60888672 C62.12503446 148.65485156 59.05408722 142.89252241 55.58081055 137.24169922 C54.22604982 135.00597386 52.96010244 132.74225682 51.71362305 130.44482422 C49.84521003 127.03736587 47.82414198 123.77029756 45.71362305 120.50732422 C42.79043037 115.97068103 40.16852146 111.33851432 37.6237793 106.58154297 C34.88274519 101.55752555 31.86595757 96.69274746 28.88549805 91.80810547 C26.15112305 87.21551084 26.15112305 87.21551084 26.15112305 83.88232422 C25.49112305 83.88232422 24.83112305 83.88232422 24.15112305 83.88232422 C22.69049454 81.23493506 22.15112305 79.98784088 22.15112305 76.88232422 C21.49112305 76.88232422 20.83112305 76.88232422 20.15112305 76.88232422 C19.77987305 76.09857422 19.40862305 75.31482422 19.02612305 74.50732422 C17.07516197 70.55827741 14.7075852 66.87321683 12.3581543 63.15185547 C11.15112305 60.88232422 11.15112305 60.88232422 11.15112305 57.88232422 C10.49112305 57.88232422 9.83112305 57.88232422 9.15112305 57.88232422 C0.48558251 42.53468908 0.48558251 42.53468908 -3.03637695 36.00732422 C-5.45355742 31.5318164 -8.05480201 27.19334175 -10.74731445 22.87841797 C-11.84887695 20.88232422 -11.84887695 20.88232422 -11.84887695 18.88232422 C-13.7817309 19.08554503 -13.7817309 19.08554503 -15.84887695 19.88232422 C-17.21072124 21.61012856 -17.21072124 21.61012856 -18.22387695 23.81982422 C-20.50483896 28.24715731 -23.00323287 32.4783145 -25.61450195 36.71826172 C-26.97870316 38.94621405 -26.97870316 38.94621405 -27.84887695 41.88232422 C-28.50887695 41.88232422 -29.16887695 41.88232422 -29.84887695 41.88232422 C-29.96875977 42.45724609 -30.08864258 43.03216797 -30.2121582 43.62451172 C-30.88509552 46.01075569 -31.80978163 47.85582045 -33.03637695 50.00732422 C-33.4849707 50.79623047 -33.93356445 51.58513672 -34.39575195 52.39794922 C-36.33319322 55.7103488 -38.3220467 58.990584 -40.30981445 62.27294922 C-41.90973478 64.9855045 -43.41792284 67.73486068 -44.91137695 70.50732422 C-46.97528932 74.33494352 -49.15970239 78.02447481 -51.50292969 81.68530273 C-52.96052272 84.06456624 -54.28658918 86.49055814 -55.60668945 88.94873047 C-58.69662888 94.64315514 -61.93863182 100.23643197 -65.22387695 105.81982422 C-70.49086936 114.80769191 -75.69301102 123.83045452 -80.84887695 132.88232422 C-85.86194495 141.68244388 -90.91680654 150.45604966 -96.03637695 159.19482422 C-100.54193154 166.88673949 -104.97886713 174.61260836 -109.34887695 182.38232422 C-118.05020796 197.84469862 -126.82104635 213.29280969 -136.2980957 228.29638672 C-137.9077973 230.90378343 -137.9077973 230.90378343 -139.31762695 233.83544922 C-140.92385518 237.03151559 -142.74361097 239.98882864 -144.66137695 243.00732422 C-148.46486054 249.11680156 -151.75612379 255.3805136 -154.84887695 261.88232422 C-155.50887695 261.88232422 -156.16887695 261.88232422 -156.84887695 261.88232422 C-157.50887695 264.19232422 -158.16887695 266.50232422 -158.84887695 268.88232422 C-159.50887695 268.88232422 -160.16887695 268.88232422 -160.84887695 268.88232422 C-160.9880957 269.68863281 -160.9880957 269.68863281 -161.13012695 270.51123047 C-162.39710052 274.69086611 -164.97436971 278.21278482 -167.25512695 281.90966797 C-168.75519341 284.70758604 -169.31509439 286.79712611 -169.84887695 289.88232422 C-167.92314079 289.88728944 -167.92314079 289.88728944 -165.95850086 289.89235497 C-135.49184013 289.97135088 -105.0252284 290.06056251 -74.55863603 290.16237583 C-70.80976151 290.17489489 -67.0608867 290.18732764 -63.31201172 290.19970703 C-62.56566958 290.20217303 -61.81932744 290.20463902 -61.05036887 290.20717974 C-48.96135442 290.24691723 -36.87233062 290.27966018 -24.78328893 290.30982403 C-12.38135054 290.34092408 0.02054809 290.37952727 12.42244178 290.42511427 C20.0767588 290.45301304 27.73104669 290.47504005 35.38540093 290.48958673 C41.25204663 290.50136244 47.11862351 290.52357091 52.98522377 290.54970741 C55.39388612 290.55879613 57.80256406 290.56447642 60.21124268 290.56653786 C63.49390021 290.5698512 66.77628206 290.58530383 70.05888367 290.60385132 C71.01705653 290.60191658 71.9752294 290.59998185 72.96243781 290.59798849 C78.64589249 290.64616014 82.56642595 291.27562062 87.46362305 294.31982422 C90.17937206 298.44373938 90.07319517 303.10246506 89.15112305 307.88232422 C87.76865005 310.5143404 87.76865005 310.5143404 85.15112305 312.88232422 C81.69205874 313.65017 78.27041325 313.56071786 74.73944092 313.52397156 C73.66769347 313.53247708 72.59594603 313.5409826 71.49172139 313.54974586 C67.8879486 313.57209263 64.28520091 313.55855485 60.68139648 313.54516602 C58.10267901 313.55357527 55.52396768 313.56409862 52.94526672 313.57658386 C46.65980752 313.60269482 40.37463412 313.60157575 34.08914128 313.59054568 C28.97915175 313.58199037 23.86924497 313.58281556 18.75925446 313.59034157 C18.03218619 313.59139646 17.30511793 313.59245134 16.55601729 313.5935382 C15.07897826 313.59570913 13.60193924 313.5978959 12.12490025 313.60009835 C-1.73249764 313.61953783 -15.58973525 313.60752268 -29.44712004 313.5853124 C-41.33131616 313.56707476 -53.2152014 313.57794476 -65.09936523 313.60961914 C-78.90068622 313.64640119 -92.70181303 313.66339553 -106.50318313 313.65020686 C-107.97603716 313.64886578 -109.44889121 313.6475568 -110.9217453 313.64628029 C-111.64640065 313.64564962 -112.37105601 313.64501896 -113.11767061 313.64436918 C-118.21809622 313.64134423 -123.31837521 313.65259247 -128.41876984 313.66953087 C-135.29061063 313.69200816 -142.16180189 313.68282787 -149.03360939 313.65243721 C-151.55551263 313.64610278 -154.0774654 313.64998734 -156.59933281 313.66484833 C-160.04337668 313.6834978 -163.48532135 313.66514583 -166.92926025 313.63749695 C-168.42519254 313.65859662 -168.42519254 313.65859662 -169.95134568 313.68012255 C-176.90500936 313.56769498 -180.83896133 311.68965041 -185.84887695 306.88232422 C-187.9074707 304.65185547 -187.9074707 304.65185547 -189.28637695 302.69482422 C-189.75946289 302.04126953 -190.23254883 301.38771484 -190.7199707 300.71435547 C-194.2852804 294.92843766 -193.43036498 287.4108489 -192.84887695 280.88232422 C-191.67557048 277.18034 -189.93872142 274.14050692 -187.84887695 270.88232422 C-186.86860485 269.23714905 -185.88945769 267.59130313 -184.91137695 265.94482422 C-184.43313477 265.16397461 -183.95489258 264.383125 -183.4621582 263.57861328 C-181.92032015 261.00172776 -180.4767244 258.39469289 -179.0559082 255.74951172 C-175.9774047 250.07753614 -172.74635539 244.50651901 -169.47387695 238.94482422 C-164.20688316 229.95695416 -159.00489092 220.93411096 -153.84887695 211.88232422 C-148.24524509 202.04686897 -142.58097674 192.24895505 -136.86328125 182.47924805 C-132.59169592 175.17408516 -128.37677859 167.83821359 -124.18920898 160.48461914 C-120.81304592 154.55847198 -117.40150611 148.6538297 -113.97387695 142.75732422 C-110.15742299 136.18799606 -106.42062863 129.58877779 -102.84887695 122.88232422 C-102.18887695 122.88232422 -101.52887695 122.88232422 -100.84887695 122.88232422 C-100.74961914 122.16302734 -100.65036133 121.44373047 -100.5480957 120.70263672 C-99.75461067 117.50209932 -98.50456406 115.48345084 -96.66137695 112.75732422 C-93.06540991 107.28264786 -89.92761357 101.65900634 -86.84887695 95.88232422 C-85.74653059 93.86049735 -84.64240386 91.83964002 -83.53637695 89.81982422 C-81.65007552 86.37326616 -81.65007552 86.37326616 -79.84887695 82.88232422 C-79.18887695 82.88232422 -78.52887695 82.88232422 -77.84887695 82.88232422 C-77.18887695 80.57232422 -76.52887695 78.26232422 -75.84887695 75.88232422 C-75.18887695 75.88232422 -74.52887695 75.88232422 -73.84887695 75.88232422 C-73.64262695 75.09857422 -73.43637695 74.31482422 -73.22387695 73.50732422 C-71.65464656 69.37026228 -69.53613351 65.88820201 -67.1887207 62.15185547 C-65.71984129 59.84517921 -65.71984129 59.84517921 -64.84887695 56.88232422 C-64.18887695 56.88232422 -63.52887695 56.88232422 -62.84887695 56.88232422 C-62.18887695 54.57232422 -61.52887695 52.26232422 -60.84887695 49.88232422 C-60.18887695 49.88232422 -59.52887695 49.88232422 -58.84887695 49.88232422 C-58.64262695 49.09857422 -58.43637695 48.31482422 -58.22387695 47.50732422 C-56.70859095 43.5124793 -54.71124095 40.18697166 -52.47387695 36.56201172 C-50.93102241 34.01778524 -49.5021936 31.44306955 -48.09887695 28.81982422 C-47.02024739 26.83809011 -45.93621123 24.85929563 -44.84887695 22.88232422 C-44.47714355 22.20621094 -44.10541016 21.53009766 -43.72241211 20.83349609 C-42.46747291 18.56991884 -41.19151016 16.31923564 -39.91137695 14.06982422 C-39.51660156 13.35238037 -39.12182617 12.63493652 -38.71508789 11.89575195 C-34.80403169 5.10048974 -28.74172608 -1.33234225 -21.00512695 -3.67626953 C-13.18494093 -5.27714095 -6.82738768 -4.12726539 0 0 Z " fill="#FFFFFF" transform="translate(359.848876953125,171.11767578125)"/>
<path d="M0 0 C0.82628906 0.61488281 1.65257812 1.22976563 2.50390625 1.86328125 C10.49040928 8.69992782 16.18228843 18.66844125 18 29 C18.23388207 32.41467822 18.23080244 35.8280352 18.25 39.25 C18.270625 40.15363281 18.29125 41.05726563 18.3125 41.98828125 C18.34829884 48.20832962 17.34697685 53.24912486 15 59 C14.72019287 59.69335449 14.44038574 60.38670898 14.15209961 61.10107422 C9.30906367 72.54603694 -1.7479074 82.14615614 -13 87 C-14.10976196 87.50793091 -14.10976196 87.50793091 -15.24194336 88.02612305 C-26.08997649 91.85659168 -43.60170265 91.08771228 -54 86.1875 C-57.09375 84.25 -57.09375 84.25 -60 82 C-60.53496094 81.5875 -61.06992187 81.175 -61.62109375 80.75 C-68.62638698 75.21169759 -74.14305076 69.13535319 -78 61 C-78.40992188 60.23042969 -78.81984375 59.46085937 -79.2421875 58.66796875 C-84.06442452 48.10893253 -83.7267676 33.39498755 -80.5 22.375 C-75.34182006 9.59802424 -65.16174471 -1.09211995 -52.875 -7.125 C-35.04185166 -14.63213233 -15.19630031 -11.46890589 0 0 Z M-55 23 C-59.21028004 28.70312171 -60.09434751 35.01828427 -60 42 C-59.43395099 45.69006955 -59.43395099 45.69006955 -58 49 C-57.75378906 49.64582031 -57.50757813 50.29164063 -57.25390625 50.95703125 C-54.26423166 57.90636373 -49.22238753 61.96134666 -42.9375 65.9375 C-36.36387716 68.34027249 -27.93704485 68.1828277 -21.30859375 66.19140625 C-14.68414988 62.86190316 -8.91280558 57.20432098 -5.8359375 50.44140625 C-3.03760059 41.8502504 -3.52798233 34.30943555 -7 26 C-11.69712746 17.92204924 -17.67691937 13.95056106 -26.62890625 11.54296875 C-37.73373353 9.00001819 -47.78747724 14.82780685 -55 23 Z " fill="#FFFFFF" transform="translate(662,395)"/>
<path d="M0 0 C0 0.66 0 1.32 0 2 C0.5775 2.226875 1.155 2.45375 1.75 2.6875 C4.59739809 4.34848222 6.12067193 6.31524561 8 9 C8 9.66 8 10.32 8 11 C8.66 11 9.32 11 10 11 C11.6835321 16.84685587 12.28014936 21.9768549 12.17578125 28.04296875 C12.16799149 28.90262741 12.16020172 29.76228607 12.1521759 30.647995 C12.03771506 40.21596593 11.71463079 49.77849534 11.31030273 59.33813477 C11.18688861 62.32730823 11.08070098 65.31680845 10.97460938 68.30664062 C9.73820094 99.76892679 9.73820094 99.76892679 1 108 C-7.54176357 115.34462246 -15.08014308 115.78459602 -26 115 C-29.09922364 114.12036741 -31.41693155 112.89950835 -34 111 C-34.9075 110.401875 -35.815 109.80375 -36.75 109.1875 C-39.65977166 106.35855533 -41.1300755 103.61088869 -43 100 C-43.35513672 99.35194901 -43.71027344 98.70389801 -44.07617188 98.03620911 C-46.97735922 91.64170354 -46.23985625 83.17446328 -46.5 76.26953125 C-46.583319 74.22981712 -46.66665277 72.1901036 -46.75 70.15039062 C-46.87605015 66.97082476 -47.00083132 63.79121214 -47.125 60.61157227 C-47.24689462 57.51825831 -47.37328522 54.42515093 -47.5 51.33203125 C-47.53544922 50.3850386 -47.57089844 49.43804596 -47.60742188 48.46235657 C-47.7959194 43.88847544 -48.15277328 39.50899109 -49 35 C-49.77417977 23.57767559 -49.11984381 14.69335804 -41.6875 5.6875 C-29.84254814 -6.81410164 -14.99053419 -8.11987269 0 0 Z M-23.9375 19.125 C-26.402685 23.47532646 -26.09153135 28.55922732 -25.88574219 33.41674805 C-25.83528748 34.66791916 -25.78483276 35.91909027 -25.73284912 37.20817566 C-25.67141864 38.55938231 -25.60941361 39.91056294 -25.546875 41.26171875 C-25.48522661 42.6584256 -25.42372583 44.05513897 -25.36236572 45.45185852 C-25.23238561 48.36958703 -25.09701175 51.28701064 -24.95849609 54.2043457 C-24.78193583 57.94301697 -24.62446266 61.68223149 -24.47166061 65.4219389 C-24.35092605 68.30228489 -24.21733152 71.18192935 -24.08011627 74.06153297 C-24.01649901 75.44043289 -23.9575429 76.81955607 -23.9033432 78.19885826 C-23.82633864 80.12363812 -23.72954261 82.04759548 -23.63183594 83.97143555 C-23.58218689 85.06586472 -23.53253784 86.16029388 -23.48138428 87.28788757 C-23.20176689 90.01254863 -23.20176689 90.01254863 -21.62457275 91.89241028 C-19.96310819 93.27863299 -19.96310819 93.27863299 -17.375 92.75 C-15.0687593 92.22254355 -15.0687593 92.22254355 -14 91 C-13.78323716 89.56658043 -13.62838286 88.12370815 -13.5 86.6796875 C-13.3769751 85.30586914 -13.3769751 85.30586914 -13.25146484 83.90429688 C-13.16848145 82.90462891 -13.08549805 81.90496094 -13 80.875 C-12.91314941 79.84181641 -12.82629883 78.80863281 -12.73681641 77.74414062 C-11.85560111 66.83889471 -11.29240613 55.93635015 -11 45 C-10.95697754 43.42532959 -10.95697754 43.42532959 -10.91308594 41.81884766 C-10.83755774 38.65000935 -10.78856675 35.48198593 -10.75 32.3125 C-10.72856934 31.33796875 -10.70713867 30.3634375 -10.68505859 29.359375 C-10.68070801 28.45316406 -10.67635742 27.54695313 -10.671875 26.61328125 C-10.6625293 25.81704346 -10.65318359 25.02080566 -10.64355469 24.20043945 C-11.09243925 21.42934593 -12.11680799 20.05036982 -14 18 C-17.43063577 17.12159124 -20.8689801 17.34327877 -23.9375 19.125 Z " fill="#FFFFFF" transform="translate(364,256)"/>
<path d="M0 0 C13.9442318 -0.65899016 25.19919077 3.72480579 35.87890625 12.21484375 C40.9577296 16.95402572 44.73583822 22.04511762 47.87890625 28.21484375 C48.41515625 29.20484375 48.95140625 30.19484375 49.50390625 31.21484375 C54.41382583 41.92739555 55.09584524 56.82461103 50.9921875 67.94921875 C47.56719865 74.9193715 43.22273121 81.56565736 37.87890625 87.21484375 C37.21890625 87.21484375 36.55890625 87.21484375 35.87890625 87.21484375 C35.87890625 87.87484375 35.87890625 88.53484375 35.87890625 89.21484375 C34.22890625 89.87484375 32.57890625 90.53484375 30.87890625 91.21484375 C30.87890625 91.87484375 30.87890625 92.53484375 30.87890625 93.21484375 C29.31771203 94.00908236 27.75488661 94.80011498 26.19140625 95.58984375 C25.32128906 96.03070313 24.45117188 96.4715625 23.5546875 96.92578125 C16.3678014 100.38807674 10.56069666 100.58136055 2.62890625 100.58984375 C1.43910156 100.61433594 0.24929687 100.63882813 -0.9765625 100.6640625 C-8.33395393 100.68845164 -13.70372725 99.82990039 -20.12109375 96.21484375 C-21.29671875 95.63734375 -22.47234375 95.05984375 -23.68359375 94.46484375 C-24.48796875 94.05234375 -25.29234375 93.63984375 -26.12109375 93.21484375 C-26.12109375 92.55484375 -26.12109375 91.89484375 -26.12109375 91.21484375 C-27.77109375 90.55484375 -29.42109375 89.89484375 -31.12109375 89.21484375 C-31.12109375 88.55484375 -31.12109375 87.89484375 -31.12109375 87.21484375 C-32.44109375 86.55484375 -33.76109375 85.89484375 -35.12109375 85.21484375 C-35.12109375 84.55484375 -35.12109375 83.89484375 -35.12109375 83.21484375 C-35.78109375 83.21484375 -36.44109375 83.21484375 -37.12109375 83.21484375 C-44.82078569 72.78511242 -48.30045695 63.39926672 -48.68359375 50.52734375 C-48.72291016 49.71894043 -48.76222656 48.91053711 -48.80273438 48.07763672 C-48.82547071 42.54929584 -47.60569282 39.49650428 -43.71411133 35.5300293 C-40.95332019 33.25073705 -38.84830219 33.01214155 -35.375 32.87109375 C-31.53723638 33.45640259 -28.73015735 35.38835819 -26.12109375 38.21484375 C-25.0088106 41.5516932 -24.90675159 44.32832232 -24.74609375 47.83984375 C-24.14482057 56.68584769 -22.485578 64.66266693 -16.12109375 71.21484375 C-13.85014644 72.84788451 -11.65621622 73.97032908 -9.12109375 75.21484375 C-8.53972656 75.57191406 -7.95835938 75.92898438 -7.359375 76.296875 C-1.71292234 78.61261038 6.62335951 78.12462645 12.46484375 76.4921875 C16.68857437 74.49360232 19.79136932 71.73120525 22.87890625 68.21484375 C23.58015625 67.51359375 24.28140625 66.81234375 25.00390625 66.08984375 C28.97991681 59.99329422 30.4311057 53.59307039 29.25390625 46.40234375 C27.56089512 39.17882959 24.4711941 32.11823235 17.98828125 28.01953125 C10.4448536 24.13265059 3.89368503 22.1402483 -4.62109375 23.96484375 C-9.37685162 24.30454074 -11.22202527 22.84074701 -15.12109375 20.21484375 C-15.12109375 19.22484375 -15.12109375 18.23484375 -15.12109375 17.21484375 C-15.78109375 17.21484375 -16.44109375 17.21484375 -17.12109375 17.21484375 C-17.60552314 12.3705499 -17.62089198 9.1311405 -15.24609375 4.77734375 C-11.13493802 0.58489398 -5.54008913 0.56115083 0 0 Z " fill="#FFFFFF" transform="translate(59.12109375,383.78515625)"/>
<path d="M0 0 C0.68642578 -0.020625 1.37285156 -0.04125 2.08007812 -0.0625 C10.33736589 -0.12499603 16.84938024 3.41350437 23.01171875 8.86328125 C29.17471029 15.10379469 30.98593253 21.91476112 31.3125 30.55859375 C30.95496874 40.04434495 28.41618142 47.58279994 21.375 54.125 C13.71062156 60.17657627 7.04967943 62.35942779 -2.8125 62.25 C-6.4375 61.625 -6.4375 61.625 -9.8125 60.25 C-10.59238281 59.94191406 -11.37226563 59.63382812 -12.17578125 59.31640625 C-20.10774349 55.83789777 -25.5199931 50.68147408 -29.50390625 42.98046875 C-30.97782517 38.77869989 -31.35190227 35.34955643 -31.3125 30.9375 C-31.30677979 30.19129395 -31.30105957 29.44508789 -31.29516602 28.67626953 C-31.02466164 20.2806153 -28.13460397 14.4964932 -22.4375 8.375 C-15.58077626 2.04112012 -9.21471934 0.0680681 0 0 Z M-6.8125 25.25 C-9.09141715 28.0480017 -9.09141715 28.0480017 -8.75 31.125 C-7.5583949 35.09701701 -6.11060197 36.75810073 -2.8125 39.25 C0.1875 40.08333333 0.1875 40.08333333 3.1875 39.25 C6.09030499 36.99226279 7.77921713 35.18664894 9.25 31.8125 C9.15440485 27.89309883 7.79363371 26.11674708 5.1875 23.25 C0.1429101 21.69076312 -2.67916479 21.94333183 -6.8125 25.25 Z " fill="#FFFFFF" transform="translate(345.8125,384.75)"/>
</svg>
