<?xml version="1.0" encoding="UTF-8"?>
<svg version="1.1" xmlns="http://www.w3.org/2000/svg" width="653" height="653">
<path d="M0 0 C0.84046875 0.32355469 1.6809375 0.64710938 2.546875 0.98046875 C25.02168042 9.87927684 48.40649718 23.71691706 64 42.5 C65.73204759 44.55295996 67.44543144 46.43370956 69.375 48.3125 C75.34220604 54.42178238 80.29423186 61.23014784 84.9375 68.375 C85.32711914 68.96982178 85.71673828 69.56464355 86.11816406 70.17749023 C87.95162485 73.05461959 89.47213766 75.59822046 90 79 C90.66 79 91.32 79 92 79 C103 102.1741573 103 102.1741573 103 106 C103.7425 106.25652344 104.485 106.51304687 105.25 106.77734375 C112.83507254 110.14968424 117.70459379 117.64064762 121 125 C121.76219849 126.61890137 121.76219849 126.61890137 122.53979492 128.27050781 C124.8004386 134.38155343 124.46775204 140.70387853 124.46875 147.140625 C124.4758682 148.5129222 124.48356956 149.88521648 124.49182129 151.25750732 C124.50521286 154.12536904 124.50686008 156.99295577 124.50097656 159.86083984 C124.495098 163.50322005 124.52561781 167.14425921 124.56609344 170.78638077 C124.59218153 173.61949543 124.59482881 176.45229666 124.59120178 179.28551483 C124.59367813 181.2705165 124.6182261 183.25545225 124.64343262 185.24029541 C124.56117259 196.15399279 121.59572102 205.27662703 115 214 C114.195625 215.2065625 114.195625 215.2065625 113.375 216.4375 C106.53966684 223.81246472 96.97897938 229.40986877 87 231 C84.20309744 231.08199733 81.43263994 231.11660269 78.63671875 231.09765625 C77.84473587 231.0962413 77.05275299 231.09482635 76.23677063 231.09336853 C73.72030781 231.08779457 71.20393569 231.07524693 68.6875 231.0625 C66.97591275 231.05748163 65.26432409 231.05291931 63.55273438 231.04882812 C59.36845492 231.03783368 55.18424281 231.02058707 51 231 C50.702146 231.77400146 50.40429199 232.54800293 50.09741211 233.34545898 C46.44409605 242.18250137 39.00148553 249.39842534 32.515625 256.2734375 C30.21500822 258.76696315 28.08272827 261.32359685 26 264 C26.680625 264.2475 27.36125 264.495 28.0625 264.75 C31.56865083 266.24197908 34.71620368 268.06835511 38 270 C38 270.66 38 271.32 38 272 C38.69222656 272.22171875 39.38445312 272.4434375 40.09765625 272.671875 C43.71536207 274.32735277 46.47514214 276.64979164 49.4375 279.25 C50.04368164 279.77795166 50.64986328 280.30590332 51.27441406 280.84985352 C62.25271483 290.53017829 72.85268252 300.76025116 81 313 C81 313.66 81 314.32 81 315 C81.66 315 82.32 315 83 315 C83.50789063 315.89460938 84.01578125 316.78921875 84.5390625 317.7109375 C85.23423763 318.93236986 85.92956078 320.15371798 86.625 321.375 C86.98891846 322.01550293 87.35283691 322.65600586 87.7277832 323.31591797 C89.81045504 326.96733779 91.95715376 330.5611047 94.1875 334.125 C112.56637746 364.6736747 114.56445752 402.9530481 114.39111328 437.55078125 C114.37480103 441.42222185 114.39120256 445.29264999 114.41015625 449.1640625 C114.43206197 477.13587606 114.43206197 477.13587606 110 486 C109.34 486 108.68 486 108 486 C107.89558594 486.59296875 107.79117187 487.1859375 107.68359375 487.796875 C106.8994359 490.32410372 105.94945476 491.4230218 104.0625 493.25 C103.53785156 493.77078125 103.01320313 494.2915625 102.47265625 494.828125 C101 496 101 496 99 496 C99 496.66 99 497.32 99 498 C92.07557718 502.23341101 86.50233444 502.57359002 78.48831177 502.52139282 C76.61429162 502.53286946 76.61429162 502.53286946 74.70241249 502.54457796 C71.25078421 502.56508356 67.79957267 502.56078871 64.34791064 502.55221677 C60.61908192 502.54727226 56.89035224 502.56532295 53.16156006 502.58029175 C45.86268592 502.60576231 38.56395902 502.6093761 31.26504792 502.60469122 C25.33090636 502.60112194 19.39680942 502.60463042 13.46267319 502.61314011 C12.6173838 502.61433048 11.77209441 502.61552086 10.90119018 502.61674731 C9.18385776 502.61917087 7.46652535 502.62159914 5.74919294 502.62403207 C-10.34821825 502.64577412 -26.4455456 502.64146233 -42.54296149 502.62926237 C-57.2600837 502.61892482 -71.97694112 502.64143418 -86.69401096 502.67945881 C-101.81616352 502.71822966 -116.93819087 502.73472517 -132.06039345 502.72721231 C-140.54610733 502.72339032 -149.03159586 502.72834313 -157.51726913 502.75664139 C-164.74131505 502.78048911 -171.9649969 502.78325688 -179.18904792 502.75906105 C-182.87251374 502.74729699 -186.55531402 502.74504462 -190.2387352 502.76906586 C-194.23779695 502.79484173 -198.23528037 502.77382377 -202.23434448 502.7484436 C-203.39038929 502.76319217 -204.54643409 502.77794074 -205.73751056 502.79313624 C-214.81634799 502.6720755 -220.80540429 499.78951014 -227.5078125 493.734375 C-228.04148438 493.07953125 -228.57515625 492.4246875 -229.125 491.75 C-229.68445313 491.08484375 -230.24390625 490.4196875 -230.8203125 489.734375 C-232 488 -232 488 -232 486 C-232.66 486 -233.32 486 -234 486 C-239.4079496 472.06158971 -238.57091516 457.44869304 -238.44952393 442.74468994 C-238.43366826 440.03192199 -238.44357805 437.31950743 -238.45323753 434.60673046 C-238.51516185 412.89508306 -237.8198978 390.86416158 -232 369.8125 C-231.7525 368.84376953 -231.505 367.87503906 -231.25 366.87695312 C-229.88567414 361.6790137 -228.23795688 356.88226366 -226 352 C-225.3054498 350.29452087 -224.61713775 348.58647643 -223.9375 346.875 C-223.61652344 346.06804687 -223.29554688 345.26109375 -222.96484375 344.4296875 C-222.64644531 343.62789063 -222.32804687 342.82609375 -222 342 C-221.33373361 340.33317328 -220.66717788 338.66646209 -220 337 C-219.34 337 -218.68 337 -218 337 C-217.88269531 336.26265625 -217.76539063 335.5253125 -217.64453125 334.765625 C-213.95861766 318.94970489 -197.56222062 302.77693548 -186.50244141 291.53320312 C-185.24797284 290.25304995 -184.01738148 288.94955472 -182.79296875 287.640625 C-174.04414251 278.43133422 -162.91455233 270.45852848 -152 264 C-151.34 264 -150.68 264 -150 264 C-150.97810582 262.87407755 -151.95758435 261.74934767 -152.9375 260.625 C-153.57558594 259.8928125 -154.21367187 259.160625 -154.87109375 258.40625 C-156.30416955 256.78647992 -157.75519025 255.18243024 -159.22265625 253.59375 C-165.58135966 246.70061011 -171.58451479 239.81990758 -175 231 C-176.01835937 231.01047363 -177.03671875 231.02094727 -178.0859375 231.03173828 C-181.89530873 231.06817446 -185.70466481 231.0909857 -189.51416016 231.10986328 C-191.15709023 231.11986737 -192.80000274 231.13347494 -194.44287109 231.15087891 C-196.81612505 231.17537515 -199.18914185 231.18653917 -201.5625 231.1953125 C-202.28679199 231.20563507 -203.01108398 231.21595764 -203.75732422 231.22659302 C-216.69483529 231.22938448 -226.54339499 225.82256997 -235.87109375 217.18359375 C-241 211.92293578 -241 211.92293578 -241 209 C-241.66 209 -242.32 209 -243 209 C-247.76673338 201.11049071 -247.65424583 193.0122004 -247.671875 184.08203125 C-247.68476123 182.53659088 -247.69822009 180.99115518 -247.71221924 179.44572449 C-247.73606771 176.21557328 -247.7435914 172.98584816 -247.74121094 169.75561523 C-247.74080563 165.65435466 -247.79532655 161.55588306 -247.86429977 157.45528126 C-247.90920206 154.26431724 -247.91687516 151.07400449 -247.91477203 147.88275719 C-247.91943279 146.37308864 -247.93678534 144.86339486 -247.9681015 143.35404396 C-248.22425502 129.73074848 -244.21961771 120.27368799 -234.75 110.25 C-232.81690491 108.41276087 -231.28411799 107.1306528 -228.859375 106.015625 C-225.58733539 104.22837647 -225.11619592 100.36541483 -224 97 C-221.65932428 90.81043073 -219.04608156 84.87458587 -216 79 C-215.34 79 -214.68 79 -214 79 C-213.77183594 78.16726562 -213.54367188 77.33453125 -213.30859375 76.4765625 C-211.74034757 72.31017712 -209.59974192 69.00842897 -207.0625 65.375 C-206.58103516 64.67858398 -206.09957031 63.98216797 -205.60351562 63.26464844 C-201.58183212 57.57117561 -197.13709516 52.47406997 -192.3125 47.453125 C-190.00102998 45.10622458 -190.00102998 45.10622458 -188.3125 42.671875 C-187.879375 42.12015625 -187.44625 41.5684375 -187 41 C-186.34 41 -185.68 41 -185 41 C-184.73832031 40.40445313 -184.47664063 39.80890625 -184.20703125 39.1953125 C-182.0413759 35.25648303 -178.44814632 32.80463534 -175 30 C-174.05769531 29.23300781 -173.11539063 28.46601563 -172.14453125 27.67578125 C-160.94561408 18.73406529 -149.05130539 11.25491799 -136.125 5.0625 C-135.36493652 4.69697021 -134.60487305 4.33144043 -133.82177734 3.95483398 C-129.06775207 1.74897038 -124.30736738 0.07545364 -119.26342773 -1.34619141 C-117.11915894 -1.96558002 -115.03515858 -2.67699321 -112.9375 -3.4375 C-77.6909002 -14.98379993 -34.52880453 -14.3416885 0 0 Z M-164 53 C-165.41037636 54.21566953 -166.82651822 55.42470274 -168.25 56.625 C-172.23481262 60.09747957 -175.65983059 63.91048471 -179 68 C-179.46792969 68.56847656 -179.93585938 69.13695312 -180.41796875 69.72265625 C-184.01124559 74.30232282 -187.09443611 79.20114192 -190.1875 84.125 C-190.61587158 84.80626953 -191.04424316 85.48753906 -191.4855957 86.18945312 C-193.87361971 90.03726745 -196.04352439 93.90860801 -198 98 C-184.54319215 99.82006407 -184.54319215 99.82006407 -172.30078125 96.0078125 C-170.68020829 93.31225142 -170.68020829 93.31225142 -169.44921875 90.28125 C-167.70387295 86.32952366 -165.39367944 83.53253115 -162.5625 80.3125 C-162.08312988 79.75884766 -161.60375977 79.20519531 -161.10986328 78.63476562 C-140.30355071 54.78692773 -109.06135897 36.42520209 -77 34 C-72.04102218 33.83472528 -67.08642259 33.81492494 -62.125 33.8125 C-60.15853516 33.79413086 -60.15853516 33.79413086 -58.15234375 33.77539062 C-50.81174523 33.7643466 -44.12286932 34.25681348 -37 36 C-35.68209855 36.25705445 -34.36311247 36.50862728 -33.04296875 36.75390625 C-0.79145573 43.51790138 27.32154551 62.90064673 46 90 C46.31590088 90.70286133 46.63180176 91.40572266 46.95727539 92.12988281 C48.10785454 94.51060945 49.07104534 96.18058546 51 98 C54.9733548 98.99191354 58.74909854 98.75815135 62.8125 98.5 C63.88693359 98.46390625 64.96136719 98.4278125 66.06835938 98.390625 C68.71588793 98.29649065 71.35611006 98.16518356 74 98 C54.94721752 61.70699698 26.19292398 34.39504997 -13 21 C-13.78246094 20.71769531 -14.56492188 20.43539062 -15.37109375 20.14453125 C-17.56727725 19.37332243 -19.77164102 18.67234969 -22 18 C-22.83015625 17.74347656 -23.6603125 17.48695313 -24.515625 17.22265625 C-72.80287148 3.66715829 -128.08041014 18.81565603 -164 53 Z M-130 80 C-130 80.66 -130 81.32 -130 82 C-130.54398438 82.22300781 -131.08796875 82.44601563 -131.6484375 82.67578125 C-149.33580977 92.63594603 -160.87629636 116.93507205 -166.15625 135.57421875 C-172.23662824 160.26168039 -172.16205451 186.93948107 -160 210 C-159.68015137 210.6177832 -159.36030273 211.23556641 -159.03076172 211.87207031 C-154.48461686 220.58117603 -149.65035797 228.70864367 -143 236 C-142.5467334 236.50096191 -142.0934668 237.00192383 -141.62646484 237.51806641 C-124.14565996 256.60314051 -99.49276055 270.22132783 -73.34765625 272.28881836 C-69.56059662 272.40033395 -65.7884361 272.40979176 -62 272.375 C-60.73671875 272.38660156 -59.4734375 272.39820313 -58.171875 272.41015625 C-46.67522573 272.37467276 -36.15263623 270.08172964 -25.375 266.1875 C-24.6533667 265.92743164 -23.9317334 265.66736328 -23.18823242 265.39941406 C-3.19727647 257.99022551 16.11746272 243.56985636 27 225 C12.92945773 226.36549437 12.92945773 226.36549437 -1.0234375 228.59765625 C-3.99865227 228.99981783 -6.86666028 229.00170947 -9.86401367 228.98461914 C-13.05302355 229.00901001 -15.89393784 229.25395415 -19 230 C-21.25952968 232.29917055 -22.35551673 234.4481684 -23.70703125 237.36328125 C-27.22762553 244.54274089 -34.28354709 248.07539355 -41.41943359 250.95483398 C-47.49441495 252.72811881 -53.49969449 252.74162425 -59.77246094 252.65185547 C-61.99847468 252.62501839 -64.21945006 252.65173971 -66.4453125 252.68359375 C-78.95312202 252.7150335 -88.95494578 249.88927308 -98.15625 241.0546875 C-105.18535841 233.22140143 -105.61305245 224.73756719 -105.40234375 214.63671875 C-104.92309653 206.26438928 -101.17828186 199.68242862 -95.125 194 C-85.41971368 186.39164934 -76.45973098 185.79206245 -64.4453125 185.75976562 C-62.27043958 185.75009092 -60.09652541 185.71904525 -57.921875 185.6875 C-50.46708363 185.6312784 -43.92895239 185.96924967 -37 189 C-35.824375 189.391875 -34.64875 189.78375 -33.4375 190.1875 C-32.633125 190.455625 -31.82875 190.72375 -31 191 C-31 191.66 -31 192.32 -31 193 C-29.37796342 194.43067272 -27.66056672 195.69111947 -25.921875 196.9765625 C-23.13929431 199.90619013 -21.66350018 203.34838759 -20 207 C3.82599941 204.80756061 3.82599941 204.80756061 27.3125 200.4375 C28.12678467 200.24003174 28.94106934 200.04256348 29.7800293 199.83911133 C31.88086538 199.29046808 33.93634737 198.67367172 36 198 C37.12019531 197.63777344 38.24039063 197.27554688 39.39453125 196.90234375 C43.33966267 194.02186549 43.6058668 190.7898926 44.375 186.125 C44.53218506 185.23659424 44.68937012 184.34818848 44.85131836 183.43286133 C48.06352871 163.56112655 46.57777102 142.43509903 38 124 C37.566875 122.9275 37.13375 121.855 36.6875 120.75 C31.25073508 108.19499647 23.72745251 97.49557875 14.125 87.8125 C13.55322021 87.23516113 12.98144043 86.65782227 12.39233398 86.06298828 C9.69120358 83.00871844 9.69120358 83.00871844 6 82 C6 81.34 6 80.68 6 80 C-14.12484585 62.47954596 -42.56011969 55.47344204 -68.71435547 56.8359375 C-91.33816836 58.45986425 -112.00065307 66.09562017 -130 80 Z M63 122 C63.26554687 122.95777344 63.53109375 123.91554688 63.8046875 124.90234375 C71.18467755 152.3471177 70.57324696 179.68484227 63 207 C66.49971199 207.1173794 69.99890955 207.18763961 73.5 207.25 C74.48226563 207.28351563 75.46453125 207.31703125 76.4765625 207.3515625 C84.14616221 207.45382383 89.72237119 206.18904425 95.3125 200.75 C99.85409748 193.34887817 100.45753285 186.91855969 100.43359375 178.4140625 C100.4388356 177.31710052 100.44407745 176.22013855 100.44947815 175.0899353 C100.45587681 172.77871544 100.45458945 170.46746292 100.44604492 168.15625 C100.43754267 164.64263181 100.46631654 161.13064515 100.49804688 157.6171875 C100.49965944 155.36197965 100.4990803 153.10676895 100.49609375 150.8515625 C100.50732773 149.81270905 100.51856171 148.77385559 100.53013611 147.70352173 C100.45584038 139.82737653 99.23790038 132.32092347 93.5625 126.5 C89.18276227 123.93625109 85.56185048 122.75626314 80.48046875 122.5859375 C79.45888672 122.54726563 78.43730469 122.50859375 77.38476562 122.46875 C75.80211914 122.42234375 75.80211914 122.42234375 74.1875 122.375 C73.11306641 122.33632813 72.03863281 122.29765625 70.93164062 122.2578125 C68.28792912 122.16381387 65.6442195 122.07815427 63 122 Z M-188 122 C-191.54257346 122.08135065 -195.0834847 122.19415176 -198.625 122.3125 C-200.12353516 122.34633789 -200.12353516 122.34633789 -201.65234375 122.38085938 C-208.08334794 122.61510125 -212.7883263 123.22752954 -217.828125 127.578125 C-218.29734375 128.12984375 -218.7665625 128.6815625 -219.25 129.25 C-219.72953125 129.79140625 -220.2090625 130.3328125 -220.703125 130.890625 C-224.54739014 137.1433454 -224.30720822 143.9816903 -224.30078125 151.0859375 C-224.30506638 152.14229401 -224.3093515 153.19865051 -224.31376648 154.28701782 C-224.31949105 156.51425462 -224.32002391 158.7415101 -224.31567383 160.96875 C-224.31251668 164.35709888 -224.33598766 167.74457153 -224.36132812 171.1328125 C-224.36360174 173.30468641 -224.36430433 175.47656264 -224.36328125 177.6484375 C-224.372491 178.65184174 -224.38170074 179.65524597 -224.39118958 180.6890564 C-224.34515685 187.76708144 -223.6995614 194.67959491 -219.09765625 200.33984375 C-218.42605469 200.86707031 -217.75445312 201.39429688 -217.0625 201.9375 C-216.05896484 202.75541016 -216.05896484 202.75541016 -215.03515625 203.58984375 C-211.1809938 206.26038625 -208.52974943 207.25034592 -203.796875 207.1953125 C-202.8171875 207.18886719 -201.8375 207.18242187 -200.828125 207.17578125 C-199.81234375 207.15902344 -198.7965625 207.14226562 -197.75 207.125 C-196.71875 207.11597656 -195.6875 207.10695313 -194.625 207.09765625 C-192.08309713 207.07412011 -189.5416672 207.04124023 -187 207 C-187.45582979 204.66615147 -187.91408901 202.33284688 -188.375 200 C-188.51147949 199.30737061 -188.64795898 198.61474121 -188.78857422 197.90112305 C-189.46656794 194.50436654 -190.18658934 191.14670151 -191.125 187.8125 C-195.63703967 168.15289858 -193.50353094 146.01521186 -187.70703125 126.84375 C-186.69166639 124.07515977 -186.69166639 124.07515977 -188 122 Z M-82 214 C-83.12448974 217.37346922 -83.19009511 219.25690093 -82.3125 222.6875 C-80.77820932 225.39077406 -79.67621163 226.4198325 -77 228 C-72.72672757 228.55187404 -68.46172418 228.47292385 -64.15551758 228.44604492 C-62.07207283 228.43753908 -59.99137689 228.46630093 -57.90820312 228.49804688 C-56.58884766 228.49740234 -55.26949219 228.49675781 -53.91015625 228.49609375 C-52.10236694 228.49887329 -52.10236694 228.49887329 -50.25805664 228.50170898 C-46.37153476 227.90322248 -44.72583059 226.79392169 -42 224 C-40.86805762 220.10894806 -40.57061826 217.9943577 -42.1875 214.25 C-44.8315492 210.96773202 -46.65932965 209.19219478 -50.92919922 208.58007812 C-54.57860738 208.52728761 -58.22515538 208.49261912 -61.875 208.5 C-63.14214844 208.47164062 -64.40929687 208.44328125 -65.71484375 208.4140625 C-75.08287094 208.35580609 -75.08287094 208.35580609 -82 214 Z M-136.4375 282.9375 C-137.15325195 283.34500488 -137.86900391 283.75250977 -138.60644531 284.17236328 C-149.93978534 290.75015487 -159.55215438 299.01399041 -169 308 C-169.75796875 308.68191406 -170.5159375 309.36382812 -171.296875 310.06640625 C-182.99356841 320.97335941 -198.11845723 339.66028647 -200 356 C-200.66 356 -201.32 356 -202 356 C-204.41318118 362.87554415 -206.60499815 369.81234406 -208.625 376.8125 C-208.83084717 377.49747559 -209.03669434 378.18245117 -209.2487793 378.88818359 C-212.87574152 391.71255793 -213.32303337 404.81184314 -213.3359375 418.0390625 C-213.34238553 419.61990471 -213.34911528 421.2007458 -213.35610962 422.78158569 C-213.367961 426.06063613 -213.371802 429.33958206 -213.37060547 432.61865234 C-213.37040032 436.81391607 -213.39795562 441.00851723 -213.43214989 445.20362282 C-213.45437642 448.45330899 -213.4584447 451.70283272 -213.45738602 454.95258713 C-213.4597386 456.50032255 -213.46854285 458.04806268 -213.48405075 459.5957222 C-213.50367213 461.75130902 -213.49789505 463.90542413 -213.48583984 466.06103516 C-213.48868988 467.28376129 -213.49153992 468.50648743 -213.49447632 469.76626587 C-212.90359243 473.630478 -211.75980898 475.27642364 -209 478 C-205.89666117 479.03444628 -203.77123751 479.12083424 -200.51879883 479.11352539 C-198.83739555 479.11341209 -198.83739555 479.11341209 -197.12202454 479.11329651 C-195.91257675 479.10813522 -194.70312897 479.10297394 -193.45703125 479.09765625 C-192.21829758 479.0962413 -190.9795639 479.09482635 -189.70329285 479.09336853 C-186.41368463 479.08871602 -183.1241254 479.0797339 -179.83453369 479.06866455 C-176.47628377 479.05842629 -173.11802667 479.05386574 -169.75976562 479.04882812 C-163.17315788 479.03779145 -156.58658295 479.02104767 -150 479 C-149.99857498 478.1466658 -149.99714996 477.2933316 -149.99568176 476.41413879 C-149.97783999 468.36569237 -149.93619196 460.31779512 -149.86790943 452.26961231 C-149.83364237 448.13206062 -149.80852998 443.99487804 -149.80444336 439.85717773 C-149.80015966 435.86273589 -149.77169243 431.86912663 -149.72656822 427.87494469 C-149.71359526 426.35240214 -149.70928488 424.82975994 -149.71384621 423.30716896 C-149.71875433 421.1710728 -149.69265847 419.03740819 -149.65942383 416.90161133 C-149.65276199 415.6869368 -149.64610016 414.47226227 -149.63923645 413.22077942 C-148.82309794 409.10868271 -147.18784909 407.62939047 -144 405 C-140.77140153 403.38570077 -137.49006347 403.40429343 -134 404 C-130.97491855 405.73602105 -128.58209931 407.83580137 -127 411 C-126.87922947 413.15411574 -126.82253978 415.31191961 -126.79467773 417.46923828 C-126.78464501 418.14350798 -126.77461229 418.81777767 -126.76427555 419.51247978 C-126.73285514 421.69838889 -126.70810492 423.88431612 -126.68359375 426.0703125 C-126.66519356 427.41854448 -126.64635706 428.76677058 -126.6270752 430.11499023 C-126.55858974 435.11825716 -126.49856116 440.12163696 -126.4375 445.125 C-126.2209375 461.893125 -126.2209375 461.893125 -126 479 C-83.76 479 -41.52 479 2 479 C2.13087727 456.89145851 2.13087727 456.89145851 2.20776367 434.78271484 C2.24865723 430.4934082 2.24865723 430.4934082 2.27412415 428.48135376 C2.28714801 427.08500592 2.29047443 425.68854607 2.28596497 424.29214478 C2.25514167 411.02294819 2.25514167 411.02294819 5.41918945 407.09619141 C9.5277869 403.75909769 12.80925976 403.47094378 18 404 C21.51440899 405.32766562 22.68390754 406.47467331 24.6184082 409.68969727 C27.07561561 415.74986177 26.3661941 422.47963492 26.29296875 428.90234375 C26.287366 430.34965066 26.28309911 431.7969633 26.28010559 433.24427795 C26.26871009 437.03374232 26.23928949 440.82285584 26.20599365 444.61218262 C26.17517775 448.48684952 26.16157577 452.36157371 26.14648438 456.23632812 C26.11441388 463.82437783 26.06328279 471.41213955 26 479 C33.88364482 479.07606355 41.767195 479.12860577 49.65112305 479.16479492 C52.33319554 479.17818702 55.01505492 479.19906077 57.69702148 479.22631836 C61.55198251 479.26270611 65.40661733 479.279728 69.26171875 479.29296875 C70.46084396 479.30845261 71.65996918 479.32393646 72.89543152 479.33988953 C74.5766082 479.34022942 74.5766082 479.34022942 76.29174805 479.34057617 C77.76734444 479.35056892 77.76734444 479.35056892 79.27275085 479.36076355 C82.52748577 478.9302236 84.36595054 477.93493686 87 476 C89.46310325 472.30534513 89.25327146 470.46679086 89.25878906 466.05688477 C89.2622937 465.35395798 89.26579834 464.65103119 89.26940918 463.92680359 C89.27822314 461.59823776 89.27237295 459.26997531 89.265625 456.94140625 C89.26697311 455.31534263 89.26891485 453.68927941 89.27142334 452.06321716 C89.27437527 448.64765604 89.27007982 445.23219938 89.26074219 441.81665039 C89.24942901 437.46946265 89.25585452 433.1225241 89.26788712 428.7753458 C89.27517384 425.41127201 89.27278543 422.04725554 89.26763153 418.68317986 C89.26630952 417.08264066 89.26789118 415.48209603 89.27259064 413.88156319 C89.293513 404.74116135 88.87785436 395.98504448 87 387 C86.83469788 386.15245651 86.66939575 385.30491302 86.49908447 384.4316864 C84.76869683 375.59556353 82.71005704 367.2300561 79 359 C78.38898438 357.44152344 78.38898438 357.44152344 77.765625 355.8515625 C73.89246466 346.16866165 68.8565124 337.60321449 63 329 C62.6189209 328.43958008 62.2378418 327.87916016 61.84521484 327.30175781 C56.59469348 319.73530346 50.47209557 313.20694082 44 306.6875 C43.24517334 305.92703369 42.49034668 305.16656738 41.71264648 304.38305664 C38.40701902 300.52386823 38.40701902 300.52386823 34 299 C34 298.34 34 297.68 34 297 C27.05165845 291.19664475 18.80962643 286.55891898 11 282 C9.98421875 281.40703125 8.9684375 280.8140625 7.921875 280.203125 C4.57103105 278.82336573 3.3757702 278.82115961 0 280 C-1.81623743 280.8669653 -3.60668131 281.78906491 -5.375 282.75 C-33.78765295 297.30537627 -69.88128287 299.77984072 -100.16503906 290.03076172 C-107.86658459 287.44414103 -115.33818158 284.41110514 -122.5625 280.6875 C-128.37212081 277.83550433 -131.22907295 279.96420447 -136.4375 282.9375 Z " fill="#FFFFFF" transform="translate(247,151)"/>
<path d="M0 0 C0.85399572 -0.00768229 1.70799145 -0.01536458 2.58786583 -0.02327967 C3.98803412 -0.02068022 3.98803412 -0.02068022 5.41648865 -0.01802826 C6.41190989 -0.0239705 7.40733112 -0.02991275 8.43291664 -0.03603506 C11.77830453 -0.05341898 15.12354937 -0.05642639 18.46897888 -0.0594101 C20.8638642 -0.06866598 23.25874657 -0.07871524 25.65362549 -0.08950043 C32.16844599 -0.1157624 38.68323673 -0.12871548 45.19809723 -0.13752174 C49.26937378 -0.14305114 53.34064086 -0.15152689 57.41191101 -0.16053009 C68.69258528 -0.18491789 79.97325197 -0.20551328 91.25395203 -0.21228027 C91.97585755 -0.21271941 92.69776308 -0.21315854 93.44154453 -0.21361098 C94.52695105 -0.21426581 94.52695105 -0.21426581 95.63428497 -0.21493387 C97.10050456 -0.21582079 98.56672415 -0.21671392 100.03294373 -0.21761322 C100.76023461 -0.21805608 101.4875255 -0.21849894 102.23685551 -0.21895522 C114.00738708 -0.22684212 125.77767032 -0.26172104 137.54810607 -0.30833226 C149.64395324 -0.35584361 161.73967608 -0.38068793 173.83561802 -0.38301611 C180.62240684 -0.38484538 187.40887246 -0.39624136 194.1955719 -0.43265533 C200.58476698 -0.46567477 206.97335019 -0.46990013 213.36260033 -0.45237732 C215.70223825 -0.45083948 218.04190944 -0.45948387 220.381464 -0.47929382 C243.08549997 -0.66019534 243.08549997 -0.66019534 252.71507263 6.26285553 C254.29095154 7.38820709 254.29095154 7.38820709 255.89866638 8.53629303 C260.7112005 13.02354321 264.80760861 17.31626875 267.71507263 23.26285553 C268.22308914 24.14893494 268.73110565 25.03501434 269.2545166 25.94794464 C271.826111 32.04323297 271.14081 38.91873075 271.11912537 45.41861725 C271.12483305 46.96168257 271.13179885 48.50474367 271.1399231 50.04779816 C271.15782709 54.22560182 271.15669118 58.40319513 271.15098071 62.5810256 C271.14788442 66.07491532 271.1539863 69.56876489 271.16001946 73.06264889 C271.17405442 81.30894332 271.17251237 89.55513413 271.16111755 97.80142975 C271.14964105 106.29424058 271.1637064 114.78673546 271.19051403 123.27950466 C271.21270387 130.58420716 271.21930091 137.88881071 271.21343762 145.19354451 C271.21007423 149.55053533 271.21244166 153.90732372 271.22968864 158.26428604 C271.24520789 162.36352279 271.2411475 166.46229333 271.2223835 170.56151199 C271.21871113 172.06064009 271.22176645 173.55980312 271.23226929 175.05889893 C271.28486714 183.19107866 271.00990193 190.11534699 266.71507263 197.26285553 C266.05507263 197.26285553 265.39507263 197.26285553 264.71507263 197.26285553 C264.45983826 198.00535553 264.20460388 198.74785553 263.94163513 199.51285553 C260.37591527 207.50733573 251.88730306 213.25393383 243.93160439 216.34396935 C235.77295084 219.04243857 228.57811588 219.79816612 220.02122498 219.65006256 C218.02429724 219.64127451 216.02736942 219.63249893 214.03043962 219.62419391 C211.91194395 219.61183482 209.79373812 219.58981866 207.67535019 219.56531906 C203.23539443 219.51580235 198.79580656 219.50406668 194.35560608 219.498909 C181.73969741 219.47920087 169.12439302 219.41975678 156.50901794 219.30094147 C149.5194499 219.23543483 142.53065879 219.20608138 135.54078066 219.21561897 C131.136097 219.21961635 126.73475921 219.17998768 122.33071494 219.10692906 C118.936945 219.06385854 115.54413867 219.08675467 112.15013123 219.09928131 C110.3465641 219.04995201 110.3465641 219.04995201 108.50656128 218.99962616 C99.98239773 219.122945 95.94206393 221.70680603 90.02741432 227.78056908 C88.88280519 229.00930087 88.88280519 229.00930087 87.71507263 230.26285553 C86.43887141 231.42588917 85.15069109 232.57624874 83.84007263 233.70035553 C83.20972107 234.24949615 82.57936951 234.79863678 81.92991638 235.36441803 C79.65965338 237.31035774 77.37311223 239.23631295 75.0844574 241.16056061 C69.338778 245.99380377 63.72345594 250.92738406 58.18772888 256.00113678 C51.60355132 262.02363095 44.80657805 267.8059348 37.96116638 273.52848053 C35.91834096 275.23674148 33.92377953 276.97067889 31.93772888 278.74723053 C25.03333639 284.74734974 25.03333639 284.74734974 20.52757263 285.07535553 C16.05156811 284.12145293 12.91451413 282.55503446 9.71507263 279.26285553 C5.64312192 267.04700338 9.98605335 249.67340772 12.20726013 237.26285553 C13.21844504 231.28908624 13.94347389 225.27147552 14.71507263 219.26285553 C13.65933044 219.34986725 13.65933044 219.34986725 12.58226013 219.43863678 C0.86065735 219.97421915 -9.87008892 216.22983598 -19.28492737 209.26285553 C-19.28492737 208.60285553 -19.28492737 207.94285553 -19.28492737 207.26285553 C-19.85082581 207.0540274 -20.41672424 206.84519928 -20.99977112 206.63004303 C-24.15747189 204.74082034 -25.72437357 202.38384008 -27.84742737 199.38785553 C-28.61184143 198.33855865 -29.37625549 197.28926178 -30.16383362 196.20816803 C-35.63650586 187.11115603 -35.7225101 176.35271738 -35.67311096 166.05582428 C-35.67718739 164.67452329 -35.68253521 163.29322558 -35.68904114 161.9119339 C-35.70259352 158.19699821 -35.69746672 154.48231545 -35.68790388 150.76737595 C-35.680244 146.8572528 -35.68737029 142.94714956 -35.69206238 139.03702545 C-35.69750167 132.47391674 -35.69037654 125.9109097 -35.67604065 119.34781647 C-35.65971763 111.78828246 -35.66500744 104.22899129 -35.68151987 96.66946316 C-35.69518707 90.14847217 -35.69702895 83.62755378 -35.68920386 77.10655308 C-35.68455596 73.22521301 -35.68382217 69.34398662 -35.69381332 65.46265411 C-35.70255745 61.81153265 -35.69632729 58.16072058 -35.67913055 54.50963211 C-35.67335071 52.55112621 -35.68211724 50.59259376 -35.69151306 48.63410187 C-35.5929202 34.71877576 -32.80673365 22.84975371 -23.09742737 12.57535553 C-18.61211476 8.28505651 -13.75993351 5.14692612 -8.28492737 2.26285553 C-7.66665605 1.91370417 -7.04838472 1.56455281 -6.41137791 1.20482111 C-4.08243146 0.17315479 -2.53420699 0.00858126 0 0 Z M-6.53883362 29.41129303 C-6.97066956 30.14605865 -7.40250549 30.88082428 -7.84742737 31.63785553 C-8.30246643 32.3674649 -8.75750549 33.09707428 -9.22633362 33.84879303 C-11.21865997 38.39217933 -11.41033397 43.10339851 -11.42536926 48.0109787 C-11.43107941 49.13371689 -11.43678955 50.25645508 -11.44267273 51.41321564 C-11.44379059 52.63050354 -11.44490845 53.84779144 -11.44606018 55.10196686 C-11.45102509 56.39536484 -11.45598999 57.68876282 -11.46110535 59.02135468 C-11.47417519 62.55868046 -11.48066349 66.09598731 -11.485116 69.63333344 C-11.48805506 71.84691192 -11.49216137 74.06048531 -11.49662018 76.2740612 C-11.51027986 83.21042124 -11.5199544 90.14676955 -11.52382207 97.0831421 C-11.52830141 105.07082798 -11.54584992 113.05834263 -11.57482266 121.04597646 C-11.59648307 127.23387619 -11.60652864 133.42172788 -11.60786319 139.6096651 C-11.60890795 143.29931819 -11.61474554 146.98880998 -11.6326828 150.67842293 C-11.65232057 154.79757355 -11.64785721 158.91636823 -11.64137268 163.03556061 C-11.65058746 164.24677582 -11.65980225 165.45799103 -11.66929626 166.70590973 C-11.63021637 174.64375667 -10.77631506 181.2588396 -6.53492737 188.07535553 C0.61520119 195.02686941 7.10810832 194.79269082 16.71507263 194.76285553 C32.07847132 194.71514311 32.07847132 194.71514311 37.71507263 199.26285553 C42.02694901 206.2814705 39.38098101 215.70966612 38.21507263 223.38785553 C37.3094953 229.4005627 36.51271467 235.17525344 36.71507263 241.26285553 C40.80182442 239.01885728 43.95867888 236.3369639 47.34007263 233.13785553 C51.214831 229.51250138 55.14088782 226.02988233 59.27757263 222.70035553 C64.06517418 218.84405976 68.61458257 214.78045981 73.14085388 210.62223053 C76.61283986 207.44001576 80.14109954 204.32976608 83.71507263 201.26285553 C85.04538513 200.11816803 85.04538513 200.11816803 86.40257263 198.95035553 C90.67495144 195.8326737 94.34777133 195.01297081 99.59091187 195.00457001 C100.76709579 194.997742 101.94327972 194.990914 103.15510559 194.98387909 C104.43680634 194.98643204 105.71850708 194.98898499 107.03904724 194.9916153 C108.40934559 194.98722574 109.77964127 194.98192274 111.14993286 194.97577667 C114.09589201 194.96429378 117.04177939 194.95881852 119.98776054 194.95789528 C124.64836012 194.95595161 129.30881161 194.93788244 133.96936035 194.91713715 C145.5448144 194.86799053 157.12030858 194.83706746 168.69584656 194.81583405 C177.69372838 194.79930439 186.69148299 194.77647501 195.68927962 194.7328133 C200.31988324 194.71105717 204.95024505 194.70297716 209.58089626 194.70520604 C212.46456592 194.70353673 215.34807829 194.68947272 218.23169136 194.67199326 C220.20094815 194.66374478 222.17024964 194.67031683 224.13951111 194.67736053 C225.31851486 194.66771271 226.49751862 194.65806488 227.71224976 194.64812469 C229.24282469 194.6451077 229.24282469 194.6451077 230.80432034 194.64202976 C235.81528054 193.98926828 239.73579503 191.8095197 242.96507263 187.95035553 C243.44460388 187.39734772 243.92413513 186.8443399 244.41819763 186.27457428 C247.23238477 181.90919363 247.96533708 177.48533807 247.98249817 172.36960602 C247.99102814 171.21465637 247.99955811 170.05970673 248.00834656 168.86975861 C248.00744019 167.61663879 248.00653381 166.36351898 248.00559998 165.07242584 C248.01158995 163.72817361 248.01839657 162.38392481 248.0259552 161.03968048 C248.04357721 157.39896607 248.04830904 153.75834576 248.04958677 150.11759281 C248.05101137 147.83900546 248.05528685 145.5604418 248.06058121 143.28186035 C248.07907065 135.32108297 248.0872534 127.36037243 248.0856781 119.39957428 C248.08447778 111.99800094 248.10556118 104.59671971 248.13716543 97.19522023 C248.16338712 90.82555507 248.1740429 84.45598495 248.17276728 78.08626628 C248.17225927 74.28867357 248.17785244 70.49134047 248.19912338 66.69380188 C248.21860503 63.1182297 248.21856346 59.54316209 248.20409012 55.96757126 C248.20102947 54.04437797 248.21760982 52.12118408 248.23497009 50.19806671 C248.17925671 42.45283673 247.50641564 34.79552176 242.33855247 28.61718369 C236.44391018 23.28959782 229.98853205 22.96823605 222.48100281 22.99542999 C221.56004908 22.99089888 220.63909536 22.98636777 219.69023395 22.98169935 C216.60894405 22.96905453 213.52783089 22.97067579 210.44651794 22.97232819 C208.23528313 22.96634296 206.02405041 22.95953742 203.81282043 22.95197296 C197.80855238 22.9343043 191.80434132 22.92961718 185.80004978 22.92834139 C182.04738078 22.92691961 178.29472626 22.92264949 174.54206085 22.91734695 C162.12187934 22.89979801 149.70172558 22.89050706 137.28153315 22.8920079 C136.27797113 22.89212777 136.27797113 22.89212777 135.25413513 22.89225006 C134.24934089 22.8923727 134.24934089 22.8923727 133.22424778 22.89249782 C122.37402726 22.89331031 111.52394568 22.87418065 100.67376533 22.84597333 C89.52030175 22.8172075 78.36688897 22.80380091 67.21338344 22.80516088 C60.95661241 22.80567039 54.69999863 22.79999335 48.44326019 22.77880478 C42.55644655 22.75941339 36.66993999 22.75930438 30.78311539 22.77383804 C28.62647935 22.77592616 26.46982404 22.77122512 24.31322098 22.75911713 C21.36081479 22.74361914 18.40946148 22.75300317 15.45707703 22.76837921 C14.61094384 22.75809209 13.76481066 22.74780496 12.89303708 22.7372061 C5.84987109 22.81783283 -1.31985214 24.43652732 -6.53883362 29.41129303 Z " fill="#FFFFFF" transform="translate(382.28492736816406,-0.26285552978515625)"/>
<path d="M0 0 C3.95181503 2.69727058 7.61781632 5.61159907 11 9 C11 9.66 11 10.32 11 11 C11.56203125 11.24363281 12.1240625 11.48726563 12.703125 11.73828125 C15.44019785 13.24180936 17.45795941 15.06699748 19.75 17.1875 C20.63171875 17.99445313 21.5134375 18.80140625 22.421875 19.6328125 C23.69804687 20.80457031 23.69804687 20.80457031 25 22 C30.19604649 26.66862824 35.54885541 31.05025212 41.09375 35.30078125 C41.7228125 35.86152344 42.351875 36.42226563 43 37 C43 37.66 43 38.32 43 39 C43.54140625 39.2371875 44.0828125 39.474375 44.640625 39.71875 C47.63250137 41.34347757 50.11159399 43.3501877 52.75 45.5 C53.73484375 46.2940625 54.7196875 47.088125 55.734375 47.90625 C56.48203125 48.5971875 57.2296875 49.288125 58 50 C58 50.66 58 51.32 58 52 C58.58016876 52.23584305 59.16033752 52.4716861 59.75808716 52.7146759 C62 54 62 54 63.80221558 56.13041687 C67.50435162 60.48832102 70.88519166 63.11318725 76.61138916 63.80801392 C82.42997859 64.18888779 88.24425892 64.06273938 94.0703125 63.95703125 C96.23728982 63.95251889 98.40428096 63.95257284 100.57125854 63.95695496 C106.26373361 63.95891323 111.95457433 63.91079517 117.64666748 63.84838867 C126.73271967 63.75464078 135.81885104 63.7266185 144.90533066 63.71875572 C148.05396144 63.70731769 151.20130107 63.66803625 154.34963989 63.62519836 C169.06861301 63.50571764 185.11282502 63.99877105 197 74 C197 74.66 197 75.32 197 76 C197.58523438 76.23976563 198.17046875 76.47953125 198.7734375 76.7265625 C201.44248591 78.25307089 202.77846422 79.92650983 204.625 82.375 C205.51058594 83.53128906 205.51058594 83.53128906 206.4140625 84.7109375 C209.03723782 88.49709695 210 90.28284811 210 95 C210.66 95 211.32 95 212 95 C212.1405504 111.22102346 212.246156 127.44184752 212.31087303 143.66333389 C212.34172942 151.19633669 212.3837507 158.72895978 212.45263672 166.26171875 C212.51269276 172.83207717 212.5512088 179.40216042 212.56453097 185.97278571 C212.57231101 189.44772166 212.59041896 192.92187085 212.63438034 196.39655304 C212.68321253 200.28827462 212.68392316 204.17924691 212.68115234 208.07128906 C212.702724 209.20633881 212.72429565 210.34138855 212.746521 211.51083374 C212.66790912 221.77270663 208.79780799 230.87359327 201.75390625 238.4140625 C191.70026136 247.50488616 181.36906014 252.15588734 167.86651611 252.14044189 C167.05188361 252.14341302 166.23725111 252.14638414 165.39793277 252.1494453 C162.6705515 252.15811095 159.94321425 252.15963874 157.21582031 252.16113281 C155.25926622 252.16576249 153.30271303 252.17078735 151.34616089 252.17617798 C146.03197291 252.18928938 140.71779755 252.19574446 135.40359592 252.20018864 C132.08228193 252.20312133 128.76097138 252.20722651 125.43965912 252.21169281 C115.04445832 252.22536428 104.64926539 252.23503271 94.25405622 252.2388947 C82.26089919 252.24337505 70.26785615 252.2609234 58.27473378 252.2898953 C48.99983209 252.31152183 39.72496245 252.3215995 30.45003581 252.32293582 C24.9126222 252.32398312 19.3753158 252.32987523 13.83792877 252.34775543 C8.62749256 252.36425289 3.41724397 252.36638342 -1.79320908 252.35761642 C-3.70193103 252.35684696 -5.61066314 252.36117682 -7.51935959 252.37107468 C-10.13265522 252.38382796 -12.74528972 252.37789921 -15.35858154 252.36749268 C-16.48142677 252.37957728 -16.48142677 252.37957728 -17.62695575 252.39190602 C-29.69102492 252.28017215 -41.35275705 246.16684057 -50 238 C-62.53449748 222.35912706 -62.46288414 204.7424908 -62.3984375 185.66015625 C-62.40046425 183.52273968 -62.40338066 181.38532378 -62.40713501 179.24790955 C-62.41153103 174.79093779 -62.40521634 170.33414772 -62.39111328 165.87719727 C-62.37403373 160.20790394 -62.38387252 154.53903725 -62.40183067 148.86975956 C-62.41275145 144.46240617 -62.40918425 140.05515133 -62.4014473 135.64779472 C-62.39946759 133.55933009 -62.40182469 131.47085606 -62.40888596 129.38240242 C-62.45902186 110.39144024 -62.10964685 91.44559082 -48 77 C-37.25143215 67.78362541 -25.87986452 64.87281905 -12 63 C-12.45312336 58.60361377 -12.9134823 54.20801231 -13.375 49.8125 C-13.56449219 47.97268555 -13.56449219 47.97268555 -13.7578125 46.09570312 C-14.50556217 39.01077499 -15.40295868 31.97881686 -16.5402832 24.94555664 C-19.02343934 9.035159 -19.02343934 9.035159 -15 3 C-10.62091226 -0.9746865 -5.59394401 -2.35331438 0 0 Z M10 41 C10.40657378 47.0344108 10.93422672 52.98030458 12 58.9375 C15.33724382 78.34955948 15.33724382 78.34955948 11 85 C7.22628095 87.79583646 4.50581974 88.37513204 -0.1484375 88.40625 C-1.31890625 88.42816406 -2.489375 88.45007813 -3.6953125 88.47265625 C-5.51675781 88.48619141 -5.51675781 88.48619141 -7.375 88.5 C-17.61001086 88.57654388 -25.21190003 88.64457225 -33 96 C-36.10640115 100.43771592 -37.11990583 104.13690333 -37.14044189 109.49604797 C-37.14615204 110.391745 -37.15186218 111.28744202 -37.15774536 112.21028137 C-37.15886322 113.18543198 -37.15998108 114.16058258 -37.16113281 115.1652832 C-37.16609772 116.19825531 -37.17106262 117.23122742 -37.17617798 118.29550171 C-37.19078701 121.71393499 -37.19759943 125.13232187 -37.203125 128.55078125 C-37.20887736 130.92726137 -37.21463508 133.30374147 -37.22039795 135.68022156 C-37.23090426 140.66433936 -37.2367494 145.64844104 -37.24023438 150.63256836 C-37.24571918 157.01484771 -37.2697487 163.39691372 -37.29820633 169.77912617 C-37.31684178 174.6888033 -37.3220388 179.59842914 -37.32357025 184.50813866 C-37.32659509 186.86083327 -37.33461791 189.21352702 -37.34775543 191.5661869 C-37.36483492 194.85980024 -37.36293081 198.15289339 -37.35644531 201.4465332 C-37.3656601 202.41561111 -37.37487488 203.38468903 -37.3843689 204.38313293 C-37.34167051 211.31524992 -35.98204353 215.72200493 -32.375 221.6875 C-24.07605844 229.76804836 -13.01093155 228.57545969 -2.22070312 228.53344727 C-0.31281367 228.54051173 1.59507019 228.54925896 3.50294495 228.55955505 C8.66616714 228.58199788 13.82908206 228.57912147 18.99233437 228.57023358 C23.30897384 228.56511297 27.62555612 228.57242486 31.94218969 228.57970566 C42.12736382 228.59668799 52.31238805 228.59315502 62.49755859 228.57641602 C72.99334495 228.55948926 83.48871557 228.57534077 93.98445654 228.6076389 C103.00893903 228.63435402 112.03329225 228.64160579 121.05781031 228.63312382 C126.4420714 228.62820112 131.82608232 228.63037507 137.21031189 228.65091133 C142.27321423 228.66929901 147.33551935 228.66327183 152.39838982 228.63871193 C154.25228008 228.6337142 156.10621611 228.63716676 157.96006966 228.64986038 C171.42317123 229.06438326 171.42317123 229.06438326 183 223 C187.10028699 217.83489298 189.11452324 213.21058613 189.14044189 206.58660889 C189.14615204 205.70918533 189.15186218 204.83176178 189.15774536 203.92774963 C189.15886322 202.97287155 189.15998108 202.01799347 189.16113281 201.03417969 C189.16609772 200.02232101 189.17106262 199.01046234 189.17617798 197.96794128 C189.19078692 194.61924561 189.1975998 191.27059732 189.203125 187.921875 C189.20887784 185.59263101 189.21463556 183.26338703 189.22039795 180.93414307 C189.23090457 176.04837829 189.23674935 171.16262995 189.24023438 166.27685547 C189.24571595 160.02470894 189.26973845 153.77278053 189.29820633 147.52070236 C189.31685595 142.70792003 189.32203957 137.89518998 189.32357025 133.08237457 C189.32659244 130.7779547 189.33460627 128.47353565 189.34775543 126.16915131 C189.36486285 122.94039963 189.3629239 119.71217739 189.35644531 116.48339844 C189.37026749 115.0632267 189.37026749 115.0632267 189.3843689 113.61436462 C189.34036968 106.59314751 188.03602407 101.31796515 184.3125 95.25 C178.11207527 89.21715432 171.63621513 88.42019478 163.27294922 88.51757812 C161.7055751 88.51170937 161.7055751 88.51170937 160.10653687 88.50572205 C157.84982784 88.49976775 155.59308022 88.50287946 153.33639145 88.5141449 C149.76331117 88.5314504 146.19103675 88.52387552 142.61795044 88.5098877 C135.03691158 88.48458509 127.45606391 88.49005236 119.875 88.5 C111.08099003 88.51152757 102.28737246 88.51039933 93.49341202 88.47593689 C89.9756802 88.46884275 86.45857018 88.4855184 82.94088745 88.50305176 C80.78334213 88.49734454 78.62579936 88.49052759 76.46826172 88.48242188 C75.49252197 88.49373642 74.51678223 88.50505096 73.51147461 88.51670837 C67.62323176 88.46382193 64.60993573 87.67537618 60 84 C59.34 84 58.68 84 58 84 C58 83.34 58 82.68 58 82 C56.28048026 80.46148234 54.49812503 78.99268241 52.6875 77.5625 C47.20858941 73.2151814 47.20858941 73.2151814 45.26953125 71.21484375 C44.05202499 69.76954198 44.05202499 69.76954198 42 70 C41.505 68.515 41.505 68.515 41 67 C39.42945794 65.58303493 37.79253336 64.23893184 36.125 62.9375 C31.09859314 58.92810932 26.32751717 54.72523098 21.58984375 50.375 C19.20328035 48.18641697 16.80090833 46.01983161 14.375 43.875 C13.74335938 43.31554687 13.11171875 42.75609375 12.4609375 42.1796875 C11.18329092 40.89529329 11.18329092 40.89529329 10 41 Z " fill="#FFFFFF" transform="translate(441,315)"/>
<path d="M0 0 C7.98750153 6.16254257 12.38146817 14.86425824 13.7734375 24.765625 C14.26772951 34.72951129 10.93346571 43.11831092 4.609375 50.7578125 C-1.21960215 56.84070343 -7.81834389 60.54892871 -16.25 61.0234375 C-27.89215159 61.24516604 -35.67939654 59.70233925 -44.640625 51.8203125 C-52.16315533 43.95584897 -54.89995959 35.95555974 -54.80859375 25.2109375 C-54.53464717 21.31197685 -53.63888551 17.59052854 -52.640625 13.8203125 C-51.980625 13.8203125 -51.320625 13.8203125 -50.640625 13.8203125 C-50.599375 13.1396875 -50.558125 12.4590625 -50.515625 11.7578125 C-48.76071453 5.86632734 -43.7836369 1.26589478 -38.75390625 -2.11328125 C-26.09900649 -8.49921033 -11.76802362 -7.56515804 0 0 Z M-27.640625 19.8203125 C-30.2108742 22.83370812 -30.88026736 25.0197066 -30.578125 28.8828125 C-30.09434183 31.52117639 -29.54722846 32.9759734 -28.140625 35.3203125 C-24.34709663 37.59642952 -20.94260218 37.67764603 -16.640625 36.8203125 C-13.390625 35.0703125 -13.390625 35.0703125 -11.640625 31.8203125 C-11.01725401 28.69232594 -10.9922347 25.94543691 -11.640625 22.8203125 C-13.51683113 20.31870432 -14.87953803 19.20085598 -17.640625 17.8203125 C-21.52857611 17.56675047 -24.42526289 17.49194684 -27.640625 19.8203125 Z " fill="#FFFFFF" transform="translate(597.640625,81.1796875)"/>
<path d="M0 0 C2.3007182 1.7207052 4.41031569 3.53052879 6.51171875 5.48828125 C7.08921875 5.98972656 7.66671875 6.49117187 8.26171875 7.0078125 C13.97100681 12.64573446 16.25204806 21.18126161 16.63671875 29.04296875 C16.44568872 31.27961197 16.06435101 33.31327858 15.51171875 35.48828125 C15.310625 36.33261719 15.10953125 37.17695312 14.90234375 38.046875 C12.32609477 47.67918368 7.63246324 52.90968286 -0.48828125 58.48828125 C-8.87462578 63.23526872 -18.62104191 63.91851793 -28.0390625 61.95703125 C-36.73971217 58.84844962 -44.61983519 52.5570513 -48.86328125 44.30078125 C-52.79760075 35.9018644 -53.10091782 24.83414846 -49.98828125 16.11328125 C-46.57056893 8.84155291 -40.66458369 2.14678837 -33.48828125 -1.51171875 C-22.31275971 -5.52792181 -10.53689805 -6.40153775 0 0 Z M-26.48828125 23.48828125 C-28.10536083 26.72244041 -28.05650501 29.9920339 -27.48828125 33.48828125 C-25.45875577 36.63077232 -24.01872494 38.12573491 -20.328125 39 C-15.78332618 39.34142896 -14.00485954 38.92052023 -10.42578125 35.92578125 C-8.18202416 31.94492189 -7.75288072 29.98239559 -8.48828125 25.48828125 C-10.2839053 22.73499104 -11.54083047 20.96200664 -14.48828125 19.48828125 C-19.98851967 18.96939083 -22.55632626 19.55632626 -26.48828125 23.48828125 Z " fill="#FFFFFF" transform="translate(442.48828125,79.51171875)"/>
<path d="M0 0 C6.0982524 5.0360568 12.0193405 11.32486298 13.6875 19.25 C14.39172761 29.49148159 14.94317767 38.58189344 8.6875 47.25 C8.2646875 47.89066406 7.841875 48.53132813 7.40625 49.19140625 C2.86270718 55.3066979 -4.19223317 58.87657772 -11.3125 61.25 C-22.8851924 61.91938821 -31.94680474 61.53246237 -41.359375 54.046875 C-48.1628976 47.78763421 -52.79408487 41.0303287 -53.625 31.765625 C-53.88310864 23.7319936 -53.07585701 17.3902979 -49.3125 10.25 C-48.6525 10.25 -47.9925 10.25 -47.3125 10.25 C-47.10625 9.528125 -46.9 8.80625 -46.6875 8.0625 C-43.70198007 1.95575469 -36.68845179 -2.16282076 -30.40625 -4.44140625 C-20.16962767 -7.34584473 -8.79661547 -6.27850035 0 0 Z M-27.3125 21.25 C-29.20691323 24.34994892 -29.31573683 26.15775048 -29.1875 29.8125 C-28.19557099 33.70936397 -27.72299703 35.11843936 -24.3125 37.25 C-21.18204507 37.87023967 -18.44090072 37.89129427 -15.3125 37.25 C-11.90278284 34.83478368 -10.62909378 33.19978135 -9.3125 29.25 C-9.3125 25.59076304 -10.07006777 24.11103423 -12.3125 21.25 C-14.68412473 18.87837527 -15.89765949 18.30295836 -19.25 17.875 C-22.76707057 18.3056617 -24.55710213 19.03037394 -27.3125 21.25 Z " fill="#FFFFFF" transform="translate(520.3125,80.75)"/>
<path d="M0 0 C1.36430145 -0.00788544 1.36430145 -0.00788544 2.75616455 -0.01593018 C5.75688955 -0.02911316 8.75708228 -0.02039801 11.7578125 -0.01025391 C13.84619244 -0.01227513 15.93457169 -0.01518697 18.02294922 -0.01895142 C22.39752937 -0.02337247 26.77192562 -0.01695065 31.14648438 -0.00292969 C36.75213255 0.01416194 42.35734981 0.00431961 47.96298218 -0.01364708 C52.27469119 -0.02449074 56.58629815 -0.02103587 60.89801025 -0.0132637 C62.96486461 -0.01126331 65.03172826 -0.0137153 67.09857178 -0.02070236 C69.987839 -0.02832629 72.87640962 -0.01669919 75.765625 0 C77.04533173 -0.00910904 77.04533173 -0.00910904 78.35089111 -0.0184021 C84.44493792 0.04680642 87.74376911 1.30695219 92.1953125 5.63818359 C94.3864234 9.20888285 94.39044826 11.25457809 93.8828125 15.38818359 C92.5769304 19.55068279 91.11009152 21.5479604 87.31726074 23.53161621 C82.79383493 25.67761638 78.88017975 25.95642387 73.93164062 25.90576172 C73.07525497 25.912771 72.21886932 25.91978027 71.33653259 25.92700195 C68.52870469 25.94448964 65.72189919 25.93299228 62.9140625 25.91943359 C60.94925749 25.92213116 58.98445378 25.92601579 57.01965332 25.93103027 C52.91092156 25.93691283 48.80253871 25.92840244 44.69384766 25.90966797 C39.44156365 25.88687928 34.19009737 25.90000903 28.93784332 25.92395782 C24.88334045 25.9384494 20.82902971 25.93379441 16.77452087 25.92344666 C14.83853558 25.92078865 12.90253254 25.92401634 10.96656799 25.93336487 C8.25524039 25.94358597 5.54521558 25.92795239 2.83398438 25.90576172 C1.64765663 25.9179071 1.64765663 25.9179071 0.43736267 25.93029785 C-5.1437521 25.84617196 -9.45709566 24.51636324 -14.1171875 21.38818359 C-17.2124635 17.99092945 -18.13563064 16.43944244 -18.0546875 11.82568359 C-16.86269349 7.45503889 -15.66649578 4.61602524 -12.07763672 1.77182007 C-7.98909223 -0.13905861 -4.46054135 -0.03175044 0 0 Z " fill="#FFFFFF" transform="translate(517.1171875,433.61181640625)"/>
<path d="M0 0 C1.38896233 -0.01555183 1.38896233 -0.01555183 2.8059845 -0.03141785 C5.85686994 -0.05844897 8.90631386 -0.04883402 11.95727539 -0.03637695 C14.08427836 -0.04228748 16.211278 -0.04953488 18.33827209 -0.05805969 C22.79274854 -0.0699337 27.24672512 -0.06324279 31.70117188 -0.04394531 C37.40227666 -0.02106728 43.10189018 -0.04783026 48.80284786 -0.08900738 C53.19448428 -0.11461549 57.58576537 -0.11199707 61.97744942 -0.10111427 C64.07894812 -0.09962983 66.18047435 -0.10729159 68.28190422 -0.12436485 C71.22400485 -0.1443875 74.16348765 -0.12590384 77.10546875 -0.09765625 C77.96854645 -0.11137268 78.83162415 -0.12508911 79.72085571 -0.13922119 C85.31145496 -0.03225122 88.24950952 1.28173523 92.35039616 5.0917387 C94.30384568 7.51398389 94.35298671 9.36745121 94.11743164 12.4128418 C94.04008789 13.82823242 94.04008789 13.82823242 93.96118164 15.2722168 C93.61743164 17.6628418 93.61743164 17.6628418 92.61743164 19.6628418 C91.95743164 19.6628418 91.29743164 19.6628418 90.61743164 19.6628418 C90.61743164 20.3228418 90.61743164 20.9828418 90.61743164 21.6628418 C87.78884314 23.25914519 85.76105927 23.91331174 82.51879883 23.91680908 C81.71132202 23.92244873 80.90384521 23.92808838 80.07189941 23.93389893 C79.1948938 23.92985046 78.31788818 23.925802 77.41430664 23.92163086 C76.01855408 23.92688782 76.01855408 23.92688782 74.59460449 23.93225098 C71.51880432 23.94105345 68.44323415 23.93522431 65.36743164 23.9284668 C63.23038692 23.92981387 61.0933425 23.93175476 58.95629883 23.93426514 C54.477428 23.93721439 49.99863695 23.93292509 45.51977539 23.92358398 C39.77620087 23.91218962 34.03281327 23.91875014 28.28924561 23.93072891 C23.87636911 23.93795283 19.463537 23.93565712 15.05065918 23.93047333 C12.93273903 23.92913831 10.81481487 23.93077939 8.69689941 23.93543243 C5.73800977 23.94050633 2.77942366 23.93277513 -0.17944336 23.92163086 C-1.05644897 23.92567932 -1.93345459 23.92972778 -2.83703613 23.93389893 C-3.64451294 23.92825928 -4.45198975 23.92261963 -5.28393555 23.91680908 C-5.98299011 23.91605503 -6.68204468 23.91530098 -7.40228271 23.91452408 C-9.72388104 23.61946303 -11.3563967 22.80630423 -13.38256836 21.6628418 C-13.38256836 21.0028418 -13.38256836 20.3428418 -13.38256836 19.6628418 C-14.04256836 19.6628418 -14.70256836 19.6628418 -15.38256836 19.6628418 C-17.59721913 11.84342101 -17.59721913 11.84342101 -16.88256836 7.9128418 C-12.26641071 0.98860532 -7.88933455 -0.0779731 0 0 Z " fill="#FFFFFF" transform="translate(440.382568359375,488.337158203125)"/>
<path d="M0 0 C0.84055435 -0.0038269 1.6811087 -0.00765381 2.5471344 -0.01159668 C4.31797489 -0.01430842 6.08885593 -0.006999 7.85961914 0.00976562 C10.5551179 0.0311604 13.24794357 0.00995427 15.94335938 -0.015625 C17.67057875 -0.01298107 19.39779647 -0.00785473 21.125 0 C21.92312607 -0.00809692 22.72125214 -0.01619385 23.54356384 -0.02453613 C29.17089166 0.06871083 32.49576607 1.29974776 37.12890625 4.53125 C39.52115855 8.37965588 39.59769041 12.07780045 39.12890625 16.53125 C36.92418217 21.11707609 34.78511648 23.04366684 30.08688354 24.93118286 C26.85379366 25.92203756 23.63751738 25.97924682 20.2890625 25.96484375 C19.56327499 25.9700856 18.83748749 25.97532745 18.08970642 25.98072815 C16.56445588 25.98711175 15.03915587 25.98585915 13.51391602 25.97729492 C11.20042934 25.9687832 8.88941554 25.99759514 6.57617188 26.02929688 C-1.90938089 26.07020022 -8.7932043 25.96372829 -15.51147461 20.09936523 C-17.81699807 17.4402923 -17.75644804 14.97062117 -17.87109375 11.53125 C-16.67505424 7.38028934 -15.61016372 5.15720634 -12.30444336 2.35742188 C-7.98544634 0.06018105 -4.80853138 -0.04865875 0 0 Z " fill="#FFFFFF" transform="translate(440.87109375,433.46875)"/>
<path d="M0 0 C0.82450653 -0.00953201 1.64901306 -0.01906403 2.49850464 -0.02888489 C3.38603424 -0.02797348 4.27356384 -0.02706207 5.18798828 -0.02612305 C6.5621843 -0.03255074 6.5621843 -0.03255074 7.96414185 -0.03910828 C9.90251845 -0.04485178 11.84091661 -0.04535169 13.77929688 -0.04101562 C16.74012224 -0.03786116 19.69994313 -0.0612953 22.66064453 -0.08666992 C24.54475786 -0.08894351 26.42887386 -0.08964613 28.31298828 -0.08862305 C29.63820999 -0.10243767 29.63820999 -0.10243767 30.99020386 -0.11653137 C35.78209656 -0.08060539 38.99689917 0.15433067 42.88330078 3.2746582 C45.22102593 6.17666183 45.84804737 7.99766714 46.32080078 11.7121582 C45.8022435 15.93469609 44.54979246 17.99868271 41.88330078 21.2746582 C38.81248199 23.32187073 38.14539895 23.5295344 34.67480469 23.56518555 C33.40801376 23.5843251 33.40801376 23.5843251 32.1156311 23.60385132 C30.75152603 23.60718979 30.75152603 23.60718979 29.35986328 23.6105957 C28.42153656 23.6172525 27.48320984 23.6239093 26.51644897 23.63076782 C24.53100546 23.64089437 22.54552791 23.64558484 20.56005859 23.64526367 C17.52660806 23.64963184 14.49461835 23.68593741 11.46142578 23.72387695 C9.53174325 23.72974615 7.60205382 23.73371485 5.67236328 23.7355957 C4.76700836 23.74996674 3.86165344 23.76433777 2.92886353 23.77914429 C-1.21885876 23.74914774 -3.50680929 23.65064233 -7.10351562 21.43334961 C-10.52531459 17.76423168 -11.56195929 15.39686752 -11.44091797 10.34106445 C-10.91272061 6.97460175 -9.26044986 4.84715898 -7.11669922 2.2746582 C-4.06316784 0.23897062 -3.43786225 0.02186631 0 0 Z " fill="#FFFFFF" transform="translate(565.11669921875,488.725341796875)"/>
</svg>
