<?xml version="1.0" encoding="UTF-8"?>
<svg version="1.1" xmlns="http://www.w3.org/2000/svg" width="714" height="709">
<path d="M0 0 C1.87410553 -0.00956978 1.87410553 -0.00956978 3.78607178 -0.01933289 C5.15067506 -0.02086344 6.51527887 -0.02197639 7.87988281 -0.02270508 C9.29315219 -0.02592346 10.70642124 -0.02928796 12.11968994 -0.03279114 C15.08875294 -0.0387802 18.05778686 -0.0406317 21.02685547 -0.04003906 C24.78508701 -0.03993844 28.54312533 -0.05348646 32.30131149 -0.07081127 C35.22718107 -0.08208322 38.15300653 -0.08395355 41.07889557 -0.08342934 C42.46122136 -0.08459076 43.84354901 -0.08890579 45.22585297 -0.0967617 C55.27806607 -0.14845974 64.90368622 0.7028702 74.83300781 2.14526367 C75.8339447 2.28801224 76.83488159 2.4307608 77.8661499 2.57783508 C80.19174132 2.915091 82.51239705 3.27542903 84.83300781 3.64526367 C85.6 3.76256836 86.36699219 3.87987305 87.15722656 4.00073242 C91.44613752 4.67792889 95.62223189 5.54155254 99.82324219 6.63647461 C101.91699786 7.16652646 104.01675957 7.6286368 106.12988281 8.07495117 C113.88960547 9.71729354 121.42303866 11.49110335 128.91113281 14.14916992 C132.18756667 15.26613601 135.49286428 16.17479889 138.83300781 17.08276367 C144.32905863 18.62984479 149.49441003 20.52672892 154.72363281 22.80932617 C158.12229562 24.26955567 161.56493401 25.57573022 165.02050781 26.89526367 C172.21974034 29.71086029 178.94546246 33.24605054 185.72753906 36.93823242 C189.29304934 38.87667407 192.91943709 40.64802225 196.58300781 42.39526367 C205.74108295 46.91010912 214.28660937 52.48624062 222.90039062 57.94946289 C224.81113857 59.17196203 224.81113857 59.17196203 226.83300781 60.14526367 C226.83300781 60.80526367 226.83300781 61.46526367 226.83300781 62.14526367 C227.61675781 62.45463867 228.40050781 62.76401367 229.20800781 63.08276367 C231.83300781 64.14526367 231.83300781 64.14526367 233.83300781 65.14526367 C233.83300781 65.80526367 233.83300781 66.46526367 233.83300781 67.14526367 C234.84041016 67.45850586 234.84041016 67.45850586 235.86816406 67.77807617 C239.86000914 69.61884795 242.91125737 72.21433492 246.27050781 75.02026367 C246.98005615 75.60759277 247.68960449 76.19492188 248.4206543 76.80004883 C249.87672275 78.00842463 251.33026496 79.21985104 252.78125 80.43432617 C254.57053667 81.92639197 256.37354547 83.39852053 258.18457031 84.86401367 C266.30745441 91.53033802 273.76441548 98.86576509 281.20800781 106.27026367 C281.73476105 106.79174988 282.26151428 107.31323608 282.80422974 107.8505249 C284.30675471 109.34139739 285.80162636 110.83949524 287.29394531 112.34057617 C288.16841309 113.2172998 289.04288086 114.09402344 289.94384766 114.99731445 C291.83300781 117.14526367 291.83300781 117.14526367 291.83300781 119.14526367 C292.49300781 119.14526367 293.15300781 119.14526367 293.83300781 119.14526367 C295.61035156 121.05932617 295.61035156 121.05932617 297.77050781 123.77026367 C298.56457031 124.76541992 299.35863281 125.76057617 300.17675781 126.78588867 C300.6034375 127.32665039 301.03011719 127.86741211 301.46972656 128.42456055 C302.90173821 130.23201364 304.35068141 132.02496509 305.80175781 133.81713867 C306.79190248 135.05106345 307.78149449 136.28543192 308.77050781 137.52026367 C309.24286865 138.10243652 309.71522949 138.68460938 310.2019043 139.28442383 C312.70130082 142.43530463 314.57713061 145.31304411 315.83300781 149.14526367 C316.49300781 149.14526367 317.15300781 149.14526367 317.83300781 149.14526367 C319.26947821 151.11232224 320.55471007 153.0760321 321.83300781 155.14526367 C322.29900391 155.88389648 322.765 156.6225293 323.24511719 157.38354492 C333.40398791 173.5295828 342.78543856 189.64236917 350.79980469 206.95751953 C351.80211558 209.07985127 352.84771995 211.17408756 353.91113281 213.26635742 C358.59244157 222.55992908 362.07906774 232.36194394 364.97363281 242.34057617 C365.77295154 245.0950718 365.77295154 245.0950718 366.78222656 247.48901367 C368.21203888 251.10340913 369.29774177 254.79372257 370.39550781 258.52026367 C370.61658203 259.24987305 370.83765625 259.97948242 371.06542969 260.73120117 C372.38553595 265.19802599 373.19019561 269.52339081 373.83300781 274.14526367 C374.48530315 276.48265531 375.15314698 278.81574052 375.83300781 281.14526367 C376.56320857 284.21606918 377.20694381 287.30169946 377.83300781 290.39526367 C378.00743408 291.25700195 378.18186035 292.11874023 378.36157227 293.0065918 C379.86439966 300.73501692 380.73752242 308.46511854 381.43847656 316.30151367 C381.69106369 319.84158471 381.69106369 319.84158471 382.34957886 321.98143005 C382.99892671 324.8879186 382.96035022 327.63234409 382.96240234 330.61035156 C382.96713058 332.57742821 382.96713058 332.57742821 382.97195435 334.58424377 C382.97016459 336.01213617 382.96811364 337.44002825 382.96582031 338.86791992 C382.96649412 340.33475256 382.96746478 341.8015851 382.96871948 343.26841736 C382.97019238 346.339112 382.96805468 349.4097775 382.96337891 352.48046875 C382.95767682 356.41704401 382.96096622 360.35355117 382.96695137 364.29012394 C382.97056369 367.31754571 382.96941539 370.34495132 382.96682358 373.37237358 C382.96615643 374.82405035 382.96697534 376.27572859 382.96930313 377.72740364 C382.97184113 379.75479225 382.96728729 381.782186 382.96240234 383.80957031 C382.96120895 385.5402047 382.96120895 385.5402047 382.95999146 387.30580139 C382.83300781 390.14526367 382.83300781 390.14526367 381.83300781 393.14526367 C381.64551941 394.48355488 381.49398138 395.82711671 381.36816406 397.17260742 C381.29146484 397.95917725 381.21476563 398.74574707 381.13574219 399.55615234 C381.05646484 400.38993408 380.9771875 401.22371582 380.89550781 402.08276367 C380.0032822 410.96896184 378.99521972 419.78962689 376.77050781 428.45776367 C375.77341214 432.09836779 375.77341214 432.09836779 375.33300781 435.70776367 C374.9107502 438.61078473 374.26214675 441.25803023 373.43945312 444.06445312 C372.76040308 446.39438207 372.11248282 448.7319244 371.46582031 451.07104492 C370.96331522 452.86664557 370.46070906 454.66221793 369.95800781 456.45776367 C369.714375 457.34399414 369.47074219 458.23022461 369.21972656 459.14331055 C367.69558204 464.5567876 365.87967575 469.73011189 363.734375 474.92822266 C362.65320505 477.58751418 361.7565312 480.28244738 360.89550781 483.02026367 C357.9721431 491.92739053 354.3069054 500.40410129 350.03613281 508.74291992 C348.16336599 512.48237315 346.49240141 516.30733658 344.83300781 520.14526367 C344.17300781 520.14526367 343.51300781 520.14526367 342.83300781 520.14526367 C342.72730469 520.86842773 342.62160156 521.5915918 342.51269531 522.33666992 C341.77205414 525.39713545 340.64107011 527.43256856 338.95800781 530.08276367 C337.33662037 532.65335533 335.82904913 535.15350897 334.51269531 537.89526367 C332.27357953 542.22769235 329.57057918 546.17745026 326.83300781 550.20776367 C325.7694482 551.78126673 324.70691827 553.35546635 323.64550781 554.93041992 C323.15179687 555.66019043 322.65808594 556.38996094 322.14941406 557.1418457 C321.06607812 558.79055763 320.06272353 560.49154177 319.08300781 562.20385742 C318.67050781 562.84452148 318.25800781 563.48518555 317.83300781 564.14526367 C317.17300781 564.14526367 316.51300781 564.14526367 315.83300781 564.14526367 C315.52363281 564.92901367 315.21425781 565.71276367 314.89550781 566.52026367 C313.83300781 569.14526367 313.83300781 569.14526367 312.83300781 571.14526367 C312.17300781 571.14526367 311.51300781 571.14526367 310.83300781 571.14526367 C310.56230469 571.7253418 310.29160156 572.30541992 310.01269531 572.90307617 C307.83410165 577.04384691 304.77251885 580.52336615 301.83300781 584.14526367 C301.09050781 585.0759668 300.34800781 586.00666992 299.58300781 586.96557617 C292.65279701 595.44746695 284.99053252 603.20336968 277.27050781 610.95776367 C276.7401593 611.49328857 276.20981079 612.02881348 275.66339111 612.58056641 C268.71188219 619.5854515 261.56840782 626.00422008 253.83300781 632.14526367 C252.64240706 633.16247888 251.45431556 634.18265092 250.27050781 635.20776367 C247.83300781 637.14526367 247.83300781 637.14526367 245.83300781 637.14526367 C245.83300781 637.80526367 245.83300781 638.46526367 245.83300781 639.14526367 C244.51300781 639.47526367 243.19300781 639.80526367 241.83300781 640.14526367 C241.83300781 640.80526367 241.83300781 641.46526367 241.83300781 642.14526367 C239.93457031 643.65307617 239.93457031 643.65307617 237.45800781 645.27026367 C236.64589844 645.8090918 235.83378906 646.34791992 234.99707031 646.90307617 C232.83300781 648.14526367 232.83300781 648.14526367 230.83300781 648.14526367 C230.83300781 648.80526367 230.83300781 649.46526367 230.83300781 650.14526367 C228.91894531 651.55541992 228.91894531 651.55541992 226.20800781 653.20776367 C222.89503784 655.25012225 219.58797827 657.29096924 216.33691406 659.43041992 C210.58424598 663.21255208 204.86282488 666.82455787 198.62988281 669.77807617 C196.39499385 670.87054982 194.2180881 672.00833378 192.03613281 673.19995117 C182.80854798 678.23122294 173.51286284 682.54200281 163.734375 686.38842773 C161.01833464 687.46954293 158.33381258 688.62220779 155.64550781 689.77026367 C144.99206001 694.18056196 134.23240316 697.69531638 123.14550781 700.83276367 C122.10048096 701.13037598 121.0554541 701.42798828 119.97875977 701.73461914 C113.98763038 703.39911056 108.04495075 704.74117668 101.90405273 705.7265625 C99.85099259 705.94295744 99.85099259 705.94295744 98.83300781 707.14526367 C96.49967448 707.47859701 94.16634115 707.81193034 91.83300781 708.14526367 C91.50300781 708.47526367 91.17300781 708.80526367 90.83300781 709.14526367 C84.89300781 709.14526367 78.95300781 709.14526367 72.83300781 709.14526367 C72.83300781 623.34526367 72.83300781 537.54526367 72.83300781 449.14526367 C103.52300781 449.14526367 134.21300781 449.14526367 165.83300781 449.14526367 C165.83300781 446.17526367 165.83300781 443.20526367 165.83300781 440.14526367 C166.20019531 437.58422852 166.20019531 437.58422852 166.70800781 435.48120117 C168.13770714 428.96449066 168.95711585 422.38051086 169.83300781 415.77026367 C170.89532786 407.80286334 172.01084683 399.86030162 173.36425781 391.93676758 C174.22347437 386.81995399 174.950207 381.68304294 175.68847656 376.54760742 C176.55006419 370.68325293 177.66680574 364.97627406 178.83300781 359.14526367 C143.85300781 359.14526367 108.87300781 359.14526367 72.83300781 359.14526367 C72.80207031 343.15057617 72.80207031 343.15057617 72.77050781 326.83276367 C72.76140381 323.48724365 72.7522998 320.14172363 72.74291992 316.69482422 C72.73999675 314.01554403 72.73744914 311.33626339 72.73535156 308.65698242 C72.7314315 307.63529716 72.7314315 307.63529716 72.72743225 306.5929718 C72.687294 295.56383758 72.78990542 284.86980991 75.83300781 274.20776367 C76.18363281 272.96124023 76.53425781 271.7147168 76.89550781 270.43041992 C77.20488281 269.34631836 77.51425781 268.2622168 77.83300781 267.14526367 C78.17385452 265.81383121 78.51150744 264.48149958 78.83300781 263.14526367 C79.49300781 263.14526367 80.15300781 263.14526367 80.83300781 263.14526367 C80.95675781 262.23776367 81.08050781 261.33026367 81.20800781 260.39526367 C81.75410459 257.55556045 82.40564584 255.61935776 83.83300781 253.14526367 C84.49300781 253.14526367 85.15300781 253.14526367 85.83300781 253.14526367 C86.07921875 252.41307617 86.32542969 251.68088867 86.57910156 250.92651367 C90.13006218 243.05023965 98.10193365 237.51959991 105.83300781 234.14526367 C115.23016264 230.84801637 124.68287295 231.00678869 134.52050781 231.04760742 C136.24817383 231.04911804 136.24817383 231.04911804 138.01074219 231.05065918 C142.28484096 231.05586395 146.55892546 231.06982509 150.83300781 231.08276367 C160.40300781 231.10338867 169.97300781 231.12401367 179.83300781 231.14526367 C179.83300781 205.40526367 179.83300781 179.66526367 179.83300781 153.14526367 C168.44800781 152.15526367 168.44800781 152.15526367 156.83300781 151.14526367 C155.18300781 150.81526367 153.53300781 150.48526367 151.83300781 150.14526367 C150.42675912 150.03534091 149.01721788 149.96155781 147.60717773 149.92407227 C146.80335159 149.90094971 145.99952545 149.87782715 145.17134094 149.85400391 C144.3107457 149.834104 143.45015045 149.8142041 142.56347656 149.79370117 C141.65764328 149.77009521 140.75181 149.74648926 139.81852722 149.72216797 C136.88596259 149.64874539 133.95330805 149.58353573 131.02050781 149.52026367 C130.02923889 149.49780579 129.03796997 149.4753479 128.0166626 149.45220947 C104.30253991 147.26320188 104.30253991 147.26320188 81.83300781 151.14526367 C78.57146422 151.58481485 75.31022066 151.95862838 72.03808594 152.30737305 C63.55909752 153.28115043 55.91205289 156.16312891 47.94238281 159.12182617 C44.83300781 160.14526367 44.83300781 160.14526367 41.83300781 160.14526367 C41.83300781 160.80526367 41.83300781 161.46526367 41.83300781 162.14526367 C41.27613281 162.37600586 40.71925781 162.60674805 40.14550781 162.84448242 C35.27893671 164.92428392 30.85872504 167.24316646 26.46191406 170.19213867 C24.83300781 171.14526367 24.83300781 171.14526367 22.83300781 171.14526367 C22.83300781 171.80526367 22.83300781 172.46526367 22.83300781 173.14526367 C21.51300781 173.47526367 20.19300781 173.80526367 18.83300781 174.14526367 C18.83300781 174.80526367 18.83300781 175.46526367 18.83300781 176.14526367 C17.36425781 177.55541992 17.36425781 177.55541992 15.33300781 179.20776367 C3.24859316 189.57190137 -5.10174423 202.52482386 -11.16699219 217.14526367 C-11.79541016 218.48911133 -11.79541016 218.48911133 -12.43652344 219.86010742 C-15.9288801 227.55173281 -17.70262129 235.29744574 -19.37011719 243.53198242 C-20.16699219 247.14526367 -20.16699219 247.14526367 -21.16699219 248.14526367 C-21.38080077 249.53334907 -21.53724068 250.93040838 -21.66699219 252.32885742 C-21.74949219 253.17383789 -21.83199219 254.01881836 -21.91699219 254.8894043 C-21.99949219 255.77821289 -22.08199219 256.66702148 -22.16699219 257.58276367 C-22.33004892 259.33180189 -22.4965529 261.08052318 -22.66699219 262.82885742 C-22.73917969 263.60801514 -22.81136719 264.38717285 -22.88574219 265.18994141 C-23.16699219 267.14526367 -23.16699219 267.14526367 -24.16699219 269.14526367 C-24.2897183 271.98210813 -24.3527378 274.79598362 -24.37231445 277.6340332 C-24.38221405 278.51214661 -24.39211365 279.39026001 -24.40231323 280.29498291 C-24.43397493 283.2059863 -24.4587041 286.11700602 -24.48339844 289.02807617 C-24.50396393 291.04304435 -24.52496029 293.05800816 -24.54637146 295.07296753 C-24.6016339 300.38300049 -24.65102476 305.69307264 -24.69921875 311.00317383 C-24.75822275 317.37084757 -24.82447364 323.73844949 -24.88951874 330.10606384 C-24.98758073 339.78575335 -25.0764009 349.46548837 -25.16699219 359.14526367 C-54.20699219 359.14526367 -83.24699219 359.14526367 -113.16699219 359.14526367 C-113.16699219 388.84526367 -113.16699219 418.54526367 -113.16699219 449.14526367 C-84.58019084 449.10564716 -84.58019084 449.10564716 -55.9934082 449.05517578 C-50.47546387 449.05065918 -50.47546387 449.05065918 -47.89561462 449.04981995 C-46.08648941 449.04828027 -44.27736524 449.04475485 -42.46824646 449.03968811 C-39.73442796 449.03241167 -37.00067238 449.03135622 -34.2668457 449.03173828 C-33.45539628 449.02814017 -32.64394686 449.02454206 -31.80790806 449.02083492 C-26.28101852 449.03123734 -26.28101852 449.03123734 -25.16699219 450.14526367 C-25.07051152 451.53183197 -25.04327322 452.92328973 -25.04394436 454.31321049 C-25.04195331 455.21740099 -25.03996226 456.12159149 -25.03791088 457.05318171 C-25.04228014 458.56044586 -25.04228014 458.56044586 -25.04673767 460.09815979 C-25.04545603 461.68590152 -25.04545603 461.68590152 -25.0441485 463.30571884 C-25.04249055 466.88188923 -25.04802021 470.45801356 -25.0534668 474.03417969 C-25.05374863 476.58601887 -25.05359102 479.13785813 -25.05302429 481.68969727 C-25.05279597 487.19871681 -25.05564748 492.7077213 -25.06126213 498.21673775 C-25.06937479 506.18193671 -25.07199211 514.14712993 -25.07325012 522.11233258 C-25.07544101 535.03403876 -25.0821021 547.95573864 -25.09155273 560.87744141 C-25.1007259 573.43277963 -25.1078072 585.98811614 -25.11206055 598.54345703 C-25.11245463 599.70351073 -25.11245463 599.70351073 -25.11285668 600.88699985 C-25.11416168 604.76660366 -25.11542539 608.64620748 -25.11666858 612.52581131 C-25.12704234 644.73230001 -25.14466166 676.93878097 -25.16699219 709.14526367 C-27.31275855 709.17212306 -29.45861864 709.19159455 -31.60449219 709.20776367 C-32.79945313 709.21936523 -33.99441406 709.2309668 -35.22558594 709.24291992 C-38.16699219 709.14526367 -38.16699219 709.14526367 -39.16699219 708.14526367 C-40.32199219 707.98026367 -41.47699219 707.81526367 -42.66699219 707.64526367 C-46.16699219 707.14526367 -46.16699219 707.14526367 -47.16699219 706.14526367 C-49.17931976 705.6701728 -51.20270137 705.24177783 -53.22949219 704.83276367 C-58.7559327 703.67764701 -64.24929601 702.44055882 -69.72949219 701.08276367 C-70.72831421 700.83949341 -70.72831421 700.83949341 -71.74731445 700.59130859 C-75.35678891 699.68836734 -78.73375244 698.56809961 -82.16699219 697.14526367 C-83.72411089 696.66896854 -85.28686825 696.21075304 -86.85449219 695.77026367 C-91.18210538 694.49368161 -95.31874516 692.95577452 -99.48730469 691.23510742 C-102.42248103 690.04135495 -105.38556463 688.93975989 -108.35449219 687.83276367 C-115.80813535 684.9740723 -122.98462648 681.61753319 -130.16699219 678.14526367 C-131.71386719 677.40276367 -131.71386719 677.40276367 -133.29199219 676.64526367 C-151.97521471 667.5024101 -169.15396826 656.04235866 -186.16699219 644.14526367 C-186.75303223 643.73791992 -187.33907227 643.33057617 -187.94287109 642.91088867 C-189.5230862 641.80937364 -191.09532838 640.69644586 -192.66699219 639.58276367 C-193.54355469 638.96272461 -194.42011719 638.34268555 -195.32324219 637.70385742 C-195.93167969 637.18952148 -196.54011719 636.67518555 -197.16699219 636.14526367 C-197.16699219 635.48526367 -197.16699219 634.82526367 -197.16699219 634.14526367 C-197.78574219 633.83588867 -198.40449219 633.52651367 -199.04199219 633.20776367 C-200.41699219 632.52026367 -201.79199219 631.83276367 -203.16699219 631.14526367 C-203.16699219 630.48526367 -203.16699219 629.82526367 -203.16699219 629.14526367 C-203.72128906 628.90936523 -204.27558594 628.6734668 -204.84667969 628.43041992 C-207.73146461 626.83261817 -209.87871251 624.82675358 -212.29199219 622.58276367 C-215.48206728 619.50807181 -215.48206728 619.50807181 -219.16699219 617.14526367 C-219.16699219 616.48526367 -219.16699219 615.82526367 -219.16699219 615.14526367 C-219.82699219 615.14526367 -220.48699219 615.14526367 -221.16699219 615.14526367 C-222.50594851 613.483111 -223.83829361 611.8156276 -225.16699219 610.14526367 C-226.07449219 609.42338867 -226.98199219 608.70151367 -227.91699219 607.95776367 C-228.65949219 607.35963867 -229.40199219 606.76151367 -230.16699219 606.14526367 C-230.16699219 605.48526367 -230.16699219 604.82526367 -230.16699219 604.14526367 C-230.82699219 604.14526367 -231.48699219 604.14526367 -232.16699219 604.14526367 C-233.54199219 602.78198242 -233.54199219 602.78198242 -235.16699219 600.83276367 C-238.98019415 596.33863279 -242.94239166 591.99809033 -246.93261719 587.66088867 C-252.16699219 581.76764129 -252.16699219 581.76764129 -252.16699219 579.14526367 C-252.82699219 579.14526367 -253.48699219 579.14526367 -254.16699219 579.14526367 C-255.77223288 577.0939542 -257.26047598 575.04140889 -258.72949219 572.89526367 C-259.62786251 571.60654766 -260.52762942 570.31880421 -261.42871094 569.03198242 C-261.8842334 568.3802002 -262.33975586 567.72841797 -262.80908203 567.05688477 C-265.49058733 563.28195013 -268.33221099 559.62838393 -271.15917969 555.96166992 C-272.9942282 553.38760381 -274.58932454 550.76485799 -276.12646484 548.00439453 C-277.20748171 546.07292025 -278.32929437 544.17073211 -279.46386719 542.27026367 C-283.6920734 535.16845274 -287.85873085 528.04051112 -291.79199219 520.77026367 C-292.30584473 519.8344043 -292.30584473 519.8344043 -292.83007812 518.87963867 C-294.32560715 516.07843967 -295.16699219 514.37292926 -295.16699219 511.14526367 C-295.82699219 511.14526367 -296.48699219 511.14526367 -297.16699219 511.14526367 C-297.98455457 509.08476513 -298.79583952 507.02177515 -299.60449219 504.95776367 C-300.05695313 503.80920898 -300.50941406 502.6606543 -300.97558594 501.47729492 C-301.9779252 498.67403135 -302.68712014 496.07413791 -303.16699219 493.14526367 C-303.82699219 493.14526367 -304.48699219 493.14526367 -305.16699219 493.14526367 C-306.27504193 490.02162733 -307.37768757 486.89610777 -308.47949219 483.77026367 C-308.78822266 482.90014648 -309.09695313 482.0300293 -309.41503906 481.13354492 C-311.26126645 475.88637235 -312.97098203 470.62051474 -314.53662109 465.28271484 C-315.58445332 461.72974382 -316.71442572 458.23470795 -318.13574219 454.81323242 C-324.94547777 437.19562105 -327.96268987 415.35708524 -328.85839844 396.49291992 C-329.01409871 394.15474201 -329.01409871 394.15474201 -330.17010498 392.39962769 C-331.49221429 389.40980533 -331.421244 386.99417482 -331.42578125 383.7277832 C-331.43208557 382.42608185 -331.43838989 381.12438049 -331.44488525 379.78323364 C-331.44130461 378.36484644 -331.43720243 376.94646048 -331.43261719 375.52807617 C-331.4339652 374.06842993 -331.43590687 372.60878412 -331.43841553 371.1491394 C-331.44136226 368.09100059 -331.43708495 365.03297872 -331.42773438 361.97485352 C-331.41636026 358.06540639 -331.42288908 354.15623451 -331.4348793 350.24679756 C-331.4421274 347.23210602 -331.43979612 344.21747905 -331.43462372 341.20278549 C-331.43329432 339.76196128 -331.43490996 338.32113112 -331.43958282 336.88031387 C-331.44469409 334.86072154 -331.43551519 332.84110854 -331.42578125 330.8215332 C-331.42419006 329.67443878 -331.42259888 328.52734436 -331.42095947 327.3454895 C-331.15432507 323.98564614 -330.32966183 321.295854 -329.16699219 318.14526367 C-328.76073977 315.81201212 -328.76073977 315.81201212 -328.60449219 313.53588867 C-328.52972656 312.69799805 -328.45496094 311.86010742 -328.37792969 310.99682617 C-328.30832031 310.13831055 -328.23871094 309.27979492 -328.16699219 308.39526367 C-327.59881794 301.51404226 -326.66151405 294.88770627 -325.16699219 288.14526367 C-324.93882812 287.11369141 -324.71066406 286.08211914 -324.47558594 285.01928711 C-323.71818726 281.64172522 -322.94476695 278.2681879 -322.16699219 274.89526367 C-321.90660156 273.75057617 -321.64621094 272.60588867 -321.37792969 271.42651367 C-320.99507813 269.76362305 -320.99507813 269.76362305 -320.60449219 268.06713867 C-320.26224609 266.57585449 -320.26224609 266.57585449 -319.91308594 265.05444336 C-319.13659418 262.02673532 -318.17665804 259.10246955 -317.16699219 256.14526367 C-316.53320689 253.89772253 -315.90857765 251.64758411 -315.29199219 249.39526367 C-313.82136105 244.18471289 -312.12995961 239.20621549 -309.99902344 234.23120117 C-309.1960207 232.21803938 -308.64014066 230.25770432 -308.16699219 228.14526367 C-307.50699219 228.14526367 -306.84699219 228.14526367 -306.16699219 228.14526367 C-305.83699219 225.50526367 -305.50699219 222.86526367 -305.16699219 220.14526367 C-304.50699219 220.14526367 -303.84699219 220.14526367 -303.16699219 220.14526367 C-303.04324219 219.44401367 -302.91949219 218.74276367 -302.79199219 218.02026367 C-302.12860874 214.9686998 -301.19487264 212.09185429 -300.16699219 209.14526367 C-299.50699219 209.14526367 -298.84699219 209.14526367 -298.16699219 209.14526367 C-298.09480469 208.33831055 -298.02261719 207.53135742 -297.94824219 206.69995117 C-296.9319108 202.07564338 -294.92500526 198.40351165 -292.66699219 194.27026367 C-292.22500488 193.4461499 -291.78301758 192.62203613 -291.32763672 191.77294922 C-287.05113031 183.83575941 -282.63770133 175.97440407 -278.16699219 168.14526367 C-277.50699219 168.14526367 -276.84699219 168.14526367 -276.16699219 168.14526367 C-276.04324219 167.56776367 -275.91949219 166.99026367 -275.79199219 166.39526367 C-275.16050395 164.121906 -274.27841028 162.21991078 -273.16699219 160.14526367 C-272.50699219 160.14526367 -271.84699219 160.14526367 -271.16699219 160.14526367 C-270.95945312 159.49557617 -270.75191406 158.84588867 -270.53808594 158.17651367 C-268.62130851 153.93885189 -265.96945592 150.38888289 -263.22949219 146.64526367 C-262.64973633 145.84862305 -262.06998047 145.05198242 -261.47265625 144.23120117 C-254.26623929 134.42826766 -246.3560611 125.33295759 -238.13964844 116.36401367 C-236.05846064 114.02319255 -234.11180155 111.59991735 -232.16699219 109.14526367 C-230.54199219 107.33276367 -230.54199219 107.33276367 -229.16699219 106.14526367 C-228.50699219 106.14526367 -227.84699219 106.14526367 -227.16699219 106.14526367 C-226.67199219 104.66026367 -226.67199219 104.66026367 -226.16699219 103.14526367 C-225.50699219 103.14526367 -224.84699219 103.14526367 -224.16699219 103.14526367 C-224.16699219 102.48526367 -224.16699219 101.82526367 -224.16699219 101.14526367 C-222.59277344 99.59448242 -222.59277344 99.59448242 -220.47949219 97.83276367 C-217.96896925 95.70881683 -215.55875797 93.59025023 -213.29199219 91.20776367 C-211.16699219 89.14526367 -211.16699219 89.14526367 -209.16699219 89.14526367 C-209.16699219 88.48526367 -209.16699219 87.82526367 -209.16699219 87.14526367 C-205.70545373 84.14526367 -205.70545373 84.14526367 -203.16699219 84.14526367 C-202.83699219 83.15526367 -202.50699219 82.16526367 -202.16699219 81.14526367 C-200.38964844 79.53979492 -200.38964844 79.53979492 -198.22949219 77.95776367 C-197.16408203 77.16305664 -197.16408203 77.16305664 -196.07714844 76.35229492 C-194.16699219 75.14526367 -194.16699219 75.14526367 -192.16699219 75.14526367 C-192.16699219 74.48526367 -192.16699219 73.82526367 -192.16699219 73.14526367 C-190.23813939 71.66083307 -188.31674184 70.3000166 -186.29199219 68.95776367 C-185.09127126 68.1455594 -183.89075237 67.33305638 -182.69042969 66.52026367 C-181.79275879 65.91698242 -181.79275879 65.91698242 -180.87695312 65.30151367 C-178.53495281 63.7178881 -176.22583076 62.08924582 -173.91699219 60.45776367 C-172.33477645 59.35199615 -170.7514919 58.24775591 -169.16699219 57.14526367 C-168.4309375 56.6322168 -167.69488281 56.11916992 -166.93652344 55.59057617 C-162.12334014 52.3022775 -157.17966175 49.44441895 -152.03417969 46.70776367 C-149.12640509 45.12314536 -146.30999122 43.42600699 -143.47949219 41.70776367 C-136.90356322 37.8390678 -130.02610509 34.89701886 -123.01220703 31.93432617 C-120.45891905 30.84247294 -117.93802243 29.68437576 -115.41699219 28.52026367 C-106.47915419 24.45154637 -97.61084521 20.83857714 -88.18652344 18.04370117 C-85.65930485 17.29174739 -83.16280819 16.49393237 -80.66699219 15.64526367 C-64.16972817 10.10559199 -64.16972817 10.10559199 -56.16699219 9.14526367 C-54.49423671 8.668518 -52.82183172 8.19045736 -51.15234375 7.70239258 C-38.36465051 4.113913 -25.36913099 2.38686681 -12.15551758 1.37890625 C-10.18768135 1.20320275 -10.18768135 1.20320275 -8.42814636 0.63973999 C-5.57743104 0.01633658 -2.91911161 0.01013785 0 0 Z " fill="#FFFFFF" transform="translate(331.1669921875,-0.145263671875)"/>
</svg>
