<?xml version="1.0" encoding="UTF-8"?>
<!DOCTYPE svg PUBLIC "-//W3C//DTD SVG 1.1//EN" "http://www.w3.org/Graphics/SVG/1.1/DTD/svg11.dtd">
<!-- Creator: CorelDRAW 2020 (64 Bit) -->
<svg xmlns="http://www.w3.org/2000/svg" xml:space="preserve" width="100px" height="100px" version="1.1" style="shape-rendering:geometricPrecision; text-rendering:geometricPrecision; image-rendering:optimizeQuality; fill-rule:evenodd; clip-rule:evenodd"
viewBox="0 0 100 100"
 xmlns:xlink="http://www.w3.org/1999/xlink"
 xmlns:xodm="http://www.corel.com/coreldraw/odm/2003">
 <defs>
  <style type="text/css">
   <![CDATA[
    .fil0 {fill:white}
   ]]>
  </style>
 </defs>
 <g id="Camada_x0020_1">
  <metadata id="CorelCorpID_0Corel-Layer"/>
  <g id="_1818775049760">
   <path class="fil0" d="M52.32 87.899c-8.931,0 -12.815,-0.605 -20.882,-4.641 -2.095,-1.048 -1.334,-1.092 -3.852,-0.565 -1.411,0.296 -2.878,0.649 -4.387,1.028 -1.497,0.377 -2.985,0.694 -4.369,1.045l-4.408 1.006c0,-1.097 0.415,-2.553 0.656,-3.598l2.169 -10.603c0.442,-2.072 -0.81,-2.821 -2.108,-5.853 -3.945,-9.213 -4.794,-18.474 -1.516,-28.311 3.836,-11.51 12.187,-19.571 23.31,-23.871 1.786,-0.69 4.902,-1.5 6.742,-1.765 3.583,-0.518 4.225,-0.557 7.671,-0.438 1.793,0.062 2.365,0.054 3.956,0.3 2.713,0.418 4.806,0.834 7.05,1.652 4.753,1.732 6.736,2.709 11.073,5.943 1.395,1.04 4.343,3.718 5.467,5.167 0.388,0.498 0.614,0.633 1,1.127 5.666,7.252 10.017,17.815 8.063,29.562 -0.364,2.188 -0.835,4.787 -1.659,6.848 -2.496,6.245 -2.089,5.566 -5.937,11.079 -3.227,4.623 -9.155,9.111 -14.308,11.41 -2.388,1.065 -3.449,1.593 -6.228,2.279 -2.049,0.507 -5.085,1.199 -7.503,1.199zm-3.953 -87.399l3.878 0c6.336,0.249 12.617,1.726 18.378,4.514 0.814,0.393 1.337,0.513 2.112,0.981 7.324,4.418 12.375,7.984 17.406,15.272 3.377,4.892 5.994,10.204 7.465,16.126 1.442,5.808 1.508,7.894 1.508,13.767 0,6.763 -2.367,14.834 -4.64,19.337 -3.299,6.534 -3.427,6.243 -7.073,10.91 -0.559,0.715 -0.964,1.001 -1.465,1.629 -0.524,0.657 -0.764,0.934 -1.369,1.531 -0.602,0.595 -1.031,0.814 -1.648,1.446 -1.172,1.199 -3.581,2.979 -4.961,3.934 -2.225,1.54 -5.125,3.329 -7.599,4.389 -10.254,4.39 -21.704,5.878 -32.888,2.804 -1.563,-0.429 -3.288,-0.944 -4.819,-1.561l-4.502 -1.88 -12.723 2.94c-1.991,0.5 -4.245,0.991 -6.267,1.467 -1.455,0.343 -5.18,1.394 -6.34,1.394 -1.212,0 -2.048,-1.152 -1.838,-2.399 0.862,-5.132 2.639,-12.487 3.724,-17.952 0.262,-1.322 0.475,-2.366 0.74,-3.707 0.933,-4.717 1.029,-2.61 -0.362,-5.857 -3.139,-7.331 -4.198,-12.758 -4.198,-21.132 0,-9.512 3.568,-19.534 8.895,-27.07 1.587,-2.245 2.854,-3.447 4.06,-5.028 0.451,-0.59 0.853,-0.948 1.402,-1.498 2.796,-2.796 6.73,-5.801 10.19,-7.793 6.961,-4.008 14.917,-6.253 22.934,-6.564z"/>
   <path class="fil0" d="M25.25 37.045c0,7.762 2.639,12.124 6.683,17.487 1.556,2.064 4.839,5.555 6.612,7.117l2.394 2.053c5.907,4.766 13.372,9.888 21.823,9.888 4.035,0 6.656,-1.019 8.851,-2.943 1.762,-1.544 2.668,-2.657 4.022,-4.68 1.392,-2.081 0.936,-4.187 -0.887,-5.331 -0.895,-0.561 -2.387,-0.877 -3.604,-1.229 -1.329,-0.383 -2.536,-0.711 -3.765,-1.07 -1.717,-0.501 -2.727,-0.989 -4.424,-0.989 -2.383,0 -4.117,4.447 -6.768,4.447 -1.826,0 -4.502,-1.908 -5.719,-2.788 -3.074,-2.224 -9.148,-7.533 -11.068,-10.395 -2.926,-4.363 -0.804,-4.481 1.439,-8.16 1.354,-2.222 0.227,-3.35 -0.673,-5.561 -0.488,-1.199 -1.089,-2.354 -1.547,-3.481l-1.539 -3.488c-0.614,-1.14 -1.979,-2.092 -3.129,-2.092 -2.896,0 -8.701,6.358 -8.701,11.215z"/>
  </g>
 </g>
</svg>
