<?xml version="1.0" encoding="UTF-8"?>
<svg version="1.1" xmlns="http://www.w3.org/2000/svg" width="500" height="477">
<path d="M0 0 C165 0 330 0 500 0 C500 157.41 500 314.82 500 477 C335 477 170 477 0 477 C0 319.59 0 162.18 0 0 Z " fill="#1F3D5B" transform="translate(0,0)"/>
<path d="M0 0 C7.96190727 2.75022704 14.89432068 10.79252757 19.76171875 17.38671875 C21.31752005 20.67009752 21.46801438 23.18613015 21.5 26.8125 C21.54640625 28.55466797 21.54640625 28.55466797 21.59375 30.33203125 C20.33683347 38.0967985 14.81796705 43.62061109 9.3737793 48.96679688 C8.40708061 49.93415268 8.40708061 49.93415268 7.42085266 50.92105103 C5.31234805 53.02748408 3.19345693 55.12312095 1.07421875 57.21875 C-0.39902729 58.68639429 -1.87160754 60.15470718 -3.34355164 61.62365723 C-7.20189579 65.47059827 -11.0691664 69.30844069 -14.93841553 73.14440918 C-18.8921474 77.06734226 -22.83730168 80.99888101 -26.78320312 84.9296875 C-34.51380103 92.6282013 -42.25386393 100.31712287 -50 108 C-46.08767782 112.68705981 -42.01749761 117.11715079 -37.67504883 121.40673828 C-36.77388084 122.30330643 -36.77388084 122.30330643 -35.85450745 123.21798706 C-34.56248975 124.50290417 -33.26934478 125.78668863 -31.97516823 127.0694313 C-29.92538408 129.10168907 -27.87928055 131.13758762 -25.83415222 133.17453003 C-20.02334489 138.96099499 -14.20684613 144.74171424 -8.38598633 150.51806641 C-4.81516689 154.06208804 -1.24924654 157.61097841 2.31371498 161.16289902 C3.66858633 162.51157232 5.02535101 163.85834643 6.38405418 165.20315933 C8.28170684 167.08156922 10.17309427 168.96608392 12.06323242 170.85205078 C12.62276611 171.40282288 13.1822998 171.95359497 13.75878906 172.52105713 C19.01278991 177.78830822 21.42928051 181.36239008 21.4375 188.875 C21.1241687 199.65135866 16.07457991 204.26281801 8.8515625 211.546875 C3.26915208 216.34927739 -1.14179928 217.53131256 -8.3359375 217.26953125 C-23.14745468 215.77100532 -36.40310331 196.77816332 -46.30078125 186.90234375 C-47.16797476 186.03797762 -48.03516827 185.17361149 -48.92864037 184.28305244 C-53.50826592 179.7183347 -58.08507254 175.15081348 -62.65942383 170.58081055 C-66.43248746 166.81215555 -70.21005015 163.04811945 -73.99243164 159.28881836 C-78.58183976 154.72697728 -83.16383058 150.15781347 -87.74043846 145.58313179 C-89.47821719 143.84837084 -91.21848617 142.11610062 -92.96132851 140.38642693 C-95.39715404 137.9677139 -97.82327527 135.53964841 -100.24731445 133.10913086 C-100.96168671 132.40397339 -101.67605896 131.69881592 -102.41207886 130.97229004 C-109.23558153 124.09169038 -113.96173993 117.76504263 -114.4375 107.875 C-114.49808594 107.00617188 -114.55867187 106.13734375 -114.62109375 105.2421875 C-112.88112762 96.15934545 -105.81330411 89.23277722 -99.45947266 82.95776367 C-98.6228862 82.11577423 -97.78629974 81.27378479 -96.92436218 80.40628052 C-94.18071016 77.65021115 -91.42292762 74.90880288 -88.6640625 72.16796875 C-86.73962576 70.2452907 -84.81774789 68.32006107 -82.89559937 66.39509583 C-78.87617481 62.37297992 -74.84879246 58.35897201 -70.81640625 54.34985352 C-66.16953637 49.72961372 -61.53524973 45.09704112 -56.90754855 40.45760745 C-52.43375707 35.97300034 -47.95147621 31.49697227 -43.46522141 27.02483559 C-41.56559502 25.13093352 -39.66887343 23.23419303 -37.77449417 21.33504295 C-35.12338599 18.68101359 -32.4627392 16.03692723 -29.79931641 13.39526367 C-29.02399063 12.61543625 -28.24866486 11.83560883 -27.44984436 11.03215027 C-18.9059649 2.60350617 -12.37788125 -1.86835943 0 0 Z " fill="#FDFDFD" transform="translate(282,130)"/>
</svg>
