<?xml version="1.0" encoding="UTF-8"?>
<svg version="1.1" xmlns="http://www.w3.org/2000/svg" width="240" height="437">
<path d="M0 0 C1.03543945 -0.03673828 1.03543945 -0.03673828 2.09179688 -0.07421875 C7.27912232 -0.10372013 10.04224221 1.19779199 14.0625 4.375 C14.76117188 4.849375 15.45984375 5.32375 16.1796875 5.8125 C20.66174168 9.79654816 21.62343943 13.80392083 21.98095703 19.59375 C22.0213208 20.90859375 22.0213208 20.90859375 22.0625 22.25 C22.13573486 23.50683594 22.13573486 23.50683594 22.21044922 24.7890625 C22.08758163 38.25744143 3.79522492 50.77615125 -5.11547852 59.66650391 C-6.8509891 61.40173204 -8.58627877 63.13718115 -10.32136536 64.87283325 C-14.04060994 68.59230456 -17.76136965 72.3102528 -21.48355293 76.02678299 C-26.86503492 81.40009717 -32.24371479 86.77620924 -37.62174045 92.15298252 C-46.3497914 100.8788512 -55.08006767 109.60248986 -63.81176758 118.32470703 C-72.28788216 126.79162607 -80.76293349 135.25960707 -89.23657227 143.72900391 C-89.75991898 144.25208789 -90.28326569 144.77517188 -90.82247139 145.3141069 C-93.44824947 147.93857983 -96.07400683 150.56307351 -98.69975388 153.18757749 C-120.44245714 174.91993386 -142.18881938 196.6486254 -163.9375 218.375 C-161.11727391 221.95245382 -158.19968259 225.19238284 -154.9375 228.375 C-154.15375 229.179375 -153.37 229.98375 -152.5625 230.8125 C-150.56641312 232.761061 -148.57637752 234.53473167 -146.4375 236.3125 C-143.16431225 239.07558057 -140.62867688 242.04643912 -137.9375 245.375 C-135.5377307 247.89475776 -133.18800117 250.1808616 -130.4375 252.3125 C-127.9375 254.375 -127.9375 254.375 -125.5 257.3125 C-123.04140951 260.4379266 -123.04140951 260.4379266 -120 262.8125 C-117.00685058 265.31697196 -114.67622462 267.90238354 -112.234375 270.921875 C-110.97969297 272.50787611 -110.97969297 272.50787611 -108.9375 273.375 C-108.9375 274.035 -108.9375 274.695 -108.9375 275.375 C-107.9475 275.705 -106.9575 276.035 -105.9375 276.375 C-104.74599812 277.7981828 -103.5589138 279.22569043 -102.41015625 280.68359375 C-100.28511419 283.12429193 -97.82283891 285.07149025 -95.29296875 287.078125 C-94.62201172 287.72007812 -94.62201172 287.72007812 -93.9375 288.375 C-93.9375 289.035 -93.9375 289.695 -93.9375 290.375 C-93.2775 290.375 -92.6175 290.375 -91.9375 290.375 C-90.421875 291.94921875 -90.421875 291.94921875 -88.6875 294.0625 C-86.50689003 296.63752383 -84.3934334 298.96389639 -81.75 301.0625 C-79.01086304 303.31467928 -77.10062057 305.58387668 -74.9375 308.375 C-72.54062046 310.89479644 -70.15344333 313.20224533 -67.4375 315.375 C-64.7221112 317.54731104 -62.29333364 319.81723777 -59.9375 322.375 C-59.9375 323.035 -59.9375 323.695 -59.9375 324.375 C-58.9475 324.705 -57.9575 325.035 -56.9375 325.375 C-55.74599812 326.7981828 -54.5589138 328.22569043 -53.41015625 329.68359375 C-51.28511419 332.12429193 -48.82283891 334.07149025 -46.29296875 336.078125 C-45.84566406 336.50609375 -45.39835938 336.9340625 -44.9375 337.375 C-44.9375 338.035 -44.9375 338.695 -44.9375 339.375 C-43.9475 339.705 -42.9575 340.035 -41.9375 340.375 C-39.75 342.3125 -39.75 342.3125 -37.9375 344.375 C-37.9375 345.035 -37.9375 345.695 -37.9375 346.375 C-36.9475 346.705 -35.9575 347.035 -34.9375 347.375 C-32.25 349.8125 -32.25 349.8125 -29.9375 352.375 C-29.9375 353.035 -29.9375 353.695 -29.9375 354.375 C-29.2775 354.375 -28.6175 354.375 -27.9375 354.375 C-25.3125 356.75 -25.3125 356.75 -22.9375 359.375 C-22.9375 360.035 -22.9375 360.695 -22.9375 361.375 C-22.2775 361.375 -21.6175 361.375 -20.9375 361.375 C-19.421875 362.94921875 -19.421875 362.94921875 -17.6875 365.0625 C-15.52546518 367.61477762 -13.4376584 369.92571681 -10.8125 372 C-7.74560237 374.53352413 -5.47958154 377.32450216 -2.9375 380.375 C-1.968125 381.179375 -0.99875 381.98375 0 382.8125 C2.99314942 385.31697196 5.32377538 387.90238354 7.765625 390.921875 C9.02030703 392.50787611 9.02030703 392.50787611 11.0625 393.375 C11.0625 394.035 11.0625 394.695 11.0625 395.375 C12.0525 395.705 13.0425 396.035 14.0625 396.375 C17.88016425 399.30160343 20.60098704 402.73483979 21.4453125 407.56494141 C21.66379452 410.07495595 21.74349812 412.54314189 21.75 415.0625 C21.75668701 415.88218262 21.76337402 416.70186523 21.77026367 417.54638672 C21.58279237 423.88691088 19.60756239 427.43838955 15.4375 432.25 C14.0625 433.375 14.0625 433.375 12.0625 433.375 C12.0625 434.035 12.0625 434.695 12.0625 435.375 C8.2886697 437.84514347 4.47574124 437.67259243 0.125 437.625 C-0.57818359 437.63273437 -1.28136719 437.64046875 -2.00585938 437.6484375 C-6.09148718 437.63312118 -9.26391173 437.18663257 -12.9375 435.375 C-12.9375 434.715 -12.9375 434.055 -12.9375 433.375 C-13.52304212 433.11426693 -14.10858425 432.85353386 -14.71187007 432.58489978 C-17.0816227 431.29665183 -18.64309217 429.92006788 -20.54757881 428.01660347 C-21.25098872 427.31840905 -21.95439863 426.62021464 -22.679124 425.90086281 C-23.44429805 425.13122732 -24.20947211 424.36159182 -24.99783325 423.56863403 C-25.81655029 422.75303697 -26.63526733 421.93743992 -27.47879398 421.0971278 C-29.74985821 418.83266582 -32.01637618 416.56376441 -34.28104234 414.292907 C-36.72462054 411.84480884 -39.17393992 409.40246643 -41.62252808 406.9593811 C-46.41821426 402.17259543 -51.20846881 397.38040943 -55.99680819 392.58627571 C-59.88795298 388.69061703 -63.78104199 384.79691134 -67.67553329 380.90459824 C-68.22948614 380.35095186 -68.78343898 379.79730548 -69.35417827 379.22688194 C-70.4794762 378.10222346 -71.60477862 376.97756947 -72.73008548 375.85291992 C-83.28573401 365.30297661 -93.83523982 354.74690796 -104.38266276 344.18874191 C-113.43604839 335.12642059 -122.49466505 326.06935592 -131.55712891 317.01611328 C-142.0771129 306.50682853 -152.59384958 295.99431169 -163.10541332 285.47660434 C-164.22597076 284.35540979 -165.34653238 283.23421943 -166.46709824 282.11303329 C-167.01845891 281.56136407 -167.56981959 281.00969484 -168.13788817 280.44130836 C-172.02645308 276.55101546 -175.91733634 272.66305057 -179.80911636 268.77597427 C-184.55081589 264.03987972 -189.28894411 259.30024698 -194.02250828 254.55602087 C-196.43844737 252.13481992 -198.85596834 249.71525613 -201.27783966 247.29998779 C-203.90024474 244.68302085 -206.51645416 242.06001531 -209.13113403 239.43533325 C-209.90076953 238.6701592 -210.67040503 237.90498514 -211.46336281 237.116624 C-212.16155723 236.41321409 -212.85975165 235.70980417 -213.57910347 234.98507881 C-214.18372827 234.38012931 -214.78835306 233.77517981 -215.41129982 233.1518985 C-220.44557155 227.29068185 -219.62772345 219.63178415 -219.17138672 212.32714844 C-218.44931677 206.30035168 -214.68377313 202.9199818 -210.26596355 199.17377186 C-205.87702083 195.37230889 -201.77236866 191.33794386 -197.68208313 187.21965027 C-196.89064995 186.42695482 -196.09921678 185.63425937 -195.28380078 184.81754285 C-192.65076 182.17915412 -190.02132615 179.53720036 -187.3918457 176.89526367 C-185.49756287 174.99578401 -183.60307016 173.09651609 -181.70828247 171.19754028 C-177.63795993 167.11754205 -173.56931937 163.03587296 -169.50167274 158.95320702 C-163.07228978 152.50037804 -156.63765697 146.05279806 -150.20219421 139.60603333 C-147.9975561 137.39739472 -145.79295214 135.18872202 -143.58835888 132.98003864 C-143.03757307 132.4282336 -142.48678725 131.87642856 -141.91931096 131.30790215 C-135.66204198 125.03891058 -129.40585591 118.76883881 -123.15014648 112.49829102 C-122.5787934 111.9255855 -122.00744031 111.35287998 -121.41877349 110.76281974 C-112.1435537 101.46538088 -102.87217191 92.16412194 -93.60173617 82.86191329 C-84.07527969 73.3030866 -74.5430826 63.75000995 -65.00594014 54.20184499 C-59.12703035 48.31570988 -53.25290612 42.42487865 -47.38483431 36.5279384 C-43.3676525 32.49178221 -39.3450571 28.46107535 -35.3181316 24.43464067 C-32.99466406 22.11111002 -30.67457139 19.78437522 -28.35931587 17.4526577 C-25.85038274 14.92662754 -23.33243214 12.40994631 -20.81196594 9.89543152 C-19.71556816 8.78490277 -19.71556816 8.78490277 -18.59702092 7.65193909 C-17.91970393 6.97997854 -17.24238693 6.30801799 -16.54454517 5.615695 C-15.96449217 5.03396076 -15.38443916 4.45222652 -14.78680879 3.85286397 C-10.29516019 0.26339008 -5.55669633 0.01031884 0 0 Z " fill="#FFFFFF" transform="translate(218.9375,-0.375)"/>
</svg>
