<?xml version="1.0" encoding="UTF-8"?>
<svg version="1.1" xmlns="http://www.w3.org/2000/svg" width="512" height="512">
<path d="M0 0 C9.60839569 8.78481892 16.39692697 20.05010122 17.0480957 33.19921875 C17.07482296 34.57020415 17.09488456 35.94133067 17.109375 37.3125 C17.11744675 38.05145508 17.12551849 38.79041016 17.13383484 39.55175781 C17.14762676 41.11504814 17.15837066 42.67836796 17.16625977 44.24169922 C17.17771225 45.81633539 17.1980559 47.39093484 17.2277832 48.96533203 C17.47587165 62.13480931 16.36414352 73.88435608 8.24609375 84.8125 C7.47007812 85.87855469 6.6940625 86.94460937 5.89453125 88.04296875 C3.87109375 90.625 3.87109375 90.625 1.87109375 92.625 C0.98293708 95.77083736 1.09809531 98.4596203 1.87109375 101.625 C3.7101839 104.2080437 5.8182186 106.326207 8.04296875 108.5859375 C22.05450163 123.12564339 46.87109375 157.28643342 46.87109375 178.625 C48.63984863 178.60143433 48.63984863 178.60143433 50.44433594 178.57739258 C54.87248748 178.52256953 59.30060982 178.4884618 63.72900391 178.46020508 C65.63563096 178.44523662 67.5422243 178.42485454 69.44873047 178.39868164 C86.01520751 178.17715822 100.05545107 178.77029343 112.9375 190.5078125 C123.74670847 202.04074767 125.165863 214.44438347 124.87109375 229.625 C116.62109375 229.625 108.37109375 229.625 99.87109375 229.625 C99.87109375 234.575 99.87109375 239.525 99.87109375 244.625 C101.38058594 244.57859375 102.89007813 244.5321875 104.4453125 244.484375 C119.9448898 244.1438238 131.52792312 244.03585402 143.40209961 255.06274414 C147.23952602 259.04512228 150.10439006 263.43068645 152.99609375 268.125 C153.62225586 269.11258301 154.24841797 270.10016602 154.89355469 271.11767578 C156.21861774 273.20906805 157.53753098 275.3043681 158.85058594 277.40332031 C161.55919415 281.72216927 164.31371375 286.01088961 167.06787109 290.30078125 C169.10584644 293.47624248 171.13758637 296.65561721 173.16796875 299.8359375 C176.63787598 305.26625425 180.13422077 310.67886722 183.64282227 316.08422852 C186.38430082 320.31316478 189.10714905 324.55361464 191.8203125 328.80078125 C192.52027344 329.89648438 193.22023438 330.9921875 193.94140625 332.12109375 C195.30836945 334.26233316 196.67432778 336.40421457 198.0390625 338.546875 C202.03180542 344.80392978 202.03180542 344.80392978 206.13916016 350.98583984 C206.87183105 352.06687988 207.60450195 353.14791992 208.359375 354.26171875 C209.03137939 355.24229248 209.70338379 356.22286621 210.39575195 357.2331543 C211.87109375 359.625 211.87109375 359.625 211.87109375 361.625 C213.74087891 361.80482422 213.74087891 361.80482422 215.6484375 361.98828125 C221.3103428 362.62304387 226.8559576 363.66341211 232.43359375 364.8125 C233.42294922 364.99619141 234.41230469 365.17988281 235.43164062 365.36914062 C242.66449866 366.87138652 248.67196778 369.33319011 253.20703125 375.41723633 C256.68828879 381.20930202 257.76449781 386.9660232 256.87109375 393.625 C254.49872309 400.99708641 250.59662983 405.81198687 243.87109375 409.625 C240.7132055 410.67762942 238.43518728 410.77063629 235.11791992 410.80200195 C233.93626755 410.81483719 232.75461517 410.82767242 231.53715515 410.84089661 C229.61997429 410.85197701 229.61997429 410.85197701 227.6640625 410.86328125 C226.35077469 410.871353 225.03748688 410.87942474 223.68440247 410.88774109 C220.90280283 410.9027545 218.12122861 410.91259893 215.33959961 410.92016602 C211.7852939 410.93122345 208.23161545 410.96562072 204.67753124 411.00533772 C201.27723386 411.0378466 197.87700326 411.04228603 194.4765625 411.05078125 C193.20451462 411.06828934 191.93246674 411.08579742 190.62187195 411.10383606 C179.5982557 411.07676017 179.5982557 411.07676017 174.87109375 406.625 C169.45214485 400.93513848 165.56244103 394.03160905 161.68359375 387.25 C157.49431072 380.04166542 153.22809671 372.90534808 148.74609375 365.875 C144.66505555 359.46135842 140.60973406 353.03414354 136.62109375 346.5625 C136.14269043 345.79389648 135.66428711 345.02529297 135.17138672 344.23339844 C131.87109375 338.857411 131.87109375 338.857411 131.87109375 336.625 C121.31109375 336.625 110.75109375 336.625 99.87109375 336.625 C99.87109375 365.665 99.87109375 394.705 99.87109375 424.625 C103.83109375 424.625 107.79109375 424.625 111.87109375 424.625 C115.35710373 424.76690995 118.83621178 424.92735788 122.31933594 425.11621094 C132.21937909 425.60661739 142.09271986 425.76088749 152.00354767 425.76309967 C156.74982672 425.76754603 161.49598419 425.79859353 166.2421875 425.82421875 C172.21309815 425.85460795 178.18378954 425.87729969 184.15478516 425.87548828 C189.04983164 425.87469902 193.94425168 425.89811574 198.83913422 425.9373703 C200.68412201 425.94776042 202.52918262 425.94940645 204.37418365 425.94171906 C215.58086199 425.89957433 224.36157194 426.11694309 233.30859375 433.6875 C233.82421875 434.326875 234.33984375 434.96625 234.87109375 435.625 C235.40734375 436.264375 235.94359375 436.90375 236.49609375 437.5625 C240.85221367 444.09667989 240.65943154 451.01546579 239.87109375 458.625 C237.73916988 466.05202781 233.56560705 470.87201527 226.87109375 474.625 C223.34763417 476.23758529 220.60756151 476.87563641 216.7396698 476.87896729 C215.72727234 476.88460693 214.71487488 476.89024658 213.67179871 476.89605713 C212.57120621 476.89200867 211.47061371 476.88796021 210.33666992 476.88378906 C209.16814484 476.8872937 207.99961975 476.89079834 206.79568481 476.89440918 C203.58933322 476.90170496 200.38314674 476.89998515 197.17679763 476.89365101 C193.78715805 476.88855492 190.39752885 476.89329536 187.00788879 476.89642334 C181.28722183 476.90006593 175.56660639 476.89527022 169.84594727 476.88574219 C163.32139273 476.87499753 156.79696458 476.87827809 150.27241343 476.889395 C144.61749612 476.89863043 138.96261577 476.89967184 133.3076933 476.89451766 C129.95546867 476.89146684 126.6033473 476.89162316 123.25111961 476.89759064 C96.2094281 476.93508166 69.32218617 475.40409133 42.43359375 472.5 C41.4657193 472.39651245 40.49784485 472.2930249 39.50064087 472.18640137 C-6.86573701 467.16503173 -52.57056062 458.26113717 -97.62890625 446.3125 C-98.59252075 446.05778931 -99.55613525 445.80307861 -100.5489502 445.54064941 C-130.95429513 437.45914277 -130.95429513 437.45914277 -138.1484375 425.4921875 C-141.53853119 419.03615251 -141.13314965 409.87186063 -139.48046875 402.8828125 C-136.69009506 395.990351 -131.7385013 390.77472279 -125.25390625 387.1875 C-111.50090196 381.86750341 -97.19874497 386.80451064 -84.12890625 391.625 C-83.73541992 390.39289795 -83.34193359 389.1607959 -82.93652344 387.89135742 C-80.9519117 381.94266859 -78.57804024 376.16631319 -76.20703125 370.36328125 C-75.25448044 368.00485115 -74.30267954 365.64611806 -73.3515625 363.28710938 C-71.86174847 359.59756497 -70.36899669 355.90937482 -68.86083984 352.22729492 C-67.40030193 348.65289556 -65.95840566 345.07144614 -64.51953125 341.48828125 C-64.06443176 340.38817215 -63.60933228 339.28806305 -63.14044189 338.15461731 C-62.52419952 336.60722115 -62.52419952 336.60722115 -61.89550781 335.02856445 C-61.52927307 334.12749466 -61.16303833 333.22642487 -60.78570557 332.29804993 C-59.69721068 327.86808006 -60.79848066 323.95893121 -62.53320312 319.83081055 C-62.8193045 319.14107147 -63.10540588 318.4513324 -63.400177 317.74069214 C-63.71284515 317.00513092 -64.02551331 316.2695697 -64.34765625 315.51171875 C-64.67700165 314.72250031 -65.00634705 313.93328186 -65.34567261 313.12014771 C-66.43426186 310.51511824 -67.53165758 307.91389248 -68.62890625 305.3125 C-69.40123289 303.46797643 -70.17286822 301.62316326 -70.94384766 299.77807617 C-72.54482119 295.94824169 -74.1487567 292.11966855 -75.75488281 288.29199219 C-79.01519818 280.51663101 -82.24246226 272.72762556 -85.46826172 264.93789673 C-86.51460186 262.41167718 -87.56186223 259.88584093 -88.609375 257.36010742 C-94.36562926 243.47918651 -100.10224934 229.59018168 -105.83636475 215.70010376 C-111.42201966 202.17013306 -117.01930305 188.64505819 -122.62890625 175.125 C-128.44811854 161.09763382 -134.26100158 147.06766187 -140.0625 133.03295898 C-140.88462733 131.04439048 -141.70704545 129.05594217 -142.52978516 127.06762695 C-143.30780728 125.1872192 -144.08537609 123.30662382 -144.86245728 121.42582703 C-145.60083542 119.63905153 -146.34036764 117.85275245 -147.08114624 116.06697083 C-148.72588615 112.08938746 -150.34127332 108.10665204 -151.86962891 104.08276367 C-152.13600662 103.38853302 -152.40238434 102.69430237 -152.67683411 101.97903442 C-153.37278791 100.15318363 -154.0548204 98.32204282 -154.7355957 96.49047852 C-156.54710692 92.76492969 -158.70665221 91.06043221 -162.171875 88.93359375 C-167.07229832 85.65686359 -170.82891045 79.6851669 -172.65625 74.1484375 C-174.44792829 64.58294845 -174.34036518 54.07521872 -169.12890625 45.625 C-163.63374404 37.74944495 -157.14831496 33.63146957 -148.12890625 30.625 C-136.17925183 29.7976119 -126.9077029 30.43505799 -117.31640625 38.3125 C-108.31133732 46.96754858 -106.82625186 56.15162521 -105.82958984 68.26196289 C-105.21300096 73.11239969 -103.48478929 77.27740454 -101.55859375 81.7421875 C-101.19927765 82.59821564 -100.83996155 83.45424377 -100.46975708 84.33621216 C-99.32382484 87.0615346 -98.16453046 89.78090625 -97.00390625 92.5 C-95.49739816 96.05825324 -93.99633035 99.61878626 -92.49609375 103.1796875 C-91.94595612 104.48157013 -91.94595612 104.48157013 -91.38470459 105.80975342 C-87.79150878 114.34785306 -84.43151382 122.9710307 -81.12890625 131.625 C-80.46890625 131.625 -79.80890625 131.625 -79.12890625 131.625 C-71.04639781 122.29046021 -65.53533422 111.37603153 -66.04003906 98.94580078 C-66.5749 93.47100123 -67.9544109 90.18848074 -72.1796875 86.51171875 C-80.74853287 78.21762594 -83.04799786 64.61502878 -83.296875 53.234375 C-83.4510169 34.08670589 -82.35000454 17.09684659 -68.3515625 2.5859375 C-48.47762334 -14.94783659 -21.05153672 -15.97919391 0 0 Z M-57.78515625 17.6640625 C-64.56561555 27.33618827 -65.63134603 35.35806796 -65.56640625 47 C-65.58638672 48.26328125 -65.60636719 49.5265625 -65.62695312 50.828125 C-65.62113423 62.02368222 -63.08860476 71.43687748 -55.12890625 79.625 C-46.08241489 86.9336555 -37.6479425 88.62941928 -26.12890625 87.625 C-15.84760702 85.27297675 -9.12464508 78.62152057 -3.35546875 70.12890625 C0.25866423 62.75101059 0.20761968 55.3034928 0.18359375 47.25 C0.20776367 45.64125 0.20776367 45.64125 0.23242188 44 C0.2397056 32.02555704 -2.49571789 23.64837591 -10.72265625 14.9375 C-17.00100229 9.01453204 -24.04693913 6.42789296 -32.62890625 6.125 C-42.18341997 6.45097753 -51.64431913 10.10388095 -57.78515625 17.6640625 Z M-153.56640625 54.6875 C-155.98160922 59.22808158 -156.55624683 62.49691305 -156.12890625 67.625 C-154.26462205 72.47821811 -151.4714125 75.72999583 -147.12890625 78.625 C-142.78292802 80.07365941 -138.52515378 80.51393053 -134.19140625 78.90625 C-129.19325675 76.23482527 -125.92109796 73.00157513 -124.12890625 67.625 C-123.53666352 61.80127982 -124.14186559 58.23453727 -127.5078125 53.390625 C-131.00682288 49.57965466 -135.10297347 47.96265546 -140.12890625 47.125 C-145.87125323 48.08205783 -149.92404511 50.11120011 -153.56640625 54.6875 Z M-123.31640625 92 C-127.22691406 94.23367193 -130.75580115 95.60150732 -135.12890625 96.625 C-133.25062178 102.48059335 -131.16760239 108.18739172 -128.78515625 113.85546875 C-128.46401855 114.62699783 -128.14288086 115.39852692 -127.81201172 116.19343567 C-127.11767995 117.86057413 -126.42191656 119.52711693 -125.72485352 121.19311523 C-124.20968102 124.81447538 -122.70151222 128.43874059 -121.19274902 132.06277466 C-120.39371911 133.98177146 -119.59431539 135.90061266 -118.79455566 137.81930542 C-114.78135765 147.44915411 -110.79938128 157.09180119 -106.82080078 166.73599243 C-100.43874196 182.2053278 -94.04202248 197.66851627 -87.62890625 213.125 C-81.59783622 227.66244072 -75.57667973 242.20394821 -69.56640625 256.75 C-69.1721344 257.70393646 -68.77786255 258.65787292 -68.37164307 259.64071655 C-64.03176885 270.14244488 -59.70483987 280.64926809 -55.40625 291.16796875 C-55.03110764 292.08529785 -54.65596527 293.00262695 -54.26945496 293.94775391 C-52.48946651 298.30061013 -50.71195708 302.65444385 -48.93920898 307.01025391 C-48.31243672 308.54463699 -47.68557066 310.07898177 -47.05859375 311.61328125 C-46.77414902 312.31502975 -46.48970428 313.01677826 -46.19664001 313.73979187 C-45.04842401 316.91822365 -45.04842401 316.91822365 -43.12890625 319.625 C-40.26798807 319.72022418 -37.43127004 319.75053326 -34.57006836 319.73852539 C-33.67259384 319.73867142 -32.77511932 319.73881744 -31.85044861 319.7389679 C-28.86902491 319.73826842 -25.88766285 319.73047441 -22.90625 319.72265625 C-20.84501683 319.72079219 -18.78378321 319.71936823 -16.72254944 319.71836853 C-11.28586615 319.71454237 -5.84920939 319.70471126 -0.41253662 319.69366455 C5.13057089 319.68345253 10.67368267 319.67887136 16.21679688 319.67382812 C27.10157418 319.66308908 37.98633177 319.64601149 48.87109375 319.625 C48.87109375 314.345 48.87109375 309.065 48.87109375 303.625 C22.47109375 303.625 -3.92890625 303.625 -31.12890625 303.625 C-31.62390625 301.15 -31.62390625 301.15 -32.12890625 298.625 C-32.97679518 296.32184781 -33.87533916 294.03713051 -34.8046875 291.765625 C-35.08121155 291.08619339 -35.3577356 290.40676178 -35.64263916 289.70674133 C-36.57137947 287.42776261 -37.50642828 285.15142601 -38.44140625 282.875 C-39.11295698 281.23055399 -39.78408826 279.58593663 -40.45483398 277.94116211 C-41.90818293 274.37952209 -43.36421915 270.81899685 -44.82226562 267.25927734 C-47.15358286 261.56687453 -49.47783286 255.87160344 -51.80078125 250.17578125 C-54.70748084 243.04958967 -57.61546769 235.92392677 -60.52540588 228.79905701 C-68.65674351 208.88963755 -76.76817592 188.97211511 -84.88017273 169.05480957 C-88.06431321 161.23729075 -91.25022232 153.42049408 -94.43698502 145.60404396 C-96.18592247 141.31410779 -97.93451189 137.02402974 -99.6831665 132.73397827 C-100.63298823 130.40401389 -101.58297501 128.07411678 -102.53314209 125.74429321 C-107.43698756 113.71977289 -112.33247535 101.6928494 -117.12890625 89.625 C-119.7796052 89.625 -121.04482086 90.64721421 -123.31640625 92 Z M-49.12890625 102.625 C-49.10538086 103.54031494 -49.08185547 104.45562988 -49.05761719 105.39868164 C-49.21727647 116.36685391 -52.3857244 123.05545581 -58.37890625 132.0625 C-59.15382459 133.2736145 -59.92597451 134.48650492 -60.6953125 135.70117188 C-66.46955739 144.76365725 -66.46955739 144.76365725 -68.89648438 147.93408203 C-70.31912162 149.85066423 -71.31712507 151.38448671 -72.12890625 153.625 C-71.84322538 155.64566778 -71.84322538 155.64566778 -70.99804688 157.69775391 C-70.70629578 158.49079422 -70.41454468 159.28383453 -70.11395264 160.10090637 C-69.78888733 160.93385727 -69.46382202 161.76680817 -69.12890625 162.625 C-68.8159259 163.44461716 -68.50294556 164.26423431 -68.18048096 165.10868835 C-67.13598809 167.80586694 -66.06542378 170.49148034 -64.98828125 173.17578125 C-64.38994728 174.67461853 -64.38994728 174.67461853 -63.77952576 176.20373535 C-62.48236763 179.44955302 -61.18093727 182.69363426 -59.87890625 185.9375 C-59.43205475 187.05313324 -58.98520325 188.16876648 -58.52481079 189.31820679 C-52.31301797 204.8233574 -46.00270885 220.28264465 -39.53369141 235.68212891 C-34.16204143 248.47752607 -28.95388482 261.33717777 -23.78588867 274.21606445 C-23.18408869 275.7104519 -22.5822824 277.20483681 -21.98046875 278.69921875 C-21.70520859 279.38893768 -21.42994843 280.07865662 -21.14634705 280.78927612 C-20.02606487 283.94300085 -20.02606487 283.94300085 -18.12890625 286.625 C-16.04271603 286.71917773 -13.95330148 286.74242878 -11.86499023 286.73852539 C-11.21135498 286.73867142 -10.55771973 286.73881744 -9.88427734 286.7389679 C-7.71448497 286.73826883 -5.54477746 286.73047678 -3.375 286.72265625 C-1.87427314 286.72079205 -0.37354568 286.71936816 1.12718201 286.71836853 C5.08427601 286.71454352 9.04133353 286.7047134 12.99841309 286.69366455 C17.74241125 286.68165533 22.4864216 286.67704811 27.2304306 286.67121124 C34.44401039 286.66150162 41.65751006 286.64234498 48.87109375 286.625 C48.87109375 267.815 48.87109375 249.005 48.87109375 229.625 C13.72609375 229.13 13.72609375 229.13 -22.12890625 228.625 C-25.84140625 219.983125 -29.55390625 211.34125 -33.37890625 202.4375 C-34.54325195 199.73667236 -35.70759766 197.03584473 -36.90722656 194.25317383 C-37.84101774 192.07135004 -38.77431773 189.88931594 -39.70703125 187.70703125 C-40.18317871 186.60758179 -40.65932617 185.50813232 -41.14990234 184.37536621 C-51.93337706 159.06772439 -51.93337706 159.06772439 -47.1796875 146.01953125 C-43.84060429 139.39683134 -38.38416779 133.77123063 -31.33984375 131.09375 C-22.25780104 129.16822858 -13.11615207 129.813791 -5.26953125 134.80859375 C3.92995651 141.74752362 6.67795618 154.27569725 10.18359375 164.75 C10.64192222 166.10178506 11.10090248 167.45334932 11.56054688 168.8046875 C12.67279384 172.07529478 13.77159128 175.3499771 14.87109375 178.625 C19.16109375 178.625 23.45109375 178.625 27.87109375 178.625 C19.70290544 152.84015476 4.80466788 130.46226197 -14.01171875 111.24609375 C-16.18162007 108.5597399 -16.82213486 107.01789152 -17.12890625 103.625 C-18.00289062 103.73328125 -18.00289062 103.73328125 -18.89453125 103.84375 C-29.29360888 105.02100407 -38.91973969 105.05982749 -49.12890625 102.625 Z M-30.12890625 150.625 C-32.64351117 153.93970649 -32.63997061 157.61619295 -32.12890625 161.625 C-31.0295417 165.18514472 -29.56503857 168.563004 -28.078125 171.9765625 C-27.66351517 172.95362152 -27.24890533 173.93068054 -26.82173157 174.93734741 C-25.94568256 176.99556344 -25.06365165 179.05124239 -24.17602539 181.10449219 C-22.82010025 184.24145385 -21.48173347 187.38543951 -20.14648438 190.53125 C-19.29137686 192.53428662 -18.4352899 194.53690544 -17.578125 196.5390625 C-17.17800705 197.47561676 -16.7778891 198.41217102 -16.36564636 199.37710571 C-15.98547867 200.25506805 -15.60531097 201.1330304 -15.21362305 202.03759766 C-14.88275192 202.80480133 -14.5518808 203.572005 -14.21098328 204.36245728 C-13.85389786 205.10909637 -13.49681244 205.85573547 -13.12890625 206.625 C-12.81566406 207.53290787 -12.50242188 208.44081573 -12.1796875 209.37623596 C-9.69734937 212.09821946 -8.97603388 212.01084197 -5.40229797 212.22627258 C-3.34544934 212.24082093 -1.28829634 212.2273556 0.76831055 212.19262695 C2.45145859 212.19372215 2.45145859 212.19372215 4.16860962 212.19483948 C7.88633161 212.19134945 11.60280874 212.15241859 15.3203125 212.11328125 C17.89434627 212.10395824 20.46838889 212.09683971 23.04243469 212.09184265 C29.13057623 212.07468722 35.21820221 212.03526126 41.3061493 211.9850952 C48.23709974 211.92922155 55.16807152 211.90172035 62.09919107 211.87661803 C76.35673293 211.82434522 90.61389741 211.7363907 104.87109375 211.625 C102.37882356 204.839228 97.97644482 201.34130065 91.87109375 197.625 C88.06670779 196.35687135 84.50683335 196.49372664 80.54418945 196.51147461 C79.27069138 196.51125557 79.27069138 196.51125557 77.97146606 196.5110321 C75.16324312 196.51172917 72.35508637 196.51951194 69.546875 196.52734375 C67.60060156 196.52920866 65.65432766 196.53063222 63.70805359 196.53163147 C58.58375758 196.53545088 53.45948989 196.54527627 48.33520508 196.55633545 C43.10693749 196.56656194 37.87866533 196.57113175 32.65039062 196.57617188 C22.39061256 196.58689903 12.13085551 196.60396857 1.87109375 196.625 C1.74121221 196.02352016 1.61133066 195.42204033 1.47751331 194.80233383 C1.21598485 193.60560736 1.21598485 193.60560736 0.94917297 192.38470459 C0.77804143 191.59759975 0.60690989 190.81049492 0.43059254 189.99953842 C-0.42923921 186.3503732 -1.57954738 182.81706869 -2.7734375 179.265625 C-3.02510178 178.51335632 -3.27676605 177.76108765 -3.53605652 176.98602295 C-4.06538279 175.41214084 -4.59741821 173.83916742 -5.13208008 172.26708984 C-5.94264855 169.87132818 -6.7320631 167.46920573 -7.52148438 165.06640625 C-8.04167922 163.52820913 -8.56312082 161.99043296 -9.0859375 160.453125 C-9.31634232 159.74158264 -9.54674713 159.03004028 -9.78413391 158.29693604 C-11.39773839 153.65624367 -13.33483345 150.74655221 -17.12890625 147.625 C-22.8696214 145.85059713 -25.61641856 146.74216175 -30.12890625 150.625 Z M66.87109375 229.625 C66.87109375 292.985 66.87109375 356.345 66.87109375 421.625 C74.17750669 422.83713203 74.17750669 422.83713203 82.87109375 422.625 C82.87109375 358.935 82.87109375 295.245 82.87109375 229.625 C77.59109375 229.625 72.31109375 229.625 66.87109375 229.625 Z M99.87109375 262.625 C99.87109375 270.545 99.87109375 278.465 99.87109375 286.625 C107.13109375 286.625 114.39109375 286.625 121.87109375 286.625 C122.53109375 288.275 123.19109375 289.925 123.87109375 291.625 C124.76954617 293.23882143 125.70567554 294.83205339 126.671875 296.40625 C127.22987793 297.31930908 127.78788086 298.23236816 128.36279297 299.1730957 C128.96365723 300.14722412 129.56452148 301.12135254 130.18359375 302.125 C130.81023926 303.14746826 131.43688477 304.16993652 132.08251953 305.22338867 C134.00720731 308.3602666 135.93789191 311.49336308 137.87109375 314.625 C138.42297363 315.51912598 138.97485352 316.41325195 139.54345703 317.33447266 C142.18069701 321.60339801 144.82353263 325.86882677 147.46875 330.1328125 C151.22087296 336.18419767 154.95306168 342.24778784 158.68359375 348.3125 C159.34633301 349.38959229 160.00907227 350.46668457 160.69189453 351.57641602 C163.86103841 356.72789718 167.02846919 361.88041628 170.19218445 367.03523254 C171.65034743 369.41078482 173.10935366 371.78581861 174.56845093 374.16079712 C175.59440464 375.83153745 176.6191184 377.503039 177.64379883 379.17456055 C178.2705249 380.19461182 178.89725098 381.21466309 179.54296875 382.265625 C180.09049805 383.15797852 180.63802734 384.05033203 181.20214844 384.96972656 C181.75290039 385.8459668 182.30365234 386.72220703 182.87109375 387.625 C183.37278076 388.71200195 183.87446777 389.79900391 184.39135742 390.91894531 C187.22439441 394.01054539 187.77992582 394.06373734 191.77563477 394.33789062 C193.80880533 394.35045818 195.84236155 394.32943118 197.875 394.28125 C198.94983139 394.27750366 200.02466278 394.27375732 201.13206482 394.26989746 C203.40254133 394.25646031 205.67297167 394.22863802 207.94311523 394.1875 C211.42410142 394.12516997 214.90327665 394.10555749 218.38476562 394.09375 C220.5898659 394.07541012 222.79494771 394.05465862 225 394.03125 C226.04378311 394.02275024 227.08756622 394.01425049 228.16297913 394.00549316 C229.13085861 393.98627808 230.0987381 393.96706299 231.09594727 393.94726562 C231.94770035 393.93360962 232.79945343 393.91995361 233.67701721 393.90588379 C236.16040761 393.7531907 236.16040761 393.7531907 238.87109375 391.625 C238.54109375 389.315 238.21109375 387.005 237.87109375 384.625 C230.44330205 382.63217784 222.96811056 380.96961892 215.43359375 379.4375 C214.56959961 379.25864258 213.70560547 379.07978516 212.81542969 378.89550781 C208.78261797 378.08831608 205.00815532 377.3786452 200.87109375 377.625 C200.63648438 376.94953125 200.401875 376.2740625 200.16015625 375.578125 C198.56086879 371.91430282 196.44820114 368.69407226 194.24609375 365.375 C193.25311288 363.85989467 192.26097863 362.34423425 191.26953125 360.828125 C190.72780273 360.00119141 190.18607422 359.17425781 189.62792969 358.32226562 C186.34234131 353.27791037 183.11064257 348.19899212 179.87109375 343.125 C175.38917088 336.11317849 170.90056873 329.10620915 166.37109375 322.125 C161.8416142 315.14378382 157.3540286 308.13618056 152.87109375 301.125 C151.49874799 298.98173877 150.126353 296.83850906 148.75390625 294.6953125 C146.36607616 290.96571592 143.98546851 287.23174907 141.61328125 283.4921875 C140.6577028 281.99469548 139.70198474 280.49729253 138.74609375 279 C138.33359375 278.34451172 137.92109375 277.68902344 137.49609375 277.01367188 C131.82532861 267.8881793 131.82532861 267.8881793 122.87109375 262.625 C120.16843641 262.35295896 120.16843641 262.35295896 117.3515625 262.4296875 C115.96940552 262.43718018 115.96940552 262.43718018 114.55932617 262.44482422 C112.82646362 262.47213623 112.82646362 262.47213623 111.05859375 262.5 C105.52078125 262.561875 105.52078125 262.561875 99.87109375 262.625 Z M99.87109375 303.625 C99.87109375 308.905 99.87109375 314.185 99.87109375 319.625 C106.47109375 319.625 113.07109375 319.625 119.87109375 319.625 C116.42680079 310.9822216 116.42680079 310.9822216 110.87109375 303.625 C106.81047221 302.63167591 104.09957985 303.05076115 99.87109375 303.625 Z M-43.12890625 336.625 C-46.57410948 344.07228772 -49.77598464 351.56195001 -52.7734375 359.19921875 C-53.39541267 360.77398735 -53.39541267 360.77398735 -54.029953 362.38056946 C-55.33642757 365.69017237 -56.63898353 369.00130078 -57.94140625 372.3125 C-58.83372421 374.57497242 -59.7263 376.83734317 -60.61914062 379.09960938 C-62.79204115 384.60690241 -64.96173822 390.11544883 -67.12890625 395.625 C-64.31687815 397.4996854 -62.66443825 398.13869289 -59.4609375 398.9140625 C-58.12192383 399.24277344 -58.12192383 399.24277344 -56.75585938 399.578125 C-55.36270508 399.91070312 -55.36270508 399.91070312 -53.94140625 400.25 C-53.00103516 400.47945313 -52.06066406 400.70890625 -51.09179688 400.9453125 C-48.77206774 401.51052569 -46.45114367 402.07019925 -44.12890625 402.625 C-41.12439407 394.46471257 -38.12508312 386.3025382 -35.1324234 378.13789654 C-33.74269837 374.34692448 -32.35118023 370.55663079 -30.95556641 366.76782227 C-29.60918072 363.11245529 -28.26750263 359.45539253 -26.92909241 355.79709816 C-26.41723963 354.40061629 -25.90368403 353.00475735 -25.38841248 351.60953331 C-24.6678561 349.65756274 -23.95334666 347.70347943 -23.24023438 345.7487793 C-22.83164185 344.6362529 -22.42304932 343.5237265 -22.0020752 342.37748718 C-20.97771681 339.62968361 -20.97771681 339.62968361 -21.12890625 336.625 C-28.38890625 336.625 -35.64890625 336.625 -43.12890625 336.625 Z M-2.12890625 336.625 C-4.79661892 343.97291032 -7.46401213 351.32092459 -10.1285553 358.66998291 C-11.3698895 362.09343343 -12.61175508 365.51668888 -13.85498047 368.93945312 C-15.05588738 372.2457766 -16.2552357 375.55266183 -17.45357513 378.85991669 C-18.12598239 380.71446586 -18.79993831 382.56845329 -19.47393799 384.42242432 C-22.14063041 391.78711823 -24.692206 399.18100293 -27.12890625 406.625 C-21.93329616 407.68578851 -16.73502815 408.73228355 -11.53442383 409.76831055 C-9.78437957 410.11869666 -8.03497198 410.4722857 -6.28637695 410.82983398 C12.02881742 414.56992188 30.30227967 416.97231227 48.87109375 419.625 C48.87109375 392.235 48.87109375 364.845 48.87109375 336.625 C32.04109375 336.625 15.21109375 336.625 -2.12890625 336.625 Z M-120.12890625 405.625 C-122.64354848 408.64257067 -123.12077731 410.16977949 -123.19140625 414.125 C-121.89046297 418.4104602 -119.8044919 420.29615049 -116.12890625 422.625 C-113.27392072 423.84544504 -110.36110736 424.64221087 -107.359375 425.421875 C-106.50320587 425.65677139 -105.64703674 425.89166779 -104.7649231 426.13368225 C-101.95317518 426.89849268 -99.13559773 427.63813723 -96.31640625 428.375 C-94.3329105 428.90317911 -92.34943092 429.43141895 -90.3659668 429.9597168 C-37.95371233 443.79599469 15.46698583 452.96982353 69.49609375 457.375 C70.21994263 457.43425659 70.9437915 457.49351318 71.6895752 457.55456543 C92.6156134 459.23647579 113.51516816 459.78618343 134.50390625 459.79296875 C136.88426736 459.79619174 139.26462829 459.79955655 141.64498901 459.80305481 C146.58120179 459.8089811 151.51739721 459.81090085 156.45361328 459.81030273 C162.78181462 459.8102 169.10990655 459.82399426 175.43808174 459.84107494 C180.32958494 459.85216278 185.22106105 459.85422315 190.11257553 459.85369301 C192.44820416 459.8548725 194.78383349 459.85929253 197.11944962 459.86702538 C200.36373095 459.87678527 203.60776577 459.87396605 206.85205078 459.86791992 C208.29345428 459.87634918 208.29345428 459.87634918 209.76397705 459.88494873 C210.64641083 459.88075424 211.5288446 459.87655975 212.4380188 459.87223816 C213.20218676 459.87278293 213.96635471 459.87332769 214.75367928 459.87388897 C217.18833383 459.58771039 218.78196591 458.89114387 220.87109375 457.625 C222.79308489 455.06234514 222.88138011 453.79301051 222.68359375 450.5625 C221.84769192 447.54039337 221.39875112 446.40372185 218.87109375 444.625 C214.74831158 443.3770406 210.66553089 443.4728166 206.39453125 443.46728516 C205.10978661 443.45966408 205.10978661 443.45966408 203.79908752 443.45188904 C201.93254622 443.44118063 200.06599204 443.4325623 198.19943237 443.42576981 C195.19612328 443.41386441 192.19295065 443.39436132 189.18969727 443.37265015 C180.64620914 443.31157909 172.10272218 443.25802603 163.55908203 443.22363281 C141.01226039 443.12781085 118.54537265 442.79734269 96.046875 441.22265625 C95.16789047 441.16131626 94.28890594 441.09997627 93.38328552 441.0367775 C77.09806898 439.87478185 60.8163409 438.33103421 44.63671875 436.12890625 C43.77919006 436.01325821 42.92166138 435.89761017 42.03814697 435.77845764 C-4.45774925 429.39626215 -50.84120655 420.07729001 -95.71875 406.21679688 C-96.47776611 405.9849469 -97.23678223 405.75309692 -98.01879883 405.51422119 C-99.46011222 405.07179072 -100.89899577 404.62132624 -102.3347168 404.16107178 C-108.8159343 402.17610447 -114.59651669 401.16835285 -120.12890625 405.625 Z " fill="#FFFFFF" transform="translate(173.12890625,35.375)"/>
<path d="M0 0 C5.94 0 11.88 0 18 0 C18 32.67 18 65.34 18 99 C23.28 99 28.56 99 34 99 C34 104.61 34 110.22 34 116 C-26.06 116 -86.12 116 -148 116 C-148 110.39 -148 104.78 -148 99 C-142.72 99 -137.44 99 -132 99 C-132 93.39 -132 87.78 -132 82 C-126.06 82 -120.12 82 -114 82 C-114 87.61 -114 93.22 -114 99 C-109.05 99 -104.1 99 -99 99 C-99 88.11 -99 77.22 -99 66 C-93.06 66 -87.12 66 -81 66 C-81 76.89 -81 87.78 -81 99 C-76.05 99 -71.1 99 -66 99 C-66 79.86 -66 60.72 -66 41 C-60.06 41 -54.12 41 -48 41 C-48 60.14 -48 79.28 -48 99 C-43.05 99 -38.1 99 -33 99 C-33 71.61 -33 44.22 -33 16 C-27.06 16 -21.12 16 -15 16 C-15 43.39 -15 70.78 -15 99 C-10.05 99 -5.1 99 0 99 C0 66.33 0 33.66 0 0 Z " fill="#FFFFFF" transform="translate(478,165)"/>
<path d="M0 0 C12.99726004 10.02922901 22.09440975 22.70649577 28 38 C28.41378906 39.05703125 28.82757813 40.1140625 29.25390625 41.203125 C35.8816205 61.43266398 33.41825544 84.36158354 24.25 103.25 C14.0075959 123.1855536 -2.40284176 139.046907 -24 146 C-31.22745026 148.01755679 -38.50084298 149.55061231 -46 150 C-46.66773438 150.04125 -47.33546875 150.0825 -48.0234375 150.125 C-69.02334423 150.74953254 -89.86224044 143.7888957 -105.375 129.5625 C-107.28573152 127.73948235 -109.14268384 125.87897583 -111 124 C-111.73992187 123.27039063 -112.47984375 122.54078125 -113.2421875 121.7890625 C-127.41085603 106.9588219 -133.74770927 86.70981506 -134.25 66.5 C-133.68307133 42.37009855 -123.97858369 20.89629077 -106.57421875 4.16015625 C-98.42139297 -2.68128936 -88.96574709 -8.28164169 -79 -12 C-77.98808594 -12.391875 -76.97617187 -12.78375 -75.93359375 -13.1875 C-49.81934598 -21.74370405 -22.00443983 -15.43957933 0 0 Z M-102.12109375 25.52734375 C-114.14199648 41.34695171 -117.82184114 58.96779796 -115.609375 78.4375 C-112.31879299 95.31227955 -102.4807998 110.83263198 -88.2734375 120.6328125 C-71.65444198 130.62705379 -54.53579956 134.70723353 -35.3125 130.9375 C-17.98215572 126.3016329 -3.55826236 115.35322002 6.1875 100.375 C15.21870364 84.63208219 17.48761942 66.24039044 12.83398438 48.78295898 C7.89620158 31.81036972 -2.86207703 18.57352296 -17.8046875 9.25 C-46.7195128 -6.42199203 -80.92447425 0.56243634 -102.12109375 25.52734375 Z " fill="#FFFFFF" transform="translate(480,16)"/>
<path d="M0 0 C5.61 0 11.22 0 17 0 C16.979375 1.36125 16.95875 2.7225 16.9375 4.125 C17.26466796 7.21866174 17.45785727 8.53872309 19.859375 10.58203125 C21.45009961 11.5081746 23.04263441 12.43121397 24.63671875 13.3515625 C29.46367933 16.71846724 32.3245765 21.9515886 33.5859375 27.64453125 C33.875 30.125 33.875 30.125 34 34 C28.06 34 22.12 34 16 34 C15.34 31.69 14.68 29.38 14 27 C9.2750297 26.00866636 9.2750297 26.00866636 4.625 26.8125 C2.84911756 27.91985727 2.84911756 27.91985727 2 30 C1.74139865 34.05142119 1.69558446 35.54337669 4 39 C6.55625109 39.71656924 9.02985863 40.29370581 11.625 40.8125 C20.28984935 42.78795094 26.03059558 45.46877394 30.9375 53.1875 C34.30999409 60.00108127 34.79699155 66.91224592 32.9375 74.25 C31.08488111 79.53122128 28.22771456 84.36964111 23.08984375 86.96484375 C22.46207031 87.24457031 21.83429688 87.52429688 21.1875 87.8125 C17.81681862 89.61860412 17.81681862 89.61860412 17.3359375 92.46484375 C17.09028131 94.96702749 17.0330789 97.48600394 17 100 C11.39 100 5.78 100 0 100 C0 98.453125 0 96.90625 0 95.3125 C-0.31839735 91.43303805 -0.31839735 91.43303805 -2.63671875 88.50390625 C-4.03278213 87.7354066 -5.44253627 86.99138193 -6.86328125 86.26953125 C-11.56102278 83.47836855 -14.2584568 78.71903197 -16.375 73.8125 C-17 71 -17 71 -17 66 C-11.06 66 -5.12 66 1 66 C1.99 67.98 2.98 69.96 4 72 C7.24587532 73.10497883 9.07050402 73.32657967 12.3125 72.1875 C14.15097822 71.09312675 14.15097822 71.09312675 15 69 C15.14375422 65.62177584 15.07536348 63.22609045 14 60 C12.515 59.76216797 12.515 59.76216797 11 59.51953125 C1.31909452 57.85844135 -5.99502694 55.99718633 -12.375 48.125 C-16.4225377 42.25167084 -17.82962805 36.09792889 -17 29 C-15.66354534 22.49741808 -13.04168499 17.38964259 -8 13 C-6.74638354 12.34114636 -5.47513255 11.71461408 -4.1875 11.125 C-0.85702723 9.39600737 -0.85702723 9.39600737 -0.3359375 6.7578125 C0.00810351 3.96616431 0.00810351 3.96616431 0 0 Z " fill="#FFFFFF" transform="translate(421,33)"/>
</svg>
