<?xml version="1.0" encoding="UTF-8"?>
<svg version="1.1" xmlns="http://www.w3.org/2000/svg" width="512" height="512">
<path d="M0 0 C2.40234375 2.1328125 2.40234375 2.1328125 5 5 C5.93195222 6.00552305 6.86425437 7.01072187 7.796875 8.015625 C8.78131679 9.09368901 9.76568946 10.17181614 10.75 11.25 C12.34498884 12.97792483 13.94298437 14.70300498 15.54248047 16.42675781 C16.78429594 17.76716969 18.01977575 19.11344666 19.25390625 20.4609375 C54.33278608 57.33702749 112.28075573 60.7869231 160.06640625 62.234375 C161.78089966 62.28815308 161.78089966 62.28815308 163.5300293 62.34301758 C165.70170315 62.40435892 167.87382769 62.45187992 170.04614258 62.4831543 C179.16557414 62.71667583 179.16557414 62.71667583 183 66 C185.37079092 69.55618638 185.36429491 71.41311165 185.59765625 75.6484375 C185.65603416 76.65493347 185.65603416 76.65493347 185.71559143 77.6817627 C185.84142885 79.91241732 185.95273094 82.14350039 186.0625 84.375 C186.14559136 85.95850025 186.22876339 87.54199627 186.31201172 89.12548828 C187.19556887 106.40877578 187.74185707 123.69648057 188 141 C188.0143811 141.95749146 188.02876221 142.91498291 188.0435791 143.90148926 C188.13193714 150.08580507 188.19448814 156.26980518 188.23016357 162.45465088 C188.24330647 164.47238806 188.26119109 166.49010036 188.28399658 168.50775146 C188.31375267 171.32824086 188.32362995 174.14812159 188.328125 176.96875 C188.34656967 178.23025375 188.34656967 178.23025375 188.36538696 179.51724243 C188.34785621 184.16660155 188.02986367 187.22696222 185 191 C181.87057535 192.56471233 178.38917777 192.69701958 175 192 C171.8855209 189.68550363 171.07412328 188.46060899 170.44978333 184.5809021 C170.40589342 183.19814262 170.3835194 181.81459787 170.37817383 180.43115234 C170.3504464 179.29323242 170.3504464 179.29323242 170.32215881 178.13232422 C170.26539644 175.61686299 170.2362784 173.10185685 170.20703125 170.5859375 C170.17207457 168.81544469 170.1353152 167.04498665 170.09684753 165.27456665 C169.99965327 160.59282307 169.9254684 155.91099358 169.85650635 151.22875977 C169.7845894 146.56503069 169.69395488 141.90168211 169.60351562 137.23828125 C169.56822225 135.40936367 169.5329742 133.58044522 169.49777222 131.75152588 C169.48050961 130.85522713 169.46324699 129.95892838 169.44546127 129.03546906 C169.3948118 126.35080778 169.34697576 123.66610927 169.29983521 120.98138428 C169.05555943 107.31156629 168.62864942 93.65814118 168 80 C166.73808838 80.03109863 165.47617676 80.06219727 164.17602539 80.09423828 C109.88456754 81.29202724 48.82747031 73.48396892 8 35 C4.25750206 31.40626688 0.60103064 27.73578854 -3 24 C-5.95720472 25.32307589 -7.93750656 26.72792795 -10.14453125 29.08984375 C-10.73113525 29.70400146 -11.31773926 30.31815918 -11.92211914 30.95092773 C-12.54594482 31.60649658 -13.16977051 32.26206543 -13.8125 32.9375 C-51.46213654 71.44459122 -109.26032186 79.2693178 -160.96484375 80.1796875 C-165.98012692 80.21191141 -170.98684743 80.14476483 -176 80 C-184.11085823 213.52444173 -184.11085823 213.52444173 -142 374 C-131.99616415 384.72090168 -121.68591365 395.03317585 -109.81103516 403.671875 C-107.86654749 405.09786757 -105.95473802 406.56171801 -104.04296875 408.03125 C-90.81553298 418.09958169 -76.87340497 427.06985516 -62.94720459 436.12661743 C-31.68077265 456.46498977 -31.68077265 456.46498977 -21 465 C-20.48518066 465.40943848 -19.97036133 465.81887695 -19.43994141 466.24072266 C-13.74762514 470.79016696 -8.55459946 475.28815204 -4 481 C-3.10474609 480.03513672 -3.10474609 480.03513672 -2.19140625 479.05078125 C10.82712398 465.49061826 26.31510233 455.20915362 42 445 C46.23746521 442.23359908 50.47218222 439.46299069 54.70681763 436.69226074 C55.98286982 435.85754335 57.25913445 435.02315061 58.53561401 434.18908691 C66.45095408 429.01642155 74.33834922 423.81184967 82.08251953 418.38452148 C85.09068797 416.2807552 88.13090492 414.23441475 91.21875 412.25 C91.86392578 411.83492188 92.50910156 411.41984375 93.17382812 410.9921875 C96.01331492 409.44945029 97.86315058 409.30292235 101 410 C104.63525215 412.60789828 105.83397068 414.0702358 106.625 418.5 C105.47564204 424.9364046 99.6803547 428.16182449 94.56640625 431.734375 C93.95680557 432.1647406 93.3472049 432.5951062 92.71913147 433.03851318 C86.81477422 437.18077513 80.80077319 441.15031258 74.74984741 445.07418823 C72.23307246 446.70701734 69.72176769 448.3481802 67.21003723 449.98875427 C65.32208076 451.22181883 63.4335527 452.45400379 61.54492188 453.68603516 C47.71191939 462.71345295 33.9780965 471.76353609 21 482 C20.08476562 482.71671875 19.16953125 483.4334375 18.2265625 484.171875 C10.43539162 490.64294716 6.02841291 498.12274176 3.73828125 507.96875 C3 510 3 510 0 512 C-7.13184347 512.67922319 -7.13184347 512.67922319 -10.171875 510.30078125 C-12.22438179 507.71760497 -12.70474453 506.02757283 -13.3125 502.8125 C-19.22206124 479.14282121 -53.81921235 463.76418378 -72.85603333 451.35652161 C-91.40280391 439.26498574 -109.84833842 427.03317766 -127 413 C-127.56783203 412.53658203 -128.13566406 412.07316406 -128.72070312 411.59570312 C-142.9945209 399.86445943 -156.26626802 387.09561015 -167 372 C-167.64324219 371.10925781 -168.28648437 370.21851563 -168.94921875 369.30078125 C-188.03293742 339.92471993 -189.9391846 297.88071478 -192.6875 263.9375 C-192.74834778 263.18715485 -192.80919556 262.43680969 -192.87188721 261.66372681 C-194.50999083 241.13953377 -195.16152819 220.70227493 -195.16796875 200.11328125 C-195.17119691 197.639338 -195.17456203 195.16539492 -195.17805481 192.69145203 C-195.18400494 187.52191732 -195.18589933 182.35239921 -195.18530273 177.18286133 C-195.18522203 171.97351569 -195.1920821 166.76425902 -195.20581055 161.55493164 C-195.3335097 112.14724249 -195.3335097 112.14724249 -194.35039711 88.77672386 C-194.27660451 87.01855286 -194.20836879 85.26013839 -194.14613914 83.50152016 C-194.05816002 81.12349662 -193.94457694 78.74826063 -193.8215332 76.37182617 C-193.72906059 74.40085213 -193.72906059 74.40085213 -193.63471985 72.39006042 C-192.90929698 68.51555205 -191.76546256 66.76447288 -189 64 C-184.86831596 62.55296892 -180.34475445 62.75796792 -175.9921875 62.60546875 C-174.36690998 62.53955505 -172.74166699 62.47278562 -171.11645508 62.40527344 C-170.26274323 62.37042847 -169.40903137 62.3355835 -168.52944946 62.29968262 C-114.99379914 60.03715344 -60.89630066 55.32100628 -21.28515625 15.25390625 C-17.14360937 10.72645816 -13.52110827 6.01491178 -10 1 C-6.84203893 -0.57898053 -3.39329364 -0.81928171 0 0 Z " fill="#FFFFFF" transform="translate(195,0)"/>
<path d="M0 0 C0.66 -0.0103125 1.32 -0.020625 2 -0.03125 C5.05421025 0.7800246 6.1482938 1.9398149 8 4.5 C8.44888571 7.36596259 8.69425198 9.8815111 8.75 12.75 C8.77964844 13.49507812 8.80929687 14.24015625 8.83984375 15.0078125 C8.9102343 16.83796672 8.95741832 18.66898769 9 20.5 C9.60585938 20.68433594 10.21171875 20.86867187 10.8359375 21.05859375 C21.16140314 24.63279339 29.16567385 31.66246294 34 41.5 C36.5766435 47.02137892 36.19118612 52.53074456 36 58.5 C37.258125 58.72945312 38.51625 58.95890625 39.8125 59.1953125 C65.89496319 65.03330133 91.31776811 85.19468138 107.0703125 106.29296875 C109.71717882 109.32025513 112.27998428 111.1410402 116.24609375 111.96875 C120.37483056 112.02762682 123.11478816 111.87859755 126.375 109.1875 C127.77626482 107.75287173 129.16458213 106.29963915 130.4375 104.75 C133.14582676 102.58333859 135.61207487 102.5584125 139 102.5 C141.80189446 104.26641172 143.51524911 105.53049822 145 108.5 C145.62425865 111.69932558 145.37186055 113.78811628 143.859375 116.68359375 C139.26381302 123.2980798 133.68053137 127.12650246 126 129.5 C115.71967402 131.10085585 107.57063267 129.3736711 99 123.5 C96.38692798 121.36474686 94.18222832 119.0686079 92 116.5 C74.84683617 96.80413188 56.58834025 84.25749105 32 75.5 C31.443125 76.16386719 30.88625 76.82773438 30.3125 77.51171875 C23.72731579 85.1313998 18.5518895 89.31603683 9 92.5 C8.505 197.44 8.505 197.44 8 304.5 C17.57 304.5 27.14 304.5 37 304.5 C49.97584417 309.21848879 58.96541189 314.72872839 65.3203125 327.0625 C68.15263067 333.87590875 69.36522635 341.18198521 68 348.5 C65.96633129 351.06580935 64.7677414 352.34417446 61.5199585 353.00336456 C60.58492493 353.00487267 59.64989136 353.00638077 58.68652344 353.00793457 C57.07142883 353.02485352 57.07142883 353.02485352 55.42370605 353.04211426 C53.65936218 353.02996887 53.65936218 353.02996887 51.859375 353.01757812 C49.99545105 353.02809204 49.99545105 353.02809204 48.09387207 353.03881836 C44.68864814 353.05340873 41.28439618 353.04998748 37.87922668 353.03730202 C34.31497902 353.02717116 30.75077274 353.03656792 27.18652344 353.04284668 C21.20109606 353.05012288 15.21586614 353.04053627 9.23046875 353.02148438 C2.31161042 352.99971546 -4.60677642 353.00676687 -11.52562332 353.02879 C-17.46715962 353.04694495 -23.40855402 353.04950193 -29.3501091 353.03903532 C-32.89823891 353.03280082 -36.44614714 353.03196329 -39.9942627 353.04518127 C-43.94948641 353.05888678 -47.90418248 353.03988835 -51.859375 353.01757812 C-53.03560425 353.02567505 -54.2118335 353.03377197 -55.42370605 353.04211426 C-56.50043579 353.03083496 -57.57716553 353.01955566 -58.68652344 353.00793457 C-59.62155701 353.00642647 -60.55659058 353.00491837 -61.5199585 353.00336456 C-64.7677414 352.34417446 -65.96633129 351.06580935 -68 348.5 C-69.74654499 339.13800519 -67.43224114 330.04849344 -62.4921875 322.0625 C-55.57831587 312.54386743 -48.25387126 308.59231682 -37 304.5 C-27.43 304.5 -17.86 304.5 -8 304.5 C-8.33 234.54 -8.66 164.58 -9 92.5 C-12.3 91.18 -15.6 89.86 -19 88.5 C-26.06187001 83.5890002 -32.95256332 76.96116359 -34.62109375 68.26171875 C-34.74613281 67.35035156 -34.87117188 66.43898438 -35 65.5 C-56.36014465 67.00803972 -73.94735526 71.72228857 -93 81.5 C-95.31082019 82.67002814 -97.6241785 83.83491696 -99.9375 85 C-101.28134766 85.69609375 -101.28134766 85.69609375 -102.65234375 86.40625 C-109.39296355 89.54663859 -117.4391162 89.45108396 -124.5625 87.5625 C-131.65613843 84.85773139 -137.97618229 79.04087313 -141.5625 72.375 C-143.0636652 68.77935193 -143.92597132 65.42352024 -144 61.5 C-142.63571607 58.57653443 -141.27249091 56.77249091 -139 54.5 C-135.13811925 54.06280595 -132.7666318 54.08994113 -129.3125 55.9375 C-127.09320452 58.39671931 -126.22934239 60.05526404 -125 63.0625 C-123.77187165 66.03740851 -123.13454127 67.38000373 -120.6875 69.5625 C-116.46005075 71.0371916 -113.13771157 71.35508463 -108.890625 69.65625 C-106.22428305 68.33202648 -103.61376398 66.9253772 -101 65.5 C-80.23182775 54.34792111 -59.60623229 48.48359301 -36 47.5 C-35.81566406 46.89414063 -35.63132812 46.28828125 -35.44140625 45.6640625 C-32.09230945 35.98889396 -25.83099136 28.65910599 -17.01953125 23.4375 C-14.41368792 22.22782418 -11.73635324 21.3669634 -9 20.5 C-8.97421875 19.39140625 -8.9484375 18.2828125 -8.921875 17.140625 C-8.86558344 15.67704453 -8.80823633 14.21350438 -8.75 12.75 C-8.73582031 12.02039063 -8.72164062 11.29078125 -8.70703125 10.5390625 C-8.5486484 7.05463989 -8.26874224 4.87156535 -6.203125 2.015625 C-3.87445445 0.41363179 -2.78993949 -0.0435928 0 0 Z M-17 46.0625 C-19.91388882 51.30551763 -19.95610282 56.67717706 -19 62.5 C-17.04527169 67.94275267 -13.4086464 71.85746058 -8.3671875 74.64453125 C-2.71328564 76.68777301 3.074742 76.7344328 8.62890625 74.390625 C13.44337178 71.4400794 17.43828427 68.05847508 19 62.5 C19.83484878 56.68014071 19.92446694 51.29680014 17 46.0625 C13.29470996 41.1186729 9.26732629 38.03649234 3.09765625 37.0234375 C-5.74979717 36.59947378 -11.65836177 38.93535595 -17 46.0625 Z M-46.3125 330.0625 C-48.23364337 332.32652461 -49.03830064 333.61490191 -50 336.5 C-17 336.5 16 336.5 50 336.5 C46.64621329 329.79242658 43.02885639 325.61035334 36.375 322.125 C31.69339779 320.89299942 27.15469833 320.37404228 22.32104492 320.35473633 C20.68355537 320.34516655 20.68355537 320.34516655 19.01298523 320.33540344 C17.84725479 320.33429062 16.68152435 320.3331778 15.48046875 320.33203125 C14.26732498 320.32870285 13.05418121 320.32537445 11.80427551 320.32194519 C9.24150979 320.31689034 6.6787375 320.31453642 4.1159668 320.31469727 C0.21196547 320.31251368 -3.69175185 320.29435021 -7.59570312 320.27539062 C-10.09114487 320.27245577 -12.58658795 320.27047159 -15.08203125 320.26953125 C-16.241689 320.26234573 -17.40134674 320.25516022 -18.59614563 320.24775696 C-29.88835829 320.27930854 -38.4698189 321.25342218 -46.3125 330.0625 Z " fill="#FFFFFF" transform="translate(324,159.5)"/>
<path d="M0 0 C4.30147074 1.12657567 6.39180829 4.30776745 8.5546875 7.95874023 C10.15272951 10.94746676 11.68175853 13.9637145 13.1953125 16.99609375 C14.35621484 19.27568678 15.51900935 21.55431709 16.68359375 23.83203125 C17.55491943 25.54084473 17.55491943 25.54084473 18.44384766 27.28417969 C20.84545158 31.94019469 23.35336952 36.53362178 25.8828125 41.12109375 C30.84059435 50.14047189 35.6886615 59.21470568 40.5078125 68.30859375 C45.98204949 78.63504416 51.47146095 88.95278706 57.0078125 99.24609375 C57.58450684 100.32020508 58.16120117 101.39431641 58.75537109 102.50097656 C59.28984863 103.49323242 59.82432617 104.48548828 60.375 105.5078125 C61.06891846 106.79691528 61.06891846 106.79691528 61.77685547 108.11206055 C62.73708938 109.84459639 63.73992435 111.55383387 64.77148438 113.24487305 C67.02134836 117.06875414 67.04381535 120.26291608 66.1328125 124.55859375 C57.9630792 142.22150623 40.87534703 152.08925737 23.33203125 158.59765625 C2.07369995 164.75365476 -21.06185183 161.02060053 -40.19921875 150.6953125 C-50.63659113 144.78357191 -60.9908344 135.7335696 -65.8671875 124.55859375 C-66.77102288 116.97398197 -64.08916721 111.88591595 -60.68237305 105.21728516 C-60.1312384 104.10742249 -59.58010376 102.99755981 -59.01226807 101.85406494 C-57.50519215 98.82767416 -55.98424058 95.80910421 -54.45602393 92.79338884 C-52.85732116 89.63124909 -51.27560051 86.46063161 -49.69160461 83.29110718 C-47.03160422 77.97484499 -44.35931758 72.66490928 -41.67895508 67.35888672 C-38.58015752 61.22430181 -35.49825303 55.08147059 -32.42580765 48.93364966 C-29.15162367 42.38258104 -25.86529237 35.8376632 -22.57534051 29.29450178 C-21.62872515 27.40979567 -20.68438864 25.52396258 -19.74054527 23.63786697 C-17.98334392 20.12822498 -16.21258106 16.62553051 -14.44018555 13.12353516 C-13.65687614 11.55419724 -13.65687614 11.55419724 -12.85774231 9.95315552 C-12.37401154 9.00275391 -11.89028076 8.05235229 -11.39189148 7.07315063 C-10.76553315 5.83048903 -10.76553315 5.83048903 -10.12652111 4.56272316 C-7.54394343 0.45275592 -4.55503857 0.27687489 0 0 Z M-1.8671875 27.55859375 C-10.29718793 43.30289702 -18.30828807 59.25304483 -26.29345703 75.22583008 C-28.14765428 78.93432799 -30.00742943 82.64000018 -31.86846352 86.34507084 C-33.31063752 89.21835044 -34.74921268 92.09342023 -36.1867485 94.96902275 C-36.87205043 96.33844741 -37.5586481 97.70722444 -38.24657059 99.07533455 C-39.19762589 100.96771017 -40.14364027 102.86252149 -41.08837891 104.75805664 C-41.62669342 105.83326065 -42.16500793 106.90846466 -42.71963501 108.01625061 C-44.00432327 110.39752192 -44.00432327 110.39752192 -43.8671875 112.55859375 C-14.8271875 112.55859375 14.2128125 112.55859375 44.1328125 112.55859375 C39.21772369 102.72841612 34.28882381 92.9706817 29.0703125 83.30859375 C28.42879109 82.1165871 27.78752148 80.92444491 27.14648438 79.73217773 C25.81718554 77.26023367 24.48682696 74.78886441 23.15576172 72.31787109 C21.12322022 68.54290541 19.0977312 64.7641868 17.07421875 60.984375 C16.74219955 60.36418488 16.41018036 59.74399475 16.06809998 59.10501099 C15.4089839 57.87369525 14.74990039 56.64236208 14.09085083 55.41101074 C9.117829 46.11984149 4.1326065 36.83537718 -0.8671875 27.55859375 C-1.1971875 27.55859375 -1.5271875 27.55859375 -1.8671875 27.55859375 Z M-39.8671875 128.55859375 C-28.44320047 139.98258078 -14.80186909 144.11959182 1.1328125 144.55859375 C15.2490419 144.01673061 28.2765759 139.76783719 39.1328125 130.55859375 C39.4628125 129.89859375 39.7928125 129.23859375 40.1328125 128.55859375 C13.7328125 128.55859375 -12.6671875 128.55859375 -39.8671875 128.55859375 Z " fill="#FFFFFF" transform="translate(445.8671875,303.44140625)"/>
<path d="M0 0 C2.96560242 2.615284 4.83455985 5.16329865 6.60699463 8.67913818 C7.08368591 9.61546082 7.5603772 10.55178345 8.05151367 11.51647949 C8.56077393 12.53681274 9.07003418 13.557146 9.59472656 14.60839844 C10.14151062 15.6885321 10.68829468 16.76866577 11.25164795 17.88153076 C12.74526971 20.83733181 14.23153073 23.79658888 15.71360493 26.75818157 C16.64118181 28.61048691 17.57102974 30.4616334 18.50170135 32.31238556 C21.75175038 38.77550966 24.99353169 45.24270183 28.22753906 51.71386719 C31.23720963 57.73561102 34.26461004 63.74820315 37.30048013 69.75677466 C39.91073027 74.92489178 42.5085395 80.09913584 45.09683585 85.2782824 C46.64092614 88.36748048 48.18982916 91.45401713 49.75128937 94.53447723 C51.49314731 97.97210368 53.20905247 101.42231605 54.92285156 104.87402344 C55.44020874 105.88625977 55.95756592 106.89849609 56.49060059 107.94140625 C59.28082842 113.62244873 60.7157943 117.65828245 60 124 C53.39716815 139.60476337 38.17337582 149.22195278 23.26953125 155.7109375 C5.08450683 162.88066039 -18.02523795 162.81049638 -36.02148438 155.13818359 C-50.48905096 148.72778485 -65.54784249 139.14854371 -72 124 C-73.13601343 115.90936777 -69.56022357 110.33917612 -65.75 103.375 C-65.10246015 102.16357897 -64.45632114 100.9514082 -63.81152344 99.73852539 C-61.89569549 96.14719705 -59.95018728 92.57278807 -58 89 C-57.48824219 88.05785645 -56.97648438 87.11571289 -56.44921875 86.14501953 C-54.58130341 82.70700043 -52.70876458 79.27166023 -50.82324219 75.84326172 C-46.11956184 67.27924542 -41.56020562 58.64090515 -37 50 C-31.79452207 40.14238342 -26.5794818 30.29137355 -21.25 20.5 C-20.79753906 19.66597656 -20.34507812 18.83195312 -19.87890625 17.97265625 C-17.58005626 13.76845311 -15.21856579 9.60348687 -12.796875 5.46875 C-12.06742676 4.22254883 -12.06742676 4.22254883 -11.32324219 2.95117188 C-8.72204198 -0.88439862 -4.26986539 -0.87814213 0 0 Z M-5 27 C-5.3309668 27.64211426 -5.66193359 28.28422852 -6.00292969 28.94580078 C-12.26908467 41.08782374 -18.59660814 53.18355613 -25.17651367 65.15869141 C-29.87814295 73.7338352 -34.47569378 82.36308717 -39.0625 91 C-39.43620728 91.70303253 -39.80991455 92.40606506 -40.19494629 93.13040161 C-41.26763763 95.14892941 -42.33915106 97.16807713 -43.41015625 99.1875 C-43.72841873 99.78662704 -44.04668121 100.38575409 -44.37458801 101.0030365 C-46.3034292 104.64562381 -48.15582157 108.31164314 -50 112 C-20.96 112 8.08 112 38 112 C36.36063358 107.0105963 36.36063358 107.0105963 34.2923584 102.32402039 C33.96434738 101.66091354 33.63633636 100.9978067 33.29838562 100.31460571 C32.94403946 99.60839081 32.5896933 98.9021759 32.22460938 98.17456055 C31.84714066 97.41451218 31.46967194 96.65446381 31.08076477 95.87138367 C29.83920285 93.37442424 28.59177261 90.88045456 27.34375 88.38671875 C26.47683386 86.64899843 25.61009654 84.91118889 24.74353027 83.17329407 C22.93053796 79.53986185 21.1144673 75.90798827 19.29638672 72.27709961 C16.96252122 67.61518466 14.63781822 62.94876735 12.31554413 58.28106976 C10.53023154 54.69575085 8.73941782 51.11320175 6.94697571 47.53144264 C6.08707096 45.81111851 5.22906564 44.08984362 4.37297058 42.36762047 C3.17946577 39.96833842 1.97845748 37.57296512 0.77539062 35.1784668 C0.42104446 34.46213074 0.0666983 33.74579468 -0.29838562 33.00775146 C-1.95431156 29.36644638 -1.95431156 29.36644638 -5 27 Z M-46 128 C-34.57601297 139.42398703 -20.93468159 143.56099807 -5 144 C9.1162294 143.45813686 22.1437634 139.20924344 33 130 C33.33 129.34 33.66 128.68 34 128 C7.6 128 -18.8 128 -46 128 Z " fill="#FFFFFF" transform="translate(212,264)"/>
</svg>
