<?xml version="1.0" encoding="UTF-8"?>
<svg version="1.1" xmlns="http://www.w3.org/2000/svg" width="360" height="360">
<path d="M0 0 C0.86467896 -0.00350464 1.72935791 -0.00700928 2.62023926 -0.01062012 C5.45003528 -0.01935057 8.27957688 -0.01361919 11.109375 -0.00683594 C13.09277392 -0.00818508 15.07617252 -0.01012769 17.05957031 -0.01263428 C21.20511033 -0.01557378 25.35056383 -0.01132574 29.49609375 -0.00195312 C34.79175708 0.00944065 40.08721763 0.00287488 45.38287354 -0.00909805 C49.47511301 -0.01634839 53.56730494 -0.01401417 57.6595459 -0.00884247 C59.61145044 -0.00751475 61.5633594 -0.00912271 63.51525879 -0.01380157 C66.24987105 -0.01891918 68.98416151 -0.01108359 71.71875 0 C72.51381958 -0.00404846 73.30888916 -0.00809692 74.12805176 -0.01226807 C83.07358482 0.0544079 91.65921543 1.68489504 98.859375 7.25878906 C104.39520874 13.0055117 106.70547662 18.79440403 107.9609375 26.59472656 C107.83538407 29.8880895 107.12702435 30.90831347 104.859375 33.25878906 C102.60041809 33.777771 102.60041809 33.777771 99.92895508 33.8046875 C98.92814407 33.82440613 97.92733307 33.84412476 96.89619446 33.86444092 C95.2788868 33.86628387 95.2788868 33.86628387 93.62890625 33.86816406 C92.52334885 33.88470032 91.41779144 33.90123657 90.2787323 33.91827393 C86.74305757 33.96690988 83.20781342 33.98816016 79.671875 34.00878906 C77.27667086 34.03693558 74.88148692 34.06686113 72.48632812 34.09863281 C66.61075566 34.17267294 60.73530507 34.22422393 54.859375 34.25878906 C55.519375 36.56878906 56.179375 38.87878906 56.859375 41.25878906 C57.395625 41.31035156 57.931875 41.36191406 58.484375 41.41503906 C77.36372568 44.14757666 96.6125107 58.39965583 107.83349609 73.24316406 C119.08319069 88.81105371 124.86222969 105.25963043 126.859375 124.25878906 C127.94992187 124.38898438 129.04046875 124.51917969 130.1640625 124.65332031 C137.06529535 125.78407199 140.85823269 129.88582654 144.859375 135.25878906 C146.52819217 140.26524057 146.95572376 145.58842922 144.91796875 150.55175781 C141.16992269 156.81416706 136.94830119 160.31012842 129.859375 162.25878906 C127.2207509 162.44265114 124.69032148 162.5335445 122.05447388 162.51948547 C121.28728401 162.52331102 120.52009414 162.52713657 119.7296561 162.53107804 C117.16882135 162.54136503 114.60821262 162.53742411 112.04736328 162.53344727 C110.20726312 162.53779614 108.36716476 162.54297987 106.52706909 162.54893494 C101.53529047 162.56231775 96.54358759 162.56290437 91.55179453 162.56037164 C87.38186054 162.55930138 83.21194185 162.56418675 79.04201114 162.56897706 C69.20263771 162.5800699 59.36330245 162.58051099 49.52392578 162.57446289 C39.37989676 162.56842331 29.23600644 162.58073426 19.09200108 162.60203296 C10.37674391 162.61965767 1.66153085 162.62564892 -7.05374348 162.62239522 C-12.2563149 162.62058351 -17.45878737 162.62320735 -22.66134262 162.63710976 C-27.55498564 162.64969747 -32.4484127 162.647735 -37.34205246 162.63469887 C-39.13508681 162.63233555 -40.9281364 162.63505899 -42.72115326 162.64332199 C-45.17493672 162.65381212 -47.62799855 162.645671 -50.08175659 162.63301086 C-50.78585942 162.64038515 -51.48996225 162.64775943 -52.21540153 162.65535718 C-58.03314655 162.59250991 -63.5371164 161.33455944 -68.1640625 157.64550781 C-72.77668345 151.84640344 -74.92543293 146.84526571 -74.140625 139.25878906 C-71.83429796 132.39222447 -68.01242195 128.19468754 -61.515625 124.94628906 C-59.140625 124.25878906 -59.140625 124.25878906 -55.140625 124.25878906 C-55.04265625 123.32679688 -54.9446875 122.39480469 -54.84375 121.43457031 C-51.8575006 95.97421979 -40.64247843 73.82103595 -20.71142578 57.48144531 C-10.62538955 49.63082836 2.0278287 42.6718834 14.859375 41.25878906 C15.519375 38.94878906 16.179375 36.63878906 16.859375 34.25878906 C16.23963303 34.25514343 15.61989105 34.2514978 14.98136902 34.2477417 C8.54115055 34.20598796 2.1016495 34.13669299 -4.33813477 34.05126953 C-6.74268423 34.02301319 -9.14732739 34.001822 -11.55200195 33.98779297 C-15.00520968 33.96642852 -18.4572853 33.91981 -21.91015625 33.86816406 C-22.98836136 33.86693542 -24.06656647 33.86570679 -25.17744446 33.86444092 C-26.17825546 33.84472229 -27.17906647 33.82500366 -28.21020508 33.8046875 C-29.09178787 33.79580505 -29.97337067 33.78692261 -30.88166809 33.777771 C-33.140625 33.25878906 -33.140625 33.25878906 -34.94242859 31.39117432 C-37.02672688 27.68182676 -35.93045415 24.45194103 -35.12109375 20.43457031 C-32.96865332 13.46272143 -29.04668465 8.03182489 -22.765625 4.25878906 C-15.71931664 0.55879703 -7.8153093 -0.03979524 0 0 Z M-22.578125 18.38378906 C-24.29979611 21.00630389 -24.29979611 21.00630389 -24.140625 23.25878906 C15.789375 23.25878906 55.719375 23.25878906 96.859375 23.25878906 C93.76578796 17.07161498 91.57907364 13.49868861 84.859375 11.25878906 C83.5171902 11.16296959 82.17083279 11.11970761 80.82525635 11.11161804 C80.00666138 11.10446274 79.18806641 11.09730743 78.34466553 11.0899353 C77.45007629 11.0872464 76.55548706 11.0845575 75.63378906 11.08178711 C74.68874512 11.07521591 73.74370117 11.06864471 72.77001953 11.06187439 C69.63834556 11.04214241 66.50671955 11.03047886 63.375 11.02050781 C62.30529716 11.01643229 61.23559433 11.01235676 60.13347626 11.00815773 C54.47147311 10.98729723 48.8094942 10.97299551 43.14746094 10.96362305 C37.30203488 10.95255985 31.45698962 10.91816062 25.61169815 10.87845135 C21.11463721 10.85229454 16.61766712 10.84393201 12.1205368 10.84034157 C9.96599506 10.83547307 7.81145745 10.82385165 5.65699005 10.80530357 C2.63853358 10.78093303 -0.37893602 10.78187361 -3.39746094 10.78881836 C-4.7271994 10.76960327 -4.7271994 10.76960327 -6.08380127 10.75 C-13.32224357 10.81056631 -17.96689602 12.47195704 -22.578125 18.38378906 Z M27.859375 36.25878906 C24.51104577 40.40431231 24.44597192 44.32655925 24.51879883 49.44555664 C24.51836075 50.25583313 24.51792267 51.06610962 24.51747131 51.90093994 C24.51955476 54.56864854 24.54286455 57.23572203 24.56640625 59.90332031 C24.57200379 61.75705115 24.57627314 63.61078644 24.57926941 65.46452332 C24.59070573 70.33572717 24.62016252 75.20666127 24.65338135 80.07775879 C24.68410835 85.05147656 24.69778037 90.02523805 24.71289062 94.99902344 C24.74503341 104.75241603 24.79779148 114.50553788 24.859375 124.25878906 C32.119375 124.25878906 39.379375 124.25878906 46.859375 124.25878906 C46.94980062 113.54057101 47.02316285 102.82260697 47.06662369 92.10409355 C47.08748437 87.12686854 47.11577438 82.14991839 47.16113281 77.17285156 C47.20464459 72.36825998 47.22852354 67.56393252 47.23888397 62.75915909 C47.24626576 60.92754077 47.26068079 59.09593665 47.28229523 57.264431 C47.31140041 54.69566541 47.31532808 52.12798641 47.31347656 49.55908203 C47.32785767 48.80454239 47.34223877 48.05000275 47.35705566 47.27259827 C47.31704644 42.13108361 46.13246906 39.20038074 42.859375 35.25878906 C37.17447086 32.20835269 33.44999065 33.36364881 27.859375 36.25878906 Z M56.859375 51.25878906 C56.859375 75.34878906 56.859375 99.43878906 56.859375 124.25878906 C76.329375 124.25878906 95.799375 124.25878906 115.859375 124.25878906 C116.00119833 116.22335018 116.00119833 116.22335018 113.859375 109.25878906 C112.62783691 109.23896973 111.39629883 109.21915039 110.12744141 109.19873047 C105.56879839 109.12279724 101.01047973 109.03406143 96.45214844 108.94140625 C94.47727856 108.90306557 92.50233764 108.86822176 90.52734375 108.83691406 C87.69244955 108.79137359 84.8580467 108.73336191 82.0234375 108.67285156 C81.13693512 108.66130035 80.25043274 108.64974915 79.33706665 108.6378479 C78.51636688 108.61797821 77.69566711 108.59810852 76.85009766 108.57763672 C75.7642186 108.55765121 75.7642186 108.55765121 74.65640259 108.53726196 C72.859375 108.25878906 72.859375 108.25878906 70.859375 106.25878906 C70.671875 103.69628906 70.671875 103.69628906 70.859375 101.25878906 C72.96606959 99.15209447 77.57193789 99.99986417 80.48828125 99.94238281 C81.35251205 99.92160172 82.21674286 99.90082062 83.10716248 99.87940979 C85.87864945 99.81381793 88.65023421 99.75498489 91.421875 99.69628906 C93.29623423 99.65311298 95.17058343 99.609499 97.04492188 99.56542969 C101.64963836 99.45812679 106.25445358 99.35688692 110.859375 99.25878906 C108.549375 94.63878906 106.239375 90.01878906 103.859375 85.25878906 C93.299375 84.92878906 82.739375 84.59878906 71.859375 84.25878906 C70.859375 78.25878906 70.859375 78.25878906 71.859375 76.25878906 C79.449375 75.92878906 87.039375 75.59878906 94.859375 75.25878906 C87.75941689 66.9755046 81.36224899 61.80448197 71.734375 56.94628906 C71.0655127 56.60863525 70.39665039 56.27098145 69.70751953 55.9230957 C65.37486363 53.81230093 61.65503485 52.62897759 56.859375 51.25878906 Z M-17.140625 68.25878906 C-17.76453125 68.74863281 -18.3884375 69.23847656 -19.03125 69.74316406 C-20.4427517 70.86445046 -21.79900154 72.05476801 -23.140625 73.25878906 C-23.140625 73.91878906 -23.140625 74.57878906 -23.140625 75.25878906 C-22.1033728 75.29637329 -22.1033728 75.29637329 -21.04516602 75.3347168 C-17.93094634 75.45031068 -14.81705711 75.57320148 -11.703125 75.69628906 C-10.61451172 75.73560547 -9.52589844 75.77492188 -8.40429688 75.81542969 C-7.36982422 75.85732422 -6.33535156 75.89921875 -5.26953125 75.94238281 C-4.31119385 75.97904053 -3.35285645 76.01569824 -2.36547852 76.0534668 C-0.140625 76.25878906 -0.140625 76.25878906 0.859375 77.25878906 C0.984375 80.25878906 0.984375 80.25878906 0.859375 83.25878906 C-0.140625 84.25878906 -0.140625 84.25878906 -3.09643555 84.28955078 C-4.39363525 84.25619629 -5.69083496 84.2228418 -7.02734375 84.18847656 C-8.45505783 84.17756811 -9.88279926 84.16985973 -11.31054688 84.16503906 C-13.56663467 84.15719777 -15.81619922 84.13419927 -18.07104492 84.05664062 C-22.96438682 83.89922564 -27.40370724 83.92779828 -32.140625 85.25878906 C-35.55165893 88.80897679 -38.140625 93.20604242 -38.140625 98.25878906 C-37.06578857 98.2786084 -35.99095215 98.29842773 -34.88354492 98.31884766 C-30.89697786 98.39490164 -26.9107759 98.48361915 -22.92456055 98.57617188 C-21.19904792 98.61446252 -19.47345544 98.64931528 -17.74780273 98.68066406 C-15.26777605 98.7263131 -12.78829909 98.78430687 -10.30859375 98.84472656 C-9.53662155 98.85627777 -8.76464935 98.86782898 -7.96928406 98.87973022 C-4.18815826 98.98400179 -2.36043665 99.11224796 0.859375 101.25878906 C0.859375 103.56878906 0.859375 105.87878906 0.859375 108.25878906 C-13.330625 108.58878906 -27.520625 108.91878906 -42.140625 109.25878906 C-44.61496665 115.62772146 -44.61496665 115.62772146 -44.140625 124.25878906 C-24.670625 124.25878906 -5.200625 124.25878906 14.859375 124.25878906 C14.859375 100.16878906 14.859375 76.07878906 14.859375 51.25878906 C3.77075374 51.25878906 -9.07581995 61.56937712 -17.140625 68.25878906 Z M-62.140625 137.25878906 C-64.06926339 139.80108512 -64.14964791 141.04223924 -64.015625 144.25878906 C-63.01314839 147.69585172 -61.92054673 149.05120416 -59.140625 151.25878906 C-55.63381109 152.42772703 -52.4827888 152.40372652 -48.83488464 152.39923096 C-48.08518113 152.40220208 -47.33547762 152.4051732 -46.56305581 152.40823436 C-44.04357221 152.4169262 -41.52413609 152.41843001 -39.00463867 152.41992188 C-37.20114541 152.4245497 -35.39765313 152.42957431 -33.59416199 152.43496704 C-28.6891349 152.44809634 -23.7841215 152.45453702 -18.87907958 152.4589777 C-15.81542956 152.46190753 -12.75178328 152.46601216 -9.68813515 152.47048187 C-0.10505032 152.4841581 9.47802594 152.49382419 19.06111985 152.49768376 C30.12781279 152.50216519 41.19438226 152.51971654 52.26103765 152.54868436 C60.81229144 152.57029187 69.36351048 152.58038755 77.91479129 152.58172488 C83.02345599 152.58277356 88.13200465 152.5886948 93.24064064 152.60654449 C98.04640336 152.62300909 102.8519626 152.6251885 107.65774345 152.61640549 C109.42098154 152.61563425 111.1842305 152.61998919 112.9474411 152.62986374 C115.35609799 152.64256121 117.76403182 152.63671874 120.17268372 152.62628174 C120.86909479 152.63433814 121.56550587 152.64239455 122.28302032 152.65069509 C126.85602999 152.60440703 129.99079345 151.69372099 133.859375 149.25878906 C136.20487174 145.74054395 136.43928903 144.40103212 135.859375 140.25878906 C133.68674 137.68593182 131.87943662 135.76881987 128.859375 134.25878906 C126.42735085 134.15689567 124.02370502 134.1153972 121.5912323 134.11834717 C120.83351054 134.11537605 120.07578878 134.11240492 119.29510576 134.10934377 C116.7425432 134.10063522 114.19002743 134.0991467 111.63745117 134.09765625 C109.81277872 134.09302959 107.98810724 134.08800514 106.16343689 134.08261108 C101.19643623 134.06947016 96.2294491 134.0630388 91.26243377 134.05860043 C88.16110727 134.05567234 85.05978449 134.05156803 81.95845985 134.04709625 C72.26057743 134.03341667 62.56270348 134.02375235 52.86481208 134.01989436 C41.65999852 134.01541277 30.4553069 133.99786207 19.25053042 133.96889377 C10.59655321 133.94729484 1.94261035 133.93719103 -6.71139354 133.93585324 C-11.88319784 133.9348039 -17.0548876 133.92886872 -22.22666359 133.91103363 C-27.09150508 133.89458395 -31.95614552 133.89238233 -36.82100487 133.90117264 C-38.60723788 133.90194469 -40.39348156 133.89757825 -42.1796875 133.88771439 C-44.61720961 133.87504259 -47.05401459 133.8808454 -49.49153137 133.89129639 C-50.19931931 133.88323998 -50.90710724 133.87518358 -51.6363433 133.86688304 C-55.97517655 133.91042672 -58.66907713 134.63962858 -62.140625 137.25878906 Z " fill="#FFFFFF" transform="translate(132.140625,160.7412109375)"/>
<path d="M0 0 C1.86155983 -0.00430527 1.86155983 -0.00430527 3.76072693 -0.00869751 C7.04483017 -0.01125352 10.32850269 0.0007615 13.61254883 0.01757812 C15.62098769 0.02343719 17.62903384 0.0175912 19.63745117 0.00732422 C23.50848545 -0.01122592 27.37894137 -0.00895958 31.25 0 C33.04081749 -0.00910904 33.04081749 -0.00910904 34.86781311 -0.0184021 C42.05034364 0.04234318 47.01440161 0.43652082 52.37109375 5.6484375 C54.47919621 9.08386374 54.98907334 11.3662539 55.05859375 15.3984375 C53.74425534 19.34145274 52.48434146 22.8663631 49.05859375 25.3984375 C48.39859375 25.3984375 47.73859375 25.3984375 47.05859375 25.3984375 C47.05859375 31.3384375 47.05859375 37.2784375 47.05859375 43.3984375 C49.78383301 43.37749023 52.50907227 43.35654297 55.31689453 43.33496094 C64.32536648 43.26865469 73.33384927 43.22448756 82.34250069 43.19118881 C87.80398603 43.17032235 93.26522116 43.14202151 98.7265625 43.09667969 C103.99798921 43.05318894 109.26917538 43.02929331 114.54076767 43.01892853 C116.55101177 43.011543 118.56124285 42.99712075 120.57138443 42.97551727 C123.38918665 42.9464406 126.20599745 42.94248331 129.02392578 42.94433594 C129.85327133 42.92995483 130.68261688 42.91557373 131.53709412 42.90075684 C138.0599747 42.94710057 141.5500562 45.09329489 146.37109375 49.5234375 C148.8346216 53.72055903 149.36784234 57.56090591 149.05859375 62.3984375 C147.51079126 67.724699 144.79937393 71.43544989 140.05859375 74.3984375 C135.92194581 75.67163131 131.81527234 75.53103538 127.52636719 75.51196289 C126.66746887 75.51210892 125.80857056 75.51225494 124.92364502 75.5124054 C122.08839379 75.51170946 119.25320849 75.50393195 116.41796875 75.49609375 C114.4507043 75.49422844 112.48343939 75.49280507 110.51617432 75.49180603 C105.34092931 75.48798977 100.16571242 75.47816706 94.99047852 75.46710205 C89.70849996 75.4568688 84.42651686 75.4523043 79.14453125 75.44726562 C68.78253974 75.43654401 58.42056908 75.41947825 48.05859375 75.3984375 C47.92320094 78.29584372 47.82432546 81.18689371 47.74609375 84.0859375 C47.70419922 84.90255859 47.66230469 85.71917969 47.61914062 86.56054688 C47.52822841 91.05161053 47.54326228 92.7771802 50.51367188 96.3581543 C51.35349609 97.03144775 52.19332031 97.70474121 53.05859375 98.3984375 C54.7921924 101.68833494 55.30176038 104.8758828 54.71484375 108.55078125 C53.43479347 112.64237055 51.92063865 115.14082548 48.20504761 117.5333252 C43.19308861 119.55335809 37.47550392 119.00743989 32.15625 119 C30.79153426 119.00778472 29.42682331 119.01645628 28.06211853 119.02597046 C25.2083258 119.04085189 22.35502809 119.04034445 19.5012207 119.02978516 C15.85803338 119.01819657 12.21688011 119.05206709 8.57402897 119.0984745 C5.75736303 119.12805096 2.94118148 119.12967943 0.12438774 119.12345505 C-1.86694939 119.1249701 -3.85821175 119.15263104 -5.84934998 119.18081665 C-15.93988356 119.07789829 -15.93988356 119.07789829 -20.25610352 115.47802734 C-23.93382635 111.68758556 -24.22647604 108.81261399 -24.16015625 103.65625 C-23.86030492 100.56135595 -22.94453116 98.75926328 -20.94140625 96.3984375 C-18.96140625 95.4084375 -18.96140625 95.4084375 -16.94140625 94.3984375 C-16.94140625 71.6284375 -16.94140625 48.8584375 -16.94140625 25.3984375 C-18.26140625 24.7384375 -19.58140625 24.0784375 -20.94140625 23.3984375 C-24.08009565 19.69926785 -24.47245147 16.30346579 -24.28515625 11.61328125 C-23.72648846 8.01368309 -22.39946914 6.04558215 -19.94140625 3.3984375 C-13.50766463 -0.31034083 -7.28878793 -0.03713757 0 0 Z M-13.94140625 11.3984375 C-13.61140625 13.0484375 -13.28140625 14.6984375 -12.94140625 16.3984375 C5.53859375 16.3984375 24.01859375 16.3984375 43.05859375 16.3984375 C43.38859375 14.7484375 43.71859375 13.0984375 44.05859375 11.3984375 C42.36784451 9.70768826 40.24317236 10.27094421 37.92797852 10.26904297 C36.28606285 10.26431473 36.28606285 10.26431473 34.61097717 10.25949097 C32.82354347 10.26252731 32.82354347 10.26252731 31 10.265625 C29.78537582 10.26466827 28.57075165 10.26371155 27.31932068 10.26272583 C24.74437407 10.26204373 22.16942575 10.26390009 19.59448242 10.26806641 C15.64172517 10.27340961 11.68908179 10.26812476 7.73632812 10.26171875 C5.24088516 10.26237962 2.74544228 10.26366096 0.25 10.265625 C-1.53439735 10.26258865 -1.53439735 10.26258865 -3.35484314 10.25949097 C-4.45260574 10.26264313 -5.55036835 10.26579529 -6.68139648 10.26904297 C-8.13581398 10.27023636 -8.13581398 10.27023636 -9.61961365 10.27145386 C-11.96689844 10.24547478 -11.96689844 10.24547478 -13.94140625 11.3984375 Z M-6.94140625 27.3984375 C-6.94140625 48.8484375 -6.94140625 70.2984375 -6.94140625 92.3984375 C7.57859375 92.3984375 22.09859375 92.3984375 37.05859375 92.3984375 C37.05859375 70.9484375 37.05859375 49.4984375 37.05859375 27.3984375 C22.53859375 27.3984375 8.01859375 27.3984375 -6.94140625 27.3984375 Z M47.05859375 53.3984375 C47.05859375 57.3584375 47.05859375 61.3184375 47.05859375 65.3984375 C67.51859375 65.3984375 87.97859375 65.3984375 109.05859375 65.3984375 C109.05859375 61.4384375 109.05859375 57.4784375 109.05859375 53.3984375 C88.59859375 53.3984375 68.13859375 53.3984375 47.05859375 53.3984375 Z M119.05859375 53.3984375 C119.05859375 57.0284375 119.05859375 60.6584375 119.05859375 64.3984375 C121.83046363 64.50631568 124.59814912 64.58567077 127.37109375 64.6484375 C128.54961914 64.69871094 128.54961914 64.69871094 129.75195312 64.75 C134.37525496 64.94239571 134.37525496 64.94239571 138.10546875 62.51171875 C139.21168945 60.47114207 139.21168945 60.47114207 138.99609375 58.3359375 C137.72243477 55.70370895 136.61115822 54.86174338 134.05859375 53.3984375 C131.38564925 53.18517065 128.96597255 53.11298119 126.30859375 53.2109375 C125.61121094 53.22447266 124.91382813 53.23800781 124.1953125 53.25195312 C122.48273834 53.287143 120.77056434 53.34094595 119.05859375 53.3984375 Z M-12.94140625 102.3984375 C-13.32359392 104.05458407 -13.65535727 105.72300774 -13.94140625 107.3984375 C-12.9116715 108.65093692 -12.9116715 108.65093692 -10.69517517 108.51869202 C-9.7025618 108.51647141 -8.70994843 108.51425079 -7.68725586 108.51196289 C-6.00562599 108.51184959 -6.00562599 108.51184959 -4.2900238 108.51173401 C-3.07025345 108.50657272 -1.85048309 108.50141144 -0.59375 108.49609375 C0.64781357 108.4946788 1.88937714 108.49326385 3.16856384 108.49180603 C6.47464866 108.48714341 9.78066521 108.47815247 13.08673096 108.46710205 C16.45820525 108.45688577 19.82968658 108.45230795 23.20117188 108.44726562 C29.8203315 108.43621145 36.43945868 108.41945486 43.05859375 108.3984375 C43.44078142 106.74229093 43.77254477 105.07386726 44.05859375 103.3984375 C43.028859 102.14593808 43.028859 102.14593808 40.81236267 102.27818298 C39.8197493 102.28040359 38.82713593 102.28262421 37.80444336 102.28491211 C36.12281349 102.28502541 36.12281349 102.28502541 34.4072113 102.28514099 C33.18744095 102.29030228 31.96767059 102.29546356 30.7109375 102.30078125 C28.84859215 102.30290367 28.84859215 102.30290367 26.94862366 102.30506897 C23.64253884 102.30973159 20.33652229 102.31872253 17.03045654 102.32977295 C13.65898225 102.33998923 10.28750092 102.34456705 6.91601562 102.34960938 C0.296856 102.36066355 -6.32227118 102.37742014 -12.94140625 102.3984375 Z " fill="#FFFFFF" transform="translate(152.94140625,36.6015625)"/>
</svg>
