<?xml version="1.0" encoding="UTF-8"?>
<svg version="1.1" xmlns="http://www.w3.org/2000/svg" width="512" height="512">
<path d="M0 0 C3.20843189 1.2940298 5.29468415 3.56516186 7.67816353 5.99045944 C8.21652659 6.52625923 8.75488965 7.06205901 9.30956674 7.61409515 C11.11471058 9.41429103 12.90891174 11.2250124 14.70337105 13.03585434 C15.99394071 14.32727005 17.285171 15.61802585 18.57701302 16.90816879 C22.08548017 20.41577371 25.58460815 23.93256454 29.08216572 27.45104337 C32.73767496 31.12528133 36.40165748 34.79104937 40.06476021 38.45771408 C47.0015577 45.40384321 53.93067116 52.35758567 60.85707498 59.31407732 C68.74227871 67.23279019 76.63598262 75.14300622 84.53042173 83.05251038 C100.77106834 99.32453136 117.00097957 115.60722491 133.22387886 131.89693832 C131.68340463 135.13311139 130.06151425 137.30326079 127.50854683 139.83932114 C126.36759056 140.98005081 126.36759056 140.98005081 125.20358467 142.14382553 C124.38270363 142.954384 123.56182259 143.76494247 122.71606636 144.60006332 C121.87544655 145.43785324 121.03482674 146.27564316 120.1687336 147.13882065 C117.48343885 149.81292264 114.79127231 152.47998557 112.09887886 155.14693832 C110.27680731 156.95897894 108.45518709 158.77147351 106.63403511 160.58443832 C102.16920634 165.02721868 97.69871603 169.46423998 93.22387886 173.89693832 C92.11604346 172.95587448 91.00943083 172.01337105 89.90332222 171.07027817 C89.28694389 170.54557938 88.67056557 170.02088058 88.03550911 169.48028183 C85.50595983 167.26948555 83.1450675 164.91293777 80.78637886 162.52193832 C79.92141792 161.64795395 79.05645699 160.77396957 78.16528511 159.87350082 C77.52462105 159.2212352 76.88395699 158.56896957 76.22387886 157.89693832 C72.60695113 159.42591408 70.30352666 161.57509465 67.54712105 164.34664536 C66.62646858 165.26744888 65.70581612 166.18825241 64.75726509 167.13695908 C63.76165356 168.14278297 62.76615238 169.14871612 61.77075386 170.15475082 C60.74557693 171.18365981 59.71995611 172.2121267 58.6939106 173.24016953 C55.99994722 175.94175414 53.31204519 178.64929173 50.62536812 181.35811996 C47.88059582 184.12338321 45.13012414 186.88296465 42.38012886 189.64303207 C36.98912314 195.05546107 31.60450922 200.47419271 26.22387886 205.89693832 C33.1758005 220.49918536 49.6017607 232.35511505 60.97387886 243.64693832 C63.89688175 246.54941197 66.81920521 249.45254976 69.73761177 252.35964584 C71.54167091 254.15626703 73.34797215 255.95064076 75.15692329 257.74233627 C78.79047139 261.3613335 82.35939915 264.98297212 85.70141792 268.87447739 C89.97346947 273.84477803 94.6331034 278.41136107 99.28637886 283.02193832 C100.24639261 283.97753202 101.20610339 284.93343016 102.16552925 285.88961411 C105.18214255 288.89491382 108.20269482 291.89623444 111.22387886 294.89693832 C114.73058037 298.37986843 118.23555352 301.86450334 121.73629951 305.35342026 C123.12273226 306.73346966 124.51225184 308.11041577 125.90185738 309.48727036 C130.24334837 313.81204292 134.40600831 318.197997 138.39746284 322.84566879 C142.17178261 327.08465217 146.25602878 331.02857052 150.28637886 335.02193832 C151.24639261 335.97753202 152.20610339 336.93343016 153.16552925 337.88961411 C156.18214255 340.89491382 159.20269482 343.89623444 162.22387886 346.89693832 C165.73058037 350.37986843 169.23555352 353.86450334 172.73629951 357.35342026 C174.12273226 358.73346966 175.51225184 360.11041577 176.90185738 361.48727036 C181.32685542 365.89522839 185.58038753 370.36638181 189.64819527 375.10531235 C192.0273303 377.8105002 194.59228587 380.29740436 197.19262886 382.78756332 C198.26872031 383.8364574 199.34422561 384.8859531 200.41919136 385.93600082 C202.08377051 387.55700979 203.75183456 389.17370987 205.42993355 390.78072739 C207.07055658 392.35508175 208.69507266 393.94462411 210.31762886 395.53756332 C210.82580147 396.01679245 211.33397408 396.49602158 211.85754585 396.9897728 C213.24536324 398.36666489 213.24536324 398.36666489 215.22387886 400.89693832 C214.95733403 404.70179126 212.91816888 406.59266163 210.31836128 409.22237778 C209.490476 410.06617493 208.66259071 410.90997208 207.809618 411.77933884 C206.45813416 413.1311248 206.45813416 413.1311248 205.07934761 414.51021957 C204.15801537 415.43916534 203.23668312 416.36811111 202.28743172 417.32520676 C200.33805884 419.28801517 198.38285969 421.24479549 196.42383003 423.19796371 C193.91153846 425.70434617 191.41801229 428.22853098 188.92895222 430.75795841 C186.55296678 433.16596038 184.15894695 435.55572449 181.76684761 437.94771957 C180.87193108 438.85903137 179.97701454 439.77034317 179.05497932 440.70927048 C178.21763756 441.53730682 177.38029579 442.36534317 176.51758003 443.21847153 C175.7833532 443.95475281 175.04912636 444.69103409 174.29265022 445.44962692 C172.22387886 446.89693832 172.22387886 446.89693832 170.0572834 446.70632553 C167.91469011 445.76044176 166.65736921 444.68798007 165.01684761 443.01803207 C164.42967964 442.42570786 163.84251167 441.83338364 163.23755074 441.2231102 C162.33359566 440.28821762 162.33359566 440.28821762 161.41137886 439.33443832 C160.8203437 438.73824692 160.22930855 438.14205551 159.62036324 437.5277977 C156.6793677 434.53548709 153.84823468 431.48552029 151.12744331 428.29171371 C146.70330596 423.21882986 141.94086236 418.50756554 137.16137886 413.77193832 C136.20136512 412.81634463 135.24165433 411.86044648 134.28222847 410.90426254 C131.26561517 407.89896282 128.2450629 404.89764221 125.22387886 401.89693832 C121.71717735 398.41400822 118.2122042 394.92937331 114.71145821 391.44045639 C113.32502546 390.06040699 111.93550588 388.68346088 110.54590034 387.30660629 C106.20005785 382.97749899 102.0323247 378.58720889 98.03686714 373.93478012 C94.33679272 369.77580877 90.33342688 365.90681195 86.38012886 361.99068832 C84.96196236 360.578309 83.54379879 359.16592671 82.12580299 357.75337601 C79.66064754 355.29906331 77.19217377 352.848093 74.72387886 350.39693832 C71.77402255 347.46756629 68.82480047 344.53757547 65.87951851 341.60360336 C64.05319457 339.78473219 62.22462525 337.9681118 60.39343452 336.15414047 C56.72295845 332.49813663 53.113648 328.84183755 49.73755074 324.9106102 C45.46899602 319.94278066 40.81169378 315.3795822 36.16137886 310.77193832 C35.20136512 309.81634463 34.24165433 308.86044648 33.28222847 307.90426254 C30.26561517 304.89896282 27.2450629 301.89764221 24.22387886 298.89693832 C20.71717735 295.41400822 17.2122042 291.92937331 13.71145821 288.44045639 C12.32502546 287.06040699 10.93550588 285.68346088 9.54590034 284.30660629 C5.08368389 279.86157317 0.77876612 275.35622165 -3.32351494 270.57662582 C-5.05106129 268.57901765 -6.8654923 266.69331381 -8.74096489 264.83443832 C-9.39516411 264.18346176 -10.04936333 263.5324852 -10.72338676 262.86178207 C-11.38016411 262.21338364 -12.03694145 261.5649852 -12.71362114 260.89693832 C-13.73939262 259.87793442 -13.73939262 259.87793442 -14.78588676 258.83834457 C-16.44699273 257.18885473 -18.11040627 255.54177152 -19.77612114 253.89693832 C-23.35091104 255.41501113 -25.63423837 257.51268543 -28.36108208 260.25484848 C-29.26171379 261.15563126 -30.1623455 262.05641403 -31.09026909 262.98449326 C-32.06378595 263.9682224 -33.03719239 264.95206082 -34.01049614 265.93600082 C-35.01325275 266.9424896 -36.01645336 267.94853622 -37.02007866 268.95415878 C-39.65485927 271.5965598 -42.28357725 274.24491261 -44.91106987 276.89455795 C-47.59551802 279.59949885 -50.28566736 282.29875654 -52.97533989 284.99850082 C-58.24785732 290.29244006 -63.51398171 295.59268115 -68.77612114 300.89693832 C-67.333078 303.91103139 -65.91020246 306.00165848 -63.51830864 308.35006332 C-62.89311333 308.96881332 -62.26791801 309.58756332 -61.62377739 310.22506332 C-60.97280083 310.85928207 -60.32182426 311.49350082 -59.65112114 312.14693832 C-58.9924102 312.79662582 -58.33369926 313.44631332 -57.65502739 314.11568832 C-56.03314986 315.71406038 -54.40593855 317.30667539 -52.77612114 318.89693832 C-57.21028786 324.20762637 -61.891288 329.14530449 -66.79955864 334.01803207 C-67.54573448 334.76279297 -68.29191032 335.50755386 -69.06069756 336.27488327 C-71.42181503 338.63044659 -73.78640276 340.98249049 -76.15112114 343.33443832 C-77.7620297 344.94032595 -79.3727091 346.54644349 -80.98315239 348.1527977 C-84.91149627 352.07017345 -88.84268788 355.9846732 -92.77612114 359.89693832 C-96.68498484 358.3086639 -99.31594437 355.63171365 -102.23040581 352.68316269 C-103.0379504 351.87818138 -103.0379504 351.87818138 -103.86180902 351.05693781 C-105.6645309 349.25751015 -107.46001149 347.45102747 -109.25561333 345.64449692 C-110.54639773 344.35314839 -111.83762266 343.06224006 -113.12925529 341.77173996 C-116.63546543 338.26610428 -120.13546953 334.75433082 -123.634408 331.24143934 C-127.29170026 327.57165518 -130.95464686 323.90752384 -134.61700249 320.24279404 C-141.55178848 313.30178875 -148.48145993 306.35570038 -155.40931726 299.40778029 C-163.29648992 291.49826262 -171.18933389 283.59441474 -179.08266401 275.69104266 C-195.32014356 259.43265094 -211.55047286 243.1671369 -227.77612114 226.89693832 C-224.60898552 223.15281362 -221.45051292 219.44473464 -217.97387505 215.98116684 C-217.29362267 215.30098999 -216.61337029 214.62081314 -215.9125042 213.92002487 C-215.19976341 213.21244537 -214.48702263 212.50486588 -213.75268364 211.77584457 C-213.0065078 211.03108368 -212.26033195 210.28632278 -211.49154472 209.51899338 C-209.13042725 207.16343005 -206.76583952 204.81138616 -204.40112114 202.45943832 C-202.79021258 200.8535507 -201.17953318 199.24743316 -199.56908989 197.64107895 C-195.64074601 193.7237032 -191.7095544 189.80920345 -187.77612114 185.89693832 C-184.76202808 187.33998146 -182.67140098 188.762857 -180.32299614 191.15475082 C-179.70424614 191.77994614 -179.08549614 192.40514145 -178.44799614 193.04928207 C-177.49666801 194.02574692 -177.49666801 194.02574692 -176.52612114 195.02193832 C-175.87643364 195.68064926 -175.22674614 196.3393602 -174.55737114 197.01803207 C-172.95900386 198.63990475 -171.36550217 200.26626642 -169.77612114 201.89693832 C-163.52967034 196.7011389 -157.86989603 191.05462769 -152.18041801 185.2621727 C-151.47078911 184.54480942 -150.7611602 183.82744614 -150.03002739 183.08834457 C-149.40426811 182.45098373 -148.77850883 181.81362289 -148.13378716 181.15694809 C-146.2424039 179.34390731 -144.32566484 177.65109354 -142.33384514 175.9536705 C-136.8095293 171.12869008 -131.66896812 165.92186239 -126.49487114 160.72921371 C-125.38061985 159.61467982 -124.26614727 158.50036712 -123.15147209 157.38625717 C-120.14773308 154.38280329 -117.14707209 151.37629164 -114.14698219 148.36919332 C-111.00311125 145.21904141 -107.85637961 142.07174966 -104.70995903 138.92414474 C-98.76187377 132.97296009 -92.8163407 127.01923251 -86.87173557 121.0645718 C-80.0997844 114.28141612 -73.32496973 107.50112347 -66.54992104 100.72106183 C-52.62214765 86.78285559 -38.69794816 72.84108378 -24.77612114 58.89693832 C-26.21916427 55.88284526 -27.64203982 53.79221817 -30.03393364 51.44381332 C-30.65912895 50.82506332 -31.28432426 50.20631332 -31.92846489 49.56881332 C-32.90492973 48.6174852 -32.90492973 48.6174852 -33.90112114 47.64693832 C-34.55983208 46.99725082 -35.21854301 46.34756332 -35.89721489 45.67818832 C-37.51908757 44.07982105 -39.14544924 42.48631935 -40.77612114 40.89693832 C-39.36155814 37.69783389 -37.66322093 35.51827441 -35.21606255 33.03048325 C-34.48835655 32.28678986 -33.76065056 31.54309647 -33.01089287 30.77686691 C-32.22443382 29.98504517 -31.43797478 29.19322342 -30.62768364 28.37740707 C-29.41427803 27.15045876 -29.41427803 27.15045876 -28.17635918 25.8987236 C-26.46593762 24.1738052 -24.75269934 22.45167595 -23.03686333 20.7321434 C-20.40584164 18.08918025 -17.79404359 15.42814606 -15.18237114 12.76607895 C-13.51946013 11.09370923 -11.855435 9.42244643 -10.19018364 7.75240707 C-9.40777306 6.95046417 -8.62536247 6.14852127 -7.81924248 5.32227707 C-7.08523216 4.59434448 -6.35122185 3.8664119 -5.5949688 3.11642075 C-4.95258263 2.46896393 -4.31019646 1.82150711 -3.64834404 1.15443039 C-1.77612114 -0.10306168 -1.77612114 -0.10306168 0 0 Z M-4.37768364 30.30318832 C-5.39059656 31.32942904 -6.39820241 32.36092837 -7.40112114 33.39693832 C-7.91674614 33.92158676 -8.43237114 34.4462352 -8.96362114 34.98678207 C-10.23897046 36.28574898 -11.50813375 37.59078409 -12.77612114 38.89693832 C-11.40621266 41.96600859 -9.84894561 44.07353356 -7.476408 46.44388962 C-6.79525932 47.12923279 -6.11411064 47.81457596 -5.41232109 48.5206871 C-4.66531944 49.26206924 -3.91831779 50.00345139 -3.14867973 50.76729965 C-2.36144524 51.5564325 -1.57421074 52.34556534 -0.76312065 53.1586113 C1.84487004 55.77031106 4.46000196 58.37473084 7.07544136 60.97896957 C8.89224282 62.79457863 10.70867445 64.61055783 12.52475166 66.42689133 C16.33657747 70.23715175 20.15161895 74.0441465 23.96948433 77.84835434 C28.36703179 82.23022732 32.75938279 86.61725301 37.14873183 91.00733739 C41.38465707 95.24387617 45.62350396 99.47747569 49.8638134 103.70962715 C51.66084636 105.50348867 53.45728375 107.29794701 55.25310326 109.0930233 C57.77292838 111.61066555 60.29602913 114.12497877 62.82007027 116.6383934 C63.92235466 117.74135757 63.92235466 117.74135757 65.04690742 118.86660385 C69.04496009 122.84022961 73.13119841 126.64726278 77.41532135 130.31156063 C80.49289067 133.0093514 83.35307215 135.92013454 86.22387886 138.83443832 C86.80782417 139.42289536 87.39176949 140.01135239 87.99341011 140.61764145 C89.40592691 142.04173626 90.81525696 143.46899082 92.22387886 144.89693832 C95.90457773 143.3604998 98.2116309 141.11542887 100.97387886 138.27193832 C101.77309761 137.4546727 102.57231636 136.63740707 103.39575386 135.79537582 C103.99903511 135.16889145 104.60231636 134.54240707 105.22387886 133.89693832 C100.28543551 127.94470935 94.95475849 122.47980392 89.48657417 117.01436996 C88.51337934 116.03817756 87.54038796 115.06178228 86.56758308 114.08520126 C83.94427092 111.45311503 81.31778036 108.82422349 78.69039822 106.19620061 C77.04852961 104.55361881 75.40737604 102.91032606 73.76647377 101.26677895 C68.04141629 95.53249653 62.31380849 89.80077602 56.58374214 84.07149887 C51.24064023 78.72900001 45.90316668 73.38092289 40.56824422 68.03025728 C35.98315112 63.43211577 31.3942386 58.83781015 26.8022964 54.24650854 C24.06131249 51.50578001 21.32191589 48.76350894 18.58634377 46.01737785 C16.01997898 43.4413752 13.44891541 40.87015943 10.87407684 38.30262756 C9.47561173 36.90571572 8.08211345 35.50383713 6.68873787 34.1018486 C5.86165825 33.27896347 5.03457863 32.45607834 4.18243599 31.60825729 C3.46201244 30.88728898 2.7415889 30.16632067 1.99933434 29.42350483 C-0.9793509 26.86238112 -1.50454985 27.64575527 -4.37768364 30.30318832 Z M-13.70030409 75.69203997 C-14.54221608 76.53832122 -14.54221608 76.53832122 -15.4011364 77.40169907 C-16.29059067 78.2898717 -16.29059067 78.2898717 -17.19801372 79.19598722 C-19.20112991 81.19744523 -21.20063131 83.20247691 -23.20019341 85.2074852 C-24.6286795 86.63625312 -26.05738534 88.06480137 -27.4862957 89.49314499 C-31.37885117 93.3854123 -35.26830509 97.28076589 -39.15723348 101.17665672 C-43.21672667 105.24238043 -47.27903198 109.30529232 -51.34104729 113.36849594 C-59.03890652 121.06946938 -66.73421203 128.77298949 -74.42861646 136.47741461 C-83.18588051 145.245837 -91.94596762 154.01143665 -100.7062999 162.77679348 C-118.73272966 180.81368967 -136.75558891 198.85415009 -154.77612114 216.89693832 C-153.84225697 217.99732485 -152.90679973 219.09635947 -151.97069931 220.19484425 C-151.44994288 220.80701803 -150.92918646 221.41919182 -150.39264953 222.04991633 C-147.82429278 224.98448366 -145.07700609 227.72709659 -142.31176567 230.47481918 C-141.69641457 231.09031631 -141.08106346 231.70581345 -140.44706535 232.33996201 C-138.43671904 234.3496183 -136.42286703 236.35572106 -134.40893364 238.36178207 C-133.00481453 239.76403376 -131.60091778 241.16650814 -130.1972332 242.56919479 C-126.52027735 246.242351 -122.84032723 249.91249287 -119.1597271 253.58199692 C-115.39721877 257.334236 -111.63757535 261.08934325 -107.87768364 264.84420395 C-100.51328365 272.19791168 -93.14571447 279.54843541 -85.77612114 286.89693832 C-81.68328607 285.27274681 -78.94226862 282.33631776 -75.90423393 279.26556015 C-75.02931073 278.39320022 -75.02931073 278.39320022 -74.13671231 277.50321686 C-72.18197722 275.551778 -70.23447972 273.59327305 -68.28686333 271.63473129 C-66.8877059 270.23500978 -65.48810804 268.83572839 -64.08810234 267.43685532 C-60.2864481 263.63577569 -56.49099866 259.82855416 -52.69661427 256.02021933 C-48.73102107 252.04213705 -44.75977632 248.06970495 -40.78912163 244.09667587 C-33.26997318 236.5713073 -25.7559382 229.04085427 -18.24371648 221.50857174 C-9.69150058 212.93401343 -1.1336157 204.36512271 7.42475557 195.79670882 C25.03078889 178.16976145 42.62967317 160.53569081 60.22387886 142.89693832 C58.94585512 140.09634405 57.62160433 138.04501207 55.44651985 135.87234116 C54.88146736 135.30309418 54.31641487 134.7338472 53.73423958 134.14735031 C53.11650169 133.53523193 52.49876381 132.92311356 51.86230659 132.29244614 C51.21013161 131.6383728 50.55795662 130.98429947 49.88601875 130.31040573 C47.73135759 128.15204281 45.56958614 126.00095888 43.40747261 123.85006332 C41.9102057 122.35398836 40.41330808 120.85754372 38.91676521 119.36074448 C35.78174242 116.22728536 32.64338858 113.09721449 29.50244331 109.96969223 C25.46629427 105.95056948 21.43679622 101.92485838 17.40953159 97.89683533 C14.32074049 94.80831539 11.22935589 91.72240278 8.13707352 88.63737869 C6.64963728 87.15313504 5.16281512 85.66827573 3.67660522 84.18280411 C1.60559711 82.11395125 -0.46866206 80.04841752 -2.54394341 77.98385239 C-3.16370552 77.36363708 -3.78346764 76.74342178 -4.42201042 76.10441208 C-9.05377277 71.22862966 -9.05377277 71.22862966 -13.70030409 75.69203997 Z M-190.49877739 216.52193832 C-191.61458762 217.64443005 -192.7277478 218.76956058 -193.83862114 219.89693832 C-194.40645317 220.46928207 -194.9742852 221.04162582 -195.55932426 221.63131332 C-196.96715703 223.05097661 -198.37192362 224.4736793 -199.77612114 225.89693832 C-194.83429395 231.85819055 -189.49110285 237.31728873 -184.00707817 242.77950668 C-183.03062107 243.7556812 -182.05438513 244.73207699 -181.07835197 245.70867538 C-178.44672727 248.34058526 -175.81204593 250.96941537 -173.17677736 253.59767604 C-170.41633172 256.3518413 -167.65874564 259.10886674 -164.90084648 261.86558151 C-159.68628025 267.07704819 -154.46917171 272.28596198 -149.25112998 277.49394852 C-143.30715964 283.42671489 -137.36605183 289.36234431 -131.42517495 295.29820812 C-119.21199128 307.50095856 -106.99524304 319.70013414 -94.77612114 331.89693832 C-91.1430903 330.20107706 -88.83063068 328.15893344 -86.02612114 325.27193832 C-85.22690239 324.4546727 -84.42768364 323.63740707 -83.60424614 322.79537582 C-83.00096489 322.16889145 -82.39768364 321.54240707 -81.77612114 320.89693832 C-83.26940961 317.41954619 -85.2527582 315.17114204 -87.92017937 312.50564194 C-88.7881414 311.63348541 -89.65610344 310.76132889 -90.55036736 309.86274338 C-91.51427552 308.90431822 -92.47828339 307.94599332 -93.44238091 306.98775864 C-94.4562413 305.97282507 -95.46966852 304.95745864 -96.48269463 303.94169235 C-99.2321219 301.18742075 -101.98775347 298.43943462 -104.74467397 295.69266605 C-107.62627389 292.8198483 -110.50260191 289.94176117 -113.37962151 287.06435776 C-118.20914978 282.23576572 -123.04253448 277.41106155 -127.87841606 272.58883286 C-133.47696881 267.00602741 -139.07025573 261.4179905 -144.66057354 255.82693982 C-150.03273962 250.4541645 -155.40775198 245.08424671 -160.78437424 239.71593094 C-163.0758177 237.42802654 -165.36640218 235.13926712 -167.65634155 232.84985733 C-170.34862407 230.15857566 -173.04342925 227.46984578 -175.74025154 224.78311348 C-176.73242596 223.79387174 -177.72374379 222.80377006 -178.71416473 221.81277275 C-180.06014852 220.46630193 -181.40949683 219.12319685 -182.75904655 217.78030014 C-183.51508454 217.025938 -184.27112253 216.27157585 -185.05007076 215.49435425 C-187.85842244 212.89529587 -187.46640059 213.59832684 -190.49877739 216.52193832 Z M7.52807808 223.36568832 C6.86823921 224.03600082 6.20840034 224.70631332 5.52856636 225.39693832 C4.45542183 226.47975082 4.45542183 226.47975082 3.36059761 227.58443832 C2.24104683 228.72912582 2.24104683 228.72912582 1.09887886 229.89693832 C0.3447773 230.66006332 -0.40932426 231.42318832 -1.18627739 232.20943832 C-3.0540908 234.10089494 -4.91709381 235.99685195 -6.77612114 237.89693832 C-2.0385953 243.60089851 3.04616023 248.83489578 8.31372261 254.04928207 C9.17647301 254.90824585 10.0392234 255.76720963 10.92811775 256.65220261 C14.59347429 260.3013194 18.26476094 263.94444857 21.93554878 267.58810043 C24.62619267 270.26057237 27.31376497 272.93610665 30.00122261 275.61178207 C30.82122246 276.42348358 31.64122231 277.23518509 32.48607063 278.07148361 C36.00049645 281.57104401 39.43951642 285.08091825 42.67138863 288.84444809 C46.95536809 293.82320399 51.62299043 298.4013409 56.28637886 303.02193832 C57.24639261 303.97753202 58.20610339 304.93343016 59.16552925 305.88961411 C62.18214255 308.89491382 65.20269482 311.89623444 68.22387886 314.89693832 C71.73058037 318.37986843 75.23555352 321.86450334 78.73629951 325.35342026 C80.12273226 326.73346966 81.51225184 328.11041577 82.90185738 329.48727036 C87.24769987 333.81637766 91.41543302 338.20666776 95.41089058 342.85909653 C99.110965 347.01806787 103.11433084 350.8870647 107.06762886 354.80318832 C108.48579536 356.21556765 109.90395893 357.62794993 111.32195473 359.04050064 C113.78711018 361.49481334 116.25558395 363.94578365 118.72387886 366.39693832 C121.67373517 369.32631036 124.62295725 372.25630118 127.56823921 375.19027328 C129.39456315 377.00914446 131.22313247 378.82576484 133.0543232 380.63973618 C137.42835704 384.99652375 141.6339245 389.41895124 145.65616035 394.10213852 C147.9752173 396.75710683 150.43858534 399.22342612 152.93872261 401.70943832 C153.43932701 402.20862778 153.93993141 402.70781723 154.45570564 403.22213364 C156.0218865 404.78281203 157.59154357 406.3399368 159.16137886 407.89693832 C160.2377854 408.9683172 161.313959 410.03993015 162.38989449 411.11178207 C164.99854631 413.7095347 167.61032357 416.30411794 170.22387886 418.89693832 C174.5527172 415.26762259 178.69044308 411.54727049 182.66137886 407.52193832 C183.5263398 406.64795395 184.39130074 405.77396957 185.28247261 404.87350082 C186.2434687 403.89510239 186.2434687 403.89510239 187.22387886 402.89693832 C185.79505672 399.63460711 184.05334634 397.48699923 181.52783394 394.98971176 C180.3907373 393.85768326 180.3907373 393.85768326 179.23066902 392.70278549 C178.40987358 391.89544968 177.58907814 391.08811386 176.74341011 390.25631332 C175.89719597 389.41530075 175.05098183 388.57428818 174.17912483 387.70779037 C171.46957357 385.01605495 168.75345809 382.33107306 166.03637886 379.64693832 C163.33798124 376.97627471 160.64109162 374.30413311 157.94719124 371.62893295 C156.27154472 369.96541235 154.59323283 368.30457072 152.91182137 366.64687729 C149.41239153 363.17698187 145.9925191 359.69621814 142.78125191 355.95650864 C138.49608492 350.97482158 133.82689271 346.39464166 129.16137886 341.77193832 C128.20136512 340.81634463 127.24165433 339.86044648 126.28222847 338.90426254 C123.26561517 335.89896282 120.2450629 332.89764221 117.22387886 329.89693832 C113.71717735 326.41400822 110.2122042 322.92937331 106.71145821 319.44045639 C105.32502546 318.06040699 103.93550588 316.68346088 102.54590034 315.30660629 C98.20005785 310.97749899 94.0323247 306.58720889 90.03686714 301.93478012 C86.33679272 297.77580877 82.33342688 293.90681195 78.38012886 289.99068832 C76.96196236 288.578309 75.54379879 287.16592671 74.12580299 285.75337601 C71.66064754 283.29906331 69.19217377 280.848093 66.72387886 278.39693832 C63.77402255 275.46756629 60.82480047 272.53757547 57.87951851 269.60360336 C56.05319457 267.78473219 54.22462525 265.9681118 52.39343452 264.15414047 C48.03648143 259.81436631 43.84756442 255.41000741 39.84085274 250.74544907 C37.24807843 247.7814116 34.48522518 244.99596108 31.70434761 242.20943832 C31.11970238 241.62146469 30.53505714 241.03349106 29.93269539 240.42770004 C28.71310272 239.20309804 27.49220248 237.97979692 26.27002144 236.75777817 C24.39302417 234.87856194 22.52420997 232.99144209 20.65551949 231.10396957 C19.46395047 229.90947188 18.27191057 228.71544368 17.07934761 227.52193832 C16.52103752 226.95644272 15.96272743 226.39094711 15.38749886 225.80831528 C11.82253318 221.66089521 11.82253318 221.66089521 7.52807808 223.36568832 Z " fill="#FFFFFF" transform="translate(291.77612113952637,0.10306167602539063)"/>
<path d="M0 0 C65.01 0 130.02 0 197 0 C197 12.54 197 25.08 197 38 C206.9 38 216.8 38 227 38 C227 56.81 227 75.62 227 95 C143.84 95 60.68 95 -25 95 C-25 76.19 -25 57.38 -25 38 C-16.75 38 -8.5 38 0 38 C0 25.46 0 12.92 0 0 Z M20 20 C20 25.94 20 31.88 20 38 C71.81 38 123.62 38 177 38 C177 32.06 177 26.12 177 20 C125.19 20 73.38 20 20 20 Z M-6 58 C-6 63.94 -6 69.88 -6 76 C64.29 76 134.58 76 207 76 C207 70.06 207 64.12 207 58 C136.71 58 66.42 58 -6 58 Z " fill="#FFFFFF" transform="translate(30,417)"/>
</svg>
