<?xml version="1.0" encoding="UTF-8"?>
<svg version="1.1" xmlns="http://www.w3.org/2000/svg" width="512" height="512">
<path d="M0 0 C4.36768906 3.64764649 8.4005271 7.6195023 12.43554688 11.62744141 C13.31146484 12.47048828 14.18738281 13.31353516 15.08984375 14.18212891 C23.06774794 22.09350016 28.27048209 30.09188338 28.49804688 41.56494141 C28.40098314 49.70616255 26.07999712 56.33092816 21.24804688 62.87744141 C20.58804687 64.19744141 19.92804688 65.51744141 19.24804688 66.87744141 C26.67304687 74.30244141 26.67304687 74.30244141 34.24804688 81.87744141 C38.92265516 77.87063431 43.28046978 73.93490108 47.52148438 69.52587891 C48.6875416 68.33257474 49.85422759 67.13988472 51.02148438 65.94775391 C52.82659288 64.09945629 54.62753239 62.2477753 56.41796875 60.38525391 C70.4029099 45.86419781 70.4029099 45.86419781 80.68945312 44.38134766 C93.52516435 44.62231846 99.1109455 47.89710203 108.24804688 56.87744141 C109.94474871 58.81655275 111.61892319 60.77557736 113.27148438 62.75244141 C123.64677116 75.40503338 123.64677116 75.40503338 138.26757812 81.45166016 C144.19696338 81.74420455 150.07607396 81.39034498 155.99365234 80.98681641 C182.44811521 80.09772418 210.65737986 96.17098437 229.56054688 113.37744141 C252.82391399 135.18090773 268.35238159 165.83815885 269.63336182 198.07568359 C269.71519367 201.57324517 269.71688338 205.06672494 269.68554688 208.56494141 C269.6804863 209.67121384 269.6804863 209.67121384 269.67532349 210.79983521 C269.5212892 234.16233125 264.98470852 264.69914981 248.45117188 282.85009766 C246.55284838 286.048896 247.45802009 288.32048359 248.24804688 291.87744141 C249.00192097 294.72926319 249.83999819 297.55168216 250.68554688 300.37744141 C257.5944905 324.54020489 256.65563126 349.40229651 249.37304688 373.37744141 C249.0247583 374.55185791 249.0247583 374.55185791 248.66943359 375.75 C247.09557014 380.5647309 245.29660273 383.6134894 241.24804688 386.87744141 C237.20607107 388.05328891 235.00186567 388.12388217 230.99804688 386.81494141 C227.52695759 384.36940123 226.43955295 382.97324356 225.24804688 378.87744141 C225.59745978 373.12801093 227.61822988 367.61346693 229.24804688 362.12744141 C235.70067441 339.88032259 233.87780784 318.46268719 226.24804688 296.87744141 C225.8896875 295.84876953 225.53132813 294.82009766 225.16210938 293.76025391 C222.80219279 287.58430199 219.69423937 281.99787384 216.24804688 276.37744141 C215.83272705 275.69423828 215.41740723 275.01103516 214.98950195 274.30712891 C211.78477629 269.2451119 208.80747756 265.57546796 202.81054688 263.93994141 C198.57421166 263.86561974 196.67380674 264.38597969 193.24804688 266.87744141 C190.21334671 271.96790619 189.99898065 275.17438782 191.24804688 280.87744141 C192.88332069 284.07526692 192.88332069 284.07526692 194.99804688 287.12744141 C207.55590238 306.62236384 212.2371215 328.97356154 208.06054688 351.81494141 C204.4900407 367.33162712 197.16411392 379.47371501 186.24804688 390.87744141 C185.6215625 391.57869141 184.99507813 392.27994141 184.34960938 393.00244141 C172.10786572 406.22559067 153.69468525 413.46262361 135.83789062 414.21337891 C115.45045488 414.536989 97.82188272 410.97089374 80.62304688 399.42822266 C75.80571615 396.28269585 72.07803206 395.1240636 66.24804688 395.87744141 C63.40680034 397.11276599 61.82706829 398.13298531 59.93554688 400.56494141 C58.91722036 403.99022152 58.48135725 407.38835388 59.24804688 410.87744141 C62.20111527 415.49899345 66.0377158 418.02284819 70.62304688 420.81494141 C71.33420654 421.2502417 72.04536621 421.68554199 72.77807617 422.1340332 C96.98153821 436.63562871 125.59688163 441.68292596 153.16796875 435.40429688 C159.6086049 433.77297143 166.30222614 431.85035178 172.24804688 428.87744141 C176.88018181 428.32231325 180.22976815 428.2410172 184.24804688 430.75244141 C187.28709229 433.98142716 187.44310507 436.22190363 187.77148438 440.61181641 C186.95342748 444.15265969 184.89171226 446.5081818 182.24804688 448.87744141 C179.77620825 450.17235105 177.66367954 451.12270433 175.06054688 452.00244141 C174.02692017 452.37018677 174.02692017 452.37018677 172.97241211 452.74536133 C138.58056983 464.51779035 102.43074837 461.62449983 69.86523438 445.88745117 C56.87983653 439.35507464 43.00897619 431.08437858 37.90820312 416.70947266 C35.68876436 407.18821169 36.55282246 397.48535284 41.24804688 388.87744141 C46.31927495 381.38744787 52.8359599 376.48305285 61.66601562 374.27197266 C76.20508266 372.05042081 85.80835637 376.21019337 97.83007812 383.90869141 C111.86841635 391.99477422 128.74269655 394.26187938 144.56054688 390.81494141 C159.21675451 386.45659474 172.11385364 376.86724999 180.24804688 363.87744141 C188.50028451 347.6802303 189.31071485 330.98005947 183.8984375 313.75097656 C181.57496999 307.05792487 178.187121 301.10139907 174.06054688 295.37744141 C168.76754782 287.646877 167.53038874 278.92936358 168.68945312 269.75244141 C170.72571264 259.27211273 176.10969308 252.22915742 184.10742188 245.25634766 C194.54710894 236.03781665 199.40843758 220.70830972 200.55664062 207.26416016 C201.08341245 191.89200056 196.72911197 177.60237563 186.99804688 165.62744141 C175.89647892 153.74852077 160.94416977 148.28443008 144.93554688 147.56494141 C135.00422837 147.904321 125.82852391 150.18399731 116.93554688 154.50244141 C116.00440063 154.94330078 116.00440063 154.94330078 115.05444336 155.39306641 C101.83512684 162.23298094 91.36987018 175.71616283 81.125 186.24731445 C60.32158947 207.60160161 60.32158947 207.60160161 44.49804688 208.25244141 C26.34471973 207.82237505 15.48177181 193.35672923 3.46875 181.44824219 C2.06616901 180.06232746 0.65822995 178.6818153 -0.75488281 177.30664062 C-2.82619886 175.29033644 -4.88034696 173.25783902 -6.93164062 171.22119141 C-7.87074783 170.31608826 -7.87074783 170.31608826 -8.8288269 169.3927002 C-15.24693253 162.9434894 -18.34739582 155.71976269 -18.84179688 146.64306641 C-18.34487771 131.3465982 -4.89356748 121.88695406 5.18554688 111.87744141 C6.45466061 110.6133529 7.72354276 109.34903185 8.9921875 108.08447266 C12.07481007 105.01277417 15.16055115 101.94424132 18.24804688 98.87744141 C16.96629969 96.05866129 15.63797072 94.02502645 13.42773438 91.86181641 C12.89277344 91.33330078 12.3578125 90.80478516 11.80664062 90.26025391 C11.25105469 89.72142578 10.69546875 89.18259766 10.12304688 88.62744141 C9.55972656 88.07314453 8.99640625 87.51884766 8.41601562 86.94775391 C7.0311866 85.58639656 5.64021483 84.23129282 4.24804688 82.87744141 C1.08300657 84.31026371 -1.3426663 86.09089757 -4.00195312 88.31494141 C-12.42664636 94.86899773 -20.06601112 96.11261392 -30.75195312 94.87744141 C-36.97777923 93.13953701 -42.70970727 90.9908525 -47.75195312 86.87744141 C-51.31959598 88.39120222 -53.589016 90.4825727 -56.29882812 93.22900391 C-57.56533203 94.50517578 -57.56533203 94.50517578 -58.85742188 95.80712891 C-59.73011719 96.69658203 -60.6028125 97.58603516 -61.50195312 98.50244141 C-62.39011719 99.39962891 -63.27828125 100.29681641 -64.19335938 101.22119141 C-66.38412282 103.43551145 -68.57008076 105.65436576 -70.75195312 107.87744141 C-69.37877449 111.46364454 -67.77270697 114.66020373 -65.75195312 117.93603516 C-61.86686775 125.47856418 -61.64425312 133.60535024 -63.36914062 141.81494141 C-68.72113952 158.48665477 -86.95282098 175.26387028 -101.68554688 183.97900391 C-103.75195312 184.87744141 -103.75195312 184.87744141 -106.75195312 184.87744141 C-106.75195312 189.49744141 -106.75195312 194.11744141 -106.75195312 198.87744141 C-104.55067749 198.84602051 -104.55067749 198.84602051 -102.30493164 198.81396484 C-96.83139909 198.74126078 -91.35790878 198.69553091 -85.8840332 198.65771484 C-83.52035328 198.63766859 -81.15672251 198.61042422 -78.79321289 198.57568359 C-75.38480455 198.5268587 -71.97705509 198.50440192 -68.56835938 198.48681641 C-67.52112198 198.46617126 -66.47388458 198.44552612 -65.39491272 198.42425537 C-57.36458727 198.42183008 -51.73454075 200.34306746 -45.00195312 204.62744141 C-40.9697848 208.65960973 -36.93984407 214.10116572 -36.64756775 219.97540283 C-36.66044579 221.18616486 -36.66044579 221.18616486 -36.67358398 222.42138672 C-36.6794603 223.33954163 -36.68533661 224.25769653 -36.69139099 225.20367432 C-36.69977493 226.19429871 -36.70815887 227.1849231 -36.71679688 228.20556641 C-36.71308327 230.30583171 -36.70715379 232.40609406 -36.69921875 234.50634766 C-36.68866842 237.81620711 -36.68941223 241.12391386 -36.7277832 244.43359375 C-36.76097053 247.62960462 -36.7432844 250.82206231 -36.71679688 254.01806641 C-36.75062721 255.4918576 -36.75062721 255.4918576 -36.78514099 256.99542236 C-36.71493911 261.03162667 -36.64343617 263.7802364 -34.04055786 266.98376465 C-32.01907809 268.75911031 -29.93996488 270.31503491 -27.75195312 271.87744141 C-15.67505472 282.59446321 -7.17573683 296.19706915 -0.75195312 310.87744141 C-0.46980957 311.51762207 -0.18766602 312.15780273 0.10302734 312.81738281 C12.85995644 342.42819231 13.37761882 377.16427451 1.66259766 407.16967773 C-5.18671908 423.90097791 -14.27557062 437.84605968 -26.75195312 450.87744141 C-27.43515625 451.62380859 -28.11835938 452.37017578 -28.82226562 453.13916016 C-49.72230557 475.23458984 -81.19936526 488.06976466 -111.33789062 489.08056641 C-135.53519493 489.47518329 -157.54295147 484.55178756 -178.75195312 472.87744141 C-179.65300781 472.39533203 -180.5540625 471.91322266 -181.48242188 471.41650391 C-208.89620936 455.94314262 -229.57443294 429.09558503 -238.19335938 398.95556641 C-244.49173429 375.98450588 -245.81953234 349.88203525 -238.75195312 326.87744141 C-238.53764648 326.1560498 -238.32333984 325.4346582 -238.10253906 324.69140625 C-231.09566113 301.62582481 -217.62234789 282.0647519 -199.75195312 265.87744141 C-199.09195313 265.54744141 -198.43195313 265.21744141 -197.75195312 264.87744141 C-197.75052811 264.31082794 -197.74910309 263.74421448 -197.74763489 263.16043091 C-197.72783052 257.22186904 -197.67332925 251.28432026 -197.59936523 245.34619141 C-197.5762782 243.13500252 -197.56181152 240.92370512 -197.55639648 238.71240234 C-197.54703899 235.51933894 -197.50589873 232.32796066 -197.45898438 229.13525391 C-197.46291702 228.15879913 -197.46684967 227.18234436 -197.47090149 226.17630005 C-197.30264288 218.12257418 -195.02888868 211.43362886 -189.50585938 205.43994141 C-188.78269531 204.92431641 -188.05953125 204.40869141 -187.31445312 203.87744141 C-186.23357422 203.07306641 -186.23357422 203.07306641 -185.13085938 202.25244141 C-178.68900075 198.52906828 -172.68613299 198.61033768 -165.44726562 198.68212891 C-164.36814911 198.6849588 -163.28903259 198.6877887 -162.17721558 198.69070435 C-158.74368014 198.7018648 -155.31040922 198.7269621 -151.87695312 198.75244141 C-149.54362357 198.76247654 -147.21028991 198.77160146 -144.87695312 198.77978516 C-139.16853013 198.80179061 -133.46026053 198.83522714 -127.75195312 198.87744141 C-127.52724954 194.05292325 -127.60585696 189.58542468 -128.75195312 184.87744141 C-130.97695591 182.6586223 -133.07954854 181.64812407 -135.91796875 180.31982422 C-141.12130934 177.67153543 -144.92483759 173.36072755 -149.00195312 169.25244141 C-150.28972656 168.01300781 -150.28972656 168.01300781 -151.60351562 166.74853516 C-159.69187299 158.67262142 -165.35885142 149.73947554 -165.93945312 138.12744141 C-165.63797288 123.49194579 -157.56321566 114.00745929 -147.53979492 104.14379883 C-145.9382458 102.56375029 -144.3592873 100.96335674 -142.78125 99.35986328 C-133.88628365 90.4384936 -125.0572192 83.60910897 -111.93945312 83.56494141 C-102.37480601 83.7260302 -96.21162544 86.00493341 -88.75195312 91.87744141 C-85.18431027 90.36368059 -82.91489025 88.27231012 -80.20507812 85.52587891 C-78.93857422 84.24970703 -78.93857422 84.24970703 -77.64648438 82.94775391 C-76.77378906 82.05830078 -75.90109375 81.16884766 -75.00195312 80.25244141 C-74.11378906 79.35525391 -73.225625 78.45806641 -72.31054688 77.53369141 C-70.11978343 75.31937137 -67.93382549 73.10051706 -65.75195312 70.87744141 C-66.94554537 68.39434325 -68.16676457 66.28114996 -69.75195312 64.00244141 C-75.02782951 55.75888456 -75.46791036 46.87655966 -73.46289062 37.50244141 C-71.1181842 28.84506383 -65.88912553 23.21990311 -59.75195312 16.87744141 C-59.15205566 16.24644531 -58.5521582 15.61544922 -57.93408203 14.96533203 C-42.04304658 -1.70748736 -22.02342047 -17.06453878 0 0 Z M-40.50195312 27.31494141 C-41.35144531 28.16121094 -42.2009375 29.00748047 -43.07617188 29.87939453 C-50.65800724 37.17557141 -50.65800724 37.17557141 -53.75195312 46.87744141 C-52.94176553 49.34928763 -51.90265789 51.53000369 -50.75195312 53.87744141 C-47.64841447 54.2078473 -47.64841447 54.2078473 -45.59570312 51.97900391 C-44.82226562 51.16173828 -44.04882812 50.34447266 -43.25195312 49.50244141 C-36.67206009 42.59355372 -36.67206009 42.59355372 -31.37695312 42.43994141 C-27.82125267 42.53854974 -26.7985728 42.8469959 -23.68945312 44.87744141 C-21.6973515 47.96198586 -20.95813906 50.07396755 -21.20117188 53.76806641 C-22.27365781 57.87545934 -24.99323817 60.75214046 -27.75195312 63.87744141 C-28.32429688 64.55677734 -28.89664063 65.23611328 -29.48632812 65.93603516 C-30.89082027 67.59801753 -32.31907621 69.23986779 -33.75195312 70.87744141 C-30.81464568 73.37959219 -28.64673442 74.69628879 -24.75195312 74.87744141 C-19.48198692 73.01575585 -15.83511389 70.59598737 -11.85351562 66.65087891 C-11.07287247 65.89020615 -11.07287247 65.89020615 -10.27645874 65.11416626 C-9.18741499 64.0452418 -8.10361004 62.97095577 -7.02490234 61.89160156 C-5.38047137 60.25594088 -3.70669097 58.65497439 -2.02929688 57.05322266 C4.44467571 50.98509384 4.44467571 50.98509384 7.72460938 42.97900391 C7.50741553 34.87347555 0.12088045 29.44554323 -5.25195312 24.12744141 C-6.01121094 23.36044922 -6.77046875 22.59345703 -7.55273438 21.80322266 C-8.28878906 21.06974609 -9.02484375 20.33626953 -9.78320312 19.58056641 C-10.7819043 18.58524902 -10.7819043 18.58524902 -11.80078125 17.56982422 C-14.63160226 15.11446245 -16.85056066 13.99762707 -20.56445312 13.50244141 C-29.1465778 14.51210313 -34.76192299 21.46401424 -40.50195312 27.31494141 Z M73.78320312 72.56103516 C73.10503036 73.2505275 72.4268576 73.94001984 71.72813416 74.65040588 C69.56942973 76.85384223 67.44020169 79.08345129 65.31054688 81.31494141 C63.85081792 82.81480036 62.38924896 84.31287089 60.92578125 85.80908203 C57.34486619 89.47813503 53.79013842 93.1709103 50.24804688 96.87744141 C51.8401788 100.25945273 53.59593555 102.41099757 56.31054688 105.00244141 C61.14638359 109.63714929 61.14638359 109.63714929 61.56054688 114.68994141 C61.50403524 117.79808146 61.20321176 118.96173141 59.68554688 121.81494141 C56.45805728 124.54589414 54.45509997 124.87744141 50.24804688 124.87744141 C43.89523369 122.94397652 39.68465287 117.58024376 35.24804688 112.87744141 C28.84471181 118.13931239 22.96992958 123.90171484 17.09375 129.73657227 C15.94028533 130.87841719 14.78234241 132.01575485 13.62011719 133.14868164 C11.9263423 134.79989818 10.24611101 136.46387131 8.56835938 138.13134766 C7.78877365 138.88467125 7.78877365 138.88467125 6.99343872 139.6532135 C4.11056272 142.55373951 2.26238507 144.68764612 2.24804688 148.87744141 C3.13996574 150.71581433 3.13996574 150.71581433 4.79882812 152.29150391 C5.44803223 152.97760742 6.09723633 153.66371094 6.76611328 154.37060547 C7.58515137 155.19786133 8.40418945 156.02511719 9.24804688 156.87744141 C10.29587568 157.95478831 11.34320164 159.03262442 12.39013672 160.11083984 C15.41141785 163.20720607 18.46005599 166.27514673 21.51928711 169.33398438 C23.44674379 171.26365116 25.36602795 173.20121448 27.28515625 175.13916016 C28.5157869 176.37272124 29.74688988 177.60581135 30.97851562 178.83837891 C31.83330757 179.70394913 31.83330757 179.70394913 32.70536804 180.58700562 C36.55697107 184.4165698 39.13982071 186.55309892 44.49804688 187.37744141 C52.90131234 186.25700601 59.0223984 178.32444544 64.66601562 172.47900391 C66.26648482 170.84836138 67.86741081 169.21816709 69.46875 167.58837891 C71.95091519 165.0506739 74.4289348 162.50926779 76.89868164 159.95947266 C96.4534566 139.80917035 115.91040485 127.76505586 144.75585938 126.88134766 C165.17510609 126.64148038 184.17343371 134.2074511 199.24804688 147.87744141 C214.43319764 162.84604813 221.14610903 182.78820318 221.62304688 203.81494141 C221.34209042 216.27474946 219.15810153 227.86875946 214.23632812 239.33837891 C213.06668538 241.88928706 213.06668538 241.88928706 213.24804688 244.87744141 C215.24876005 246.29839544 215.24876005 246.29839544 217.81054688 247.56494141 C224.95519536 251.63314068 229.10015349 256.89151571 233.24804688 263.87744141 C233.90804687 263.87744141 234.56804687 263.87744141 235.24804688 263.87744141 C248.59775459 238.13982047 253.63393065 205.97444328 244.88964844 177.85693359 C244.57205566 176.87708496 244.57205566 176.87708496 244.24804688 175.87744141 C244.03374023 175.19584961 243.81943359 174.51425781 243.59863281 173.81201172 C235.08822644 147.38887227 217.09017589 125.68877344 192.3046875 112.87255859 C179.11300028 106.39391655 164.68874652 101.56260199 149.87304688 101.92041016 C148.46160245 101.94278959 147.05014314 101.96424595 145.63867188 101.98486328 C143.43968738 102.02195518 141.24147748 102.06511815 139.04296875 102.12426758 C136.90288299 102.17901285 134.76366025 102.20790519 132.62304688 102.23291016 C131.35203125 102.26022217 130.08101563 102.28753418 128.77148438 102.31567383 C121.42528259 101.4019798 117.00051362 95.84148804 112.12695312 90.74072266 C110.76621243 89.34496743 109.40486591 87.94980262 108.04296875 86.55517578 C105.91888422 84.36908855 103.7998277 82.17875301 101.69116211 79.9777832 C99.64162076 77.84346938 97.5735486 75.72860707 95.50195312 73.61572266 C94.87881729 72.955345 94.25568146 72.29496735 93.61366272 71.61457825 C90.73033357 68.69809099 88.63636846 67.02654907 84.76123047 65.53857422 C79.50144563 66.04591135 77.29807615 68.82008804 73.78320312 72.56103516 Z M-132.50195312 119.31494141 C-133.24316406 120.04003906 -133.984375 120.76513672 -134.74804688 121.51220703 C-142.15257214 128.90850048 -142.15257214 128.90850048 -145.06445312 138.68994141 C-143.90035181 144.73162721 -138.93941417 148.70878632 -134.75195312 152.87744141 C-133.89085937 153.78623047 -133.02976562 154.69501953 -132.14257812 155.63134766 C-125.06385232 163.24997904 -125.06385232 163.24997904 -115.37695312 166.00244141 C-106.77256005 163.33211252 -100.0502478 154.35842079 -93.81445312 148.12744141 C-92.95271484 147.27794922 -92.09097656 146.42845703 -91.203125 145.55322266 C-90.38521484 144.73724609 -89.56730469 143.92126953 -88.72460938 143.08056641 C-87.98476807 142.34483398 -87.24492676 141.60910156 -86.48266602 140.85107422 C-84.09090334 138.12360779 -83.77201875 136.09415011 -83.43945312 132.50244141 C-83.80015128 128.31834275 -84.87703775 126.84219789 -87.75195312 123.87744141 C-88.51378906 124.69148438 -88.51378906 124.69148438 -89.29101562 125.52197266 C-98.20772975 134.78934408 -98.20772975 134.78934408 -103.79492188 134.92822266 C-106.69423542 134.690574 -109.08360815 134.39431567 -111.42382812 132.58447266 C-113.92609989 129.36831748 -114.18424293 125.85192678 -113.75195312 121.87744141 C-112.17715509 118.80575053 -110.07118546 116.41476669 -107.75195312 113.87744141 C-106.78955269 112.71412748 -105.83077869 111.54779634 -104.87695312 110.37744141 C-103.82507813 109.13994141 -103.82507813 109.13994141 -102.75195312 107.87744141 C-106.24962428 105.25418804 -109.24750345 104.2163478 -113.66430664 104.40429688 C-121.02726203 106.07303826 -127.38203878 114.1722921 -132.50195312 119.31494141 Z M-175.75195312 222.87744141 C-176.73259094 225.81935486 -176.82060761 227.42399955 -176.6875 230.4621582 C-176.49079459 235.69524248 -176.3895949 240.92362101 -176.32080078 246.15991211 C-176.27535724 248.40743383 -176.20138345 250.65458238 -176.09716797 252.90014648 C-175.22589134 272.59128966 -175.22589134 272.59128966 -181.46069336 279.83056641 C-184.98153018 283.33823091 -188.78125695 286.37891723 -192.77250671 289.33129883 C-201.41265747 296.08010743 -206.73734469 306.34417482 -211.75195312 315.87744141 C-212.46158203 317.16328125 -212.46158203 317.16328125 -213.18554688 318.47509766 C-223.85028944 339.43912432 -225.75408716 367.75627211 -219.01367188 390.16259766 C-214.04283043 404.79810916 -207.77925842 417.97133575 -197.75195312 429.87744141 C-197.10871094 430.66634766 -196.46546875 431.45525391 -195.80273438 432.26806641 C-187.00009131 442.61646011 -176.69990822 450.15415449 -164.75195312 456.50244141 C-163.95096191 456.92847656 -163.1499707 457.35451172 -162.32470703 457.79345703 C-158.13172692 459.93357805 -154.51008245 461.43517939 -149.75195312 461.87744141 C-149.71457031 461.06662109 -149.6771875 460.25580078 -149.63867188 459.42041016 C-149.19130841 451.88540584 -148.043374 445.06875598 -145.75195312 437.87744141 C-146.85152344 437.33216797 -147.95109375 436.78689453 -149.08398438 436.22509766 C-170.47827844 425.40792143 -184.79668713 410.78770082 -193.09960938 388.21337891 C-199.69415423 367.6497444 -198.08617104 345.37354187 -188.75195312 325.87744141 C-184.81771663 318.79506706 -180.49742291 312.62291119 -174.75195312 306.87744141 C-174.75195312 306.21744141 -174.75195312 305.55744141 -174.75195312 304.87744141 C-174.15125 304.60158203 -173.55054688 304.32572266 -172.93164062 304.04150391 C-170.48374732 302.84947264 -170.48374732 302.84947264 -167.87695312 300.25244141 C-150.24760597 284.91115846 -128.10120117 281.8098772 -105.58789062 281.63916016 C-104.41747223 281.63021729 -103.24705383 281.62127441 -102.04116821 281.61206055 C-97.15967478 281.58257938 -92.27855892 281.56275548 -87.39697266 281.57202148 C-83.79346859 281.57463444 -80.19122591 281.5466171 -76.58789062 281.51416016 C-75.48786713 281.52436691 -74.38784363 281.53457367 -73.25448608 281.54508972 C-66.68993587 281.50906187 -66.68993587 281.50906187 -61.07470703 278.46264648 C-57.98490714 275.02372583 -57.6252655 273.51884682 -57.59082031 269.01635742 C-57.58121277 268.00513321 -57.57160522 266.993909 -57.56170654 265.95204163 C-57.55745667 264.85621262 -57.55320679 263.76038361 -57.54882812 262.63134766 C-57.54312805 261.50929428 -57.53742798 260.38724091 -57.53155518 259.23118591 C-57.52209724 256.85473578 -57.51556806 254.47827248 -57.51171875 252.10180664 C-57.50200242 248.45842764 -57.47098146 244.81561004 -57.43945312 241.17236328 C-57.43292439 238.8670281 -57.42767341 236.56168887 -57.42382812 234.25634766 C-57.40530792 232.61564049 -57.40530792 232.61564049 -57.38641357 230.94178772 C-57.39091522 229.42022316 -57.39091522 229.42022316 -57.39550781 227.86791992 C-57.39186218 226.97460464 -57.38821655 226.08128937 -57.38446045 225.16090393 C-57.59048198 222.83646577 -57.59048198 222.83646577 -58.98902893 221.08682251 C-61.24826321 219.53696844 -62.58632504 219.51443624 -65.31518555 219.53686523 C-66.23591354 219.53709183 -67.15664154 219.53731842 -68.10527039 219.53755188 C-69.09598038 219.55303574 -70.08669037 219.56851959 -71.10742188 219.58447266 C-72.1241951 219.5887175 -73.14096832 219.59296234 -74.18855286 219.59733582 C-77.43912124 219.61414143 -80.68907182 219.65179759 -83.93945312 219.68994141 C-86.14191814 219.70498579 -88.34439285 219.71867462 -90.546875 219.73095703 C-95.94877884 219.76405105 -101.35032185 219.81426918 -106.75195312 219.87744141 C-106.76129883 220.46235352 -106.77064453 221.04726562 -106.78027344 221.64990234 C-106.83408592 224.3099272 -106.91770762 226.96821363 -107.00195312 229.62744141 C-107.01613281 230.54783203 -107.0303125 231.46822266 -107.04492188 232.41650391 C-107.29293573 239.26168637 -107.29293573 239.26168637 -109.67382812 242.45556641 C-113.24271494 244.89743633 -115.40672215 245.21824384 -119.75195312 244.87744141 C-123.1252688 243.49744863 -124.41805755 242.66363525 -125.85351562 239.28369141 C-126.90093002 235.31262467 -127.19957273 231.58958129 -127.37695312 227.50244141 C-127.415625 226.76638672 -127.45429687 226.03033203 -127.49414062 225.27197266 C-127.58753311 223.47416735 -127.67079023 221.67584032 -127.75195312 219.87744141 C-134.1056351 219.80146392 -140.45920021 219.74887244 -146.81323242 219.71264648 C-148.97538633 219.69754696 -151.13750955 219.6770657 -153.29956055 219.65112305 C-156.40486213 219.61479123 -159.50975927 219.59772678 -162.61523438 219.58447266 C-164.06848869 219.56124687 -164.06848869 219.56124687 -165.55110168 219.53755188 C-166.45180893 219.53732529 -167.35251617 219.53709869 -168.28051758 219.53686523 C-169.46965508 219.52687248 -169.46965508 219.52687248 -170.68281555 219.51667786 C-173.30366571 219.97363501 -174.14540427 220.79109646 -175.75195312 222.87744141 Z M-42.75195312 288.87744141 C-43.16445312 289.33634766 -43.57695312 289.79525391 -44.00195312 290.26806641 C-48.20838727 294.73740269 -52.1547779 297.44238167 -57.75195312 299.87744141 C-59.08853611 300.53756878 -60.42277139 301.20253538 -61.75195312 301.87744141 C-60.89895545 303.02414524 -60.04445445 304.16973075 -59.18945312 305.31494141 C-58.36380859 306.42675781 -58.36380859 306.42675781 -57.52148438 307.56103516 C-56.4082569 309.01830645 -55.26344418 310.45249273 -54.07617188 311.85009766 C-39.84176629 328.83321604 -34.90863662 350.0989983 -36.75195312 371.87744141 C-39.3706816 391.73948968 -48.98197711 411.81836023 -64.90820312 424.43603516 C-80.01197537 435.91064748 -96.78880166 441.85511351 -115.67456055 443.01904297 C-120.58370731 443.40407409 -123.2555343 444.39429173 -126.75195312 447.87744141 C-129.27209057 451.35763121 -129.11989207 454.68293744 -128.75195312 458.87744141 C-126.83507952 463.45663945 -124.21598843 465.76289837 -119.75195312 467.87744141 C-98.12880593 470.96646243 -73.237048 460.92479501 -55.80664062 448.83447266 C-53.37484226 446.92486297 -51.05836711 444.93602581 -48.75195312 442.87744141 C-47.93597656 442.20326172 -47.12 441.52908203 -46.27929688 440.83447266 C-27.22069257 424.66264304 -14.89002926 400.58598262 -11.75195312 375.87744141 C-11.46772754 371.45641993 -11.41747788 367.05670931 -11.43945312 362.62744141 C-11.44509277 361.43594482 -11.45073242 360.24444824 -11.45654297 359.0168457 C-11.76995464 336.26036542 -19.49862809 315.20485038 -33.43945312 297.18994141 C-33.90311279 296.58907715 -34.36677246 295.98821289 -34.84448242 295.36914062 C-37.19989819 292.43345418 -39.16263412 290.1803558 -42.75195312 288.87744141 Z M-160.75195312 321.87744141 C-161.31011719 322.41626953 -161.86828125 322.95509766 -162.44335938 323.51025391 C-172.21751379 333.6672081 -176.77716709 348.62385463 -177.12695312 362.37744141 C-176.73891137 377.07825396 -171.27908455 393.31887926 -160.77929688 404.08056641 C-145.19812402 417.89046913 -129.68378316 422.99140772 -109.19189453 422.06396484 C-97.94487817 421.20417692 -88.84243846 416.20739801 -79.75195312 409.87744141 C-78.67945313 409.13494141 -77.60695313 408.39244141 -76.50195312 407.62744141 C-64.12880324 395.25429152 -56.86318556 380.1060884 -56.31445312 362.56494141 C-56.72168781 345.26632039 -63.66233545 330.13018736 -75.75195312 317.87744141 C-101.76297276 296.15098661 -137.27764752 297.27672958 -160.75195312 321.87744141 Z " fill="#FFFFFF" transform="translate(242.751953125,15.12255859375)"/>
<path d="M0 0 C3.51038651 2.59463351 4.77811815 4.23728114 6 8.4375 C6 12.55333147 5.29147823 14.60229091 3 18 C0.04881112 20.40467242 -3.29107729 20.41186021 -7.03125 20.328125 C-10.14316604 19.80947233 -11.85067869 18.21445226 -14 16 C-15.61540873 12.76918255 -15.5896275 9.49240902 -15 6 C-11.37660818 -0.53329722 -7.05387839 -1.7026603 0 0 Z " fill="#FFFFFF" transform="translate(460,419)"/>
</svg>
