<?xml version="1.0" encoding="UTF-8"?>
<svg version="1.1" xmlns="http://www.w3.org/2000/svg" width="512" height="512">
<path d="M0 0 C10.00927842 7.90426304 17.75706143 16.86001432 24.1171875 27.90234375 C24.56835938 28.67964844 25.01953125 29.45695312 25.484375 30.2578125 C28.22912509 35.34668146 30.12576617 40.59509832 31.8671875 46.08984375 C32.07811035 46.7552417 32.2890332 47.42063965 32.50634766 48.10620117 C39.53471527 71.29866117 35.29171489 96.81213856 24.1171875 117.90234375 C18.30740571 127.76421353 10.19219652 135.88526162 2.1171875 143.90234375 C3.19355469 144.50820313 4.26992187 145.1140625 5.37890625 145.73828125 C15.44236605 151.48304677 25.79621774 157.46211041 33.98046875 165.80078125 C37.42233487 167.57519852 40.47032786 166.11471948 43.9921875 165.08984375 C64.35934882 159.92149303 84.42733024 162.20930073 102.96484375 172.01953125 C107.35928934 174.6442187 111.20890676 177.60052037 115.1171875 180.90234375 C119.4071875 178.92234375 123.6971875 176.94234375 128.1171875 174.90234375 C124.99410964 171.15465031 121.88036775 167.65755909 118.3046875 164.33984375 C103.3437199 149.55084129 95.14004082 127.28421775 94.87573242 106.55200195 C94.80296721 79.73074323 103.20659281 56.23200979 122.1171875 36.90234375 C139.95749147 19.9015835 163.32053032 11.30131206 187.80493164 11.54882812 C208.58611959 12.21988482 228.20191255 19.52552664 244.1171875 32.90234375 C245.22707031 33.79373047 245.22707031 33.79373047 246.359375 34.703125 C263.01349247 48.61997403 273.19301385 69.62898042 276.1171875 90.90234375 C276.39771654 94.84496775 276.45171029 98.76318936 276.4296875 102.71484375 C276.42477295 103.76583252 276.4198584 104.81682129 276.41479492 105.8996582 C276.01515315 132.48300881 263.85981042 153.6680563 245.2421875 171.84765625 C244.5409375 172.52570313 243.8396875 173.20375 243.1171875 173.90234375 C246.09352009 176.32299276 249.23417692 178.10420034 252.59863281 179.90771484 C260.519352 184.16914354 267.39304462 188.88548109 274.1171875 194.90234375 C275.08011719 195.7221875 276.04304688 196.54203125 277.03515625 197.38671875 C302.12849231 219.08157441 316.47308067 249.39359595 321.1171875 281.90234375 C321.1171875 317.21234375 321.1171875 352.52234375 321.1171875 388.90234375 C152.1571875 388.90234375 -16.8028125 388.90234375 -190.8828125 388.90234375 C-190.8828125 214.88440653 -190.8828125 214.88440653 -153.8828125 173.90234375 C-153.21636719 173.16371094 -152.54992187 172.42507813 -151.86328125 171.6640625 C-141.96233804 161.26286111 -130.00265633 153.86938649 -117.57763672 146.88867188 C-115.97462375 145.95577467 -114.42602419 144.93115154 -112.8828125 143.90234375 C-113.78902344 143.05414063 -114.69523437 142.2059375 -115.62890625 141.33203125 C-134.24776133 123.55297051 -145.6250415 101.75979863 -146.35522461 75.65625 C-146.58488473 48.56854976 -137.54629387 26.06656412 -118.54296875 6.4921875 C-85.82432786 -24.42348129 -35.87181435 -26.10184866 0 0 Z M-99.99609375 32.14453125 C-112.54278042 46.93591704 -116.29013651 62.97878508 -114.8828125 81.90234375 C-114.34538014 85.83867262 -113.38512832 89.2300162 -111.8828125 92.90234375 C-111.43035156 94.00835937 -110.97789063 95.114375 -110.51171875 96.25390625 C-103.05865311 112.66137449 -90.81143271 123.31807353 -73.98046875 129.8984375 C-57.73245274 135.16418796 -41.4624886 132.85661984 -26.3203125 125.33984375 C-11.1693145 116.53678214 -2.18231271 103.4140097 3.1171875 86.90234375 C6.27534567 74.95364341 4.81231602 61.13986446 0.1171875 49.90234375 C-0.42615234 48.58363281 -0.42615234 48.58363281 -0.98046875 47.23828125 C-8.27130258 31.2725909 -21.66724727 20.97289165 -37.8828125 14.90234375 C-59.56186801 7.93407591 -84.61790003 15.82829614 -99.99609375 32.14453125 Z M142.1171875 61.90234375 C141.47910156 62.505625 140.84101563 63.10890625 140.18359375 63.73046875 C129.45800812 74.71881928 125.7110729 89.88734141 125.82397461 104.75463867 C125.9545478 111.21020203 126.65464005 116.88278333 129.1171875 122.90234375 C129.56964844 124.00835937 130.02210938 125.114375 130.48828125 126.25390625 C137.24405407 141.12632698 148.28398021 152.47675081 163.5546875 158.71484375 C179.86716138 164.54209646 195.63212731 164.10663778 211.6796875 157.19140625 C228.359695 148.37024844 238.4154861 134.66714894 244.1171875 116.90234375 C248.18667585 101.50568083 244.68638993 85.05347473 236.8828125 71.53515625 C233.75804383 66.87565606 230.06919782 62.8683683 226.1171875 58.90234375 C225.57578125 58.33773437 225.034375 57.773125 224.4765625 57.19140625 C214.33692777 47.51266401 199.50386546 43.00471283 185.8046875 42.46484375 C168.43356423 42.94795842 154.35832049 49.72420115 142.1171875 61.90234375 Z M-86.8828125 167.90234375 C-87.5310498 168.11133301 -88.17928711 168.32032227 -88.84716797 168.53564453 C-115.64142399 177.54807381 -136.79945579 196.82510039 -149.875 221.6796875 C-160.60171212 243.35254496 -161.04685824 266.2955095 -160.98046875 289.95703125 C-160.9789945 291.72989877 -160.97797677 293.50276672 -160.97741699 295.27563477 C-160.97222013 301.77621116 -160.9582591 308.27677817 -160.9453125 314.77734375 C-160.9246875 329.33859375 -160.9040625 343.89984375 -160.8828125 358.90234375 C-116.0028125 358.90234375 -71.1228125 358.90234375 -24.8828125 358.90234375 C-23.84851393 355.79944805 -22.81987868 352.69378401 -21.875 349.5625 C-17.41582885 335.20272156 -11.07440814 323.09456878 -0.8828125 311.90234375 C-0.00496094 310.92007813 -0.00496094 310.92007813 0.890625 309.91796875 C5.40263208 305.13058095 10.64846876 301.52248151 16.1171875 297.90234375 C14.80588964 294.95033988 13.47416132 293.14366837 11.0546875 291.02734375 C-2.970548 277.35347114 -9.70892048 257.66129436 -10.2578125 238.40234375 C-9.68581921 218.33283993 -2.18767571 201.52341123 10.1171875 185.90234375 C-18.15339873 165.71487054 -52.87744638 156.93693659 -86.8828125 167.90234375 Z M28.87109375 211.44921875 C22.37771601 220.53127047 18.97912686 231.75290589 20.1171875 242.90234375 C22.48098204 256.69730096 28.88598006 267.87604455 40.3046875 276.21484375 C51.10144327 282.85189054 63.13574078 284.5598195 75.50390625 282.27734375 C87.49060068 279.09980582 97.50034119 271.84554439 103.73828125 261.11328125 C110.21429498 248.84457418 111.76975832 238.24177208 108.08203125 224.81640625 C104.30605232 213.41203265 96.19758545 203.79917449 85.62890625 198.0859375 C65.19865528 188.45861861 43.24269691 194.37749621 28.87109375 211.44921875 Z M134.1171875 206.90234375 C134.38273437 207.7015625 134.64828125 208.50078125 134.921875 209.32421875 C141.8911447 230.99508658 142.18846296 252.43248464 132.140625 273.16796875 C127.89801383 281.31813788 122.11274971 288.41659316 115.33203125 294.59765625 C113.8900345 295.84917752 113.8900345 295.84917752 114.1171875 297.90234375 C115.90376983 299.33756488 117.74895082 300.70015581 119.6171875 302.02734375 C137.72330985 315.28906304 148.2541207 333.47746317 153.390625 355.05078125 C153.8285869 357.78395165 153.8285869 357.78395165 155.1171875 358.90234375 C156.8761218 358.9986642 158.63895909 359.02421885 160.40052795 359.02259827 C162.11907738 359.02466026 162.11907738 359.02466026 163.87234497 359.02676392 C165.14045013 359.02316864 166.4085553 359.01957336 167.71508789 359.01586914 C169.05511981 359.01558727 170.39515189 359.015745 171.73518372 359.01631165 C175.38378188 359.01659962 179.03234745 359.01070295 182.68093801 359.00373769 C186.48996266 358.99750409 190.298988 358.99690035 194.10801697 358.99571228 C201.32576504 358.99259898 208.54349804 358.98438561 215.76123947 358.97436279 C223.97634007 358.96320161 232.19144138 358.95769119 240.40654767 358.95266736 C257.31010301 358.942203 274.21364366 358.92460358 291.1171875 358.90234375 C291.16414198 351.42476278 291.19936946 343.94719764 291.22081184 336.4695015 C291.23111843 332.99491307 291.24502741 329.52042762 291.26806641 326.04589844 C291.51415428 287.8842228 288.74267736 254.71653799 261.1171875 225.90234375 C260.07111328 224.76152344 260.07111328 224.76152344 259.00390625 223.59765625 C242.09402974 205.72945036 216.72001452 194.37948737 192.1015625 193.6015625 C190.02352326 193.58228325 187.94528656 193.57874984 185.8671875 193.58984375 C184.77108154 193.5947583 183.67497559 193.59967285 182.5456543 193.60473633 C165.17984487 193.85470553 149.38748796 198.63386308 134.1171875 206.90234375 Z M18.12109375 336.3125 C13.08068607 343.15227903 9.18196807 350.64322148 7.1171875 358.90234375 C45.3971875 358.90234375 83.6771875 358.90234375 123.1171875 358.90234375 C116.4419753 340.5455102 107.53002805 327.80890542 89.8046875 319.15234375 C64.33016643 308.28082278 35.90728308 314.8368076 18.12109375 336.3125 Z " fill="#FFFFFF" transform="translate(190.8828125,123.09765625)"/>
<path d="M0 0 C0.87672363 0.00016113 1.75344727 0.00032227 2.65673828 0.00048828 C9.78318621 0.12532925 15.69095409 1.57565642 22.25 4.375 C26.19807214 6.13130854 26.19807214 6.13130854 30.3046875 5.765625 C30.90539062 5.38921875 31.50609375 5.0128125 32.125 4.625 C38.96819457 0.41836091 46.30822753 0.01048231 54.125 0.0625 C55.01050537 0.06813965 55.89601074 0.0737793 56.80834961 0.07958984 C69.7313874 0.32020683 81.9697665 5.0947665 91.25 14.375 C101.6039993 26.89467644 107.32202766 39.97610222 105.91943359 56.44970703 C102.99786724 82.27635356 83.30467104 101.45641023 64.25 117.375 C58.41928301 121.94351197 52.34724659 126.17287772 46.25 130.375 C45.46206055 130.92381836 44.67412109 131.47263672 43.86230469 132.03808594 C41.5665657 133.62817133 39.2560137 135.19335957 36.9375 136.75 C35.88912964 137.47413086 35.88912964 137.47413086 34.81958008 138.21289062 C30.02889345 141.35939813 30.02889345 141.35939813 26.71484375 141.42578125 C23.31719575 139.9773386 20.22686408 138.17344956 17.125 136.1875 C16.43631836 135.75042725 15.74763672 135.31335449 15.03808594 134.86303711 C2.5069641 126.78273021 -9.53459732 118.01018216 -20.3046875 107.6796875 C-22.71650396 105.34257247 -22.71650396 105.34257247 -25.359375 103.296875 C-38.0551929 93.09043316 -48.48556372 75.54160125 -51.234375 59.55859375 C-52.74448454 43.94672603 -49.17400671 29.52240708 -39.3203125 17.1640625 C-28.69769375 5.63739109 -15.47133665 -0.02673105 0 0 Z M38.5625 38.1875 C34.83212717 41.72617311 31.36835907 45.28887433 28.25 49.375 C23.51508081 47.5786138 20.7508232 43.64467866 17.58007812 39.89453125 C13.52086662 35.2669153 9.44594973 31.92939944 3.1875 30.84375 C-5.33213758 30.93438444 -9.9812056 32.33120496 -16.0625 38.5 C-19.42008986 42.73309044 -20.62095707 47.00358824 -20.75 52.375 C-18.52584919 70.00139516 -2.03689182 83.6445527 11.12548828 93.90869141 C14.46244363 96.45468621 17.82147435 98.95373567 21.25 101.375 C22.57644531 102.35726562 22.57644531 102.35726562 23.9296875 103.359375 C26.21456344 104.63207929 26.21456344 104.63207929 28.65625 103.8359375 C31.81632692 102.05601466 34.80855524 100.11551576 37.75 98 C38.35658447 97.56518311 38.96316895 97.13036621 39.58813477 96.68237305 C46.29893172 91.76251297 52.27311894 86.1463487 58.25 80.375 C58.94996094 79.73820312 59.64992188 79.10140625 60.37109375 78.4453125 C66.9171222 72.35123702 73.52219974 63.58669061 74.5859375 54.5078125 C74.68737082 46.69744708 73.93675067 42.69290636 68.8125 36.69140625 C58.95318512 26.80839109 47.8517148 29.96487061 38.5625 38.1875 Z " fill="#FFFFFF" transform="translate(228.75,-0.375)"/>
</svg>
