<?xml version="1.0" encoding="UTF-8"?>
<!DOCTYPE svg PUBLIC "-//W3C//DTD SVG 1.1//EN" "http://www.w3.org/Graphics/SVG/1.1/DTD/svg11.dtd">
<!-- Creator: CorelDRAW 2020 (64 Bit) -->
<svg xmlns="http://www.w3.org/2000/svg" xml:space="preserve" width="42.3332mm" height="42.3332mm" version="1.1" style="shape-rendering:geometricPrecision; text-rendering:geometricPrecision; image-rendering:optimizeQuality; fill-rule:evenodd; clip-rule:evenodd"
viewBox="0 0 4233.32 4233.32"
 xmlns:xlink="http://www.w3.org/1999/xlink"
 xmlns:xodm="http://www.corel.com/coreldraw/odm/2003">
 <defs>
  <style type="text/css">
   <![CDATA[
    .fil0 {fill:#ffffff}
   ]]>
  </style>
 </defs>
 <g id="Camada_x0020_1">
  <metadata id="CorelCorpID_0Corel-Layer"/>
  <g id="_1407864763440">
   <path class="fil0" d="M2142.41 3697.79l955.99 0 0 284.42 -955.99 0 0 -284.42zm-1485.31 -347.63l0 -2559.8c0,-147.2 -8.5,-283.28 44.67,-381.95 50.19,-93.14 134.19,-160.47 247.64,-186.9l0 3018.05c-154.39,0 -224.59,74.77 -292.31,110.6zm908.56 -1311.5c139.72,0 120,21.57 260.78,221.16 43.06,61.03 86.33,100.47 87.35,157.57 0.86,47.93 -21.36,166.42 78.51,166.42 107.67,0 79.01,-179.5 79.01,-292.33l-0.27 -1043.16c-1.4,-84.54 -18.8,-70.83 142.48,-70.83l0 892.77c0,39.41 38.63,71.1 71.11,71.1 103.89,0 79.01,-134.79 79.01,-237.02 0,-136.27 -11.54,-920.74 7.89,-940.17 28.33,-13.59 85.47,-7.9 126.41,-7.9 32.34,138.78 -3.27,850.86 7.46,1098.63 4.92,113.43 158.46,121.01 158.46,-16.24l0 -940.18c91.38,0 92.22,-9.77 142.21,23.7l0 869.08c0,111.17 -24.94,221.21 79.01,221.21 39.04,0 71.1,-32.05 71.1,-71.11l0 -742.65c74,0 142.22,-13.93 142.22,31.59l0 1532.74c0,136.14 -150.12,243.03 -150.12,434.53l0 142.21 -655.75 0c0,-162.23 25.3,-270.16 -92.2,-334.43 -70.47,-38.55 -95.07,-48.92 -163.93,-96.8l-136.95 -115.88c-48.64,-49.08 -82.34,-78.9 -115.24,-145.47 -138.35,-279.86 -198.27,-763.18 -218.55,-808.54zm-1058.68 -1461.62l0 3120.75c0,169.62 117.11,321.62 228.99,379.36 84.94,43.82 116.67,55.33 245.05,55.18l2836.33 7.9c61.94,0 155.65,-43.85 61.36,-156.17 -16.08,-19.14 -35.88,-47.11 -48.25,-70.26 -85.15,-159.27 -66.11,-394.2 48.22,-518.12 25.47,-27.61 41.38,-33.02 41.38,-85.02l0 -1690.74c0,-94.19 -141.71,-112.91 -150.26,-8.04 -7.23,88.47 0.14,930.26 0.14,1043.03 0,69.35 9.31,569.18 -7.02,585.51 -18.67,18.68 -360.18,4.9 -436.07,6.38 -51.48,0.99 -78.35,26.41 -78.35,79.66 0,88.84 101.98,71.11 189.62,71.11 89.54,0 179.08,0 268.62,0 -84.76,160.18 -109.89,277.04 -58.24,453.27 15.12,51.6 36.15,89.62 58.24,131.37l-450.33 0 0 -339.72c0,-112.22 -79.83,-102.71 -150.12,-102.71 0,-251.59 -20.16,-165.85 94.81,-395.03 39.31,-78.36 55.31,-127.18 55.31,-244.92l0 -1422.12c0,-66.37 -10.38,-117.88 -41.59,-155.92 -74.4,-90.68 -130.37,-73.2 -258.64,-73.2 0,-123.21 15.55,-197.75 -86.54,-268.99 -56.71,-39.57 -119.9,-31.23 -213.69,-31.23 -52.62,-225.88 -442.43,-183.61 -442.43,23.7l0 47.41c-118.96,0 -229.54,-6.69 -284.59,118.34 -30.25,68.7 -15.63,220.09 -15.63,316.19 0,218.59 0,437.17 0,655.76 -72.12,-48.29 -89.15,-221.22 -292.33,-221.22 -289.85,0 -245.4,-32.66 -136.34,515.57 25.24,126.84 115.5,475.88 205.55,584.5 44.91,54.17 81.37,89.03 130.27,138.37 58.85,59.39 243.37,196.4 314.06,215.27l0 197.52c-181.86,0 -142.21,4.55 -142.21,442.43l-1034.98 0c-83.24,0 -152.68,-29.78 -195.74,-72.88 -92.95,-93.08 -96.58,-128.41 -96.58,-251.04 0,-78.97 52.42,-157.84 96.98,-195.34 25.35,-21.32 58.01,-38.42 91.41,-50.8 79.16,-29.34 606.22,-14.58 720.18,-14.58 80.87,0 229.34,20.53 260.91,-31.63 18.73,-30.91 14.83,-75.86 -9.81,-100.92 -25.6,-26.01 -83.25,-17.6 -132.59,-17.57 -202.95,0.13 -381.7,-7.89 -584.65,-7.89l0 -3025.95 2520.3 0c87.01,0 133.24,72.2 141.27,151.06l0.94 591.6c0,104.37 -25.82,221.22 79.01,221.22 36.97,0 71.11,-38.8 71.11,-79.01l0 -734.75c0,-41.03 -8.11,-82.49 -21.14,-113.18 -39.66,-93.35 -138.8,-187.05 -239.58,-187.05l-2670.42 0c-234.43,0 -481.94,234.5 -481.94,513.54z"/>
   <path class="fil0" d="M3769.94 1351.3c0,125.61 150.12,95.78 150.12,7.9 0,-96.65 -150.12,-105.01 -150.12,-7.9z"/>
  </g>
 </g>
</svg>
